<svg width="709" height="132" viewBox="0 0 709 132" fill="none" xmlns="http://www.w3.org/2000/svg">
<path d="M30.19 130H-9.9L45.01 2.7H96.12L151.22 130H110.18L79.97 56.47L71.61 35H69.14L60.97 56.47L30.19 130ZM116.45 106.44H22.59V74.33H116.45V106.44ZM241.854 130H156.544V2.7H237.484C246.73 2.7 254.394 3.90333 260.474 6.31C266.554 8.59 271.114 12.01 274.154 16.57C277.194 21.13 278.714 26.7667 278.714 33.48C278.714 41.5867 276.307 48.3 271.494 53.62C266.807 58.94 258.637 61.8533 246.984 62.36V64.26C259.777 64.7667 269.214 67.7433 275.294 73.19C281.5 78.6367 284.604 85.7933 284.604 94.66C284.604 101.753 283.147 107.96 280.234 113.28C277.32 118.6 272.697 122.717 266.364 125.63C260.157 128.543 251.987 130 241.854 130ZM192.074 80.22V97.89H237.294C241.6 97.89 244.514 97.32 246.034 96.18C247.68 94.9133 248.504 92.5067 248.504 88.96C248.504 85.4133 247.744 83.07 246.224 81.93C244.704 80.79 241.727 80.22 237.294 80.22H192.074ZM192.074 34.81V50.96H233.684C237.357 50.96 239.827 50.39 241.094 49.25C242.36 47.9833 242.994 45.8933 242.994 42.98C242.994 40.0667 242.17 37.9767 240.524 36.71C239.004 35.4433 236.407 34.81 232.734 34.81H192.074ZM362.269 131.9C347.575 131.9 334.909 129.24 324.269 123.92C313.755 118.473 305.712 110.873 300.139 101.12C294.565 91.24 291.779 79.65 291.779 66.35C291.779 53.05 294.565 41.5233 300.139 31.77C305.712 21.89 313.755 14.29 324.269 8.97C334.909 3.52333 347.575 0.799999 362.269 0.799999C377.469 0.799999 390.325 3.52333 400.839 8.97C411.479 14.29 419.585 21.89 425.159 31.77C430.732 41.5233 433.519 53.05 433.519 66.35C433.519 79.65 430.732 91.24 425.159 101.12C419.585 110.873 411.479 118.473 400.839 123.92C390.325 129.24 377.469 131.9 362.269 131.9ZM362.269 97.7C370.882 97.7 377.595 96.8767 382.409 95.23C387.222 93.4567 390.579 90.29 392.479 85.73C394.505 81.17 395.519 74.71 395.519 66.35C395.519 57.8633 394.505 51.4033 392.479 46.97C390.579 42.41 387.222 39.3067 382.409 37.66C377.595 35.8867 370.882 35 362.269 35C353.655 35 347.005 35.8867 342.319 37.66C337.632 39.3067 334.339 42.41 332.439 46.97C330.665 51.4033 329.779 57.8633 329.779 66.35C329.779 74.71 330.665 81.17 332.439 85.73C334.339 90.29 337.632 93.4567 342.319 95.23C347.005 96.8767 353.655 97.7 362.269 97.7ZM508.764 131.9C493.944 131.9 481.72 129.683 472.094 125.25C462.594 120.69 455.5 114.293 450.814 106.06C446.127 97.7 443.784 87.8833 443.784 76.61V2.7H479.504V73.76C479.504 79.84 480.264 84.59 481.784 88.01C483.304 91.43 486.154 93.8367 490.334 95.23C494.64 96.6233 500.784 97.32 508.764 97.32C516.87 97.32 523.014 96.6233 527.194 95.23C531.374 93.8367 534.224 91.43 535.744 88.01C537.264 84.59 538.024 79.84 538.024 73.76V2.7H573.744V76.61C573.744 87.8833 571.4 97.7 566.714 106.06C562.027 114.293 554.87 120.69 545.244 125.25C535.744 129.683 523.584 131.9 508.764 131.9ZM663.846 130H628.126V2.7H663.846V130ZM708.686 34.81H583.096V2.7H708.686V34.81Z" fill="url(#paint0_linear_1306_8597)"/>
<defs>
<linearGradient id="paint0_linear_1306_8597" x1="-8" y1="25.3" x2="114.481" y2="348.023" gradientUnits="userSpaceOnUse">
<stop offset="0.0164729" stop-color="#030D42"/>
<stop offset="0.213542" stop-color="#338EDB"/>
<stop offset="1" stop-color="#C2F4FF"/>
</linearGradient>
</defs>
</svg>
