<svg width="152" height="44" viewBox="0 0 152 44" fill="none" xmlns="http://www.w3.org/2000/svg">
<path d="M151.155 38.9255C151.155 41.2704 149.22 43.1697 146.827 43.1697H5.17829C2.78604 43.1697 0.844238 41.2704 0.844238 38.9255V5.07978C0.844238 2.73607 2.78604 0.830078 5.17829 0.830078H146.826C149.22 0.830078 151.154 2.73607 151.154 5.07978L151.155 38.9255Z" fill="black"/>
<path d="M146.37 0.881378C148.977 0.881378 151.098 2.9535 151.098 5.5V38.5C151.098 41.0465 148.977 43.1186 146.37 43.1186H5.62963C3.02311 43.1186 0.902148 41.0465 0.902148 38.5V5.5C0.902148 2.9535 3.02311 0.881378 5.62963 0.881378H146.37ZM146.37 3.8147e-06H5.62963C2.53474 3.8147e-06 0 2.47638 0 5.5V38.5C0 41.5236 2.53474 44 5.62963 44H146.37C149.465 44 152 41.5236 152 38.5V5.5C152 2.47638 149.465 3.8147e-06 146.37 3.8147e-06Z" fill="#A6A6A6"/>
<path d="M33.922 21.7626C33.8893 18.2173 36.8933 16.4925 37.0307 16.4122C35.3294 13.9889 32.6925 13.6578 31.7658 13.6314C29.5511 13.4037 27.4029 14.9261 26.2747 14.9261C25.124 14.9261 23.3867 13.6534 21.5143 13.6908C19.1048 13.7271 16.8507 15.09 15.6144 17.2064C13.0631 21.5217 14.9659 27.8632 17.4103 31.3513C18.633 33.0596 20.0618 34.967 21.932 34.8999C23.7616 34.8262 24.4451 33.7603 26.653 33.7603C28.8407 33.7603 29.4825 34.8999 31.3898 34.857C33.3534 34.8262 34.5897 33.141 35.7696 31.4173C37.1827 29.4593 37.7501 27.531 37.7727 27.432C37.7265 27.4166 33.9592 26.0119 33.922 21.7626Z" fill="white"/>
<path d="M30.319 11.3368C31.3031 10.1345 31.9764 8.49877 31.7895 6.83887C30.3652 6.90047 28.584 7.80137 27.5583 8.97727C26.6508 10.0135 25.8401 11.7119 26.0495 13.3091C27.6495 13.4257 29.2922 12.5204 30.319 11.3368Z" fill="white"/>
<path d="M55.2265 11.0096C55.2265 12.3043 54.8291 13.2789 54.0353 13.9334C53.3001 14.5373 52.2552 14.8398 50.9018 14.8398C50.2308 14.8398 49.6566 14.8112 49.1758 14.754V7.67987C49.8029 7.58087 50.4785 7.53027 51.2081 7.53027C52.4973 7.53027 53.4689 7.80417 54.1242 8.35197C54.8583 8.97127 55.2265 9.85677 55.2265 11.0096ZM53.9824 11.0415C53.9824 10.2022 53.7549 9.55867 53.3001 9.10987C52.8452 8.66217 52.1809 8.43777 51.306 8.43777C50.9345 8.43777 50.6181 8.46197 50.3558 8.51257V13.8905C50.501 13.9125 50.7667 13.9224 51.1529 13.9224C52.0559 13.9224 52.7529 13.6771 53.2438 13.1865C53.7347 12.6959 53.9824 11.9809 53.9824 11.0415Z" fill="white"/>
<path d="M61.8234 12.1408C61.8234 12.9383 61.5903 13.5917 61.1242 14.1042C60.6355 14.6311 59.9881 14.8941 59.1797 14.8941C58.4006 14.8941 57.7802 14.6422 57.3174 14.1362C56.8558 13.6313 56.625 12.9944 56.625 12.2266C56.625 11.4236 56.8626 10.7647 57.34 10.2532C57.8174 9.74165 58.4591 9.48535 59.2675 9.48535C60.0467 9.48535 60.6727 9.73725 61.1467 10.2422C61.5971 10.7328 61.8234 11.3664 61.8234 12.1408ZM60.5995 12.1782C60.5995 11.6997 60.4937 11.2894 60.2831 10.9473C60.0354 10.5337 59.683 10.3269 59.2248 10.3269C58.7508 10.3269 58.3905 10.5337 58.1427 10.9473C57.9311 11.2894 57.8264 11.7063 57.8264 12.1991C57.8264 12.6776 57.9322 13.0879 58.1427 13.43C58.3983 13.8436 58.7541 14.0504 59.2135 14.0504C59.6639 14.0504 60.0174 13.8403 60.2719 13.419C60.4903 13.0703 60.5995 12.6567 60.5995 12.1782Z" fill="white"/>
<path d="M70.6686 9.59082L69.0078 14.7762H67.927L67.239 12.5245C67.0645 11.9624 66.9226 11.4036 66.8123 10.8492H66.7909C66.6884 11.419 66.5466 11.9767 66.3642 12.5245L65.6334 14.7762H64.5402L62.9785 9.59082H64.1911L64.7913 12.0559C64.9365 12.6389 65.0558 13.1944 65.1516 13.7202H65.1729C65.2608 13.2868 65.406 12.7346 65.6109 12.0669L66.3642 9.59192H67.3257L68.0474 12.0141C68.2219 12.6048 68.3638 13.1735 68.473 13.7213H68.5057C68.5856 13.1878 68.7061 12.6191 68.866 12.0141L69.51 9.59192H70.6686V9.59082Z" fill="white"/>
<path d="M76.7856 14.7762H75.6056V11.8062C75.6056 10.891 75.2499 10.4334 74.536 10.4334C74.1859 10.4334 73.9033 10.5588 73.6837 10.8107C73.4664 11.0626 73.3561 11.3596 73.3561 11.6995V14.7751H72.1761V11.0725C72.1761 10.6171 72.1614 10.1232 72.1333 9.58863H73.1703L73.2254 10.3993H73.2581C73.3955 10.1474 73.6004 9.93953 73.8695 9.77343C74.1892 9.57983 74.5473 9.48193 74.9391 9.48193C75.4345 9.48193 75.8466 9.63813 76.1742 9.95163C76.5818 10.3355 76.7856 10.9086 76.7856 11.6698V14.7762Z" fill="white"/>
<path d="M80.0397 14.7761H78.8608V7.21143H80.0397V14.7761Z" fill="white"/>
<path d="M86.9865 12.1408C86.9865 12.9383 86.7534 13.5917 86.2873 14.1042C85.7986 14.6311 85.1501 14.8941 84.3428 14.8941C83.5625 14.8941 82.9422 14.6422 82.4805 14.1362C82.0189 13.6313 81.7881 12.9944 81.7881 12.2266C81.7881 11.4236 82.0257 10.7647 82.5031 10.2532C82.9804 9.74165 83.6222 9.48535 84.4295 9.48535C85.2098 9.48535 85.8347 9.73725 86.3098 10.2422C86.7602 10.7328 86.9865 11.3664 86.9865 12.1408ZM85.7615 12.1782C85.7615 11.6997 85.6556 11.2894 85.4451 10.9473C85.1985 10.5337 84.845 10.3269 84.3878 10.3269C83.9127 10.3269 83.5524 10.5337 83.3058 10.9473C83.0942 11.2894 82.9894 11.7063 82.9894 12.1991C82.9894 12.6776 83.0953 13.0879 83.3058 13.43C83.5614 13.8436 83.9172 14.0504 84.3766 14.0504C84.827 14.0504 85.1794 13.8403 85.4338 13.419C85.6534 13.0703 85.7615 12.6567 85.7615 12.1782Z" fill="white"/>
<path d="M92.6972 14.7764H91.6377L91.5499 14.1791H91.5172C91.1547 14.6554 90.6379 14.8941 89.9668 14.8941C89.4658 14.8941 89.0604 14.7368 88.7553 14.4244C88.4783 14.1406 88.3398 13.7875 88.3398 13.3684C88.3398 12.7348 88.6101 12.2519 89.1539 11.9175C89.6966 11.5831 90.46 11.4192 91.4429 11.4269V11.3301C91.4429 10.647 91.0758 10.306 90.3406 10.306C89.8171 10.306 89.3554 10.4347 88.9569 10.6899L88.717 9.93305C89.2102 9.63495 89.8193 9.48535 90.5377 9.48535C91.9248 9.48535 92.6206 10.2004 92.6206 11.6304V13.54C92.6206 14.0581 92.6465 14.4706 92.6972 14.7764ZM91.4722 12.9944V12.1947C90.1706 12.1727 89.5198 12.5214 89.5198 13.2397C89.5198 13.5103 89.5941 13.7127 89.7461 13.848C89.8981 13.9833 90.0918 14.0504 90.3226 14.0504C90.5816 14.0504 90.8236 13.9701 91.0443 13.8106C91.2661 13.65 91.4024 13.4465 91.453 13.1968C91.4654 13.1407 91.4722 13.0725 91.4722 12.9944Z" fill="white"/>
<path d="M99.4021 14.7761H98.355L98.2998 13.9434H98.2672C97.9328 14.577 97.3631 14.8938 96.5625 14.8938C95.923 14.8938 95.3904 14.6485 94.9682 14.1579C94.546 13.6673 94.3354 13.0304 94.3354 12.2483C94.3354 11.409 94.564 10.7292 95.0234 10.21C95.4681 9.72603 96.0131 9.48403 96.6616 9.48403C97.3743 9.48403 97.8731 9.71833 98.1568 10.188H98.1793V7.21143H99.3604V13.3791C99.3604 13.884 99.374 14.3493 99.4021 14.7761ZM98.1793 12.5893V11.7247C98.1793 11.5751 98.1681 11.4541 98.1467 11.3617C98.0803 11.0845 97.9373 10.8513 97.72 10.6632C97.5004 10.4751 97.2358 10.3805 96.9307 10.3805C96.4905 10.3805 96.1459 10.551 95.8926 10.8931C95.6415 11.2352 95.5143 11.6719 95.5143 12.2054C95.5143 12.718 95.6348 13.1338 95.8768 13.4539C96.1324 13.7949 96.477 13.9654 96.9082 13.9654C97.2955 13.9654 97.6051 13.8235 97.8404 13.5386C98.0679 13.2757 98.1793 12.9589 98.1793 12.5893Z" fill="white"/>
<path d="M109.494 12.1408C109.494 12.9383 109.261 13.5917 108.795 14.1042C108.306 14.6311 107.66 14.8941 106.85 14.8941C106.072 14.8941 105.452 14.6422 104.988 14.1362C104.526 13.6313 104.295 12.9944 104.295 12.2266C104.295 11.4236 104.533 10.7647 105.01 10.2532C105.488 9.74165 106.13 9.48535 106.939 9.48535C107.717 9.48535 108.344 9.73725 108.817 10.2422C109.267 10.7328 109.494 11.3664 109.494 12.1408ZM108.271 12.1782C108.271 11.6997 108.165 11.2894 107.955 10.9473C107.706 10.5337 107.355 10.3269 106.895 10.3269C106.422 10.3269 106.062 10.5337 105.813 10.9473C105.601 11.2894 105.497 11.7063 105.497 12.1991C105.497 12.6776 105.603 13.0879 105.813 13.43C106.069 13.8436 106.425 14.0504 106.884 14.0504C107.334 14.0504 107.689 13.8403 107.943 13.419C108.161 13.0703 108.271 12.6567 108.271 12.1782Z" fill="white"/>
<path d="M115.839 14.7762H114.66V11.8062C114.66 10.891 114.304 10.4334 113.589 10.4334C113.239 10.4334 112.956 10.5588 112.738 10.8107C112.519 11.0626 112.41 11.3596 112.41 11.6995V14.7751H111.229V11.0725C111.229 10.6171 111.216 10.1232 111.188 9.58863H112.223L112.279 10.3993H112.311C112.45 10.1474 112.655 9.93953 112.923 9.77343C113.243 9.57983 113.6 9.48193 113.993 9.48193C114.488 9.48193 114.9 9.63813 115.227 9.95163C115.636 10.3355 115.839 10.9086 115.839 11.6698V14.7762Z" fill="white"/>
<path d="M123.779 10.4542H122.48V12.9732C122.48 13.6134 122.711 13.9335 123.168 13.9335C123.38 13.9335 123.555 13.9159 123.694 13.8796L123.724 14.7541C123.491 14.8399 123.185 14.8828 122.808 14.8828C122.342 14.8828 121.979 14.7442 121.717 14.467C121.453 14.1898 121.323 13.7234 121.323 13.0689V10.4542H120.547V9.59072H121.323V8.64032L122.479 8.29932V9.58962H123.778V10.4542H123.779Z" fill="white"/>
<path d="M130.026 14.7761H128.845V11.8281C128.845 10.8986 128.489 10.4333 127.776 10.4333C127.229 10.4333 126.855 10.7028 126.651 11.2418C126.616 11.3551 126.595 11.4937 126.595 11.6565V14.775H125.417V7.21143H126.595V10.3365H126.618C126.989 9.76783 127.522 9.48403 128.212 9.48403C128.701 9.48403 129.105 9.64023 129.426 9.95373C129.826 10.3442 130.026 10.925 130.026 11.6928V14.7761Z" fill="white"/>
<path d="M136.47 11.938C136.47 12.1448 136.454 12.3186 136.426 12.4605H132.887C132.903 12.9731 133.072 13.3636 133.399 13.6342C133.699 13.8762 134.085 13.9972 134.558 13.9972C135.081 13.9972 135.559 13.9158 135.989 13.7519L136.174 14.5527C135.67 14.7661 135.078 14.8728 134.392 14.8728C133.57 14.8728 132.923 14.6363 132.455 14.1633C131.984 13.6903 131.751 13.0556 131.751 12.2592C131.751 11.4771 131.968 10.8259 132.406 10.3067C132.863 9.7523 133.482 9.4751 134.262 9.4751C135.025 9.4751 135.605 9.7523 135.997 10.3067C136.313 10.7467 136.47 11.2912 136.47 11.938ZM135.344 11.6399C135.353 11.2978 135.275 11.003 135.115 10.7544C134.91 10.4343 134.598 10.2737 134.176 10.2737C133.791 10.2737 133.477 10.4299 133.237 10.7434C133.041 10.9931 132.925 11.2912 132.887 11.6399H135.344Z" fill="white"/>
<path d="M60.4003 34.6544H57.8433L56.4426 30.3545H51.5741L50.2399 34.6544H47.7505L52.574 20.0156H55.5532L60.4003 34.6544ZM56.0204 28.5505L54.7537 24.728C54.6198 24.3375 54.3687 23.4179 53.9982 21.9703H53.9532C53.8057 22.5929 53.5681 23.5125 53.2416 24.728L51.9975 28.5505H56.0204Z" fill="white"/>
<path d="M72.8046 29.247C72.8046 31.0422 72.308 32.4612 71.315 33.5029C70.4255 34.4302 69.321 34.8933 68.0025 34.8933C66.5793 34.8933 65.557 34.3939 64.9344 33.3951H64.8893V38.9556H62.4888V27.5739C62.4888 26.4453 62.4585 25.287 62.3999 24.099H64.511L64.645 25.7721H64.69C65.4906 24.5115 66.7054 23.8823 68.3358 23.8823C69.6103 23.8823 70.6743 24.374 71.5255 25.3585C72.379 26.3441 72.8046 27.6399 72.8046 29.247ZM70.3591 29.3328C70.3591 28.3054 70.1226 27.4584 69.6475 26.7918C69.1284 26.0966 68.4315 25.749 67.5578 25.749C66.9655 25.749 66.4273 25.9426 65.9466 26.3243C65.4647 26.7093 65.1494 27.212 65.0019 27.8346C64.9276 28.125 64.8904 28.3626 64.8904 28.5496V30.3096C64.8904 31.0774 65.1314 31.7253 65.6133 32.2544C66.0952 32.7835 66.7212 33.0475 67.4913 33.0475C68.3955 33.0475 69.0992 32.7065 69.6024 32.0267C70.1069 31.3458 70.3591 30.4482 70.3591 29.3328Z" fill="white"/>
<path d="M85.2317 29.247C85.2317 31.0422 84.7352 32.4612 83.741 33.5029C82.8526 34.4302 81.7481 34.8933 80.4296 34.8933C79.0064 34.8933 77.9841 34.3939 77.3626 33.3951H77.3175V38.9556H74.9171V27.5739C74.9171 26.4453 74.8867 25.287 74.8281 24.099H76.9392L77.0732 25.7721H77.1183C77.9177 24.5115 79.1325 23.8823 80.764 23.8823C82.0374 23.8823 83.1014 24.374 83.9549 25.3585C84.805 26.3441 85.2317 27.6399 85.2317 29.247ZM82.7862 29.3328C82.7862 28.3054 82.5486 27.4584 82.0735 26.7918C81.5544 26.0966 80.8597 25.749 79.9849 25.749C79.3915 25.749 78.8544 25.9426 78.3725 26.3243C77.8906 26.7093 77.5765 27.212 77.429 27.8346C77.3558 28.125 77.3175 28.3626 77.3175 28.5496V30.3096C77.3175 31.0774 77.5585 31.7253 78.0381 32.2544C78.52 32.7824 79.1461 33.0475 79.9184 33.0475C80.8226 33.0475 81.5263 32.7065 82.0296 32.0267C82.534 31.3458 82.7862 30.4482 82.7862 29.3328Z" fill="white"/>
<path d="M99.1252 30.5494C99.1252 31.7946 98.6827 32.8077 97.7944 33.5898C96.8182 34.4445 95.4592 34.8713 93.7129 34.8713C92.1006 34.8713 90.808 34.5677 89.8296 33.9594L90.3858 32.0047C91.4397 32.6273 92.596 32.9397 93.8559 32.9397C94.76 32.9397 95.4637 32.7395 95.9693 32.3413C96.4726 31.9431 96.7236 31.4085 96.7236 30.7419C96.7236 30.1479 96.5165 29.6474 96.101 29.2415C95.6878 28.8356 94.9976 28.4583 94.0338 28.1096C91.4104 27.1537 90.0998 25.7534 90.0998 23.912C90.0998 22.7086 90.5592 21.7219 91.4791 20.9541C92.3956 20.1852 93.6183 19.8013 95.1473 19.8013C96.5108 19.8013 97.6435 20.0334 98.5476 20.4965L97.9475 22.4083C97.1031 21.9595 96.1483 21.7351 95.0798 21.7351C94.2353 21.7351 93.5756 21.9386 93.1027 22.3434C92.703 22.7053 92.5025 23.1464 92.5025 23.6689C92.5025 24.2475 92.7311 24.726 93.1905 25.1022C93.5902 25.4498 94.3164 25.826 95.3703 26.2319C96.6595 26.739 97.6064 27.3319 98.2155 28.0117C98.8224 28.6893 99.1252 29.5374 99.1252 30.5494Z" fill="white"/>
<path d="M107.062 25.8588H104.416V30.9838C104.416 32.2873 104.882 32.9385 105.817 32.9385C106.246 32.9385 106.601 32.9022 106.883 32.8296L106.949 34.6105C106.476 34.7832 105.854 34.8701 105.082 34.8701C104.134 34.8701 103.394 34.5874 102.859 34.0231C102.326 33.4577 102.058 32.5095 102.058 31.1774V25.8567H100.482V24.0967H102.058V22.164L104.416 21.4688V24.0967H107.062V25.8588Z" fill="white"/>
<path d="M119 29.2898C119 30.9123 118.525 32.2444 117.577 33.2861C116.583 34.3586 115.263 34.8932 113.618 34.8932C112.033 34.8932 110.771 34.3795 109.829 33.3521C108.888 32.3247 108.417 31.0278 108.417 29.4647C108.417 27.829 108.902 26.4892 109.873 25.4475C110.843 24.4047 112.151 23.8833 113.796 23.8833C115.381 23.8833 116.657 24.397 117.62 25.4255C118.541 26.4232 119 27.7113 119 29.2898ZM116.51 29.3657C116.51 28.3922 116.297 27.5573 115.865 26.861C115.362 26.0184 114.643 25.5982 113.71 25.5982C112.746 25.5982 112.013 26.0195 111.509 26.861C111.078 27.5584 110.865 28.4065 110.865 29.4097C110.865 30.3832 111.078 31.2181 111.509 31.9133C112.028 32.7559 112.753 33.1761 113.689 33.1761C114.606 33.1761 115.325 32.7471 115.844 31.8913C116.287 31.1818 116.51 30.3381 116.51 29.3657Z" fill="white"/>
<path d="M126.803 26.1615C126.565 26.1186 126.312 26.0966 126.046 26.0966C125.202 26.0966 124.549 26.4079 124.089 27.0316C123.69 27.5816 123.489 28.2768 123.489 29.1161V34.6546H121.09L121.113 27.4232C121.113 26.2066 121.082 25.0989 121.022 24.1001H123.113L123.201 26.1197H123.268C123.521 25.4256 123.921 24.8668 124.468 24.4477C125.003 24.0704 125.58 23.8823 126.203 23.8823C126.425 23.8823 126.625 23.8977 126.803 23.9252V26.1615Z" fill="white"/>
<path d="M137.538 28.8772C137.538 29.2974 137.51 29.6516 137.451 29.9409H130.249C130.277 30.9837 130.625 31.7812 131.294 32.3312C131.901 32.8229 132.686 33.0693 133.649 33.0693C134.716 33.0693 135.689 32.9032 136.563 32.5699L136.939 34.1979C135.917 34.6335 134.71 34.8502 133.317 34.8502C131.642 34.8502 130.327 34.3684 129.37 33.4059C128.415 32.4434 127.937 31.1509 127.937 29.5295C127.937 27.9378 128.381 26.6123 129.272 25.5552C130.204 24.4266 131.464 23.8623 133.049 23.8623C134.606 23.8623 135.785 24.4266 136.586 25.5552C137.22 26.4517 137.538 27.5605 137.538 28.8772ZM135.249 28.2689C135.265 27.5737 135.109 26.9731 134.783 26.466C134.368 25.8137 133.729 25.4881 132.87 25.4881C132.086 25.4881 131.447 25.806 130.96 26.444C130.56 26.9511 130.322 27.5594 130.249 28.2678H135.249V28.2689Z" fill="white"/>
</svg>
