<svg width="168" height="48" viewBox="0 0 168 48" fill="none" xmlns="http://www.w3.org/2000/svg">
<path d="M167.068 42.4649C167.068 45.0229 164.929 47.0949 162.284 47.0949H5.72484C3.08077 47.0949 0.93457 45.0229 0.93457 42.4649V5.54228C0.93457 2.98551 3.08077 0.90625 5.72484 0.90625H162.283C164.929 0.90625 167.067 2.98551 167.067 5.54228L167.068 42.4649Z" fill="white"/>
<path d="M161.778 0.961502C164.659 0.961502 167.003 3.222 167.003 6V42C167.003 44.778 164.659 47.0385 161.778 47.0385H6.22222C3.34133 47.0385 0.997111 44.778 0.997111 42V6C0.997111 3.222 3.34133 0.961502 6.22222 0.961502H161.778ZM161.778 3.8147e-06H6.22222C2.80156 3.8147e-06 0 2.7015 0 6V42C0 45.2985 2.80156 48 6.22222 48H161.778C165.198 48 168 45.2985 168 42V6C168 2.7015 165.198 3.8147e-06 161.778 3.8147e-06Z" fill="#A6A6A6"/>
<path d="M37.4928 23.7394C37.4567 19.8718 40.7768 17.9902 40.9287 17.9026C39.0483 15.259 36.1338 14.8978 35.1096 14.869C32.6618 14.6206 30.2874 16.2814 29.0405 16.2814C27.7687 16.2814 25.8485 14.893 23.779 14.9338C21.1159 14.9734 18.6245 16.4602 17.2581 18.769C14.4382 23.4766 16.5413 30.3946 19.243 34.1998C20.5944 36.0634 22.1736 38.1442 24.2407 38.071C26.2629 37.9906 27.0183 36.8278 29.4586 36.8278C31.8766 36.8278 32.5859 38.071 34.694 38.0242C36.8643 37.9906 38.2307 36.1522 39.5349 34.2718C41.0967 32.1358 41.7239 30.0322 41.7488 29.9242C41.6977 29.9074 37.5338 28.375 37.4928 23.7394Z" fill="#161616"/>
<path d="M33.5105 12.3658C34.5982 11.0542 35.3424 9.26978 35.1358 7.45898C33.5616 7.52618 31.5928 8.50898 30.4592 9.79178C29.4561 10.9222 28.5601 12.775 28.7916 14.5174C30.56 14.6446 32.3756 13.657 33.5105 12.3658Z" fill="#161616"/>
<path d="M61.0392 12.0104C61.0392 13.4228 60.5999 14.486 59.7226 15.2C58.91 15.8588 57.7551 16.1888 56.2593 16.1888C55.5176 16.1888 54.8829 16.1576 54.3516 16.0952V8.37804C55.0447 8.27004 55.7914 8.21484 56.5978 8.21484C58.0227 8.21484 59.0966 8.51364 59.8209 9.11124C60.6323 9.78684 61.0392 10.7528 61.0392 12.0104ZM59.6641 12.0452C59.6641 11.1296 59.4127 10.4276 58.91 9.93804C58.4072 9.44964 57.673 9.20484 56.7061 9.20484C56.2954 9.20484 55.9457 9.23124 55.6557 9.28644V15.1532C55.8163 15.1772 56.11 15.188 56.5368 15.188C57.5349 15.188 58.3052 14.9204 58.8477 14.3852C59.3903 13.85 59.6641 13.07 59.6641 12.0452Z" fill="#161616"/>
<path d="M68.3296 13.2445C68.3296 14.1145 68.072 14.8273 67.5568 15.3865C67.0167 15.9613 66.3011 16.2481 65.4076 16.2481C64.5465 16.2481 63.8608 15.9733 63.3493 15.4213C62.8391 14.8705 62.584 14.1757 62.584 13.3381C62.584 12.4621 62.8466 11.7433 63.3742 11.1853C63.9018 10.6273 64.6112 10.3477 65.5047 10.3477C66.3659 10.3477 67.0578 10.6225 67.5817 11.1733C68.0795 11.7085 68.3296 12.3997 68.3296 13.2445ZM66.9769 13.2853C66.9769 12.7633 66.8599 12.3157 66.6272 11.9425C66.3534 11.4913 65.9639 11.2657 65.4574 11.2657C64.9335 11.2657 64.5353 11.4913 64.2615 11.9425C64.0275 12.3157 63.9118 12.7705 63.9118 13.3081C63.9118 13.8301 64.0288 14.2777 64.2615 14.6509C64.544 15.1021 64.9372 15.3277 65.445 15.3277C65.9427 15.3277 66.3335 15.0985 66.6147 14.6389C66.8562 14.2585 66.9769 13.8073 66.9769 13.2853Z" fill="#161616"/>
<path d="M78.106 10.4609L76.2704 16.1177H75.0758L74.3154 13.6613C74.1225 13.0481 73.9657 12.4385 73.8438 11.8337H73.8201C73.7069 12.4553 73.5501 13.0637 73.3485 13.6613L72.5408 16.1177H71.3325L69.6064 10.4609H70.9467L71.61 13.1501C71.7705 13.7861 71.9024 14.3921 72.0082 14.9657H72.0319C72.1289 14.4929 72.2895 13.8905 72.516 13.1621L73.3485 10.4621H74.4112L75.2089 13.1045C75.4018 13.7489 75.5586 14.3693 75.6793 14.9669H75.7154C75.8038 14.3849 75.9369 13.7645 76.1136 13.1045L76.8255 10.4621H78.106V10.4609Z" fill="#161616"/>
<path d="M84.8676 16.1154H83.5634V12.8754C83.5634 11.877 83.1702 11.3778 82.3812 11.3778C81.9942 11.3778 81.6818 11.5146 81.4392 11.7894C81.199 12.0642 81.077 12.3882 81.077 12.759V16.1142H79.7729V12.075C79.7729 11.5782 79.7567 11.0394 79.7256 10.4562H80.8717L80.9327 11.3406H80.9688C81.1206 11.0658 81.3471 10.839 81.6445 10.6578C81.9979 10.4466 82.3937 10.3398 82.8267 10.3398C83.3743 10.3398 83.8298 10.5102 84.1919 10.8522C84.6424 11.271 84.8676 11.8962 84.8676 12.7266V16.1154Z" fill="#161616"/>
<path d="M88.4641 16.1176H87.1611V7.86523H88.4641V16.1176Z" fill="#161616"/>
<path d="M96.1411 13.2445C96.1411 14.1145 95.8835 14.8273 95.3683 15.3865C94.8282 15.9613 94.1114 16.2481 93.2192 16.2481C92.3568 16.2481 91.6711 15.9733 91.1608 15.4213C90.6506 14.8705 90.3955 14.1757 90.3955 13.3381C90.3955 12.4621 90.6581 11.7433 91.1857 11.1853C91.7134 10.6273 92.4227 10.3477 93.315 10.3477C94.1774 10.3477 94.868 10.6225 95.3932 11.1733C95.891 11.7085 96.1411 12.3997 96.1411 13.2445ZM94.7871 13.2853C94.7871 12.7633 94.6702 12.3157 94.4375 11.9425C94.1649 11.4913 93.7742 11.2657 93.2689 11.2657C92.7438 11.2657 92.3456 11.4913 92.073 11.9425C91.8391 12.3157 91.7233 12.7705 91.7233 13.3081C91.7233 13.8301 91.8403 14.2777 92.073 14.6509C92.3555 15.1021 92.7488 15.3277 93.2565 15.3277C93.7543 15.3277 94.1438 15.0985 94.425 14.6389C94.6677 14.2585 94.7871 13.8073 94.7871 13.2853Z" fill="#161616"/>
<path d="M102.454 16.1197H101.283L101.186 15.4681H101.15C100.749 15.9877 100.178 16.2481 99.4359 16.2481C98.8821 16.2481 98.4341 16.0765 98.0969 15.7357C97.7908 15.4261 97.6377 15.0409 97.6377 14.5837C97.6377 13.8925 97.9364 13.3657 98.5374 13.0009C99.1372 12.6361 99.981 12.4573 101.067 12.4657V12.3601C101.067 11.6149 100.662 11.2429 99.8491 11.2429C99.2704 11.2429 98.7602 11.3833 98.3197 11.6617L98.0546 10.8361C98.5996 10.5109 99.2729 10.3477 100.067 10.3477C101.6 10.3477 102.369 11.1277 102.369 12.6877V14.7709C102.369 15.3361 102.398 15.7861 102.454 16.1197ZM101.1 14.1757V13.3033C99.6612 13.2793 98.9419 13.6597 98.9419 14.4433C98.9419 14.7385 99.024 14.9593 99.192 15.1069C99.36 15.2545 99.574 15.3277 99.8292 15.3277C100.115 15.3277 100.383 15.2401 100.627 15.0661C100.872 14.8909 101.023 14.6689 101.079 14.3965C101.092 14.3353 101.1 14.2609 101.1 14.1757Z" fill="#161616"/>
<path d="M109.865 16.1176H108.707L108.646 15.2092H108.61C108.241 15.9004 107.611 16.246 106.726 16.246C106.019 16.246 105.431 15.9784 104.964 15.4432C104.497 14.908 104.265 14.2132 104.265 13.36C104.265 12.4444 104.517 11.7028 105.025 11.1364C105.517 10.6084 106.119 10.3444 106.836 10.3444C107.623 10.3444 108.175 10.6 108.488 11.1124H108.513V7.86523H109.819V14.5936C109.819 15.1444 109.834 15.652 109.865 16.1176ZM108.513 13.732V12.7888C108.513 12.6256 108.501 12.4936 108.477 12.3928C108.404 12.0904 108.246 11.836 108.005 11.6308C107.763 11.4256 107.47 11.3224 107.133 11.3224C106.647 11.3224 106.266 11.5084 105.986 11.8816C105.708 12.2548 105.568 12.7312 105.568 13.3132C105.568 13.8724 105.701 14.326 105.968 14.6752C106.251 15.0472 106.632 15.2332 107.108 15.2332C107.536 15.2332 107.879 15.0784 108.139 14.7676C108.39 14.4808 108.513 14.1352 108.513 13.732Z" fill="#161616"/>
<path d="M121.02 13.2445C121.02 14.1145 120.762 14.8273 120.247 15.3865C119.707 15.9613 118.993 16.2481 118.098 16.2481C117.238 16.2481 116.552 15.9733 116.04 15.4213C115.53 14.8705 115.274 14.1757 115.274 13.3381C115.274 12.4621 115.537 11.7433 116.065 11.1853C116.592 10.6273 117.302 10.3477 118.196 10.3477C119.056 10.3477 119.749 10.6225 120.272 11.1733C120.77 11.7085 121.02 12.3997 121.02 13.2445ZM119.669 13.2853C119.669 12.7633 119.552 12.3157 119.319 11.9425C119.044 11.4913 118.656 11.2657 118.148 11.2657C117.625 11.2657 117.227 11.4913 116.952 11.9425C116.718 12.3157 116.602 12.7705 116.602 13.3081C116.602 13.8301 116.719 14.2777 116.952 14.6509C117.234 15.1021 117.628 15.3277 118.135 15.3277C118.633 15.3277 119.025 15.0985 119.306 14.6389C119.547 14.2585 119.669 13.8073 119.669 13.2853Z" fill="#161616"/>
<path d="M128.032 16.1154H126.729V12.8754C126.729 11.877 126.336 11.3778 125.546 11.3778C125.159 11.3778 124.847 11.5146 124.605 11.7894C124.364 12.0642 124.243 12.3882 124.243 12.759V16.1142H122.938V12.075C122.938 11.5782 122.923 11.0394 122.892 10.4562H124.036L124.097 11.3406H124.134C124.287 11.0658 124.513 10.839 124.809 10.6578C125.164 10.4466 125.558 10.3398 125.993 10.3398C126.539 10.3398 126.995 10.5102 127.357 10.8522C127.808 11.271 128.032 11.8962 128.032 12.7266V16.1154Z" fill="#161616"/>
<path d="M136.809 11.4016H135.373V14.1496C135.373 14.848 135.628 15.1972 136.133 15.1972C136.367 15.1972 136.561 15.178 136.715 15.1384L136.748 16.0924C136.491 16.186 136.152 16.2328 135.735 16.2328C135.22 16.2328 134.819 16.0816 134.529 15.7792C134.238 15.4768 134.094 14.968 134.094 14.254V11.4016H133.236V10.4596H134.094V9.42278L135.372 9.05078V10.4584H136.808V11.4016H136.809Z" fill="#161616"/>
<path d="M143.713 16.1176H142.408V12.9016C142.408 11.8876 142.014 11.38 141.227 11.38C140.622 11.38 140.209 11.674 139.982 12.262C139.944 12.3856 139.921 12.5368 139.921 12.7144V16.1164H138.618V7.86523H139.921V11.2744H139.946C140.357 10.654 140.945 10.3444 141.708 10.3444C142.248 10.3444 142.695 10.5148 143.05 10.8568C143.491 11.2828 143.713 11.9164 143.713 12.754V16.1176Z" fill="#161616"/>
<path d="M150.836 13.0227C150.836 13.2483 150.818 13.4379 150.787 13.5927H146.876C146.893 14.1519 147.08 14.5779 147.442 14.8731C147.773 15.1371 148.2 15.2691 148.723 15.2691C149.301 15.2691 149.829 15.1803 150.304 15.0015L150.508 15.8751C149.952 16.1079 149.297 16.2243 148.54 16.2243C147.631 16.2243 146.916 15.9663 146.398 15.4503C145.878 14.9343 145.62 14.2419 145.62 13.3731C145.62 12.5199 145.86 11.8095 146.344 11.2431C146.85 10.6383 147.533 10.3359 148.395 10.3359C149.239 10.3359 149.88 10.6383 150.313 11.2431C150.663 11.7231 150.836 12.3171 150.836 13.0227ZM149.591 12.6975C149.601 12.3243 149.515 12.0027 149.339 11.7315C149.112 11.3823 148.767 11.2071 148.301 11.2071C147.875 11.2071 147.528 11.3775 147.263 11.7195C147.046 11.9919 146.918 12.3171 146.876 12.6975H149.591Z" fill="#161616"/>
<path d="M66.7606 37.8036H63.9345L62.3864 33.1128H57.0054L55.5308 37.8036H52.7793L58.1105 21.834H61.4033L66.7606 37.8036ZM61.9197 31.1448L60.5197 26.9748C60.3716 26.5488 60.0941 25.5456 59.6847 23.9664H59.6349C59.4719 24.6456 59.2093 25.6488 58.8484 26.9748L57.4733 31.1448H61.9197Z" fill="#161616"/>
<path d="M80.4716 31.9051C80.4716 33.8635 79.9228 35.4115 78.8252 36.5479C77.8421 37.5595 76.6213 38.0647 75.164 38.0647C73.5911 38.0647 72.4611 37.5199 71.7729 36.4303H71.7231V42.4963H69.07V30.0799C69.07 28.8487 69.0364 27.5851 68.9717 26.2891H71.305L71.4531 28.1143H71.5029C72.3877 26.7391 73.7304 26.0527 75.5324 26.0527C76.9411 26.0527 78.1171 26.5891 79.0579 27.6631C80.0012 28.7383 80.4716 30.1519 80.4716 31.9051ZM77.7687 31.9987C77.7687 30.8779 77.5073 29.9539 76.9822 29.2267C76.4085 28.4683 75.6382 28.0891 74.6725 28.0891C74.0179 28.0891 73.4231 28.3003 72.8917 28.7167C72.3591 29.1367 72.0106 29.6851 71.8476 30.3643C71.7655 30.6811 71.7244 30.9403 71.7244 31.1443V33.0643C71.7244 33.9019 71.9907 34.6087 72.5233 35.1859C73.0559 35.7631 73.7479 36.0511 74.5991 36.0511C75.5983 36.0511 76.3761 35.6791 76.9324 34.9375C77.4899 34.1947 77.7687 33.2155 77.7687 31.9987Z" fill="#161616"/>
<path d="M94.2047 31.9051C94.2047 33.8635 93.6559 35.4115 92.5571 36.5479C91.5752 37.5595 90.3544 38.0647 88.8972 38.0647C87.3242 38.0647 86.1942 37.5199 85.5073 36.4303H85.4575V42.4963H82.8044V30.0799C82.8044 28.8487 82.7708 27.5851 82.7061 26.2891H85.0394L85.1875 28.1143H85.2373C86.1208 26.7391 87.4636 26.0527 89.2668 26.0527C90.6742 26.0527 91.8502 26.5891 92.7935 27.6631C93.7331 28.7383 94.2047 30.1519 94.2047 31.9051ZM91.5018 31.9987C91.5018 30.8779 91.2392 29.9539 90.7141 29.2267C90.1404 28.4683 89.3725 28.0891 88.4056 28.0891C87.7498 28.0891 87.1562 28.3003 86.6236 28.7167C86.0909 29.1367 85.7437 29.6851 85.5807 30.3643C85.4998 30.6811 85.4575 30.9403 85.4575 31.1443V33.0643C85.4575 33.9019 85.7238 34.6087 86.254 35.1859C86.7866 35.7619 87.4785 36.0511 88.3322 36.0511C89.3315 36.0511 90.1093 35.6791 90.6655 34.9375C91.223 34.1947 91.5018 33.2155 91.5018 31.9987Z" fill="#161616"/>
<path d="M109.562 33.3248C109.562 34.6832 109.073 35.7884 108.091 36.6416C107.012 37.574 105.51 38.0396 103.58 38.0396C101.798 38.0396 100.37 37.7084 99.2881 37.0448L99.9028 34.9124C101.068 35.5916 102.346 35.9324 103.738 35.9324C104.738 35.9324 105.515 35.714 106.074 35.2796C106.63 34.8452 106.908 34.262 106.908 33.5348C106.908 32.8868 106.679 32.3408 106.22 31.898C105.763 31.4552 105 31.0436 103.935 30.6632C101.035 29.6204 99.5868 28.0928 99.5868 26.084C99.5868 24.7712 100.094 23.6948 101.111 22.8572C102.124 22.0184 103.476 21.5996 105.166 21.5996C106.673 21.5996 107.925 21.8528 108.924 22.358L108.261 24.4436C107.327 23.954 106.272 23.7092 105.091 23.7092C104.158 23.7092 103.428 23.9312 102.906 24.3728C102.464 24.7676 102.242 25.2488 102.242 25.8188C102.242 26.45 102.495 26.972 103.003 27.3824C103.445 27.7616 104.247 28.172 105.412 28.6148C106.837 29.168 107.883 29.8148 108.557 30.5564C109.227 31.2956 109.562 32.2208 109.562 33.3248Z" fill="#161616"/>
<path d="M118.335 28.2072H115.411V33.798C115.411 35.22 115.926 35.9304 116.959 35.9304C117.433 35.9304 117.826 35.8908 118.137 35.8116L118.211 37.7544C117.688 37.9428 117 38.0376 116.147 38.0376C115.099 38.0376 114.281 37.7292 113.69 37.1136C113.101 36.4968 112.805 35.4624 112.805 34.0092V28.2048H111.062V26.2848H112.805V24.1764L115.411 23.418V26.2848H118.335V28.2072Z" fill="#161616"/>
<path d="M131.528 31.9507C131.528 33.7207 131.002 35.1739 129.955 36.3103C128.856 37.4803 127.397 38.0635 125.579 38.0635C123.827 38.0635 122.432 37.5031 121.392 36.3823C120.351 35.2615 119.831 33.8467 119.831 32.1415C119.831 30.3571 120.366 28.8955 121.44 27.7591C122.512 26.6215 123.958 26.0527 125.776 26.0527C127.528 26.0527 128.938 26.6131 130.002 27.7351C131.02 28.8235 131.528 30.2287 131.528 31.9507ZM128.775 32.0335C128.775 30.9715 128.54 30.0607 128.063 29.3011C127.507 28.3819 126.712 27.9235 125.681 27.9235C124.615 27.9235 123.805 28.3831 123.248 29.3011C122.772 30.0619 122.536 30.9871 122.536 32.0815C122.536 33.1435 122.772 34.0543 123.248 34.8127C123.822 35.7319 124.623 36.1903 125.658 36.1903C126.671 36.1903 127.466 35.7223 128.039 34.7887C128.528 34.0147 128.775 33.0943 128.775 32.0335Z" fill="#161616"/>
<path d="M140.154 28.5391C139.891 28.4923 139.611 28.4683 139.317 28.4683C138.384 28.4683 137.662 28.8079 137.155 29.4883C136.713 30.0883 136.491 30.8467 136.491 31.7623V37.8043H133.839L133.864 29.9155C133.864 28.5883 133.831 27.3799 133.765 26.2903H136.076L136.173 28.4935H136.246C136.526 27.7363 136.968 27.1267 137.573 26.6695C138.164 26.2579 138.802 26.0527 139.49 26.0527C139.736 26.0527 139.957 26.0695 140.154 26.0995V28.5391Z" fill="#161616"/>
<path d="M152.018 31.5001C152.018 31.9585 151.987 32.3449 151.921 32.6605H143.961C143.992 33.7981 144.377 34.6681 145.116 35.2681C145.787 35.8045 146.654 36.0733 147.72 36.0733C148.898 36.0733 149.973 35.8921 150.94 35.5285L151.356 37.3045C150.226 37.7797 148.892 38.0161 147.352 38.0161C145.501 38.0161 144.047 37.4905 142.989 36.4405C141.934 35.3905 141.405 33.9805 141.405 32.2117C141.405 30.4753 141.897 29.0293 142.881 27.8761C143.912 26.6449 145.304 26.0293 147.056 26.0293C148.777 26.0293 150.08 26.6449 150.965 27.8761C151.666 28.8541 152.018 30.0637 152.018 31.5001ZM149.488 30.8365C149.505 30.0781 149.332 29.4229 148.973 28.8697C148.514 28.1581 147.808 27.8029 146.858 27.8029C145.991 27.8029 145.285 28.1497 144.747 28.8457C144.305 29.3989 144.042 30.0625 143.961 30.8353H149.488V30.8365Z" fill="#161616"/>
</svg>
