<svg width="118" height="58" viewBox="0 0 118 58" fill="none" xmlns="http://www.w3.org/2000/svg">
<g clip-path="url(#clip0_377_1512)">
<path d="M30.7031 0H36.0752V33.5758H30.7031V0ZM54.8777 22.8651C54.8777 28.0035 50.5571 28.4132 49.2719 28.4132C46.0607 28.4132 45.4765 25.4075 45.4765 23.5944V10.7442H40.1043V23.5675C40.1043 26.7505 41.1036 29.3775 42.8549 31.1288C44.402 32.6773 46.7201 33.5234 49.2316 33.5234C51.0124 33.5234 53.5346 32.9687 54.8777 31.7425V33.5758H60.2498V10.7442H54.8777V22.8651ZM70.994 2.68606H65.6219V10.7442H61.5928V16.1164H65.6219V33.5758H70.994V16.1164H75.0231V10.7442H70.994V2.68606ZM91.9413 26.7491C90.7715 27.8007 89.227 28.3836 87.5321 28.3836C83.7958 28.3836 81.052 25.6398 81.052 21.8726C81.052 18.1054 83.7085 15.4771 87.5321 15.4771C89.1975 15.4771 90.7715 16.0318 91.9708 17.0833L92.786 17.7844L96.4082 14.1636L95.5017 13.3457C93.3703 11.4211 90.5405 10.3413 87.5308 10.3413C80.8156 10.3413 75.9391 15.187 75.9391 21.8444C75.9391 28.4736 80.9325 33.4925 87.5308 33.4925C90.5969 33.4925 93.4562 32.4127 95.5607 30.4572L96.4364 29.6393L92.7578 26.0212L91.9413 26.7491ZM115.583 12.7346C114.035 11.1874 112.222 10.3413 109.711 10.3413C107.93 10.3413 105.913 10.896 104.57 12.1209V0H99.1977V33.5758H104.57V20.9983C104.57 15.8598 108.22 15.4516 109.505 15.4516C112.717 15.4516 112.628 18.4586 112.628 20.269V33.5758H118V20.2972C118 17.1142 117.335 14.4873 115.583 12.7346Z" fill="#161616"/>
<path d="M87.3547 18.0479C88.3849 18.0479 89.3728 18.4571 90.1012 19.1855C90.8296 19.9139 91.2388 20.9018 91.2388 21.9319C91.2388 22.962 90.8296 23.9499 90.1012 24.6783C89.3728 25.4067 88.3849 25.8159 87.3547 25.8159C86.3246 25.8159 85.3367 25.4067 84.6083 24.6783C83.8799 23.9499 83.4707 22.962 83.4707 21.9319C83.4707 20.9018 83.8799 19.9139 84.6083 19.1855C85.3367 18.4571 86.3246 18.0479 87.3547 18.0479Z" fill="#161616"/>
<path d="M23.182 25.1427C21.1393 27.2445 18.3646 28.3834 15.4448 28.3834C9.46031 28.3834 5.10889 23.6828 5.10889 17.2309C5.10889 10.7494 9.46031 6.04883 15.4448 6.04883C18.3364 6.04883 21.0802 7.18638 23.1538 9.26002L23.9704 10.0779L27.5617 6.48666L26.7733 5.66875C23.7958 2.60261 19.7667 0.939941 15.4448 0.939941C6.62786 0.939941 0 7.94653 0 17.2591C0 26.5435 6.6574 33.5219 15.4448 33.5219C19.7963 33.5219 23.8254 31.8296 26.8029 28.7635L27.5912 27.9456L24.0295 24.2966L23.182 25.1427Z" fill="#161616"/>
</g>
<g clip-path="url(#clip1_377_1512)">
<path fill-rule="evenodd" clip-rule="evenodd" d="M7.86667 53.6988L12.7283 56.6307L11.4421 51.1013L15.7333 47.3827L10.0764 46.8973L7.86667 41.6841L5.65692 46.8973L0 47.3827L4.29127 51.1013L3.00507 56.6307L7.86667 53.6988Z" fill="#161616"/>
</g>
<g clip-path="url(#clip2_377_1512)">
<path fill-rule="evenodd" clip-rule="evenodd" d="M33.4326 52.7306L38.2942 55.6625L37.008 50.133L41.2993 46.4144L35.6423 45.9291L33.4326 40.7158L31.2228 45.9291L25.5659 46.4144L29.8572 50.133L28.571 55.6625L33.4326 52.7306Z" fill="#161616"/>
</g>
<g clip-path="url(#clip3_377_1512)">
<path fill-rule="evenodd" clip-rule="evenodd" d="M59.0014 52.7306L63.863 55.6625L62.5768 50.133L66.8681 46.4144L61.2112 45.9291L59.0014 40.7158L56.7917 45.9291L51.1348 46.4144L55.426 50.133L54.1398 55.6625L59.0014 52.7306Z" fill="#161616"/>
</g>
<g clip-path="url(#clip4_377_1512)">
<path fill-rule="evenodd" clip-rule="evenodd" d="M84.5673 52.7306L89.429 55.6625L88.1427 50.133L92.434 46.4144L86.7771 45.9291L84.5673 40.7158L82.3576 45.9291L76.7007 46.4144L80.992 50.133L79.7057 55.6625L84.5673 52.7306Z" fill="#161616"/>
</g>
<g clip-path="url(#clip5_377_1512)">
<path fill-rule="evenodd" clip-rule="evenodd" d="M110.133 52.7306L114.995 55.6625L113.709 50.133L118 46.4144L112.343 45.9291L110.133 40.7158L107.924 45.9291L102.267 46.4144L106.558 50.133L105.272 55.6625L110.133 52.7306Z" fill="#161616"/>
</g>
<defs>
<clipPath id="clip0_377_1512">
<rect width="118" height="33.5758" fill="white"/>
</clipPath>
<clipPath id="clip1_377_1512">
<rect width="15.7333" height="16.52" fill="white" transform="translate(0 41.2905)"/>
</clipPath>
<clipPath id="clip2_377_1512">
<rect width="15.7333" height="16.52" fill="white" transform="translate(25.5659 40.3223)"/>
</clipPath>
<clipPath id="clip3_377_1512">
<rect width="15.7333" height="16.52" fill="white" transform="translate(51.1348 40.3223)"/>
</clipPath>
<clipPath id="clip4_377_1512">
<rect width="15.7333" height="16.52" fill="white" transform="translate(76.7007 40.3223)"/>
</clipPath>
<clipPath id="clip5_377_1512">
<rect width="15.7333" height="16.52" fill="white" transform="translate(102.267 40.3223)"/>
</clipPath>
</defs>
</svg>
