<svg width="157" height="37" viewBox="0 0 157 37" fill="none" xmlns="http://www.w3.org/2000/svg">
<g clip-path="url(#clip0_1696_17909)">
<path d="M23.5457 15H24.8659V23.131H23.5457V15ZM29.4869 20.5372C29.4869 21.7816 28.425 21.8808 28.1092 21.8808C27.32 21.8808 27.1764 21.1529 27.1764 20.7138V17.6019H25.8561V20.7073C25.8561 21.4782 26.1017 22.1143 26.5321 22.5384C26.9123 22.9134 27.482 23.1183 28.0993 23.1183C28.5369 23.1183 29.1568 22.984 29.4869 22.6871V23.131H30.8071V17.6019H29.4869V20.5372ZM33.4477 15.6505H32.1274V17.6019H31.1372V18.9029H32.1274V23.131H33.4477V18.9029H34.4379V17.6019H33.4477V15.6505ZM38.5957 21.4778C38.3082 21.7325 37.9286 21.8737 37.5121 21.8737C36.5939 21.8737 35.9195 21.2092 35.9195 20.2969C35.9195 19.3846 36.5724 18.7481 37.5121 18.7481C37.9214 18.7481 38.3082 18.8824 38.603 19.1371L38.8033 19.3068L39.6935 18.43L39.4707 18.2319C38.9469 17.7659 38.2515 17.5044 37.5118 17.5044C35.8614 17.5044 34.663 18.6778 34.663 20.2901C34.663 21.8954 35.8902 23.1109 37.5118 23.1109C38.2653 23.1109 38.968 22.8494 39.4852 22.3758L39.7004 22.1778L38.7964 21.3016L38.5957 21.4778ZM44.4059 18.0839C44.0256 17.7093 43.58 17.5044 42.9628 17.5044C42.5252 17.5044 42.0294 17.6387 41.6993 17.9353V15H40.3791V23.131H41.6993V20.0851C41.6993 18.8408 42.5965 18.7419 42.9123 18.7419C43.7015 18.7419 43.6797 19.4701 43.6797 19.9085V23.131H45V19.9154C45 19.1446 44.8366 18.5084 44.4059 18.0839Z" fill="#161616"/>
<path d="M37.4685 19.3711C37.7217 19.3711 37.9645 19.4702 38.1435 19.6466C38.3225 19.823 38.4231 20.0622 38.4231 20.3117C38.4231 20.5612 38.3225 20.8004 38.1435 20.9768C37.9645 21.1532 37.7217 21.2523 37.4685 21.2523C37.2154 21.2523 36.9726 21.1532 36.7936 20.9768C36.6145 20.8004 36.514 20.5612 36.514 20.3117C36.514 20.0622 36.6145 19.823 36.7936 19.6466C36.9726 19.4702 37.2154 19.3711 37.4685 19.3711Z" fill="#161616"/>
<path d="M21.6973 21.0897C21.1953 21.5987 20.5133 21.8745 19.7958 21.8745C18.325 21.8745 17.2556 20.7362 17.2556 19.1737C17.2556 17.6041 18.325 16.4657 19.7958 16.4657C20.5064 16.4657 21.1807 16.7412 21.6904 17.2434L21.891 17.4415L22.7736 16.5718L22.5799 16.3737C21.8481 15.6312 20.8579 15.2285 19.7958 15.2285C17.6289 15.2285 16 16.9253 16 19.1805C16 21.4289 17.6361 23.1189 19.7958 23.1189C20.8652 23.1189 21.8554 22.7091 22.5871 21.9665L22.7809 21.7685L21.9056 20.8848L21.6973 21.0897Z" fill="#161616"/>
</g>
<g clip-path="url(#clip1_1696_17909)">
<path fill-rule="evenodd" clip-rule="evenodd" d="M17.9333 28.0053L19.1281 28.7153L18.812 27.3763L19.8667 26.4757L18.4764 26.3582L17.9333 25.0957L17.3903 26.3582L16 26.4757L17.0546 27.3763L16.7385 28.7153L17.9333 28.0053Z" fill="#161616"/>
</g>
<g clip-path="url(#clip2_1696_17909)">
<path fill-rule="evenodd" clip-rule="evenodd" d="M24.2165 27.7709L25.4113 28.481L25.0952 27.1419L26.1498 26.2414L24.7596 26.1238L24.2165 24.8613L23.6734 26.1238L22.2832 26.2414L23.3378 27.1419L23.0217 28.481L24.2165 27.7709Z" fill="#161616"/>
</g>
<g clip-path="url(#clip3_1696_17909)">
<path fill-rule="evenodd" clip-rule="evenodd" d="M30.5003 27.7709L31.6951 28.481L31.379 27.1419L32.4336 26.2414L31.0434 26.1238L30.5003 24.8613L29.9572 26.1238L28.567 26.2414L29.6216 27.1419L29.3055 28.481L30.5003 27.7709Z" fill="#161616"/>
</g>
<g clip-path="url(#clip4_1696_17909)">
<path fill-rule="evenodd" clip-rule="evenodd" d="M36.7835 27.7709L37.9783 28.481L37.6622 27.1419L38.7168 26.2414L37.3266 26.1238L36.7835 24.8613L36.2404 26.1238L34.8502 26.2414L35.9048 27.1419L35.5887 28.481L36.7835 27.7709Z" fill="#161616"/>
</g>
<g clip-path="url(#clip5_1696_17909)">
<path fill-rule="evenodd" clip-rule="evenodd" d="M43.0667 27.7709L44.2615 28.481L43.9454 27.1419L45 26.2414L43.6097 26.1238L43.0667 24.8613L42.5236 26.1238L41.1333 26.2414L42.188 27.1419L41.8719 28.481L43.0667 27.7709Z" fill="#161616"/>
</g>
<path d="M74.0684 14.9082H76.5722C78.5875 14.9082 79.9921 16.2778 79.9921 18.043V18.0734C79.9921 19.8386 78.618 21.2082 76.5722 21.2082H74.0684V14.9082ZM76.5722 19.9299C77.7325 19.9299 78.4959 19.1691 78.4959 18.0734V18.043C78.4959 16.9473 77.7325 16.156 76.5722 16.156H75.5035V19.9299H76.5722Z" fill="#161616"/>
<path d="M81.2138 14.9082H86.0687V16.1256H82.6489V17.4038H85.6718V18.6212H82.6489V19.9299H86.1299V21.1473H81.2443L81.2138 14.9082Z" fill="#161616"/>
<path d="M86.924 20.2643L87.7789 19.2904C88.359 19.7469 88.9698 20.0512 89.7027 20.0512C90.2827 20.0512 90.6186 19.8078 90.6186 19.473V19.4425C90.6186 19.0773 90.3744 18.8947 89.3361 18.6512C88.0536 18.3164 87.1989 17.9817 87.1989 16.7338V16.7034C87.1989 15.5773 88.1148 14.8164 89.4582 14.8164C90.3744 14.8164 91.1989 15.0904 91.8399 15.6078L91.1072 16.673C90.5576 16.2773 89.9773 16.0643 89.4277 16.0643C88.8781 16.0643 88.6032 16.3078 88.6032 16.6121V16.5817C88.6032 16.9773 88.8781 17.1295 89.9773 17.4034C91.2903 17.7382 91.9927 18.1947 91.9927 19.2599V19.2904C91.9927 20.5382 91.0156 21.2382 89.6415 21.2382C88.6644 21.2382 87.6873 20.9034 86.924 20.2643Z" fill="#161616"/>
<path d="M93.2747 14.9082H94.679V21.1778H93.2747V14.9082Z" fill="#161616"/>
<path d="M96.0226 18.0437C96.0226 16.248 97.4272 14.7871 99.3814 14.7871C100.542 14.7871 101.213 15.0915 101.885 15.6698L101 16.735C100.511 16.3393 100.084 16.0958 99.3205 16.0958C98.2822 16.0958 97.4882 16.9784 97.4882 18.0437V18.0741C97.4882 19.2306 98.2822 20.0828 99.4426 20.0828C99.9615 20.0828 100.42 19.9611 100.786 19.6871V18.8045H99.3509V17.6176H102.129V20.3263C101.458 20.8741 100.572 21.3306 99.3814 21.3306C97.3663 21.2393 96.0226 19.9002 96.0226 18.0437Z" fill="#161616"/>
<path d="M103.473 14.9082H104.786L107.778 18.743V14.9082H109.152V21.1778H107.961L104.847 17.1908V21.1778H103.473V14.9082Z" fill="#161616"/>
<path d="M110.71 14.9082H113.642C114.466 14.9082 115.077 15.1517 115.504 15.5473C115.871 15.9125 116.054 16.3995 116.054 16.9778V17.0082C116.054 18.0125 115.504 18.6517 114.68 18.956L116.237 21.1778H114.588L113.214 19.1691H113.184H112.085V21.1778H110.649V14.9082H110.71ZM113.55 17.9212C114.252 17.9212 114.619 17.556 114.619 17.0386V17.0082C114.619 16.4299 114.222 16.1256 113.52 16.1256H112.115V17.9212H113.55Z" fill="#161616"/>
<path d="M117.245 18.4694V14.8781H118.649V18.4085C118.649 19.4433 119.168 19.9303 120.023 19.9303C120.878 19.9303 121.397 19.4129 121.397 18.4085V14.8477H122.802V18.3781C122.802 20.265 121.703 21.2085 119.993 21.2085C118.283 21.2085 117.245 20.2955 117.245 18.4694Z" fill="#161616"/>
<path d="M123.81 20.2643L124.664 19.2904C125.244 19.7469 125.855 20.0512 126.588 20.0512C127.168 20.0512 127.504 19.8078 127.504 19.473V19.4425C127.504 19.0773 127.26 18.8947 126.222 18.6512C124.939 18.3164 124.084 17.9817 124.084 16.7338V16.7034C124.084 15.5773 125 14.8164 126.344 14.8164C127.26 14.8164 128.084 15.0904 128.725 15.6078L127.993 16.673C127.443 16.2773 126.863 16.0643 126.313 16.0643C125.764 16.0643 125.489 16.3078 125.489 16.6121V16.5817C125.489 16.9773 125.764 17.1295 126.863 17.4034C128.176 17.7382 128.878 18.1947 128.878 19.2599V19.2904C128.878 20.5382 127.901 21.2382 126.527 21.2382C125.58 21.2382 124.573 20.9034 123.81 20.2643Z" fill="#161616"/>
<path d="M130.1 14.9082H131.504V17.4038H134.1V14.9082H135.504V21.1778H134.1V18.6821H131.504V21.1778H130.1V14.9082Z" fill="#161616"/>
<path d="M66.0076 18.4386C65.9771 18.4082 65.9771 18.4386 66.0076 18.4386L65.855 18.3473L65.8244 18.3169L62.2214 15.7604C62.2214 15.7604 62.1908 15.7604 62.1908 15.7299L62.1298 15.6691L62.0992 15.6386H62.0382L61 14.9082L63.0458 15.2125C63.1374 15.2125 63.1679 15.243 63.2595 15.2734C63.2901 15.2734 63.3511 15.3038 63.3511 15.3038C63.4427 15.3343 63.4733 15.3647 63.5343 15.3951C63.5954 15.4256 63.626 15.456 63.687 15.4864C63.7175 15.5169 63.7786 15.5473 63.7786 15.5778C63.8092 15.6082 63.8397 15.6082 63.8702 15.6386C63.9313 15.6691 63.9618 15.6995 63.9618 15.7299C64.0534 15.8212 64.1145 15.9125 64.2061 15.9734L65.8244 18.256L65.855 18.2864L66.0076 18.4386Z" fill="#161616"/>
<path d="M66.0076 21.9691L65.8549 21.7256L65.8244 21.6951L61.0305 14.9082L62.0687 15.6386L62.2519 15.7604L65.8549 18.3169H65.8854L66.0076 18.4082C66.0076 18.4082 66.0381 18.4082 66.0381 18.4386L66.1908 18.3169L71.0457 14.9082L66.1603 21.7256L66.1297 21.756L66.0076 21.9691Z" fill="#161616"/>
<path d="M66.0074 17.2837L65.8548 17.0403L65.8243 17.0098L64.6334 15.3664L65.8243 15.6098H65.8548L66.0074 15.6403L66.1601 15.6098L67.3205 15.3359L66.1601 17.0403V17.0707L66.0074 17.2837Z" fill="#161616"/>
<path d="M71.0765 14.8789L69.5497 15.0919L68.9696 15.1832C68.5116 15.2441 68.0841 15.4876 67.8093 15.8832L66.191 18.1963L66.1604 18.2267L66.0078 18.4398L66.191 18.2571L66.2215 18.2267L66.0078 18.4398L70.1299 15.518L71.0765 14.8789Z" fill="#161616"/>
<path d="M66.771 10.0704C66.771 11.4095 64.4504 12.1095 64.4504 13.54C64.4199 13.8747 64.5115 14.2095 64.6642 14.5139C64.6642 14.5139 63.7787 13.6617 63.7787 12.7487C63.7787 11.8356 64.6336 10.466 64.6336 10.466C64.6336 11.0747 64.8779 11.2573 65.1222 11.2878H65.1527C65.4275 11.2878 65.5802 11.0747 65.5802 10.7704C65.5802 10.466 65.2443 10.1617 65.2443 9.55299C65.2443 8.97473 65.9771 8.03125 65.9771 8.03125C66.4962 8.63995 66.771 9.33995 66.771 10.0704Z" fill="#161616"/>
<path d="M66.1296 14.9392C65.3968 14.9392 64.8472 14.361 64.8472 13.661V13.6305C64.8472 12.0783 67.0152 11.9262 67.0152 9.82617C67.0762 9.91747 67.6564 10.7088 67.6564 11.561C67.6564 12.6262 66.6487 12.9001 66.6487 13.4175C66.6487 13.6305 66.7404 13.7827 67.0457 13.7827C67.0762 13.7827 67.1067 13.7827 67.1373 13.7523C67.7174 13.5088 68.1144 12.961 68.1449 12.3218C68.1449 12.3523 68.4503 14.9392 66.1296 14.9392Z" fill="#161616"/>
<path d="M67.0765 13.7827C67.107 13.7827 67.1375 13.7827 67.1681 13.7523C66.8627 13.8436 65.733 14.1175 65.733 13.3262C65.733 12.3523 67.4123 12.1392 67.4123 11.3175C67.4123 10.8001 67.2902 10.2827 67.0154 9.82617C67.0765 9.91747 67.6566 10.7088 67.6566 11.561C67.6566 12.6262 66.649 12.9001 66.649 13.4175C66.6795 13.6305 66.8017 13.7827 67.0765 13.7827Z" fill="#161616"/>
<path d="M66.1602 10.6182C66.1602 11.3791 65.1831 11.3182 65.122 11.2878H65.2136C65.4884 11.2878 65.6411 11.0747 65.6411 10.7704C65.6411 10.466 65.3052 10.1617 65.3052 9.55299C65.3052 8.97473 66.038 8.03125 66.038 8.03125C65.7937 8.4269 65.6716 8.85299 65.6411 9.27908C65.6411 9.97908 66.1602 10.0399 66.1602 10.6182Z" fill="#161616"/>
<path d="M65.5494 23.9169L64.8777 23.4604H65.7021L65.9769 22.6387L66.2212 23.4604H67.0456L66.3739 23.9169L66.6181 24.7082L65.9464 24.2213L65.2441 24.7082L65.5494 23.9169Z" fill="#161616"/>
<path d="M69.061 23.9169L68.3892 23.4604H69.2136L69.4885 22.6387L69.7327 23.4604H70.5571L69.8854 23.9169L70.1297 24.7082L69.4579 24.2213L68.7556 24.7082L69.061 23.9169Z" fill="#161616"/>
<path d="M62.0684 23.9169L61.3967 23.4604H62.2211L62.4959 22.6387L62.7402 23.4604H63.5646L62.8929 23.9169L63.1371 24.7082L62.4654 24.2213L61.7936 24.7082L62.0684 23.9169Z" fill="#161616"/>
<path d="M127.878 26.8697V26.3976L128.985 25.3762C129.079 25.2855 129.158 25.2038 129.222 25.1311C129.287 25.0585 129.336 24.9874 129.37 24.9178C129.403 24.8472 129.42 24.771 129.42 24.6893C129.42 24.5985 129.399 24.5203 129.358 24.4548C129.316 24.3882 129.259 24.3373 129.187 24.302C129.115 24.2656 129.034 24.2475 128.943 24.2475C128.848 24.2475 128.764 24.2666 128.694 24.305C128.623 24.3433 128.568 24.3983 128.53 24.4699C128.491 24.5415 128.472 24.6268 128.472 24.7256H127.847C127.847 24.5229 127.893 24.3468 127.986 24.1975C128.078 24.0483 128.207 23.9328 128.373 23.8511C128.539 23.7693 128.731 23.7285 128.947 23.7285C129.17 23.7285 129.364 23.7678 129.53 23.8465C129.695 23.9242 129.825 24.0321 129.917 24.1703C130.009 24.3085 130.055 24.4669 130.055 24.6454C130.055 24.7624 130.032 24.8779 129.985 24.9919C129.939 25.1059 129.858 25.2325 129.74 25.3717C129.623 25.5099 129.457 25.6758 129.243 25.8695L128.789 26.3129V26.334H130.096V26.8697H127.878Z" fill="#161616"/>
<path d="M131.793 26.9378C131.532 26.9368 131.307 26.8727 131.118 26.7456C130.931 26.6185 130.786 26.4344 130.685 26.1933C130.585 25.9522 130.536 25.6622 130.537 25.3233C130.537 24.9854 130.587 24.6974 130.687 24.4593C130.788 24.2213 130.933 24.0402 131.12 23.9161C131.308 23.791 131.533 23.7285 131.793 23.7285C132.054 23.7285 132.277 23.791 132.464 23.9161C132.653 24.0412 132.798 24.2228 132.899 24.4608C133 24.6979 133.051 24.9854 133.05 25.3233C133.05 25.6632 132.999 25.9537 132.898 26.1948C132.797 26.4359 132.654 26.62 132.466 26.7471C132.279 26.8742 132.055 26.9378 131.793 26.9378ZM131.793 26.3946C131.972 26.3946 132.114 26.3053 132.22 26.1267C132.326 25.9482 132.379 25.6804 132.378 25.3233C132.378 25.0883 132.354 24.8926 132.305 24.7362C132.257 24.5799 132.19 24.4623 132.101 24.3837C132.014 24.305 131.912 24.2656 131.793 24.2656C131.616 24.2656 131.474 24.3539 131.368 24.5304C131.261 24.707 131.208 24.9712 131.207 25.3233C131.207 25.5614 131.231 25.7601 131.278 25.9194C131.326 26.0778 131.395 26.1968 131.483 26.2765C131.571 26.3552 131.675 26.3946 131.793 26.3946Z" fill="#161616"/>
<path d="M133.519 26.8697V26.3976L134.626 25.3762C134.721 25.2855 134.8 25.2038 134.864 25.1311C134.928 25.0585 134.977 24.9874 135.011 24.9178C135.044 24.8472 135.061 24.771 135.061 24.6893C135.061 24.5985 135.04 24.5203 134.999 24.4548C134.957 24.3882 134.9 24.3373 134.828 24.302C134.756 24.2656 134.675 24.2475 134.584 24.2475C134.489 24.2475 134.406 24.2666 134.334 24.305C134.264 24.3433 134.209 24.3983 134.171 24.4699C134.132 24.5415 134.113 24.6268 134.113 24.7256H133.488C133.488 24.5229 133.534 24.3468 133.627 24.1975C133.719 24.0483 133.848 23.9328 134.014 23.8511C134.18 23.7693 134.371 23.7285 134.588 23.7285C134.811 23.7285 135.005 23.7678 135.17 23.8465C135.336 23.9242 135.466 24.0321 135.558 24.1703C135.65 24.3085 135.696 24.4669 135.696 24.6454C135.696 24.7624 135.673 24.8779 135.626 24.9919C135.581 25.1059 135.499 25.2325 135.382 25.3717C135.264 25.5099 135.098 25.6758 134.885 25.8695L134.43 26.3129V26.334H135.737V26.8697H133.519Z" fill="#161616"/>
<path d="M136.214 26.8697V26.3976L137.321 25.3762C137.416 25.2855 137.495 25.2038 137.559 25.1311C137.623 25.0585 137.672 24.9874 137.706 24.9178C137.739 24.8472 137.756 24.771 137.756 24.6893C137.756 24.5985 137.735 24.5203 137.694 24.4548C137.652 24.3882 137.596 24.3373 137.524 24.302C137.452 24.2656 137.37 24.2475 137.279 24.2475C137.184 24.2475 137.101 24.2666 137.03 24.305C136.959 24.3433 136.904 24.3983 136.866 24.4699C136.827 24.5415 136.808 24.6268 136.808 24.7256H136.183C136.183 24.5229 136.229 24.3468 136.322 24.1975C136.414 24.0483 136.543 23.9328 136.709 23.8511C136.875 23.7693 137.067 23.7285 137.284 23.7285C137.506 23.7285 137.7 23.7678 137.865 23.8465C138.031 23.9242 138.161 24.0321 138.253 24.1703C138.345 24.3085 138.391 24.4669 138.391 24.6454C138.391 24.7624 138.368 24.8779 138.321 24.9919C138.276 25.1059 138.194 25.2325 138.077 25.3717C137.959 25.5099 137.793 25.6758 137.58 25.8695L137.126 26.3129V26.334H138.432V26.8697H136.214Z" fill="#161616"/>
<path d="M74.8737 26.8689H73.9673L75.3485 22.8848H76.4385L77.8177 26.8689H76.9113L75.9091 23.7952H75.8779L74.8737 26.8689ZM74.8171 25.3029H76.9582V25.9604H74.8171V25.3029Z" fill="#161616"/>
<path d="M79.4994 26.9272C79.1921 26.9272 78.9277 26.8624 78.7063 26.7327C78.4862 26.6017 78.3169 26.4201 78.1984 26.188C78.0812 25.9558 78.0226 25.6886 78.0226 25.3864C78.0226 25.0804 78.0818 24.8119 78.2003 24.581C78.3202 24.3489 78.4901 24.168 78.7102 24.0383C78.9303 23.9073 79.1921 23.8418 79.4955 23.8418C79.7573 23.8418 79.9865 23.8891 80.1832 23.9838C80.3799 24.0785 80.5355 24.2114 80.6501 24.3826C80.7647 24.5538 80.8279 24.7548 80.8396 24.9857H80.0543C80.0321 24.8365 79.9735 24.7166 79.8784 24.6258C79.7847 24.5337 79.6616 24.4877 79.5092 24.4877C79.3803 24.4877 79.2677 24.5227 79.1712 24.5927C79.0762 24.6615 79.0019 24.762 78.9485 24.8943C78.8951 25.0265 78.8684 25.1867 78.8684 25.3748C78.8684 25.5654 78.8945 25.7275 78.9466 25.8611C79 25.9947 79.0749 26.0965 79.1712 26.1666C79.2677 26.2366 79.3803 26.2716 79.5092 26.2716C79.6043 26.2716 79.6896 26.2522 79.7651 26.2132C79.842 26.1743 79.9051 26.1179 79.9546 26.044C80.0054 25.9688 80.0386 25.8786 80.0543 25.7736H80.8396C80.8266 26.0018 80.7641 26.2029 80.6521 26.3767C80.5413 26.5492 80.3883 26.684 80.193 26.7813C79.9976 26.8786 79.7664 26.9272 79.4994 26.9272Z" fill="#161616"/>
<path d="M82.7284 26.9272C82.4211 26.9272 82.1567 26.8624 81.9353 26.7327C81.7152 26.6017 81.5459 26.4201 81.4274 26.188C81.3102 25.9558 81.2515 25.6886 81.2515 25.3864C81.2515 25.0804 81.3108 24.8119 81.4293 24.581C81.5491 24.3489 81.7191 24.168 81.9392 24.0383C82.1593 23.9073 82.4211 23.8418 82.7245 23.8418C82.9863 23.8418 83.2155 23.8891 83.4122 23.9838C83.6088 24.0785 83.7645 24.2114 83.8791 24.3826C83.9937 24.5538 84.0568 24.7548 84.0686 24.9857H83.2832C83.2611 24.8365 83.2025 24.7166 83.1074 24.6258C83.0136 24.5337 82.8906 24.4877 82.7382 24.4877C82.6092 24.4877 82.4966 24.5227 82.4002 24.5927C82.3051 24.6615 82.2309 24.762 82.1775 24.8943C82.1241 25.0265 82.0974 25.1867 82.0974 25.3748C82.0974 25.5654 82.1235 25.7275 82.1756 25.8611C82.229 25.9947 82.3039 26.0965 82.4002 26.1666C82.4966 26.2366 82.6092 26.2716 82.7382 26.2716C82.8332 26.2716 82.9186 26.2522 82.9941 26.2132C83.0709 26.1743 83.1341 26.1179 83.1836 26.044C83.2344 25.9688 83.2676 25.8786 83.2832 25.7736H84.0686C84.0555 26.0018 83.993 26.2029 83.881 26.3767C83.7703 26.5492 83.6173 26.684 83.422 26.7813C83.2266 26.8786 82.9954 26.9272 82.7284 26.9272Z" fill="#161616"/>
<path d="M84.601 26.8688V23.8807H85.4078V24.402H85.4391C85.4938 24.2166 85.5856 24.0765 85.7145 23.9818C85.8433 23.8859 85.9919 23.8379 86.1599 23.8379C86.2015 23.8379 86.2466 23.8405 86.2946 23.8457C86.3429 23.8508 86.3853 23.858 86.4217 23.8671V24.6024C86.3825 24.5907 86.3285 24.5804 86.2594 24.5713C86.1906 24.5622 86.1274 24.5577 86.07 24.5577C85.9476 24.5577 85.8381 24.5843 85.7419 24.6374C85.6468 24.6893 85.5713 24.7619 85.5152 24.8553C85.4606 24.9487 85.4332 25.0563 85.4332 25.1783V26.8688H84.601Z" fill="#161616"/>
<path d="M88.0801 26.9272C87.7715 26.9272 87.506 26.865 87.2831 26.7404C87.0617 26.6146 86.8913 26.437 86.7714 26.2074C86.6515 25.9766 86.5916 25.7035 86.5916 25.3884C86.5916 25.081 86.6515 24.8113 86.7714 24.5791C86.8913 24.347 87.0599 24.166 87.2774 24.0363C87.4961 23.9066 87.7527 23.8418 88.0469 23.8418C88.2451 23.8418 88.4294 23.8736 88.6 23.9371C88.7719 23.9994 88.9215 24.0934 89.0493 24.2192C89.1781 24.345 89.2784 24.5032 89.35 24.6939C89.4218 24.8832 89.4575 25.105 89.4575 25.3592V25.5868H86.9237V25.0732H88.6741C88.6741 24.9539 88.6481 24.8482 88.596 24.7561C88.5438 24.6641 88.4717 24.5921 88.3791 24.5402C88.2879 24.487 88.1819 24.4604 88.0608 24.4604C87.9345 24.4604 87.8223 24.4896 87.7247 24.548C87.6284 24.605 87.5528 24.6822 87.4981 24.7795C87.4433 24.8755 87.4154 24.9825 87.4141 25.1005V25.5888C87.4141 25.7366 87.4414 25.8644 87.4961 25.972C87.5521 26.0797 87.6308 26.1627 87.7326 26.221C87.8342 26.2794 87.9546 26.3086 88.094 26.3086C88.1864 26.3086 88.2711 26.2956 88.3479 26.2697C88.4246 26.2437 88.4905 26.2048 88.5453 26.1529C88.6 26.1011 88.6416 26.0375 88.6701 25.9623L89.4399 26.0129C89.4007 26.197 89.3207 26.3579 89.1996 26.4953C89.0798 26.6315 88.9247 26.7379 88.7347 26.8144C88.5458 26.8896 88.3278 26.9272 88.0801 26.9272Z" fill="#161616"/>
<path d="M91.1058 26.9176C90.8779 26.9176 90.6716 26.8592 90.4866 26.7425C90.303 26.6245 90.1572 26.4513 90.0489 26.2231C89.9422 25.9935 89.8889 25.7121 89.8889 25.3788C89.8889 25.0364 89.9441 24.7517 90.0549 24.5247C90.1656 24.2965 90.3127 24.1259 90.4965 24.0131C90.6812 23.899 90.8838 23.8419 91.104 23.8419C91.2719 23.8419 91.4119 23.8704 91.5238 23.9275C91.6373 23.9833 91.7284 24.0533 91.7975 24.1376C91.8679 24.2206 91.9211 24.3023 91.9575 24.3827H91.983V22.8848H92.8133V26.8689H91.9927V26.3904H91.9575C91.9186 26.4734 91.8632 26.5557 91.7916 26.6374C91.7212 26.7179 91.6293 26.7846 91.5162 26.8378C91.4042 26.891 91.2675 26.9176 91.1058 26.9176ZM91.3695 26.2581C91.5038 26.2581 91.617 26.2218 91.7096 26.1491C91.8032 26.0752 91.875 25.9721 91.9243 25.8398C91.9751 25.7075 92.0006 25.5526 92.0006 25.3749C92.0006 25.1972 91.9759 25.0429 91.9263 24.9119C91.8768 24.7809 91.8052 24.6797 91.7116 24.6084C91.6177 24.5371 91.5038 24.5014 91.3695 24.5014C91.2328 24.5014 91.1176 24.5384 91.0238 24.6123C90.9302 24.6862 90.8591 24.7887 90.811 24.9197C90.7627 25.0506 90.7387 25.2024 90.7387 25.3749C90.7387 25.5487 90.7627 25.7024 90.811 25.8359C90.8603 25.9682 90.9314 26.072 91.0238 26.1472C91.1176 26.2211 91.2328 26.2581 91.3695 26.2581Z" fill="#161616"/>
<path d="M93.4978 26.87V23.8819H94.33V26.87H93.4978ZM93.9159 23.4967C93.7923 23.4967 93.6861 23.4559 93.5976 23.3742C93.5102 23.2911 93.4666 23.1919 93.4666 23.0765C93.4666 22.9624 93.5102 22.8645 93.5976 22.7828C93.6861 22.6997 93.7923 22.6582 93.9159 22.6582C94.0397 22.6582 94.1453 22.6997 94.2324 22.7828C94.3209 22.8645 94.3652 22.9624 94.3652 23.0765C94.3652 23.1919 94.3209 23.2911 94.2324 23.3742C94.1453 23.4559 94.0397 23.4967 93.9159 23.4967Z" fill="#161616"/>
<path d="M96.5926 23.8819V24.5044H94.7853V23.8819H96.5926ZM95.1957 23.166H96.0279V25.9518C96.0279 26.0283 96.0395 26.088 96.063 26.1308C96.0863 26.1723 96.1193 26.2015 96.1606 26.2183C96.2035 26.2352 96.253 26.2436 96.3092 26.2436C96.3481 26.2436 96.3873 26.2404 96.4264 26.2339C96.4653 26.2261 96.4955 26.2203 96.5163 26.2164L96.6471 26.8331C96.6055 26.8461 96.547 26.861 96.4715 26.8778C96.3957 26.896 96.304 26.907 96.1958 26.9109C95.9954 26.9187 95.8196 26.8921 95.6683 26.8311C95.5187 26.7702 95.4022 26.6755 95.3188 26.5471C95.2356 26.4187 95.1944 26.2566 95.1957 26.0608V23.166Z" fill="#161616"/>
<path d="M98.4695 26.9272C98.1609 26.9272 97.8956 26.865 97.6727 26.7404C97.4513 26.6146 97.2806 26.437 97.1608 26.2074C97.0409 25.9766 96.981 25.7035 96.981 25.3884C96.981 25.081 97.0409 24.8113 97.1608 24.5791C97.2806 24.347 97.4493 24.166 97.667 24.0363C97.8855 23.9066 98.1423 23.8418 98.4366 23.8418C98.6347 23.8418 98.8187 23.8736 98.9894 23.9371C99.1613 23.9994 99.3111 24.0934 99.4387 24.2192C99.5675 24.345 99.668 24.5032 99.7396 24.6939C99.8112 24.8832 99.8471 25.105 99.8471 25.3592V25.5868H97.3131V25.0732H99.0637C99.0637 24.9539 99.0377 24.8482 98.9854 24.7561C98.9337 24.6641 98.8613 24.5921 98.7685 24.5402C98.6776 24.487 98.5713 24.4604 98.4502 24.4604C98.3241 24.4604 98.2119 24.4896 98.1141 24.548C98.0177 24.605 97.9424 24.6822 97.8875 24.7795C97.833 24.8755 97.8047 24.9825 97.8035 25.1005V25.5888C97.8035 25.7366 97.831 25.8644 97.8855 25.972C97.9417 26.0797 98.0205 26.1627 98.1223 26.221C98.2236 26.2794 98.3442 26.3086 98.4834 26.3086C98.576 26.3086 98.6605 26.2956 98.7375 26.2697C98.8143 26.2437 98.8799 26.2048 98.9346 26.1529C98.9894 26.1011 99.031 26.0375 99.0597 25.9623L99.8293 26.0129C99.7904 26.197 99.7101 26.3579 99.5893 26.4953C99.4694 26.6315 99.3143 26.7379 99.1244 26.8144C98.9351 26.8896 98.7172 26.9272 98.4695 26.9272Z" fill="#161616"/>
<path d="M101.496 26.9176C101.268 26.9176 101.062 26.8592 100.877 26.7425C100.693 26.6245 100.547 26.4513 100.439 26.2231C100.332 25.9935 100.279 25.7121 100.279 25.3788C100.279 25.0364 100.334 24.7517 100.445 24.5247C100.556 24.2965 100.703 24.1259 100.887 24.0131C101.072 23.899 101.274 23.8419 101.494 23.8419C101.662 23.8419 101.802 23.8704 101.914 23.9275C102.028 23.9833 102.119 24.0533 102.188 24.1376C102.258 24.2206 102.311 24.3023 102.348 24.3827H102.373V22.8848H103.204V26.8689H102.383V26.3904H102.348C102.309 26.4734 102.253 26.5557 102.182 26.6374C102.112 26.7179 102.02 26.7846 101.906 26.8378C101.795 26.891 101.658 26.9176 101.496 26.9176ZM101.76 26.2581C101.894 26.2581 102.007 26.2218 102.1 26.1491C102.194 26.0752 102.265 25.9721 102.315 25.8398C102.366 25.7075 102.391 25.5526 102.391 25.3749C102.391 25.1972 102.366 25.0429 102.317 24.9119C102.267 24.7809 102.196 24.6797 102.102 24.6084C102.008 24.5371 101.894 24.5014 101.76 24.5014C101.623 24.5014 101.508 24.5384 101.414 24.6123C101.32 24.6862 101.249 24.7887 101.201 24.9197C101.153 25.0506 101.129 25.2024 101.129 25.3749C101.129 25.5487 101.153 25.7024 101.201 25.8359C101.251 25.9682 101.321 26.072 101.414 26.1472C101.508 26.2211 101.623 26.2581 101.76 26.2581Z" fill="#161616"/>
<path d="M105.866 26.8689H104.959L106.341 22.8848H107.431L108.81 26.8689H107.904L106.902 23.7952H106.87L105.866 26.8689ZM105.809 25.3029H107.951V25.9604H105.809V25.3029Z" fill="#161616"/>
<path d="M110.489 28.0517C110.219 28.0517 109.988 28.0147 109.795 27.9408C109.603 27.8681 109.451 27.7689 109.338 27.6431C109.224 27.5173 109.151 27.3759 109.117 27.219L109.887 27.1159C109.91 27.1756 109.947 27.2313 109.998 27.2832C110.049 27.3351 110.116 27.3766 110.199 27.4077C110.284 27.4401 110.387 27.4564 110.508 27.4564C110.689 27.4564 110.838 27.4123 110.955 27.3241C111.074 27.2372 111.133 27.0913 111.133 26.8864V26.3397H111.098C111.061 26.4227 111.007 26.5012 110.934 26.5751C110.861 26.649 110.767 26.7093 110.653 26.756C110.538 26.8027 110.401 26.826 110.242 26.826C110.017 26.826 109.812 26.7742 109.627 26.6704C109.443 26.5654 109.297 26.4052 109.187 26.1899C109.079 25.9733 109.025 25.6997 109.025 25.3689C109.025 25.0304 109.081 24.7477 109.191 24.5207C109.302 24.2938 109.449 24.1239 109.633 24.011C109.818 23.8982 110.02 23.8418 110.24 23.8418C110.409 23.8418 110.549 23.8703 110.662 23.9274C110.776 23.9832 110.867 24.0532 110.936 24.1375C111.006 24.2205 111.06 24.3022 111.098 24.3826H111.129V23.8807H111.956V26.898C111.956 27.1522 111.893 27.3649 111.768 27.5361C111.643 27.7073 111.47 27.8357 111.248 27.9213C111.028 28.0082 110.775 28.0517 110.489 28.0517ZM110.506 26.2035C110.64 26.2035 110.754 26.1704 110.846 26.1043C110.94 26.0369 111.011 25.9409 111.061 25.8164C111.112 25.6906 111.137 25.5401 111.137 25.365C111.137 25.19 111.112 25.0382 111.063 24.9098C111.013 24.7801 110.942 24.6796 110.848 24.6083C110.754 24.537 110.64 24.5013 110.506 24.5013C110.369 24.5013 110.254 24.5383 110.16 24.6122C110.066 24.6848 109.995 24.786 109.947 24.9157C109.899 25.0454 109.875 25.1951 109.875 25.365C109.875 25.5375 109.899 25.6867 109.947 25.8125C109.997 25.937 110.068 26.0336 110.16 26.1024C110.254 26.1698 110.369 26.2035 110.506 26.2035Z" fill="#161616"/>
<path d="M113.985 26.9272C113.676 26.9272 113.411 26.865 113.188 26.7404C112.967 26.6146 112.796 26.437 112.676 26.2074C112.556 25.9766 112.496 25.7035 112.496 25.3884C112.496 25.081 112.556 24.8113 112.676 24.5791C112.796 24.347 112.965 24.166 113.182 24.0363C113.401 23.9066 113.657 23.8418 113.952 23.8418C114.15 23.8418 114.334 23.8736 114.505 23.9371C114.677 23.9994 114.826 24.0934 114.954 24.2192C115.083 24.345 115.183 24.5032 115.255 24.6939C115.326 24.8832 115.362 25.105 115.362 25.3592V25.5868H112.829V25.0732H114.579C114.579 24.9539 114.553 24.8482 114.501 24.7561C114.449 24.6641 114.376 24.5921 114.284 24.5402C114.193 24.487 114.087 24.4604 113.965 24.4604C113.839 24.4604 113.727 24.4896 113.629 24.548C113.533 24.605 113.457 24.6822 113.403 24.7795C113.348 24.8755 113.32 24.9825 113.319 25.1005V25.5888C113.319 25.7366 113.346 25.8644 113.401 25.972C113.457 26.0797 113.535 26.1627 113.637 26.221C113.739 26.2794 113.859 26.3086 113.999 26.3086C114.091 26.3086 114.176 26.2956 114.253 26.2697C114.33 26.2437 114.395 26.2048 114.45 26.1529C114.505 26.1011 114.546 26.0375 114.575 25.9623L115.345 26.0129C115.306 26.197 115.226 26.3579 115.105 26.4953C114.985 26.6315 114.83 26.7379 114.639 26.8144C114.451 26.8896 114.232 26.9272 113.985 26.9272Z" fill="#161616"/>
<path d="M116.738 25.1413V26.8688H115.906V23.8807H116.699V24.4079H116.734C116.8 24.2341 116.912 24.0966 117.068 23.9955C117.224 23.893 117.414 23.8418 117.637 23.8418C117.845 23.8418 118.027 23.8872 118.181 23.978C118.336 24.0688 118.457 24.1985 118.543 24.3671C118.629 24.5344 118.672 24.7341 118.672 24.9662V26.8688H117.84V25.1141C117.841 24.9312 117.794 24.7886 117.699 24.6861C117.604 24.5823 117.473 24.5305 117.306 24.5305C117.194 24.5305 117.095 24.5545 117.009 24.6024C116.924 24.6504 116.858 24.7205 116.81 24.8126C116.763 24.9033 116.739 25.0129 116.738 25.1413Z" fill="#161616"/>
<path d="M120.683 26.9272C120.376 26.9272 120.112 26.8624 119.89 26.7327C119.67 26.6017 119.501 26.4201 119.382 26.188C119.265 25.9558 119.206 25.6886 119.206 25.3864C119.206 25.0804 119.265 24.8119 119.384 24.581C119.504 24.3489 119.674 24.168 119.894 24.0383C120.114 23.9073 120.376 23.8418 120.679 23.8418C120.941 23.8418 121.17 23.8891 121.367 23.9838C121.564 24.0785 121.719 24.2114 121.834 24.3826C121.949 24.5538 122.012 24.7548 122.023 24.9857H121.238C121.216 24.8365 121.157 24.7166 121.062 24.6258C120.969 24.5337 120.845 24.4877 120.693 24.4877C120.564 24.4877 120.451 24.5227 120.355 24.5927C120.26 24.6615 120.186 24.762 120.132 24.8943C120.079 25.0265 120.052 25.1867 120.052 25.3748C120.052 25.5654 120.078 25.7275 120.13 25.8611C120.184 25.9947 120.259 26.0965 120.355 26.1666C120.451 26.2366 120.564 26.2716 120.693 26.2716C120.788 26.2716 120.873 26.2522 120.949 26.2132C121.026 26.1743 121.089 26.1179 121.138 26.044C121.189 25.9688 121.222 25.8786 121.238 25.7736H122.023C122.01 26.0018 121.948 26.2029 121.836 26.3767C121.725 26.5492 121.572 26.684 121.377 26.7813C121.182 26.8786 120.95 26.9272 120.683 26.9272Z" fill="#161616"/>
<path d="M123.07 27.9896C122.964 27.9896 122.865 27.9811 122.773 27.9643C122.682 27.9487 122.606 27.9286 122.546 27.904L122.734 27.2853C122.832 27.3152 122.919 27.3314 122.998 27.334C123.077 27.3366 123.145 27.3184 123.203 27.2795C123.261 27.2406 123.309 27.1744 123.345 27.0811L123.394 26.9546L122.318 23.8809H123.193L123.814 26.0753H123.845L124.472 23.8809H125.354L124.187 27.192C124.131 27.3528 124.055 27.4928 123.958 27.6122C123.863 27.7328 123.743 27.8255 123.597 27.8904C123.451 27.9565 123.276 27.9896 123.07 27.9896Z" fill="#161616"/>
<rect x="0.5" y="0.5" width="156" height="36" rx="18" stroke="url(#paint0_linear_1696_17909)"/>
<defs>
<linearGradient id="paint0_linear_1696_17909" x1="5.5079e-07" y1="2.92105" x2="14.4822" y2="60.7496" gradientUnits="userSpaceOnUse">
<stop stop-color="#082B9B"/>
<stop offset="1" stop-color="#86B7E0"/>
</linearGradient>
<clipPath id="clip0_1696_17909">
<rect width="29" height="8.13103" fill="white" transform="translate(16 15)"/>
</clipPath>
<clipPath id="clip1_1696_17909">
<rect width="3.86667" height="4.00064" fill="white" transform="translate(16 25)"/>
</clipPath>
<clipPath id="clip2_1696_17909">
<rect width="3.86667" height="4.00064" fill="white" transform="translate(22.2832 24.7656)"/>
</clipPath>
<clipPath id="clip3_1696_17909">
<rect width="3.86667" height="4.00064" fill="white" transform="translate(28.567 24.7656)"/>
</clipPath>
<clipPath id="clip4_1696_17909">
<rect width="3.86667" height="4.00064" fill="white" transform="translate(34.8502 24.7656)"/>
</clipPath>
<clipPath id="clip5_1696_17909">
<rect width="3.86666" height="4.00064" fill="white" transform="translate(41.1333 24.7656)"/>
</clipPath>
</defs>
</svg>
