<svg width="67" height="56" viewBox="0 0 67 56" fill="none" xmlns="http://www.w3.org/2000/svg">
<rect x="1.5" y="1.5" width="64" height="53" rx="18.5" fill="url(#paint0_linear_1740_24617)"/>
<g clip-path="url(#clip0_1740_24617)">
<path d="M25.1461 33.5422L20 27.9985L36.7092 10H47M47 26.609H36.7092L32.8544 30.7616L38.0005 36.3052" fill="#F2F0EE"/>
<path d="M32.8555 41.8468L36.7103 45.9995H47.0011L38.0015 36.3047" fill="#F2F0EE"/>
<path d="M27.7188 36.3078L32.8567 30.7715L37.9947 36.3064L32.8567 41.8427L27.7188 36.3078Z" fill="#F2F0EE"/>
<path d="M32.8594 41.8435L37.9973 36.3086L38.7146 37.0812L33.5766 42.6161L32.8594 41.8435Z" fill="#E2DFDC"/>
<path d="M32.8555 41.8483L40.4908 39.0066L38.0015 36.3047" fill="url(#paint1_linear_1740_24617)"/>
</g>
<rect x="1.5" y="1.5" width="64" height="53" rx="18.5" stroke="url(#paint2_linear_1740_24617)" stroke-width="3"/>
<defs>
<linearGradient id="paint0_linear_1740_24617" x1="2.3505e-07" y1="4.42105" x2="46.1817" y2="56.4167" gradientUnits="userSpaceOnUse">
<stop stop-color="#082B9B"/>
<stop offset="1" stop-color="#86B7E0"/>
</linearGradient>
<linearGradient id="paint1_linear_1740_24617" x1="32.8812" y1="39.0403" x2="40.5164" y2="39.0403" gradientUnits="userSpaceOnUse">
<stop offset="0.2" stop-color="#100F0F" stop-opacity="0.55"/>
<stop offset="0.85" stop-color="#151517" stop-opacity="0.01"/>
</linearGradient>
<linearGradient id="paint2_linear_1740_24617" x1="2.3505e-07" y1="4.42105" x2="46.1817" y2="56.4167" gradientUnits="userSpaceOnUse">
<stop stop-color="#082B9B"/>
<stop offset="1" stop-color="#86B7E0"/>
</linearGradient>
<clipPath id="clip0_1740_24617">
<rect width="27" height="36" fill="white" transform="translate(20 10)"/>
</clipPath>
</defs>
</svg>
