<svg width="168" height="48" viewBox="0 0 168 48" fill="none" xmlns="http://www.w3.org/2000/svg">
<path d="M161.778 48H6.22222C2.80156 48 0 45.2985 0 42V6C0 2.7015 2.80156 2.86102e-06 6.22222 2.86102e-06H161.778C165.198 2.86102e-06 168 2.7015 168 6V42C168 45.2985 165.198 48 161.778 48Z" fill="white"/>
<path d="M161.778 0.961502C164.659 0.961502 167.003 3.222 167.003 6V42C167.003 44.778 164.659 47.0385 161.778 47.0385H6.22222C3.34133 47.0385 0.997111 44.778 0.997111 42V6C0.997111 3.222 3.34133 0.961502 6.22222 0.961502H161.778ZM161.778 2.86102e-06H6.22222C2.80156 2.86102e-06 0 2.7015 0 6V42C0 45.2985 2.80156 48 6.22222 48H161.778C165.198 48 168 45.2985 168 42V6C168 2.7015 165.198 2.86102e-06 161.778 2.86102e-06Z" fill="#A6A6A6"/>
<path d="M12.9853 9.04506C12.6198 9.41406 12.4082 9.98856 12.4082 10.7326V37.2706C12.4082 38.0146 12.6198 38.5891 12.9853 38.9581L13.0755 39.0391L28.4973 24.1741V23.8231L13.0755 8.95806L12.9853 9.04506Z" fill="url(#paint0_linear_1696_30064)"/>
<path d="M33.6329 29.1328L28.498 24.1753V23.8243L33.6392 18.8668L33.7543 18.9313L39.8427 22.2718C41.5803 23.2198 41.5803 24.7798 39.8427 25.7338L33.7543 29.0683L33.6329 29.1328Z" fill="url(#paint1_linear_1696_30064)"/>
<path d="M33.7536 29.067L28.4974 23.9985L12.9854 38.958C13.5625 39.543 14.5036 39.6135 15.5738 39.0285L33.7536 29.067Z" fill="url(#paint2_linear_1696_30064)"/>
<path d="M33.7536 18.9315L15.5738 8.97C14.5036 8.39101 13.5625 8.4615 12.9854 9.0465L28.4974 24L33.7536 18.9315Z" fill="url(#paint3_linear_1696_30064)"/>
<path d="M59.0075 12.2928C59.0075 13.2948 58.6964 14.0973 58.0835 14.6958C57.3788 15.4053 56.4611 15.7623 55.3364 15.7623C54.2615 15.7623 53.3437 15.3993 52.5908 14.6838C51.8364 13.9578 51.46 13.0668 51.46 12.0003C51.46 10.9338 51.8364 10.0428 52.5908 9.32278C53.3437 8.60128 54.2615 8.23828 55.3364 8.23828C55.8715 8.23828 56.3817 8.34478 56.8686 8.54278C57.354 8.74228 57.7491 9.01228 58.0353 9.34528L57.3851 9.97828C56.8857 9.40978 56.206 9.12928 55.3364 9.12928C54.5524 9.12928 53.8726 9.39328 53.2955 9.92578C52.7246 10.4598 52.4384 11.1513 52.4384 12.0003C52.4384 12.8493 52.7246 13.5468 53.2955 14.0808C53.8726 14.6073 54.5524 14.8773 55.3364 14.8773C56.1686 14.8773 56.8686 14.6073 57.4208 14.0748C57.7849 13.7223 57.9917 13.2363 58.0462 12.6153H55.3364V11.7483H58.9515C58.9951 11.9358 59.0075 12.1173 59.0075 12.2928Z" fill="#161616" stroke="#161616" stroke-width="0.24" stroke-miterlimit="10"/>
<path d="M64.7438 9.2878H61.3481V11.5678H64.4094V12.4348H61.3481V14.7148H64.7438V15.5983H60.3867V8.4043H64.7438V9.2878Z" fill="#161616" stroke="#161616" stroke-width="0.24" stroke-miterlimit="10"/>
<path d="M68.7923 15.5983H67.8309V9.2878H65.748V8.4043H70.8767V9.2878H68.7923V15.5983Z" fill="#161616" stroke="#161616" stroke-width="0.24" stroke-miterlimit="10"/>
<path d="M74.5869 15.5983V8.4043H75.5467V15.5983H74.5869Z" fill="#161616" stroke="#161616" stroke-width="0.24" stroke-miterlimit="10"/>
<path d="M79.802 15.5983H78.8485V9.2878H76.7578V8.4043H81.8927V9.2878H79.802V15.5983Z" fill="#161616" stroke="#161616" stroke-width="0.24" stroke-miterlimit="10"/>
<path d="M91.6007 14.6718C90.865 15.3993 89.9534 15.7623 88.8661 15.7623C87.7725 15.7623 86.8609 15.3993 86.1252 14.6718C85.3909 13.9458 85.0254 13.0548 85.0254 12.0003C85.0254 10.9458 85.3909 10.0548 86.1252 9.32878C86.8609 8.60128 87.7725 8.23828 88.8661 8.23828C89.9472 8.23828 90.8587 8.60128 91.5945 9.33478C92.335 10.0668 92.7005 10.9518 92.7005 12.0003C92.7005 13.0548 92.335 13.9458 91.6007 14.6718ZM86.8361 14.0688C87.3898 14.6073 88.0634 14.8773 88.8661 14.8773C89.6625 14.8773 90.3423 14.6073 90.8898 14.0688C91.4421 13.5303 91.7221 12.8388 91.7221 12.0003C91.7221 11.1618 91.4421 10.4703 90.8898 9.93178C90.3423 9.39328 89.6625 9.12328 88.8661 9.12328C88.0634 9.12328 87.3898 9.39328 86.8361 9.93178C86.2838 10.4703 86.0038 11.1618 86.0038 12.0003C86.0038 12.8388 86.2838 13.5303 86.8361 14.0688Z" fill="#161616" stroke="#161616" stroke-width="0.24" stroke-miterlimit="10"/>
<path d="M94.0518 15.5983V8.4043H95.2184L98.846 13.9993H98.888L98.846 12.6163V8.4043H99.8058V15.5983H98.804L95.0053 9.7273H94.9633L95.0053 11.1163V15.5983H94.0518Z" fill="#161616" stroke="#161616" stroke-width="0.24" stroke-miterlimit="10"/>
<path d="M84.7924 26.1026C81.8695 26.1026 79.4818 28.2476 79.4818 31.2071C79.4818 34.1426 81.8695 36.3101 84.7924 36.3101C87.7215 36.3101 90.1093 34.1426 90.1093 31.2071C90.1093 28.2476 87.7215 26.1026 84.7924 26.1026ZM84.7924 34.3001C83.1887 34.3001 81.8089 33.0236 81.8089 31.2071C81.8089 29.3666 83.1887 28.1126 84.7924 28.1126C86.3962 28.1126 87.7822 29.3666 87.7822 31.2071C87.7822 33.0236 86.3962 34.3001 84.7924 34.3001ZM73.2051 26.1026C70.276 26.1026 67.8944 28.2476 67.8944 31.2071C67.8944 34.1426 70.276 36.3101 73.2051 36.3101C76.1327 36.3101 78.5158 34.1426 78.5158 31.2071C78.5158 28.2476 76.1327 26.1026 73.2051 26.1026ZM73.2051 34.3001C71.5998 34.3001 70.2153 33.0236 70.2153 31.2071C70.2153 29.3666 71.5998 28.1126 73.2051 28.1126C74.8089 28.1126 76.1887 29.3666 76.1887 31.2071C76.1887 33.0236 74.8089 34.3001 73.2051 34.3001ZM59.4167 27.6671V29.8361H64.788C64.6309 31.0481 64.2109 31.9391 63.5669 32.5601C62.7829 33.3101 61.5618 34.1426 59.4167 34.1426C56.1111 34.1426 53.5227 31.5701 53.5227 28.3826C53.5227 25.1951 56.1111 22.6226 59.4167 22.6226C61.204 22.6226 62.5044 23.2961 63.4642 24.1691L65.0493 22.6406C63.7069 21.4046 61.9211 20.4551 59.4167 20.4551C54.8838 20.4551 51.0742 24.0116 51.0742 28.3826C51.0742 32.7536 54.8838 36.3101 59.4167 36.3101C61.8667 36.3101 63.7069 35.5361 65.1535 34.0841C66.636 32.6546 67.098 30.6446 67.098 29.0216C67.098 28.5176 67.0544 28.0541 66.9767 27.6671H59.4167ZM115.799 29.3486C115.362 28.2071 114.014 26.1026 111.266 26.1026C108.544 26.1026 106.278 28.1711 106.278 31.2071C106.278 34.0661 108.521 36.3101 111.528 36.3101C113.959 36.3101 115.362 34.8806 115.939 34.0481L114.135 32.8886C113.533 33.7376 112.713 34.3001 111.528 34.3001C110.35 34.3001 109.506 33.7796 108.964 32.7536L116.044 29.9291L115.799 29.3486ZM108.582 31.0481C108.521 29.0801 110.167 28.0721 111.346 28.0721C112.27 28.0721 113.054 28.5176 113.315 29.1551L108.582 31.0481ZM102.828 35.9996H105.155V20.9996H102.828V35.9996ZM99.0164 27.2396H98.9386C98.416 26.6426 97.4189 26.1026 96.1558 26.1026C93.5051 26.1026 91.0815 28.3466 91.0815 31.2236C91.0815 34.0841 93.5051 36.3101 96.1558 36.3101C97.4189 36.3101 98.416 35.7656 98.9386 35.1506H99.0164V35.8826C99.0164 37.8341 97.9353 38.8826 96.1915 38.8826C94.7698 38.8826 93.8878 37.8926 93.5238 37.0601L91.5 37.8746C92.0833 39.2276 93.628 40.8926 96.1915 40.8926C98.92 40.8926 101.222 39.3446 101.222 35.5781V26.4131H99.0164V27.2396ZM96.3549 34.3001C94.7511 34.3001 93.4086 33.0056 93.4086 31.2236C93.4086 29.4251 94.7511 28.1126 96.3549 28.1126C97.9353 28.1126 99.1813 29.4251 99.1813 31.2236C99.1813 33.0056 97.9353 34.3001 96.3549 34.3001ZM126.694 20.9996H121.129V35.9996H123.45V30.3161H126.694C129.272 30.3161 131.8 28.5176 131.8 25.6571C131.8 22.7981 129.266 20.9996 126.694 20.9996ZM126.755 28.2296H123.45V23.0861H126.755C128.488 23.0861 129.477 24.4736 129.477 25.6571C129.477 26.8181 128.488 28.2296 126.755 28.2296ZM141.102 26.0741C139.425 26.0741 137.681 26.7881 136.964 28.3706L139.024 29.2031C139.467 28.3706 140.282 28.1006 141.144 28.1006C142.348 28.1006 143.569 28.7981 143.588 30.0296V30.1871C143.168 29.9531 142.269 29.6066 141.163 29.6066C138.944 29.6066 136.684 30.7841 136.684 32.9816C136.684 34.9916 138.501 36.2861 140.544 36.2861C142.105 36.2861 142.967 35.6066 143.508 34.8161H143.588V35.9756H145.829V30.2216C145.829 27.5621 143.77 26.0741 141.102 26.0741ZM140.822 34.2941C140.063 34.2941 139.005 33.9311 139.005 33.0236C139.005 31.8626 140.324 31.4171 141.466 31.4171C142.488 31.4171 142.967 31.6346 143.588 31.9211C143.406 33.3101 142.166 34.2941 140.822 34.2941ZM153.996 26.4026L151.328 32.9051H151.249L148.491 26.4026H145.988L150.132 35.4896L147.768 40.5461H150.193L156.578 26.4026H153.996ZM133.075 35.9996H135.402V20.9996H133.075V35.9996Z" fill="#161616"/>
<defs>
<linearGradient id="paint0_linear_1696_30064" x1="27.128" y1="37.5469" x2="7.00247" y2="16.676" gradientUnits="userSpaceOnUse">
<stop stop-color="#00A0FF"/>
<stop offset="0.0066" stop-color="#00A1FF"/>
<stop offset="0.2601" stop-color="#00BEFF"/>
<stop offset="0.5122" stop-color="#00D2FF"/>
<stop offset="0.7604" stop-color="#00DFFF"/>
<stop offset="1" stop-color="#00E3FF"/>
</linearGradient>
<linearGradient id="paint1_linear_1696_30064" x1="42.1053" y1="23.9981" x2="11.9936" y2="23.9981" gradientUnits="userSpaceOnUse">
<stop stop-color="#FFE000"/>
<stop offset="0.4087" stop-color="#FFBD00"/>
<stop offset="0.7754" stop-color="#FFA500"/>
<stop offset="1" stop-color="#FF9C00"/>
</linearGradient>
<linearGradient id="paint2_linear_1696_30064" x1="30.8954" y1="21.2432" x2="3.60349" y2="-7.05953" gradientUnits="userSpaceOnUse">
<stop stop-color="#FF3A44"/>
<stop offset="1" stop-color="#C31162"/>
</linearGradient>
<linearGradient id="paint3_linear_1696_30064" x1="9.08066" y1="47.7886" x2="21.2677" y2="35.1502" gradientUnits="userSpaceOnUse">
<stop stop-color="#32A071"/>
<stop offset="0.0685" stop-color="#2DA771"/>
<stop offset="0.4762" stop-color="#15CF74"/>
<stop offset="0.8009" stop-color="#06E775"/>
<stop offset="1" stop-color="#00F076"/>
</linearGradient>
</defs>
</svg>
