<svg width="32" height="32" viewBox="0 0 32 32" fill="none" xmlns="http://www.w3.org/2000/svg">
<path d="M15.9998 2.66602C19.6225 2.66602 20.0745 2.67935 21.4958 2.74602C22.9158 2.81268 23.8825 3.03535 24.7332 3.36602C25.6132 3.70468 26.3545 4.16335 27.0958 4.90335C27.7738 5.56988 28.2984 6.37613 28.6332 7.26602C28.9625 8.11535 29.1865 9.08335 29.2532 10.5033C29.3158 11.9247 29.3332 12.3767 29.3332 15.9993C29.3332 19.622 29.3198 20.074 29.2532 21.4953C29.1865 22.9153 28.9625 23.882 28.6332 24.7327C28.2994 25.623 27.7747 26.4295 27.0958 27.0953C26.4291 27.7731 25.6229 28.2977 24.7332 28.6327C23.8838 28.962 22.9158 29.186 21.4958 29.2527C20.0745 29.3153 19.6225 29.3327 15.9998 29.3327C12.3772 29.3327 11.9252 29.3193 10.5038 29.2527C9.08384 29.186 8.11717 28.962 7.2665 28.6327C6.37627 28.2986 5.56987 27.7739 4.90384 27.0953C4.22571 26.4289 3.70108 25.6226 3.3665 24.7327C3.03584 23.8833 2.81317 22.9153 2.7465 21.4953C2.68384 20.074 2.6665 19.622 2.6665 15.9993C2.6665 12.3767 2.67984 11.9247 2.7465 10.5033C2.81317 9.08202 3.03584 8.11668 3.3665 7.26602C3.70015 6.37559 4.22491 5.56911 4.90384 4.90335C5.57007 4.22499 6.37641 3.70032 7.2665 3.36602C8.11717 3.03535 9.0825 2.81268 10.5038 2.74602C11.9252 2.68335 12.3772 2.66602 15.9998 2.66602ZM15.9998 9.33268C14.2317 9.33268 12.536 10.0351 11.2858 11.2853C10.0355 12.5355 9.33317 14.2312 9.33317 15.9993C9.33317 17.7675 10.0355 19.4632 11.2858 20.7134C12.536 21.9636 14.2317 22.666 15.9998 22.666C17.7679 22.666 19.4636 21.9636 20.7139 20.7134C21.9641 19.4632 22.6665 17.7675 22.6665 15.9993C22.6665 14.2312 21.9641 12.5355 20.7139 11.2853C19.4636 10.0351 17.7679 9.33268 15.9998 9.33268ZM24.6665 8.99935C24.6665 8.55732 24.4909 8.1334 24.1783 7.82084C23.8658 7.50828 23.4419 7.33268 22.9998 7.33268C22.5578 7.33268 22.1339 7.50828 21.8213 7.82084C21.5088 8.1334 21.3332 8.55732 21.3332 8.99935C21.3332 9.44138 21.5088 9.8653 21.8213 10.1779C22.1339 10.4904 22.5578 10.666 22.9998 10.666C23.4419 10.666 23.8658 10.4904 24.1783 10.1779C24.4909 9.8653 24.6665 9.44138 24.6665 8.99935ZM15.9998 11.9993C17.0607 11.9993 18.0781 12.4208 18.8283 13.1709C19.5784 13.9211 19.9998 14.9385 19.9998 15.9993C19.9998 17.0602 19.5784 18.0776 18.8283 18.8278C18.0781 19.5779 17.0607 19.9993 15.9998 19.9993C14.939 19.9993 13.9216 19.5779 13.1714 18.8278C12.4213 18.0776 11.9998 17.0602 11.9998 15.9993C11.9998 14.9385 12.4213 13.9211 13.1714 13.1709C13.9216 12.4208 14.939 11.9993 15.9998 11.9993Z" fill="#161616"/>
</svg>
