<svg width="32" height="32" viewBox="0 0 32 32" fill="none" xmlns="http://www.w3.org/2000/svg">
<path d="M16 2.66602C19.6227 2.66602 20.0747 2.67935 21.496 2.74602C22.916 2.81268 23.8827 3.03535 24.7334 3.36602C25.6134 3.70468 26.3547 4.16335 27.096 4.90335C27.774 5.56988 28.2986 6.37613 28.6334 7.26602C28.9627 8.11535 29.1867 9.08335 29.2534 10.5033C29.316 11.9247 29.3334 12.3767 29.3334 15.9993C29.3334 19.622 29.32 20.074 29.2534 21.4953C29.1867 22.9153 28.9627 23.882 28.6334 24.7327C28.2996 25.623 27.7748 26.4295 27.096 27.0953C26.4293 27.7731 25.6231 28.2977 24.7334 28.6327C23.884 28.962 22.916 29.186 21.496 29.2527C20.0747 29.3153 19.6227 29.3327 16 29.3327C12.3774 29.3327 11.9254 29.3193 10.504 29.2527C9.08402 29.186 8.11735 28.962 7.26669 28.6327C6.37645 28.2986 5.57006 27.7739 4.90402 27.0953C4.2259 26.4289 3.70126 25.6226 3.36669 24.7327C3.03602 23.8833 2.81335 22.9153 2.74669 21.4953C2.68402 20.074 2.66669 19.622 2.66669 15.9993C2.66669 12.3767 2.68002 11.9247 2.74669 10.5033C2.81335 9.08202 3.03602 8.11668 3.36669 7.26602C3.70034 6.37559 4.22509 5.56911 4.90402 4.90335C5.57025 4.22499 6.37659 3.70032 7.26669 3.36602C8.11735 3.03535 9.08269 2.81268 10.504 2.74602C11.9254 2.68335 12.3774 2.66602 16 2.66602ZM16 9.33268C14.2319 9.33268 12.5362 10.0351 11.286 11.2853C10.0357 12.5355 9.33335 14.2312 9.33335 15.9993C9.33335 17.7675 10.0357 19.4632 11.286 20.7134C12.5362 21.9636 14.2319 22.666 16 22.666C17.7681 22.666 19.4638 21.9636 20.7141 20.7134C21.9643 19.4632 22.6667 17.7675 22.6667 15.9993C22.6667 14.2312 21.9643 12.5355 20.7141 11.2853C19.4638 10.0351 17.7681 9.33268 16 9.33268ZM24.6667 8.99935C24.6667 8.55732 24.4911 8.1334 24.1785 7.82084C23.866 7.50828 23.442 7.33268 23 7.33268C22.558 7.33268 22.1341 7.50828 21.8215 7.82084C21.5089 8.1334 21.3334 8.55732 21.3334 8.99935C21.3334 9.44138 21.5089 9.8653 21.8215 10.1779C22.1341 10.4904 22.558 10.666 23 10.666C23.442 10.666 23.866 10.4904 24.1785 10.1779C24.4911 9.8653 24.6667 9.44138 24.6667 8.99935ZM16 11.9993C17.0609 11.9993 18.0783 12.4208 18.8284 13.1709C19.5786 13.9211 20 14.9385 20 15.9993C20 17.0602 19.5786 18.0776 18.8284 18.8278C18.0783 19.5779 17.0609 19.9993 16 19.9993C14.9392 19.9993 13.9217 19.5779 13.1716 18.8278C12.4214 18.0776 12 17.0602 12 15.9993C12 14.9385 12.4214 13.9211 13.1716 13.1709C13.9217 12.4208 14.9392 11.9993 16 11.9993Z" fill="#F2F0EE"/>
</svg>
