<svg width="27" height="15" viewBox="0 0 27 15" fill="none" xmlns="http://www.w3.org/2000/svg">
<path d="M7.04 14.2C5.69333 14.2 4.54 13.92 3.58 13.36C2.62 12.8 1.88 12.0067 1.36 10.98C0.853333 9.94 0.6 8.71333 0.6 7.3C0.6 5.87333 0.853333 4.64667 1.36 3.62C1.88 2.59333 2.62 1.8 3.58 1.24C4.54 0.68 5.69333 0.4 7.04 0.4C8.38667 0.4 9.54 0.68 10.5 1.24C11.46 1.8 12.1933 2.59333 12.7 3.62C13.22 4.64667 13.48 5.87333 13.48 7.3C13.48 8.71333 13.22 9.94 12.7 10.98C12.1933 12.0067 11.46 12.8 10.5 13.36C9.54 13.92 8.38667 14.2 7.04 14.2ZM7.04 12.12C7.98667 12.12 8.76667 11.9533 9.38 11.62C10.0067 11.2867 10.46 10.7667 10.74 10.06C11.0333 9.34 11.18 8.42 11.18 7.3C11.18 6.18 11.0333 5.26667 10.74 4.56C10.46 3.84 10.0067 3.31333 9.38 2.98C8.76667 2.64667 7.98667 2.48 7.04 2.48C6.09333 2.48 5.31333 2.64667 4.7 2.98C4.08667 3.31333 3.62667 3.84 3.32 4.56C3.02667 5.26667 2.88 6.18 2.88 7.3C2.88 8.42 3.02667 9.34 3.32 10.06C3.62667 10.7667 4.08667 11.2867 4.7 11.62C5.31333 11.9533 6.09333 12.12 7.04 12.12ZM25.982 14H14.762V12.58C14.762 11.7533 14.882 11.0533 15.122 10.48C15.362 9.90667 15.7554 9.41333 16.302 9C16.8487 8.58667 17.582 8.22667 18.502 7.92L21.702 6.82C22.2487 6.62 22.6754 6.42 22.982 6.22C23.2887 6.02 23.5087 5.78667 23.642 5.52C23.7887 5.24 23.862 4.90667 23.862 4.52C23.862 4.05333 23.7487 3.66 23.522 3.34C23.3087 3.02 22.9554 2.78 22.462 2.62C21.982 2.46 21.342 2.38 20.542 2.38C19.6487 2.38 18.9354 2.48667 18.402 2.7C17.8687 2.9 17.4754 3.2 17.222 3.6C16.982 4 16.862 4.5 16.862 5.1V5.32H14.742V5.12C14.742 4.29333 14.942 3.52 15.342 2.8C15.742 2.08 16.3687 1.5 17.222 1.06C18.0887 0.62 19.222 0.4 20.622 0.4C21.8887 0.4 22.9154 0.586667 23.702 0.96C24.502 1.32 25.0887 1.81333 25.462 2.44C25.8354 3.05333 26.022 3.76 26.022 4.56C26.022 5.28 25.8687 5.9 25.562 6.42C25.2687 6.94 24.8354 7.38 24.262 7.74C23.702 8.1 23.0287 8.4 22.242 8.64L19.422 9.5C18.822 9.7 18.342 9.92 17.982 10.16C17.6354 10.4 17.382 10.6867 17.222 11.02C17.0754 11.3533 17.002 11.7733 17.002 12.28L20.242 12.06H25.982V14Z" fill="url(#paint0_linear_1414_7424)"/>
<defs>
<linearGradient id="paint0_linear_1414_7424" x1="9.823e-08" y1="-2.10526" x2="19.8449" y2="19.6821" gradientUnits="userSpaceOnUse">
<stop stop-color="#082B9B"/>
<stop offset="1" stop-color="#86B7E0"/>
</linearGradient>
</defs>
</svg>
