<svg width="28" height="15" viewBox="0 0 28 15" fill="none" xmlns="http://www.w3.org/2000/svg">
<path d="M7.04 14.2C5.69333 14.2 4.54 13.92 3.58 13.36C2.62 12.8 1.88 12.0067 1.36 10.98C0.853333 9.94 0.6 8.71333 0.6 7.3C0.6 5.87333 0.853333 4.64667 1.36 3.62C1.88 2.59333 2.62 1.8 3.58 1.24C4.54 0.68 5.69333 0.4 7.04 0.4C8.38667 0.4 9.54 0.68 10.5 1.24C11.46 1.8 12.1933 2.59333 12.7 3.62C13.22 4.64667 13.48 5.87333 13.48 7.3C13.48 8.71333 13.22 9.94 12.7 10.98C12.1933 12.0067 11.46 12.8 10.5 13.36C9.54 13.92 8.38667 14.2 7.04 14.2ZM7.04 12.12C7.98667 12.12 8.76667 11.9533 9.38 11.62C10.0067 11.2867 10.46 10.7667 10.74 10.06C11.0333 9.34 11.18 8.42 11.18 7.3C11.18 6.18 11.0333 5.26667 10.74 4.56C10.46 3.84 10.0067 3.31333 9.38 2.98C8.76667 2.64667 7.98667 2.48 7.04 2.48C6.09333 2.48 5.31333 2.64667 4.7 2.98C4.08667 3.31333 3.62667 3.84 3.32 4.56C3.02667 5.26667 2.88 6.18 2.88 7.3C2.88 8.42 3.02667 9.34 3.32 10.06C3.62667 10.7667 4.08667 11.2867 4.7 11.62C5.31333 11.9533 6.09333 12.12 7.04 12.12ZM21.282 14.2C19.7487 14.2 18.502 13.96 17.542 13.48C16.5954 13 15.8954 12.2467 15.442 11.22C14.9887 10.1933 14.762 8.86667 14.762 7.24C14.762 6.17333 14.902 5.22 15.182 4.38C15.462 3.52667 15.8687 2.80667 16.402 2.22C16.9487 1.62 17.6154 1.16667 18.402 0.86C19.1887 0.553333 20.0954 0.4 21.122 0.4C22.242 0.4 23.222 0.58 24.062 0.939999C24.9154 1.28667 25.5754 1.78667 26.042 2.44C26.522 3.09333 26.762 3.87333 26.762 4.78V4.94H24.382V4.78C24.382 4.31333 24.2754 3.90667 24.062 3.56C23.862 3.2 23.522 2.92667 23.042 2.74C22.562 2.54 21.922 2.44 21.122 2.44C20.1354 2.44 19.342 2.6 18.742 2.92C18.1554 3.22667 17.7287 3.71333 17.462 4.38C17.1954 5.03333 17.062 5.89333 17.062 6.96V8.02H17.242C17.402 7.58 17.6887 7.18667 18.102 6.84C18.5154 6.49333 19.042 6.22 19.682 6.02C20.3354 5.80667 21.082 5.7 21.922 5.7C23.0287 5.7 23.962 5.86667 24.722 6.2C25.4954 6.52 26.082 6.98667 26.482 7.6C26.8954 8.21333 27.102 8.96667 27.102 9.86C27.102 11.18 26.5954 12.2333 25.582 13.02C24.582 13.8067 23.1487 14.2 21.282 14.2ZM21.162 12.14C22.0554 12.14 22.7687 12.0533 23.302 11.88C23.8487 11.6933 24.242 11.42 24.482 11.06C24.7354 10.7 24.862 10.2467 24.862 9.7C24.862 9.14 24.7354 8.68 24.482 8.32C24.242 7.96 23.8554 7.69333 23.322 7.52C22.7887 7.33333 22.0754 7.24 21.182 7.24C20.3154 7.24 19.5954 7.33333 19.022 7.52C18.4487 7.70667 18.022 7.97333 17.742 8.32C17.462 8.66667 17.322 9.1 17.322 9.62C17.322 10.1667 17.4554 10.6333 17.722 11.02C18.002 11.3933 18.4287 11.6733 19.002 11.86C19.5754 12.0467 20.2954 12.14 21.162 12.14Z" fill="url(#paint0_linear_1646_12786)"/>
<defs>
<linearGradient id="paint0_linear_1646_12786" x1="9.823e-08" y1="-2.10526" x2="19.8449" y2="19.6821" gradientUnits="userSpaceOnUse">
<stop stop-color="#082B9B"/>
<stop offset="1" stop-color="#86B7E0"/>
</linearGradient>
</defs>
</svg>
