<svg width="26" height="15" viewBox="0 0 26 15" fill="none" xmlns="http://www.w3.org/2000/svg">
<path d="M7.04 14.2C5.69333 14.2 4.54 13.92 3.58 13.36C2.62 12.8 1.88 12.0067 1.36 10.98C0.853333 9.94 0.6 8.71333 0.6 7.3C0.6 5.87333 0.853333 4.64667 1.36 3.62C1.88 2.59333 2.62 1.8 3.58 1.24C4.54 0.68 5.69333 0.4 7.04 0.4C8.38667 0.4 9.54 0.68 10.5 1.24C11.46 1.8 12.1933 2.59333 12.7 3.62C13.22 4.64667 13.48 5.87333 13.48 7.3C13.48 8.71333 13.22 9.94 12.7 10.98C12.1933 12.0067 11.46 12.8 10.5 13.36C9.54 13.92 8.38667 14.2 7.04 14.2ZM7.04 12.12C7.98667 12.12 8.76667 11.9533 9.38 11.62C10.0067 11.2867 10.46 10.7667 10.74 10.06C11.0333 9.34 11.18 8.42 11.18 7.3C11.18 6.18 11.0333 5.26667 10.74 4.56C10.46 3.84 10.0067 3.31333 9.38 2.98C8.76667 2.64667 7.98667 2.48 7.04 2.48C6.09333 2.48 5.31333 2.64667 4.7 2.98C4.08667 3.31333 3.62667 3.84 3.32 4.56C3.02667 5.26667 2.88 6.18 2.88 7.3C2.88 8.42 3.02667 9.34 3.32 10.06C3.62667 10.7667 4.08667 11.2867 4.7 11.62C5.31333 11.9533 6.09333 12.12 7.04 12.12ZM19.622 14.02H17.182C17.182 12.7667 17.2954 11.6467 17.522 10.66C17.7487 9.66 18.0554 8.76 18.442 7.96C18.842 7.16 19.2954 6.44667 19.802 5.82C20.3087 5.18 20.842 4.60667 21.402 4.1C21.962 3.59333 22.5154 3.12667 23.062 2.7V2.54H14.282V0.6H25.362V2.34C24.3887 3.20667 23.542 4.06 22.822 4.9C22.1154 5.72667 21.522 6.59333 21.042 7.5C20.562 8.39333 20.202 9.37333 19.962 10.44C19.7354 11.4933 19.622 12.6867 19.622 14.02Z" fill="url(#paint0_linear_1646_12789)"/>
<defs>
<linearGradient id="paint0_linear_1646_12789" x1="9.823e-08" y1="-2.10526" x2="19.8449" y2="19.6821" gradientUnits="userSpaceOnUse">
<stop stop-color="#082B9B"/>
<stop offset="1" stop-color="#86B7E0"/>
</linearGradient>
</defs>
</svg>
