<svg width="27" height="15" viewBox="0 0 27 15" fill="none" xmlns="http://www.w3.org/2000/svg">
<path d="M7.04 14.2C5.69333 14.2 4.54 13.92 3.58 13.36C2.62 12.8 1.88 12.0067 1.36 10.98C0.853333 9.94 0.6 8.71333 0.6 7.3C0.6 5.87333 0.853333 4.64667 1.36 3.62C1.88 2.59333 2.62 1.8 3.58 1.24C4.54 0.68 5.69333 0.4 7.04 0.4C8.38667 0.4 9.54 0.68 10.5 1.24C11.46 1.8 12.1933 2.59333 12.7 3.62C13.22 4.64667 13.48 5.87333 13.48 7.3C13.48 8.71333 13.22 9.94 12.7 10.98C12.1933 12.0067 11.46 12.8 10.5 13.36C9.54 13.92 8.38667 14.2 7.04 14.2ZM7.04 12.12C7.98667 12.12 8.76667 11.9533 9.38 11.62C10.0067 11.2867 10.46 10.7667 10.74 10.06C11.0333 9.34 11.18 8.42 11.18 7.3C11.18 6.18 11.0333 5.26667 10.74 4.56C10.46 3.84 10.0067 3.31333 9.38 2.98C8.76667 2.64667 7.98667 2.48 7.04 2.48C6.09333 2.48 5.31333 2.64667 4.7 2.98C4.08667 3.31333 3.62667 3.84 3.32 4.56C3.02667 5.26667 2.88 6.18 2.88 7.3C2.88 8.42 3.02667 9.34 3.32 10.06C3.62667 10.7667 4.08667 11.2867 4.7 11.62C5.31333 11.9533 6.09333 12.12 7.04 12.12ZM20.682 14.2C19.4287 14.2 18.342 14.06 17.422 13.78C16.502 13.5 15.7887 13.0733 15.282 12.5C14.7887 11.9267 14.542 11.2067 14.542 10.34C14.542 9.72667 14.6754 9.19333 14.942 8.74C15.2087 8.28667 15.5887 7.91333 16.082 7.62C16.5754 7.32667 17.1487 7.11333 17.802 6.98V6.82C16.882 6.67333 16.1687 6.34 15.662 5.82C15.1687 5.3 14.922 4.66 14.922 3.9C14.922 2.84667 15.4087 2 16.382 1.36C17.3554 0.72 18.7887 0.4 20.682 0.4C22.5887 0.4 24.022 0.72 24.982 1.36C25.9554 2 26.442 2.84667 26.442 3.9C26.442 4.66 26.1954 5.3 25.702 5.82C25.2087 6.34 24.4887 6.67333 23.542 6.82V6.98C24.2354 7.11333 24.822 7.32667 25.302 7.62C25.7954 7.91333 26.1687 8.28667 26.422 8.74C26.6887 9.19333 26.822 9.72667 26.822 10.34C26.822 11.2067 26.5687 11.9267 26.062 12.5C25.5554 13.0733 24.842 13.5 23.922 13.78C23.0154 14.06 21.9354 14.2 20.682 14.2ZM20.682 12.16C21.6554 12.16 22.4287 12.0867 23.002 11.94C23.5754 11.78 23.9887 11.54 24.242 11.22C24.5087 10.8867 24.642 10.46 24.642 9.94C24.642 9.44667 24.5087 9.04667 24.242 8.74C23.9887 8.42 23.5687 8.18 22.982 8.02C22.4087 7.86 21.642 7.78 20.682 7.78C19.7087 7.78 18.9287 7.86 18.342 8.02C17.7687 8.18 17.3554 8.42 17.102 8.74C16.8487 9.04667 16.722 9.44667 16.722 9.94C16.722 10.46 16.8487 10.8867 17.102 11.22C17.3554 11.54 17.7687 11.78 18.342 11.94C18.9287 12.0867 19.7087 12.16 20.682 12.16ZM20.682 6.3C21.5487 6.3 22.2487 6.23333 22.782 6.1C23.3154 5.95333 23.702 5.74 23.942 5.46C24.182 5.18 24.302 4.82 24.302 4.38C24.302 3.96667 24.1954 3.62 23.982 3.34C23.7687 3.04667 23.3954 2.82667 22.862 2.68C22.342 2.52 21.6154 2.44 20.682 2.44C19.7487 2.44 19.022 2.52 18.502 2.68C17.982 2.82667 17.6154 3.04667 17.402 3.34C17.1887 3.62 17.082 3.96667 17.082 4.38C17.082 4.82 17.202 5.18 17.442 5.46C17.682 5.74 18.062 5.95333 18.582 6.1C19.1154 6.23333 19.8154 6.3 20.682 6.3Z" fill="url(#paint0_linear_1646_12793)"/>
<defs>
<linearGradient id="paint0_linear_1646_12793" x1="9.823e-08" y1="-2.10526" x2="19.8449" y2="19.6821" gradientUnits="userSpaceOnUse">
<stop stop-color="#082B9B"/>
<stop offset="1" stop-color="#86B7E0"/>
</linearGradient>
</defs>
</svg>
