<svg width="27" height="15" viewBox="0 0 27 15" fill="none" xmlns="http://www.w3.org/2000/svg">
<path d="M7.04 14.2C5.69333 14.2 4.54 13.92 3.58 13.36C2.62 12.8 1.88 12.0067 1.36 10.98C0.853333 9.94 0.6 8.71333 0.6 7.3C0.6 5.87333 0.853333 4.64667 1.36 3.62C1.88 2.59333 2.62 1.8 3.58 1.24C4.54 0.68 5.69333 0.4 7.04 0.4C8.38667 0.4 9.54 0.68 10.5 1.24C11.46 1.8 12.1933 2.59333 12.7 3.62C13.22 4.64667 13.48 5.87333 13.48 7.3C13.48 8.71333 13.22 9.94 12.7 10.98C12.1933 12.0067 11.46 12.8 10.5 13.36C9.54 13.92 8.38667 14.2 7.04 14.2ZM7.04 12.12C7.98667 12.12 8.76667 11.9533 9.38 11.62C10.0067 11.2867 10.46 10.7667 10.74 10.06C11.0333 9.34 11.18 8.42 11.18 7.3C11.18 6.18 11.0333 5.26667 10.74 4.56C10.46 3.84 10.0067 3.31333 9.38 2.98C8.76667 2.64667 7.98667 2.48 7.04 2.48C6.09333 2.48 5.31333 2.64667 4.7 2.98C4.08667 3.31333 3.62667 3.84 3.32 4.56C3.02667 5.26667 2.88 6.18 2.88 7.3C2.88 8.42 3.02667 9.34 3.32 10.06C3.62667 10.7667 4.08667 11.2867 4.7 11.62C5.31333 11.9533 6.09333 12.12 7.04 12.12ZM20.822 14.2C19.5287 14.2 18.4287 14.0333 17.522 13.7C16.6154 13.3667 15.9287 12.8867 15.462 12.26C15.0087 11.6333 14.782 10.8667 14.782 9.96V9.74H16.982V9.96C16.982 10.48 17.1154 10.9133 17.382 11.26C17.662 11.5933 18.0887 11.84 18.662 12C19.2354 12.16 19.9687 12.24 20.862 12.24C21.6754 12.24 22.3354 12.1533 22.842 11.98C23.3487 11.8067 23.7287 11.5333 23.982 11.16C24.2354 10.7733 24.362 10.2667 24.362 9.64C24.362 9.02667 24.2354 8.53333 23.982 8.16C23.742 7.78667 23.3687 7.52 22.862 7.36C22.3554 7.18667 21.6887 7.1 20.862 7.1C19.902 7.1 19.122 7.18667 18.522 7.36C17.922 7.52 17.4354 7.76667 17.062 8.1L16.442 7.92L16.422 6.82L17.202 6.94C17.4287 6.68667 17.7487 6.44 18.162 6.2C18.5754 5.96 19.0754 5.76667 19.662 5.62C20.2487 5.46 20.9154 5.38 21.662 5.38C22.702 5.38 23.5887 5.54667 24.322 5.88C25.0687 6.2 25.6354 6.68 26.022 7.32C26.422 7.94667 26.622 8.72 26.622 9.64C26.622 10.56 26.402 11.3667 25.962 12.06C25.522 12.74 24.8687 13.2667 24.002 13.64C23.1487 14.0133 22.0887 14.2 20.822 14.2ZM15.642 0.6H25.982V2.54H17.522L16.922 8.1L14.922 7.96L15.642 0.6Z" fill="url(#paint0_linear_1646_12783)"/>
<defs>
<linearGradient id="paint0_linear_1646_12783" x1="9.823e-08" y1="-2.10526" x2="19.8449" y2="19.6821" gradientUnits="userSpaceOnUse">
<stop stop-color="#082B9B"/>
<stop offset="1" stop-color="#86B7E0"/>
</linearGradient>
</defs>
</svg>
