<svg width="27" height="15" viewBox="0 0 27 15" fill="none" xmlns="http://www.w3.org/2000/svg">
<path d="M7.04 14.2C5.69333 14.2 4.54 13.92 3.58 13.36C2.62 12.8 1.88 12.0067 1.36 10.98C0.853333 9.94 0.6 8.71333 0.6 7.3C0.6 5.87333 0.853333 4.64667 1.36 3.62C1.88 2.59333 2.62 1.8 3.58 1.24C4.54 0.68 5.69333 0.4 7.04 0.4C8.38667 0.4 9.54 0.68 10.5 1.24C11.46 1.8 12.1933 2.59333 12.7 3.62C13.22 4.64667 13.48 5.87333 13.48 7.3C13.48 8.71333 13.22 9.94 12.7 10.98C12.1933 12.0067 11.46 12.8 10.5 13.36C9.54 13.92 8.38667 14.2 7.04 14.2ZM7.04 12.12C7.98667 12.12 8.76667 11.9533 9.38 11.62C10.0067 11.2867 10.46 10.7667 10.74 10.06C11.0333 9.34 11.18 8.42 11.18 7.3C11.18 6.18 11.0333 5.26667 10.74 4.56C10.46 3.84 10.0067 3.31333 9.38 2.98C8.76667 2.64667 7.98667 2.48 7.04 2.48C6.09333 2.48 5.31333 2.64667 4.7 2.98C4.08667 3.31333 3.62667 3.84 3.32 4.56C3.02667 5.26667 2.88 6.18 2.88 7.3C2.88 8.42 3.02667 9.34 3.32 10.06C3.62667 10.7667 4.08667 11.2867 4.7 11.62C5.31333 11.9533 6.09333 12.12 7.04 12.12ZM20.722 14.2C19.322 14.2 18.1754 14.0067 17.282 13.62C16.402 13.2333 15.7487 12.7 15.322 12.02C14.8954 11.3267 14.682 10.5267 14.682 9.62V9.3H16.962V9.58C16.962 10.1667 17.062 10.6533 17.262 11.04C17.462 11.4133 17.8287 11.6933 18.362 11.88C18.8954 12.0667 19.6554 12.16 20.642 12.16C21.562 12.16 22.2954 12.0867 22.842 11.94C23.402 11.78 23.802 11.54 24.042 11.22C24.2954 10.8867 24.422 10.46 24.422 9.94C24.422 9.26 24.1954 8.76 23.742 8.44C23.302 8.12 22.662 7.96 21.822 7.96H18.082V6.16H21.522C22.3354 6.16 22.9487 6.01333 23.362 5.72C23.7754 5.41333 23.982 4.96 23.982 4.36C23.982 3.93333 23.8754 3.58 23.662 3.3C23.462 3.00667 23.1154 2.79333 22.622 2.66C22.1287 2.51333 21.4487 2.44 20.582 2.44C19.6754 2.44 18.9554 2.53333 18.422 2.72C17.8887 2.90667 17.5087 3.19333 17.282 3.58C17.0687 3.95333 16.962 4.43333 16.962 5.02V5.16H14.682V4.98C14.682 4.1 14.902 3.32 15.342 2.64C15.782 1.94667 16.4487 1.4 17.342 0.999999C18.2354 0.6 19.3754 0.4 20.762 0.4C22.482 0.4 23.802 0.706667 24.722 1.32C25.6554 1.93333 26.122 2.80667 26.122 3.94C26.122 4.68667 25.902 5.32 25.462 5.84C25.022 6.34667 24.3687 6.67333 23.502 6.82V6.98C24.4754 7.15333 25.2354 7.51333 25.782 8.06C26.3287 8.59333 26.602 9.32667 26.602 10.26C26.602 11.5267 26.082 12.5 25.042 13.18C24.002 13.86 22.562 14.2 20.722 14.2Z" fill="url(#paint0_linear_1414_7427)"/>
<defs>
<linearGradient id="paint0_linear_1414_7427" x1="9.823e-08" y1="-2.10526" x2="19.8449" y2="19.6821" gradientUnits="userSpaceOnUse">
<stop stop-color="#082B9B"/>
<stop offset="1" stop-color="#86B7E0"/>
</linearGradient>
</defs>
</svg>
