<svg width="47" height="44" viewBox="0 0 47 44" fill="none" xmlns="http://www.w3.org/2000/svg">
<path d="M11.1748 40.3604C14.7354 42.1211 18.8438 43.0015 23.5 43.0015C28.211 43.0015 32.3193 42.1211 35.8252 40.3604C39.331 38.5997 42.0699 36.1237 44.042 32.9324C46.014 29.686 47 25.8895 47 21.5427C47 17.1409 46.014 13.3444 44.042 10.1531C42.0699 6.90677 39.331 4.40325 35.8252 2.64254C32.3193 0.88182 28.211 0.00146484 23.5 0.00146484C18.8438 0.00146484 14.7354 0.88182 11.1748 2.64254C7.669 4.40325 4.93007 6.90677 2.95804 10.1531C0.986014 13.3444 0 17.1409 0 21.5427C0 25.8895 0.986014 29.686 2.95804 32.9324C4.93007 36.1237 7.669 38.5997 11.1748 40.3604Z" fill="#070707"/>
</svg>
