<svg width="70" height="73" viewBox="0 0 70 73" fill="none" xmlns="http://www.w3.org/2000/svg">
<path d="M10.6081 46.0962C12.1306 44.9099 12.4044 42.7048 11.2181 41.1823C10.0318 39.6598 7.82667 39.386 6.30415 40.5723C4.78163 41.7586 4.50792 43.9637 5.6942 45.4863C6.88048 47.0088 9.08561 47.2825 10.6081 46.0962Z" fill="url(#paint0_linear_1799_30944)"/>
<path d="M7.3093 19.0753C5.78678 20.2616 5.51307 22.4667 6.69935 23.9893C7.88563 25.5118 10.0908 25.7855 11.6133 24.5992C13.1358 23.4129 13.4095 21.2078 12.2232 19.6853C11.0369 18.1628 8.83182 17.889 7.3093 19.0753Z" fill="url(#paint1_linear_1799_30944)"/>
<path fill-rule="evenodd" clip-rule="evenodd" d="M19.8312 38.5744C20.7559 43.7891 21.7409 49.3437 20.334 52.7183C18.4603 57.2113 18.9809 62.5389 22.1883 66.6554C26.9415 72.7558 35.7406 73.847 41.8422 69.0929C41.9974 68.9812 42.1477 68.8678 42.2938 68.7539C45.6241 66.1591 46.7835 63.1775 47.7295 60.7447C48.3813 59.0683 48.9319 57.6525 50.0215 56.8035C51.1112 55.9545 52.6186 55.7668 54.4035 55.5446C56.9938 55.2221 60.1683 54.8269 63.4986 52.232C63.6448 52.1182 63.7906 51.999 63.9377 51.877C70.0393 47.1229 71.1325 38.324 66.3793 32.2236C63.172 28.1071 58.1333 26.2998 53.3197 27.0172C49.6333 27.5668 44.6694 25.3174 39.8801 23.1472C38.8463 22.6787 37.8206 22.2139 36.8176 21.7818C32.4382 19.8972 27.6797 20.9583 24.2031 23.6671C20.7265 26.3759 18.5342 30.7307 19.292 35.437C19.4552 36.4542 19.6419 37.5072 19.8312 38.5744ZM39.4245 65.0713L39.099 65.3158C34.9117 68.5746 29.0343 67.8461 25.8709 63.7861C23.8247 61.1599 23.3531 57.6065 24.6424 54.514C26.5758 49.8745 25.4824 43.7096 24.4251 37.7478L24.415 37.6903C24.2345 36.6716 24.0565 35.6675 23.9006 34.6962C23.464 31.9829 24.6499 29.2372 27.0724 27.3497C29.4948 25.4622 32.4472 24.9836 34.9702 26.0712C35.9451 26.4916 36.945 26.9442 37.9518 27.4008L37.9562 27.4028C43.3658 29.8534 48.959 32.3873 54.0052 31.6356C57.3192 31.1416 60.6494 32.4676 62.6956 35.0938C65.859 39.1538 65.1285 45.031 61.0673 48.1953L60.6282 48.5504C58.3127 50.3544 56.1325 50.6254 53.8245 50.9127C51.6833 51.1792 49.2559 51.4818 47.1511 53.1218C45.0478 54.7606 44.1618 57.0373 43.3792 59.0481L43.3775 59.0526L43.3754 59.0578C42.5333 61.2236 41.7381 63.2687 39.4245 65.0713ZM42.102 6.76192C38.5425 9.53529 37.9054 14.6683 40.6788 18.2277C43.4521 21.7872 48.5851 22.4243 52.1446 19.651C55.704 16.8776 56.3412 11.7446 53.5678 8.18514C50.7944 4.62569 45.6614 3.98854 42.102 6.76192ZM44.9713 10.4445C46.4938 9.25822 48.699 9.53194 49.8852 11.0545C51.0715 12.577 50.7978 14.7821 49.2753 15.9684C47.7528 17.1547 45.5476 16.881 44.3614 15.3584C43.1751 13.8359 43.4488 11.6308 44.9713 10.4445ZM14.9007 38.313C12.1273 34.7535 6.99428 34.1164 3.43483 36.8897C-0.124616 39.6631 -0.76176 44.7961 2.01161 48.3556C4.78499 51.915 9.91799 52.5522 13.4774 49.7788C17.0369 47.0054 17.674 41.8724 14.9007 38.313ZM11.2181 41.1823C12.4044 42.7048 12.1306 44.9099 10.6081 46.0962C9.08561 47.2825 6.88048 47.0088 5.6942 45.4863C4.50792 43.9637 4.78163 41.7586 6.30415 40.5723C7.82667 39.386 10.0318 39.6598 11.2181 41.1823ZM3.01677 26.8586C5.79014 30.418 10.9231 31.0552 14.4826 28.2818C18.042 25.5084 18.6792 20.3754 15.9058 16.816C13.1324 13.2565 7.99944 12.6194 4.43999 15.3927C0.880536 18.1661 0.243392 23.2991 3.01677 26.8586ZM6.69935 23.9893C5.51307 22.4667 5.78678 20.2616 7.3093 19.0753C8.83182 17.889 11.0369 18.1628 12.2232 19.6853C13.4095 21.2078 13.1358 23.4129 11.6133 24.5992C10.0908 25.7855 7.88563 25.5118 6.69935 23.9893Z" fill="url(#paint2_linear_1799_30944)"/>
<path d="M23.8809 6.1634C22.3584 7.34969 22.0847 9.55481 23.271 11.0773C24.4573 12.5998 26.6624 12.8736 28.1849 11.6873C29.7074 10.501 29.9811 8.29588 28.7949 6.77336C27.6086 5.25084 25.4035 4.97712 23.8809 6.1634Z" fill="url(#paint3_linear_1799_30944)"/>
<path fill-rule="evenodd" clip-rule="evenodd" d="M31.0542 15.3699C27.4948 18.1432 22.3618 17.5061 19.5884 13.9466C16.815 10.3872 17.4522 5.25419 21.0116 2.48082C24.5711 -0.292556 29.7041 0.34459 32.4775 3.90404C35.2508 7.46349 34.6137 12.5965 31.0542 15.3699ZM23.271 11.0773C22.0847 9.55481 22.3584 7.34969 23.8809 6.1634C25.4035 4.97712 27.6086 5.25084 28.7949 6.77336C29.9811 8.29588 29.7074 10.501 28.1849 11.6873C26.6624 12.8736 24.4573 12.5998 23.271 11.0773Z" fill="url(#paint4_linear_1799_30944)"/>
<path d="M49.8852 11.0545C48.699 9.53194 46.4938 9.25822 44.9713 10.4445C43.4488 11.6308 43.1751 13.8359 44.3614 15.3584C45.5476 16.881 47.7528 17.1547 49.2753 15.9684C50.7978 14.7821 51.0715 12.577 49.8852 11.0545Z" fill="url(#paint5_linear_1799_30944)"/>
<path d="M39.099 65.3158L39.4245 65.0713C41.7381 63.2687 42.5333 61.2236 43.3754 59.0578L43.3775 59.0526L43.3792 59.0481C44.1618 57.0373 45.0478 54.7606 47.1511 53.1218C49.2559 51.4818 51.6833 51.1792 53.8245 50.9127C56.1325 50.6254 58.3127 50.3544 60.6282 48.5504L61.0673 48.1953C65.1285 45.031 65.859 39.1538 62.6956 35.0938C60.6494 32.4676 57.3192 31.1416 54.0052 31.6356C48.959 32.3873 43.3658 29.8534 37.9562 27.4028L37.9518 27.4008C36.945 26.9442 35.9451 26.4916 34.9702 26.0712C32.4472 24.9836 29.4948 25.4622 27.0724 27.3497C24.6499 29.2372 23.464 31.9829 23.9006 34.6962C24.0565 35.6675 24.2345 36.6716 24.415 37.6903L24.4251 37.7478C25.4824 43.7096 26.5758 49.8745 24.6424 54.514C23.3531 57.6065 23.8247 61.1599 25.8709 63.7861C29.0343 67.8461 34.9117 68.5746 39.099 65.3158Z" fill="url(#paint6_linear_1799_30944)"/>
<defs>
<linearGradient id="paint0_linear_1799_30944" x1="49.3499" y1="2.77174" x2="27.8323" y2="72.0091" gradientUnits="userSpaceOnUse">
<stop offset="0.0164729" stop-color="#030D42"/>
<stop offset="0.213542" stop-color="#338EDB"/>
<stop offset="1" stop-color="#C2F4FF"/>
</linearGradient>
<linearGradient id="paint1_linear_1799_30944" x1="49.3499" y1="2.77174" x2="27.8323" y2="72.0091" gradientUnits="userSpaceOnUse">
<stop offset="0.0164729" stop-color="#030D42"/>
<stop offset="0.213542" stop-color="#338EDB"/>
<stop offset="1" stop-color="#C2F4FF"/>
</linearGradient>
<linearGradient id="paint2_linear_1799_30944" x1="49.3499" y1="2.77174" x2="27.8323" y2="72.0091" gradientUnits="userSpaceOnUse">
<stop offset="0.0164729" stop-color="#030D42"/>
<stop offset="0.213542" stop-color="#338EDB"/>
<stop offset="1" stop-color="#C2F4FF"/>
</linearGradient>
<linearGradient id="paint3_linear_1799_30944" x1="49.3499" y1="2.77174" x2="27.8323" y2="72.0091" gradientUnits="userSpaceOnUse">
<stop offset="0.0164729" stop-color="#030D42"/>
<stop offset="0.213542" stop-color="#338EDB"/>
<stop offset="1" stop-color="#C2F4FF"/>
</linearGradient>
<linearGradient id="paint4_linear_1799_30944" x1="49.3499" y1="2.77174" x2="27.8323" y2="72.0091" gradientUnits="userSpaceOnUse">
<stop offset="0.0164729" stop-color="#030D42"/>
<stop offset="0.213542" stop-color="#338EDB"/>
<stop offset="1" stop-color="#C2F4FF"/>
</linearGradient>
<linearGradient id="paint5_linear_1799_30944" x1="49.3499" y1="2.77174" x2="27.8323" y2="72.0091" gradientUnits="userSpaceOnUse">
<stop offset="0.0164729" stop-color="#030D42"/>
<stop offset="0.213542" stop-color="#338EDB"/>
<stop offset="1" stop-color="#C2F4FF"/>
</linearGradient>
<linearGradient id="paint6_linear_1799_30944" x1="49.3499" y1="2.77174" x2="27.8323" y2="72.0091" gradientUnits="userSpaceOnUse">
<stop offset="0.0164729" stop-color="#030D42"/>
<stop offset="0.213542" stop-color="#338EDB"/>
<stop offset="1" stop-color="#C2F4FF"/>
</linearGradient>
</defs>
</svg>
