<svg width="679" height="419" viewBox="0 0 679 419" fill="none" xmlns="http://www.w3.org/2000/svg">
<path d="M198.8 290.8H87.6L69.2 344H10.4L110.8 64.4H176L276.4 344H217.2L198.8 290.8ZM183.6 246L143.2 129.2L102.8 246H183.6ZM268.528 232.4C268.528 210 272.928 190.133 281.728 172.8C290.795 155.467 302.928 142.133 318.128 132.8C333.595 123.467 350.795 118.8 369.728 118.8C386.261 118.8 400.661 122.133 412.928 128.8C425.461 135.467 435.461 143.867 442.928 154V122.4H499.328V344H442.928V311.6C435.728 322 425.728 330.667 412.928 337.6C400.395 344.267 385.861 347.6 369.328 347.6C350.661 347.6 333.595 342.8 318.128 333.2C302.928 323.6 290.795 310.133 281.728 292.8C272.928 275.2 268.528 255.067 268.528 232.4ZM442.928 233.2C442.928 219.6 440.261 208 434.928 198.4C429.595 188.533 422.395 181.067 413.328 176C404.261 170.667 394.528 168 384.128 168C373.728 168 364.128 170.533 355.328 175.6C346.528 180.667 339.328 188.133 333.728 198C328.395 207.6 325.728 219.067 325.728 232.4C325.728 245.733 328.395 257.467 333.728 267.6C339.328 277.467 346.528 285.067 355.328 290.4C364.395 295.733 373.995 298.4 384.128 298.4C394.528 298.4 404.261 295.867 413.328 290.8C422.395 285.467 429.595 278 434.928 268.4C440.261 258.533 442.928 246.8 442.928 233.2Z" fill="white"/>
<path d="M530.587 161.243C529.363 161.243 528.265 161.027 527.293 160.595C526.321 160.145 525.547 159.542 524.971 158.786C524.413 158.03 524.107 157.193 524.053 156.275H527.86C527.932 156.851 528.211 157.328 528.697 157.706C529.201 158.084 529.822 158.273 530.56 158.273C531.28 158.273 531.838 158.129 532.234 157.841C532.648 157.553 532.855 157.184 532.855 156.734C532.855 156.248 532.603 155.888 532.099 155.654C531.613 155.402 530.83 155.132 529.75 154.844C528.634 154.574 527.716 154.295 526.996 154.007C526.294 153.719 525.682 153.278 525.16 152.684C524.656 152.09 524.404 151.289 524.404 150.281C524.404 149.453 524.638 148.697 525.106 148.013C525.592 147.329 526.276 146.789 527.158 146.393C528.058 145.997 529.111 145.799 530.317 145.799C532.099 145.799 533.521 146.249 534.583 147.149C535.645 148.031 536.23 149.228 536.338 150.74H532.72C532.666 150.146 532.414 149.678 531.964 149.336C531.532 148.976 530.947 148.796 530.209 148.796C529.525 148.796 528.994 148.922 528.616 149.174C528.256 149.426 528.076 149.777 528.076 150.227C528.076 150.731 528.328 151.118 528.832 151.388C529.336 151.64 530.119 151.901 531.181 152.171C532.261 152.441 533.152 152.72 533.854 153.008C534.556 153.296 535.159 153.746 535.663 154.358C536.185 154.952 536.455 155.744 536.473 156.734C536.473 157.598 536.23 158.372 535.744 159.056C535.276 159.74 534.592 160.28 533.692 160.676C532.81 161.054 531.775 161.243 530.587 161.243ZM553.073 153.197C553.073 153.737 553.037 154.223 552.965 154.655H542.03C542.12 155.735 542.498 156.581 543.164 157.193C543.83 157.805 544.649 158.111 545.621 158.111C547.025 158.111 548.024 157.508 548.618 156.302H552.695C552.263 157.742 551.435 158.93 550.211 159.866C548.987 160.784 547.484 161.243 545.702 161.243C544.262 161.243 542.966 160.928 541.814 160.298C540.68 159.65 539.789 158.741 539.141 157.571C538.511 156.401 538.196 155.051 538.196 153.521C538.196 151.973 538.511 150.614 539.141 149.444C539.771 148.274 540.653 147.374 541.787 146.744C542.921 146.114 544.226 145.799 545.702 145.799C547.124 145.799 548.393 146.105 549.509 146.717C550.643 147.329 551.516 148.202 552.128 149.336C552.758 150.452 553.073 151.739 553.073 153.197ZM549.158 152.117C549.14 151.145 548.789 150.371 548.105 149.795C547.421 149.201 546.584 148.904 545.594 148.904C544.658 148.904 543.866 149.192 543.218 149.768C542.588 150.326 542.201 151.109 542.057 152.117H549.158ZM574 145.826C575.836 145.826 577.312 146.393 578.428 147.527C579.562 148.643 580.129 150.209 580.129 152.225V161H576.349V152.738C576.349 151.568 576.052 150.677 575.458 150.065C574.864 149.435 574.054 149.12 573.028 149.12C572.002 149.12 571.183 149.435 570.571 150.065C569.977 150.677 569.68 151.568 569.68 152.738V161H565.9V152.738C565.9 151.568 565.603 150.677 565.009 150.065C564.415 149.435 563.605 149.12 562.579 149.12C561.535 149.12 560.707 149.435 560.095 150.065C559.501 150.677 559.204 151.568 559.204 152.738V161H555.424V146.042H559.204V147.851C559.69 147.221 560.311 146.726 561.067 146.366C561.841 146.006 562.687 145.826 563.605 145.826C564.775 145.826 565.819 146.078 566.737 146.582C567.655 147.068 568.366 147.77 568.87 148.688C569.356 147.824 570.058 147.131 570.976 146.609C571.912 146.087 572.92 145.826 574 145.826ZM585.225 144.26C584.559 144.26 584.001 144.053 583.551 143.639C583.119 143.207 582.903 142.676 582.903 142.046C582.903 141.416 583.119 140.894 583.551 140.48C584.001 140.048 584.559 139.832 585.225 139.832C585.891 139.832 586.44 140.048 586.872 140.48C587.322 140.894 587.547 141.416 587.547 142.046C587.547 142.676 587.322 143.207 586.872 143.639C586.44 144.053 585.891 144.26 585.225 144.26ZM587.088 146.042V161H583.308V146.042H587.088ZM594.195 148.229C594.681 147.509 595.347 146.924 596.193 146.474C597.057 146.024 598.038 145.799 599.136 145.799C600.414 145.799 601.566 146.114 602.592 146.744C603.636 147.374 604.455 148.274 605.049 149.444C605.661 150.596 605.967 151.937 605.967 153.467C605.967 154.997 605.661 156.356 605.049 157.544C604.455 158.714 603.636 159.623 602.592 160.271C601.566 160.919 600.414 161.243 599.136 161.243C598.02 161.243 597.039 161.027 596.193 160.595C595.365 160.145 594.699 159.569 594.195 158.867V161H590.415V141.02H594.195V148.229ZM602.106 153.467C602.106 152.567 601.917 151.793 601.539 151.145C601.179 150.479 600.693 149.975 600.081 149.633C599.487 149.291 598.839 149.12 598.137 149.12C597.453 149.12 596.805 149.3 596.193 149.66C595.599 150.002 595.113 150.506 594.735 151.172C594.375 151.838 594.195 152.621 594.195 153.521C594.195 154.421 594.375 155.204 594.735 155.87C595.113 156.536 595.599 157.049 596.193 157.409C596.805 157.751 597.453 157.922 598.137 157.922C598.839 157.922 599.487 157.742 600.081 157.382C600.693 157.022 601.179 156.509 601.539 155.843C601.917 155.177 602.106 154.385 602.106 153.467ZM614.947 161.243C613.507 161.243 612.211 160.928 611.059 160.298C609.907 159.65 608.998 158.741 608.332 157.571C607.684 156.401 607.36 155.051 607.36 153.521C607.36 151.991 607.693 150.641 608.359 149.471C609.043 148.301 609.97 147.401 611.14 146.771C612.31 146.123 613.615 145.799 615.055 145.799C616.495 145.799 617.8 146.123 618.97 146.771C620.14 147.401 621.058 148.301 621.724 149.471C622.408 150.641 622.75 151.991 622.75 153.521C622.75 155.051 622.399 156.401 621.697 157.571C621.013 158.741 620.077 159.65 618.889 160.298C617.719 160.928 616.405 161.243 614.947 161.243ZM614.947 157.949C615.631 157.949 616.27 157.787 616.864 157.463C617.476 157.121 617.962 156.617 618.322 155.951C618.682 155.285 618.862 154.475 618.862 153.521C618.862 152.099 618.484 151.01 617.728 150.254C616.99 149.48 616.081 149.093 615.001 149.093C613.921 149.093 613.012 149.48 612.274 150.254C611.554 151.01 611.194 152.099 611.194 153.521C611.194 154.943 611.545 156.041 612.247 156.815C612.967 157.571 613.867 157.949 614.947 157.949ZM628.895 141.02V161H625.115V141.02H628.895ZM631.25 153.467C631.25 151.955 631.547 150.614 632.141 149.444C632.753 148.274 633.581 147.374 634.625 146.744C635.669 146.114 636.83 145.799 638.108 145.799C639.08 145.799 640.007 146.015 640.889 146.447C641.771 146.861 642.473 147.419 642.995 148.121V141.02H646.829V161H642.995V158.786C642.527 159.524 641.87 160.118 641.024 160.568C640.178 161.018 639.197 161.243 638.081 161.243C636.821 161.243 635.669 160.919 634.625 160.271C633.581 159.623 632.753 158.714 632.141 157.544C631.547 156.356 631.25 154.997 631.25 153.467ZM643.022 153.521C643.022 152.603 642.842 151.82 642.482 151.172C642.122 150.506 641.636 150.002 641.024 149.66C640.412 149.3 639.755 149.12 639.053 149.12C638.351 149.12 637.703 149.291 637.109 149.633C636.515 149.975 636.029 150.479 635.651 151.145C635.291 151.793 635.111 152.567 635.111 153.467C635.111 154.367 635.291 155.159 635.651 155.843C636.029 156.509 636.515 157.022 637.109 157.382C637.721 157.742 638.369 157.922 639.053 157.922C639.755 157.922 640.412 157.751 641.024 157.409C641.636 157.049 642.122 156.545 642.482 155.897C642.842 155.231 643.022 154.439 643.022 153.521Z" fill="#332D2D"/>
<path d="M543.034 207.88C544.204 207.88 545.248 208.123 546.166 208.609C547.102 209.095 547.831 209.815 548.353 210.769C548.893 211.723 549.163 212.875 549.163 214.225V223H546.112V214.684C546.112 213.352 545.779 212.335 545.113 211.633C544.447 210.913 543.538 210.553 542.386 210.553C541.234 210.553 540.316 210.913 539.632 211.633C538.966 212.335 538.633 213.352 538.633 214.684V223H535.582V214.684C535.582 213.352 535.249 212.335 534.583 211.633C533.917 210.913 533.008 210.553 531.856 210.553C530.704 210.553 529.786 210.913 529.102 211.633C528.436 212.335 528.103 213.352 528.103 214.684V223H525.025V208.123H528.103V209.824C528.607 209.212 529.246 208.735 530.02 208.393C530.794 208.051 531.622 207.88 532.504 207.88C533.692 207.88 534.754 208.132 535.69 208.636C536.626 209.14 537.346 209.869 537.85 210.823C538.3 209.923 539.002 209.212 539.956 208.69C540.91 208.15 541.936 207.88 543.034 207.88ZM566.307 215.197C566.307 215.755 566.271 216.259 566.199 216.709H554.832C554.922 217.897 555.363 218.851 556.155 219.571C556.947 220.291 557.919 220.651 559.071 220.651C560.727 220.651 561.897 219.958 562.581 218.572H565.902C565.452 219.94 564.633 221.065 563.445 221.947C562.275 222.811 560.817 223.243 559.071 223.243C557.649 223.243 556.371 222.928 555.237 222.298C554.121 221.65 553.239 220.75 552.591 219.598C551.961 218.428 551.646 217.078 551.646 215.548C551.646 214.018 551.952 212.677 552.564 211.525C553.194 210.355 554.067 209.455 555.183 208.825C556.317 208.195 557.613 207.88 559.071 207.88C560.475 207.88 561.726 208.186 562.824 208.798C563.922 209.41 564.777 210.274 565.389 211.39C566.001 212.488 566.307 213.757 566.307 215.197ZM563.094 214.225C563.076 213.091 562.671 212.182 561.879 211.498C561.087 210.814 560.106 210.472 558.936 210.472C557.874 210.472 556.965 210.814 556.209 211.498C555.453 212.164 555.003 213.073 554.859 214.225H563.094ZM567.902 215.494C567.902 214 568.208 212.677 568.82 211.525C569.45 210.373 570.296 209.482 571.358 208.852C572.438 208.204 573.635 207.88 574.949 207.88C575.921 207.88 576.875 208.096 577.811 208.528C578.765 208.942 579.521 209.5 580.079 210.202V203.02H583.184V223H580.079V220.759C579.575 221.479 578.873 222.073 577.973 222.541C577.091 223.009 576.074 223.243 574.922 223.243C573.626 223.243 572.438 222.919 571.358 222.271C570.296 221.605 569.45 220.687 568.82 219.517C568.208 218.329 567.902 216.988 567.902 215.494ZM580.079 215.548C580.079 214.522 579.863 213.631 579.431 212.875C579.017 212.119 578.468 211.543 577.784 211.147C577.1 210.751 576.362 210.553 575.57 210.553C574.778 210.553 574.04 210.751 573.356 211.147C572.672 211.525 572.114 212.092 571.682 212.848C571.268 213.586 571.061 214.468 571.061 215.494C571.061 216.52 571.268 217.42 571.682 218.194C572.114 218.968 572.672 219.562 573.356 219.976C574.058 220.372 574.796 220.57 575.57 220.57C576.362 220.57 577.1 220.372 577.784 219.976C578.468 219.58 579.017 219.004 579.431 218.248C579.863 217.474 580.079 216.574 580.079 215.548ZM588.385 206.152C587.827 206.152 587.359 205.963 586.981 205.585C586.603 205.207 586.414 204.739 586.414 204.181C586.414 203.623 586.603 203.155 586.981 202.777C587.359 202.399 587.827 202.21 588.385 202.21C588.925 202.21 589.384 202.399 589.762 202.777C590.14 203.155 590.329 203.623 590.329 204.181C590.329 204.739 590.14 205.207 589.762 205.585C589.384 205.963 588.925 206.152 588.385 206.152ZM589.897 208.123V223H586.819V208.123H589.897ZM607.003 208.123V223H603.925V221.245C603.439 221.857 602.8 222.343 602.008 222.703C601.234 223.045 600.406 223.216 599.524 223.216C598.354 223.216 597.301 222.973 596.365 222.487C595.447 222.001 594.718 221.281 594.178 220.327C593.656 219.373 593.395 218.221 593.395 216.871V208.123H596.446V216.412C596.446 217.744 596.779 218.77 597.445 219.49C598.111 220.192 599.02 220.543 600.172 220.543C601.324 220.543 602.233 220.192 602.899 219.49C603.583 218.77 603.925 217.744 603.925 216.412V208.123H607.003ZM628.665 207.88C629.835 207.88 630.879 208.123 631.797 208.609C632.733 209.095 633.462 209.815 633.984 210.769C634.524 211.723 634.794 212.875 634.794 214.225V223H631.743V214.684C631.743 213.352 631.41 212.335 630.744 211.633C630.078 210.913 629.169 210.553 628.017 210.553C626.865 210.553 625.947 210.913 625.263 211.633C624.597 212.335 624.264 213.352 624.264 214.684V223H621.213V214.684C621.213 213.352 620.88 212.335 620.214 211.633C619.548 210.913 618.639 210.553 617.487 210.553C616.335 210.553 615.417 210.913 614.733 211.633C614.067 212.335 613.734 213.352 613.734 214.684V223H610.656V208.123H613.734V209.824C614.238 209.212 614.877 208.735 615.651 208.393C616.425 208.051 617.253 207.88 618.135 207.88C619.323 207.88 620.385 208.132 621.321 208.636C622.257 209.14 622.977 209.869 623.481 210.823C623.931 209.923 624.633 209.212 625.587 208.69C626.541 208.15 627.567 207.88 628.665 207.88Z" fill="#332D2D"/>
<path d="M527.536 272.607C527.968 271.761 528.58 271.104 529.372 270.636C530.182 270.168 531.163 269.934 532.315 269.934V272.472H531.667C528.913 272.472 527.536 273.966 527.536 276.954V285H525.079V270.204H527.536V272.607ZM548.243 277.035C548.243 277.503 548.216 277.998 548.162 278.52H536.336C536.426 279.978 536.921 281.121 537.821 281.949C538.739 282.759 539.846 283.164 541.142 283.164C542.204 283.164 543.086 282.921 543.788 282.435C544.508 281.931 545.012 281.265 545.3 280.437H547.946C547.55 281.859 546.758 283.02 545.57 283.92C544.382 284.802 542.906 285.243 541.142 285.243C539.738 285.243 538.478 284.928 537.362 284.298C536.264 283.668 535.4 282.777 534.77 281.625C534.14 280.455 533.825 279.105 533.825 277.575C533.825 276.045 534.131 274.704 534.743 273.552C535.355 272.4 536.21 271.518 537.308 270.906C538.424 270.276 539.702 269.961 541.142 269.961C542.546 269.961 543.788 270.267 544.868 270.879C545.948 271.491 546.776 272.337 547.352 273.417C547.946 274.479 548.243 275.685 548.243 277.035ZM545.705 276.522C545.705 275.586 545.498 274.785 545.084 274.119C544.67 273.435 544.103 272.922 543.383 272.58C542.681 272.22 541.898 272.04 541.034 272.04C539.792 272.04 538.73 272.436 537.848 273.228C536.984 274.02 536.489 275.118 536.363 276.522H545.705ZM557.18 269.961C558.458 269.961 559.574 270.24 560.528 270.798C561.5 271.356 562.22 272.058 562.688 272.904V270.204H565.172V285.324C565.172 286.674 564.884 287.871 564.308 288.915C563.732 289.977 562.904 290.805 561.824 291.399C560.762 291.993 559.52 292.29 558.098 292.29C556.154 292.29 554.534 291.831 553.238 290.913C551.942 289.995 551.177 288.744 550.943 287.16H553.373C553.643 288.06 554.201 288.78 555.047 289.32C555.893 289.878 556.91 290.157 558.098 290.157C559.448 290.157 560.546 289.734 561.392 288.888C562.256 288.042 562.688 286.854 562.688 285.324V282.219C562.202 283.083 561.482 283.803 560.528 284.379C559.574 284.955 558.458 285.243 557.18 285.243C555.866 285.243 554.669 284.919 553.589 284.271C552.527 283.623 551.69 282.714 551.078 281.544C550.466 280.374 550.16 279.042 550.16 277.548C550.16 276.036 550.466 274.713 551.078 273.579C551.69 272.427 552.527 271.536 553.589 270.906C554.669 270.276 555.866 269.961 557.18 269.961ZM562.688 277.575C562.688 276.459 562.463 275.487 562.013 274.659C561.563 273.831 560.951 273.201 560.177 272.769C559.421 272.319 558.584 272.094 557.666 272.094C556.748 272.094 555.911 272.31 555.155 272.742C554.399 273.174 553.796 273.804 553.346 274.632C552.896 275.46 552.671 276.432 552.671 277.548C552.671 278.682 552.896 279.672 553.346 280.518C553.796 281.346 554.399 281.985 555.155 282.435C555.911 282.867 556.748 283.083 557.666 283.083C558.584 283.083 559.421 282.867 560.177 282.435C560.951 281.985 561.563 281.346 562.013 280.518C562.463 279.672 562.688 278.691 562.688 277.575ZM582.039 270.204V285H579.582V282.813C579.114 283.569 578.457 284.163 577.611 284.595C576.783 285.009 575.865 285.216 574.857 285.216C573.705 285.216 572.67 284.982 571.752 284.514C570.834 284.028 570.105 283.308 569.565 282.354C569.043 281.4 568.782 280.239 568.782 278.871V270.204H571.212V278.547C571.212 280.005 571.581 281.13 572.319 281.922C573.057 282.696 574.065 283.083 575.343 283.083C576.657 283.083 577.692 282.678 578.448 281.868C579.204 281.058 579.582 279.879 579.582 278.331V270.204H582.039ZM588.236 265.02V285H585.779V265.02H588.236ZM591.098 277.548C591.098 276.036 591.404 274.713 592.016 273.579C592.628 272.427 593.465 271.536 594.527 270.906C595.607 270.276 596.804 269.961 598.118 269.961C599.414 269.961 600.539 270.24 601.493 270.798C602.447 271.356 603.158 272.058 603.626 272.904V270.204H606.11V285H603.626V282.246C603.14 283.11 602.411 283.83 601.439 284.406C600.485 284.964 599.369 285.243 598.091 285.243C596.777 285.243 595.589 284.919 594.527 284.271C593.465 283.623 592.628 282.714 592.016 281.544C591.404 280.374 591.098 279.042 591.098 277.548ZM603.626 277.575C603.626 276.459 603.401 275.487 602.951 274.659C602.501 273.831 601.889 273.201 601.115 272.769C600.359 272.319 599.522 272.094 598.604 272.094C597.686 272.094 596.849 272.31 596.093 272.742C595.337 273.174 594.734 273.804 594.284 274.632C593.834 275.46 593.609 276.432 593.609 277.548C593.609 278.682 593.834 279.672 594.284 280.518C594.734 281.346 595.337 281.985 596.093 282.435C596.849 282.867 597.686 283.083 598.604 283.083C599.522 283.083 600.359 282.867 601.115 282.435C601.889 281.985 602.501 281.346 602.951 280.518C603.401 279.672 603.626 278.691 603.626 277.575ZM612.311 272.607C612.743 271.761 613.355 271.104 614.147 270.636C614.957 270.168 615.938 269.934 617.09 269.934V272.472H616.442C613.688 272.472 612.311 273.966 612.311 276.954V285H609.854V270.204H612.311V272.607Z" fill="#332D2D"/>
<rect x="300.215" y="321" width="244" height="78" rx="24" transform="rotate(4.57093 300.215 321)" fill="#EC7938"/>
<path d="M325.134 356.128C326.22 354.919 327.645 353.941 329.41 353.196C331.175 352.45 333.125 352.163 335.26 352.333C337.701 352.528 339.872 353.316 341.774 354.696C343.713 356.045 345.171 357.85 346.15 360.111C347.129 362.372 347.506 364.909 347.281 367.722C347.056 370.535 346.278 373.014 344.947 375.159C343.619 377.27 341.888 378.871 339.754 379.962C337.657 381.022 335.388 381.455 332.948 381.26C330.813 381.089 328.949 380.514 327.356 379.534C325.765 378.52 324.496 377.327 323.549 375.955L322.159 393.342L316.363 392.878L319.667 351.547L325.463 352.01L325.134 356.128ZM341.384 367.251C341.539 365.319 341.265 363.626 340.562 362.171C339.897 360.685 338.931 359.534 337.666 358.716C336.438 357.868 335.078 357.384 333.587 357.265C332.13 357.148 330.71 357.41 329.329 358.05C327.981 358.692 326.844 359.693 325.917 361.051C325.024 362.412 324.5 364.059 324.345 365.991C324.191 367.923 324.445 369.648 325.108 371.168C325.808 372.657 326.772 373.825 328 374.674C329.262 375.525 330.622 376.009 332.079 376.125C333.57 376.245 334.99 375.983 336.337 375.34C337.721 374.666 338.862 373.632 339.758 372.237C340.687 370.845 341.23 369.183 341.384 367.251ZM363.589 383.71C360.946 383.498 358.604 382.714 356.564 381.357C354.526 379.966 352.984 378.138 351.937 375.871C350.893 373.571 350.486 370.98 350.717 368.099C350.944 365.252 351.773 362.777 353.203 360.675C354.633 358.572 356.48 357.014 358.744 356.001C361.008 354.989 363.479 354.589 366.156 354.803C368.834 355.017 371.21 355.804 373.284 357.164C375.358 358.523 376.934 360.355 378.012 362.658C379.09 364.961 379.515 367.536 379.287 370.383C379.06 373.23 378.214 375.704 376.75 377.804C375.286 379.904 373.387 381.474 371.052 382.516C368.755 383.526 366.267 383.924 363.589 383.71ZM363.992 378.677C365.483 378.796 366.901 378.551 368.246 377.942C369.625 377.336 370.778 376.354 371.705 374.996C372.632 373.637 373.177 371.941 373.339 369.908C373.502 367.874 373.249 366.132 372.581 364.68C371.915 363.194 370.967 362.044 369.736 361.229C368.505 360.414 367.143 359.947 365.652 359.828C364.161 359.709 362.743 359.954 361.398 360.562C360.087 361.174 359.002 362.162 358.143 363.525C357.286 364.855 356.776 366.537 356.614 368.571C356.373 371.587 356.948 373.986 358.341 375.769C359.77 377.521 361.653 378.49 363.992 378.677ZM391.194 361.41C392.28 360.2 393.705 359.223 395.47 358.477C397.235 357.731 399.185 357.444 401.321 357.615C403.761 357.81 405.932 358.597 407.834 359.977C409.773 361.326 411.231 363.131 412.21 365.392C413.189 367.653 413.566 370.19 413.341 373.003C413.117 375.817 412.338 378.295 411.007 380.44C409.679 382.551 407.948 384.152 405.814 385.244C403.717 386.304 401.448 386.736 399.008 386.541C396.873 386.371 395.009 385.795 393.416 384.815C391.825 383.801 390.556 382.608 389.609 381.236L388.219 398.623L382.423 398.16L385.728 356.828L391.523 357.292L391.194 361.41ZM407.444 372.532C407.599 370.6 407.325 368.907 406.622 367.452C405.957 365.967 404.991 364.815 403.727 363.998C402.498 363.149 401.138 362.665 399.647 362.546C398.19 362.429 396.771 362.691 395.389 363.331C394.042 363.974 392.904 364.974 391.977 366.333C391.084 367.694 390.56 369.34 390.405 371.272C390.251 373.204 390.505 374.93 391.168 376.449C391.868 377.938 392.832 379.106 394.06 379.955C395.322 380.806 396.682 381.29 398.139 381.407C399.631 381.526 401.05 381.264 402.397 380.622C403.782 379.948 404.922 378.913 405.818 377.518C406.748 376.126 407.29 374.464 407.444 372.532ZM425.242 364.132C426.328 362.922 427.753 361.945 429.518 361.199C431.283 360.453 433.233 360.166 435.368 360.337C437.809 360.532 439.98 361.319 441.882 362.699C443.82 364.048 445.279 365.853 446.258 368.114C447.237 370.375 447.614 372.912 447.389 375.726C447.164 378.539 446.386 381.017 445.055 383.162C443.727 385.273 441.996 386.874 439.862 387.966C437.765 389.026 435.496 389.458 433.056 389.263C430.921 389.093 429.056 388.517 427.464 387.537C425.873 386.523 424.604 385.33 423.657 383.958L422.267 401.345L416.471 400.882L419.775 359.55L425.571 360.014L425.242 364.132ZM441.492 375.254C441.646 373.322 441.373 371.629 440.67 370.174C440.005 368.689 439.039 367.537 437.774 366.72C436.546 365.871 435.186 365.387 433.695 365.268C432.238 365.151 430.818 365.413 429.437 366.053C428.089 366.696 426.952 367.696 426.025 369.055C425.132 370.416 424.608 372.062 424.453 373.994C424.299 375.926 424.553 377.652 425.216 379.171C425.916 380.66 426.88 381.828 428.108 382.677C429.37 383.528 430.73 384.012 432.187 384.129C433.678 384.248 435.098 383.986 436.445 383.344C437.829 382.67 438.969 381.635 439.865 380.24C440.795 378.848 441.338 377.186 441.492 375.254ZM457.069 358.797C456.018 358.713 455.165 358.287 454.51 357.518C453.855 356.749 453.57 355.84 453.654 354.789C453.738 353.739 454.164 352.886 454.933 352.231C455.702 351.576 456.611 351.291 457.662 351.375C458.679 351.456 459.514 351.881 460.169 352.65C460.824 353.418 461.11 354.328 461.026 355.379C460.942 356.429 460.515 357.282 459.747 357.937C458.978 358.592 458.085 358.878 457.069 358.797ZM459.619 362.736L457.379 390.747L451.584 390.284L453.823 362.272L459.619 362.736ZM480.991 363.984C483.194 364.16 485.123 364.775 486.778 365.828C488.467 366.884 489.731 368.349 490.571 370.224C491.41 372.099 491.728 374.308 491.525 376.849L490.204 393.372L484.459 392.912L485.711 377.254C485.911 374.746 485.438 372.781 484.289 371.359C483.144 369.903 481.486 369.089 479.317 368.915C477.148 368.742 475.365 369.282 473.969 370.534C472.61 371.756 471.829 373.621 471.629 376.129L470.377 391.787L464.582 391.323L466.821 363.312L472.617 363.775L472.36 366.978C473.402 365.901 474.677 365.099 476.185 364.572C477.728 364.047 479.33 363.851 480.991 363.984ZM507.321 395.201C505.118 395.024 503.166 394.476 501.466 393.556C499.803 392.604 498.517 391.41 497.608 389.973C496.703 388.502 496.284 386.917 496.351 385.217L502.35 385.696C502.357 386.891 502.836 387.935 503.788 388.83C504.776 389.693 506.05 390.187 507.609 390.312C509.236 390.442 510.514 390.237 511.444 389.698C512.411 389.127 512.933 388.35 513.012 387.367C513.096 386.317 512.65 385.496 511.674 384.907C510.732 384.32 509.2 383.635 507.08 382.851C505.025 382.107 503.358 381.411 502.08 380.763C500.801 380.115 499.715 379.193 498.822 377.996C497.962 376.801 497.606 375.289 497.752 373.459C497.871 371.968 498.42 370.647 499.399 369.498C500.38 368.314 501.713 367.431 503.397 366.85C505.114 366.271 507.041 366.067 509.176 366.237C512.362 366.492 514.855 367.51 516.657 369.291C518.496 371.041 519.371 373.311 519.285 376.101L513.489 375.638C513.488 374.376 513.059 373.335 512.204 372.517C511.348 371.698 510.141 371.226 508.582 371.101C507.057 370.98 505.865 371.174 505.005 371.685C504.146 372.196 503.678 372.926 503.602 373.875C503.543 374.621 503.764 375.27 504.265 375.821C504.767 376.373 505.395 376.833 506.15 377.2C506.908 377.534 508.032 377.982 509.522 378.544C511.512 379.249 513.128 379.941 514.37 380.62C515.648 381.268 516.719 382.172 517.581 383.333C518.443 384.493 518.82 385.973 518.71 387.772C518.583 389.365 518.028 390.753 517.047 391.936C516.065 393.12 514.733 394.002 513.049 394.584C511.399 395.169 509.49 395.374 507.321 395.201Z" fill="#FEFCFA"/>
</svg>
