<svg width="864" height="208" viewBox="0 0 864 208" fill="none" xmlns="http://www.w3.org/2000/svg">
<rect width="579" height="56" rx="16" fill="#EC7938"/>
<path d="M23.62 40H22.18L23.44 36.76H20.4V35.48H23.94L25.52 31.3H22.12V30.02H26.04L27.34 26.6H28.76L27.46 30.02H31.74L33.04 26.6H34.46L33.16 30.02H36.28V31.3H32.64L31.06 35.48H34.56V36.76H30.56L29.32 40H27.88L29.12 36.76H24.86L23.62 40ZM26.92 31.28L25.3 35.5H29.68L31.28 31.28H26.92ZM39.2997 40H37.8797V26.6H39.2997V40ZM48.0597 40H38.3597V38.7H48.0597V40ZM47.7597 33.9H38.3597V32.62H47.7597V33.9ZM48.0597 27.9H38.3597V26.6H48.0597V27.9ZM56.2277 40.2C54.921 40.2 53.761 39.92 52.7477 39.36C51.7477 38.7867 50.961 37.9867 50.3877 36.96C49.8277 35.92 49.5477 34.7 49.5477 33.3C49.5477 31.9 49.8277 30.6867 50.3877 29.66C50.961 28.62 51.7477 27.82 52.7477 27.26C53.761 26.6867 54.921 26.4 56.2277 26.4C57.3877 26.4 58.4277 26.6067 59.3477 27.02C60.2677 27.42 60.9877 27.9933 61.5077 28.74C62.041 29.4733 62.3077 30.3533 62.3077 31.38V31.62H60.7677V31.38C60.7677 30.2333 60.381 29.3467 59.6077 28.72C58.8343 28.0933 57.7143 27.78 56.2477 27.78C55.141 27.78 54.1943 27.9933 53.4077 28.42C52.6343 28.8333 52.0477 29.4467 51.6477 30.26C51.2477 31.0733 51.0477 32.0867 51.0477 33.3C51.0477 34.5 51.2477 35.5133 51.6477 36.34C52.0477 37.1533 52.6343 37.7733 53.4077 38.2C54.1943 38.6133 55.141 38.82 56.2477 38.82C57.7143 38.82 58.8343 38.5067 59.6077 37.88C60.381 37.2533 60.7677 36.3667 60.7677 35.22V34.98H62.3077V35.22C62.3077 36.2333 62.041 37.1133 61.5077 37.86C60.9877 38.6067 60.2677 39.1867 59.3477 39.6C58.4277 40 57.3877 40.2 56.2277 40.2ZM68.0078 40.02H66.4278C66.4278 38.74 66.5345 37.58 66.7478 36.54C66.9611 35.5 67.2545 34.56 67.6278 33.72C68.0145 32.88 68.4478 32.12 68.9278 31.44C69.4211 30.7467 69.9478 30.12 70.5078 29.56C71.0811 29 71.6545 28.48 72.2278 28V27.9H63.2078V26.6H73.8478V27.76C72.8611 28.6267 72.0011 29.5 71.2678 30.38C70.5345 31.2467 69.9278 32.16 69.4478 33.12C68.9678 34.08 68.6078 35.1267 68.3678 36.26C68.1278 37.38 68.0078 38.6333 68.0078 40.02ZM80.5439 40.2C79.5172 40.2 78.6039 40.0333 77.8039 39.7C77.0172 39.3533 76.3906 38.86 75.9239 38.22C75.4706 37.58 75.2439 36.8133 75.2439 35.92V35.78H76.7839V35.92C76.7839 36.4667 76.9039 36.96 77.1439 37.4C77.3839 37.84 77.7772 38.1933 78.3239 38.46C78.8706 38.7133 79.6106 38.84 80.5439 38.84C81.6639 38.84 82.5572 38.6333 83.2239 38.22C83.9039 37.8067 84.3906 37.1933 84.6839 36.38C84.9906 35.5533 85.1439 34.54 85.1439 33.34V32.12H85.0039C84.8439 32.6533 84.5439 33.1267 84.1039 33.54C83.6639 33.9533 83.0972 34.2867 82.4039 34.54C81.7239 34.78 80.9372 34.9 80.0439 34.9C78.9506 34.9 78.0172 34.7333 77.2439 34.4C76.4706 34.0533 75.8772 33.5667 75.4639 32.94C75.0506 32.3133 74.8439 31.5667 74.8439 30.7C74.8439 29.3933 75.3306 28.3533 76.3039 27.58C77.2906 26.7933 78.6772 26.4 80.4639 26.4C81.8906 26.4 83.0572 26.6333 83.9639 27.1C84.8706 27.5667 85.5372 28.3067 85.9639 29.32C86.4039 30.32 86.6239 31.64 86.6239 33.28C86.6239 34.2933 86.4972 35.2267 86.2439 36.08C86.0039 36.92 85.6372 37.6533 85.1439 38.28C84.6506 38.8933 84.0172 39.3667 83.2439 39.7C82.4839 40.0333 81.5839 40.2 80.5439 40.2ZM80.4839 33.82C81.3906 33.82 82.1706 33.7 82.8239 33.46C83.4772 33.22 83.9772 32.8733 84.3239 32.42C84.6839 31.9533 84.8639 31.4 84.8639 30.76C84.8639 30.1067 84.6906 29.56 84.3439 29.12C84.0106 28.6667 83.5239 28.3267 82.8839 28.1C82.2439 27.8733 81.4506 27.76 80.5039 27.76C79.5439 27.76 78.7506 27.8733 78.1239 28.1C77.5106 28.3133 77.0506 28.6467 76.7439 29.1C76.4506 29.5533 76.3039 30.12 76.3039 30.8C76.3039 31.4533 76.4506 32.0067 76.7439 32.46C77.0506 32.9133 77.5106 33.2533 78.1239 33.48C78.7372 33.7067 79.5239 33.82 80.4839 33.82ZM93.9405 40.2C92.5938 40.2 91.4938 40.0067 90.6405 39.62C89.8005 39.22 89.1805 38.6867 88.7805 38.02C88.3805 37.34 88.1805 36.58 88.1805 35.74V35.42H89.6605V35.68C89.6605 36.3867 89.7871 36.9733 90.0405 37.44C90.3071 37.9067 90.7471 38.26 91.3605 38.5C91.9738 38.7267 92.8205 38.84 93.9005 38.84C94.9005 38.84 95.7071 38.7467 96.3205 38.56C96.9338 38.3733 97.3805 38.08 97.6605 37.68C97.9538 37.2667 98.1005 36.7467 98.1005 36.12C98.1005 35.2667 97.8205 34.64 97.2605 34.24C96.7005 33.8267 95.9071 33.62 94.8805 33.62H91.2605V32.4H94.5805C95.5938 32.4 96.3671 32.2133 96.9005 31.84C97.4338 31.4533 97.7005 30.8867 97.7005 30.14C97.7005 29.6067 97.5805 29.1667 97.3405 28.82C97.1005 28.46 96.6938 28.1933 96.1205 28.02C95.5605 27.8467 94.8005 27.76 93.8405 27.76C92.8271 27.76 92.0138 27.88 91.4005 28.12C90.7871 28.3467 90.3405 28.6933 90.0605 29.16C89.7938 29.6267 89.6605 30.2133 89.6605 30.92V31.1H88.1805V30.86C88.1805 30.0333 88.3805 29.2867 88.7805 28.62C89.1938 27.94 89.8271 27.4 90.6805 27C91.5338 26.6 92.6205 26.4 93.9405 26.4C95.5805 26.4 96.8538 26.7133 97.7605 27.34C98.6671 27.9533 99.1205 28.8133 99.1205 29.92C99.1205 30.6533 98.9005 31.2867 98.4605 31.82C98.0338 32.34 97.4005 32.68 96.5605 32.84V32.98C97.5071 33.1667 98.2405 33.54 98.7605 34.1C99.2805 34.66 99.5405 35.3867 99.5405 36.28C99.5405 37.5333 99.0405 38.5 98.0405 39.18C97.0405 39.86 95.6738 40.2 93.9405 40.2ZM106.616 40.2C105.402 40.2 104.349 40.06 103.456 39.78C102.576 39.5 101.896 39.0733 101.416 38.5C100.936 37.9267 100.696 37.2133 100.696 36.36C100.696 35.8 100.822 35.2933 101.076 34.84C101.329 34.3867 101.702 34 102.196 33.68C102.702 33.3467 103.322 33.1133 104.056 32.98V32.84C103.082 32.7067 102.336 32.3667 101.816 31.82C101.309 31.2733 101.056 30.6267 101.056 29.88C101.056 28.8533 101.522 28.02 102.456 27.38C103.402 26.7267 104.789 26.4 106.616 26.4C108.456 26.4 109.842 26.7267 110.776 27.38C111.709 28.02 112.176 28.8533 112.176 29.88C112.176 30.6267 111.916 31.2733 111.396 31.82C110.889 32.3667 110.149 32.7067 109.176 32.84V32.98C109.922 33.1133 110.542 33.3467 111.036 33.68C111.542 34 111.916 34.3867 112.156 34.84C112.409 35.2933 112.536 35.8 112.536 36.36C112.536 37.2133 112.296 37.9267 111.816 38.5C111.336 39.0733 110.649 39.5 109.756 39.78C108.876 40.06 107.829 40.2 106.616 40.2ZM106.616 38.84C107.682 38.84 108.542 38.7467 109.196 38.56C109.849 38.3733 110.329 38.0867 110.636 37.7C110.942 37.3 111.096 36.78 111.096 36.14C111.096 35.5533 110.942 35.0667 110.636 34.68C110.329 34.2933 109.842 34.0067 109.176 33.82C108.522 33.62 107.669 33.52 106.616 33.52C105.576 33.52 104.722 33.62 104.056 33.82C103.389 34.0067 102.902 34.2933 102.596 34.68C102.289 35.0667 102.136 35.5533 102.136 36.14C102.136 36.78 102.289 37.3 102.596 37.7C102.902 38.0867 103.382 38.3733 104.036 38.56C104.702 38.7467 105.562 38.84 106.616 38.84ZM106.616 32.5C107.562 32.5 108.342 32.4133 108.956 32.24C109.569 32.0667 110.022 31.8067 110.316 31.46C110.609 31.1133 110.756 30.6733 110.756 30.14C110.756 29.6467 110.629 29.22 110.376 28.86C110.122 28.5 109.689 28.2267 109.076 28.04C108.476 27.8533 107.656 27.76 106.616 27.76C105.576 27.76 104.756 27.8533 104.156 28.04C103.556 28.2267 103.122 28.5 102.856 28.86C102.602 29.22 102.476 29.6467 102.476 30.14C102.476 30.6733 102.622 31.1133 102.916 31.46C103.222 31.8067 103.676 32.0667 104.276 32.24C104.889 32.4133 105.669 32.5 106.616 32.5Z" fill="white"/>
<rect x="599" width="265" height="56" rx="16" fill="#332D2D"/>
<path d="M622.62 40H621.18L622.44 36.76H619.4V35.48H622.94L624.52 31.3H621.12V30.02H625.04L626.34 26.6H627.76L626.46 30.02H630.74L632.04 26.6H633.46L632.16 30.02H635.28V31.3H631.64L630.06 35.48H633.56V36.76H629.56L628.32 40H626.88L628.12 36.76H623.86L622.62 40ZM625.92 31.28L624.3 35.5H628.68L630.28 31.28H625.92ZM642.14 40.2C640.793 40.2 639.693 40.0067 638.84 39.62C638 39.22 637.38 38.6867 636.98 38.02C636.58 37.34 636.38 36.58 636.38 35.74V35.42H637.86V35.68C637.86 36.3867 637.986 36.9733 638.24 37.44C638.506 37.9067 638.946 38.26 639.56 38.5C640.173 38.7267 641.02 38.84 642.1 38.84C643.1 38.84 643.906 38.7467 644.52 38.56C645.133 38.3733 645.58 38.08 645.86 37.68C646.153 37.2667 646.3 36.7467 646.3 36.12C646.3 35.2667 646.02 34.64 645.46 34.24C644.9 33.8267 644.106 33.62 643.08 33.62H639.46V32.4H642.78C643.793 32.4 644.566 32.2133 645.1 31.84C645.633 31.4533 645.9 30.8867 645.9 30.14C645.9 29.6067 645.78 29.1667 645.54 28.82C645.3 28.46 644.893 28.1933 644.32 28.02C643.76 27.8467 643 27.76 642.04 27.76C641.026 27.76 640.213 27.88 639.6 28.12C638.986 28.3467 638.54 28.6933 638.26 29.16C637.993 29.6267 637.86 30.2133 637.86 30.92V31.1H636.38V30.86C636.38 30.0333 636.58 29.2867 636.98 28.62C637.393 27.94 638.026 27.4 638.88 27C639.733 26.6 640.82 26.4 642.14 26.4C643.78 26.4 645.053 26.7133 645.96 27.34C646.866 27.9533 647.32 28.8133 647.32 29.92C647.32 30.6533 647.1 31.2867 646.66 31.82C646.233 32.34 645.6 32.68 644.76 32.84V32.98C645.706 33.1667 646.44 33.54 646.96 34.1C647.48 34.66 647.74 35.3867 647.74 36.28C647.74 37.5333 647.24 38.5 646.24 39.18C645.24 39.86 643.873 40.2 642.14 40.2ZM654.835 40.2C653.488 40.2 652.388 40.0067 651.535 39.62C650.695 39.22 650.075 38.6867 649.675 38.02C649.275 37.34 649.075 36.58 649.075 35.74V35.42H650.555V35.68C650.555 36.3867 650.682 36.9733 650.935 37.44C651.202 37.9067 651.642 38.26 652.255 38.5C652.868 38.7267 653.715 38.84 654.795 38.84C655.795 38.84 656.602 38.7467 657.215 38.56C657.828 38.3733 658.275 38.08 658.555 37.68C658.848 37.2667 658.995 36.7467 658.995 36.12C658.995 35.2667 658.715 34.64 658.155 34.24C657.595 33.8267 656.802 33.62 655.775 33.62H652.155V32.4H655.475C656.488 32.4 657.262 32.2133 657.795 31.84C658.328 31.4533 658.595 30.8867 658.595 30.14C658.595 29.6067 658.475 29.1667 658.235 28.82C657.995 28.46 657.588 28.1933 657.015 28.02C656.455 27.8467 655.695 27.76 654.735 27.76C653.722 27.76 652.908 27.88 652.295 28.12C651.682 28.3467 651.235 28.6933 650.955 29.16C650.688 29.6267 650.555 30.2133 650.555 30.92V31.1H649.075V30.86C649.075 30.0333 649.275 29.2867 649.675 28.62C650.088 27.94 650.722 27.4 651.575 27C652.428 26.6 653.515 26.4 654.835 26.4C656.475 26.4 657.748 26.7133 658.655 27.34C659.562 27.9533 660.015 28.8133 660.015 29.92C660.015 30.6533 659.795 31.2867 659.355 31.82C658.928 32.34 658.295 32.68 657.455 32.84V32.98C658.402 33.1667 659.135 33.54 659.655 34.1C660.175 34.66 660.435 35.3867 660.435 36.28C660.435 37.5333 659.935 38.5 658.935 39.18C657.935 39.86 656.568 40.2 654.835 40.2ZM672.57 40H661.95V39.02C661.95 38.1533 662.064 37.4267 662.29 36.84C662.517 36.24 662.897 35.7333 663.43 35.32C663.977 34.8933 664.697 34.52 665.59 34.2L668.59 33.14C669.244 32.9 669.757 32.66 670.13 32.42C670.504 32.1667 670.77 31.8733 670.93 31.54C671.09 31.2067 671.17 30.8067 671.17 30.34C671.17 29.7533 671.03 29.2667 670.75 28.88C670.484 28.4933 670.07 28.2067 669.51 28.02C668.964 27.8333 668.264 27.74 667.41 27.74C666.45 27.74 665.67 27.86 665.07 28.1C664.47 28.34 664.024 28.6933 663.73 29.16C663.45 29.6267 663.31 30.1933 663.31 30.86V31.1H661.89V30.92C661.89 30.12 662.077 29.38 662.45 28.7C662.837 28.0067 663.437 27.4533 664.25 27.04C665.077 26.6133 666.144 26.4 667.45 26.4C668.65 26.4 669.63 26.58 670.39 26.94C671.15 27.3 671.71 27.7733 672.07 28.36C672.43 28.9467 672.61 29.6067 672.61 30.34C672.61 31.0333 672.47 31.6333 672.19 32.14C671.91 32.6333 671.504 33.06 670.97 33.42C670.437 33.7667 669.77 34.08 668.97 34.36L666.23 35.28C665.497 35.5333 664.924 35.8133 664.51 36.12C664.11 36.4267 663.824 36.8 663.65 37.24C663.49 37.6667 663.41 38.1933 663.41 38.82L666.41 38.7H672.57V40ZM680.376 40H675.156V38.7H680.376C681.523 38.7 682.47 38.5067 683.216 38.12C683.963 37.72 684.523 37.12 684.896 36.32C685.27 35.52 685.456 34.5133 685.456 33.3C685.456 32.0733 685.27 31.0667 684.896 30.28C684.523 29.48 683.963 28.8867 683.216 28.5C682.47 28.1 681.523 27.9 680.376 27.9H675.156V26.6H680.376C681.723 26.6 682.883 26.8733 683.856 27.42C684.843 27.9667 685.603 28.74 686.136 29.74C686.683 30.74 686.956 31.9267 686.956 33.3C686.956 34.6733 686.683 35.86 686.136 36.86C685.603 37.86 684.843 38.6333 683.856 39.18C682.883 39.7267 681.723 40 680.376 40ZM675.996 40H674.556V26.6H675.996V40ZM699.152 40H688.532V39.02C688.532 38.1533 688.646 37.4267 688.872 36.84C689.099 36.24 689.479 35.7333 690.012 35.32C690.559 34.8933 691.279 34.52 692.172 34.2L695.172 33.14C695.826 32.9 696.339 32.66 696.712 32.42C697.086 32.1667 697.352 31.8733 697.512 31.54C697.672 31.2067 697.752 30.8067 697.752 30.34C697.752 29.7533 697.612 29.2667 697.332 28.88C697.066 28.4933 696.652 28.2067 696.092 28.02C695.546 27.8333 694.846 27.74 693.992 27.74C693.032 27.74 692.252 27.86 691.652 28.1C691.052 28.34 690.606 28.6933 690.312 29.16C690.032 29.6267 689.892 30.1933 689.892 30.86V31.1H688.472V30.92C688.472 30.12 688.659 29.38 689.032 28.7C689.419 28.0067 690.019 27.4533 690.832 27.04C691.659 26.6133 692.726 26.4 694.032 26.4C695.232 26.4 696.212 26.58 696.972 26.94C697.732 27.3 698.292 27.7733 698.652 28.36C699.012 28.9467 699.192 29.6067 699.192 30.34C699.192 31.0333 699.052 31.6333 698.772 32.14C698.492 32.6333 698.086 33.06 697.552 33.42C697.019 33.7667 696.352 34.08 695.552 34.36L692.812 35.28C692.079 35.5333 691.506 35.8133 691.092 36.12C690.692 36.4267 690.406 36.8 690.232 37.24C690.072 37.6667 689.992 38.1933 689.992 38.82L692.992 38.7H699.152V40ZM706.958 40H701.738V38.7H706.958C708.105 38.7 709.052 38.5067 709.798 38.12C710.545 37.72 711.105 37.12 711.478 36.32C711.852 35.52 712.038 34.5133 712.038 33.3C712.038 32.0733 711.852 31.0667 711.478 30.28C711.105 29.48 710.545 28.8867 709.798 28.5C709.052 28.1 708.105 27.9 706.958 27.9H701.738V26.6H706.958C708.305 26.6 709.465 26.8733 710.438 27.42C711.425 27.9667 712.185 28.74 712.718 29.74C713.265 30.74 713.538 31.9267 713.538 33.3C713.538 34.6733 713.265 35.86 712.718 36.86C712.185 37.86 711.425 38.6333 710.438 39.18C709.465 39.7267 708.305 40 706.958 40ZM702.578 40H701.138V26.6H702.578V40Z" fill="#F2F0EE"/>
<rect x="0.5" y="76.5" width="454" height="55" rx="15.5" fill="#FDEEE3"/>
<path d="M24.06 116H21.94L23.08 113.02H20.4V111.1H23.86L25.12 107.78H21.94V105.86H25.88L27.14 102.6H29.26L28 105.86H31.64L32.9 102.6H35.02L33.76 105.86H36.58V107.78H32.98L31.72 111.1H35.02V113.02H30.96L29.8 116H27.68L28.84 113.02H25.2L24.06 116ZM27.18 107.74L25.88 111.14H29.66L30.96 107.74H27.18ZM40.1327 116H37.9727V102.6H40.1327V116ZM48.3327 110.62H38.6327V108.7H48.3327V110.62ZM48.6327 104.54H38.6327V102.6H48.6327V104.54ZM56.4583 116H51.0583V114.06H56.4583C57.4983 114.06 58.3449 113.907 58.9983 113.6C59.6649 113.28 60.1583 112.773 60.4783 112.08C60.7983 111.373 60.9583 110.447 60.9583 109.3C60.9583 108.14 60.7983 107.213 60.4783 106.52C60.1583 105.827 59.6649 105.327 58.9983 105.02C58.3449 104.7 57.4983 104.54 56.4583 104.54H51.0583V102.6H56.4583C57.8583 102.6 59.0583 102.873 60.0583 103.42C61.0716 103.953 61.8516 104.72 62.3983 105.72C62.9583 106.72 63.2383 107.913 63.2383 109.3C63.2383 110.687 62.9583 111.88 62.3983 112.88C61.8516 113.88 61.0716 114.653 60.0583 115.2C59.0583 115.733 57.8583 116 56.4583 116ZM52.4983 116H50.3583V102.6H52.4983V116ZM67.0077 116H64.8477V102.6H67.0077V116ZM75.5677 116H65.5077V114.06H75.5677V116ZM75.2677 110.22H65.5077V108.3H75.2677V110.22ZM75.5677 104.54H65.5077V102.6H75.5677V104.54ZM79.41 116H77.25V102.6H79.41V116ZM87.97 116H77.91V114.06H87.97V116ZM87.67 110.22H77.91V108.3H87.67V110.22ZM87.97 104.54H77.91V102.6H87.97V104.54ZM91.8123 116H89.6523V102.6H91.8123V116ZM100.372 116H90.3123V114.06H100.372V116ZM100.072 110.22H90.3123V108.3H100.072V110.22ZM100.372 104.54H90.3123V102.6H100.372V104.54ZM107.695 116.2C106.295 116.2 105.148 116.007 104.255 115.62C103.375 115.233 102.721 114.7 102.295 114.02C101.868 113.327 101.655 112.527 101.655 111.62V111.3H103.935V111.58C103.935 112.167 104.035 112.653 104.235 113.04C104.435 113.413 104.801 113.693 105.335 113.88C105.868 114.067 106.628 114.16 107.615 114.16C108.535 114.16 109.268 114.087 109.815 113.94C110.375 113.78 110.775 113.54 111.015 113.22C111.268 112.887 111.395 112.46 111.395 111.94C111.395 111.26 111.168 110.76 110.715 110.44C110.275 110.12 109.635 109.96 108.795 109.96H105.055V108.16H108.495C109.308 108.16 109.921 108.013 110.335 107.72C110.748 107.413 110.955 106.96 110.955 106.36C110.955 105.933 110.848 105.58 110.635 105.3C110.435 105.007 110.088 104.793 109.595 104.66C109.101 104.513 108.421 104.44 107.555 104.44C106.648 104.44 105.928 104.533 105.395 104.72C104.861 104.907 104.481 105.193 104.255 105.58C104.041 105.953 103.935 106.433 103.935 107.02V107.16H101.655V106.98C101.655 106.1 101.875 105.32 102.315 104.64C102.755 103.947 103.421 103.4 104.315 103C105.208 102.6 106.348 102.4 107.735 102.4C109.455 102.4 110.775 102.707 111.695 103.32C112.628 103.933 113.095 104.807 113.095 105.94C113.095 106.687 112.875 107.32 112.435 107.84C111.995 108.347 111.341 108.673 110.475 108.82V108.98C111.448 109.153 112.208 109.513 112.755 110.06C113.301 110.593 113.575 111.327 113.575 112.26C113.575 113.527 113.055 114.5 112.015 115.18C110.975 115.86 109.535 116.2 107.695 116.2Z" fill="#161616"/>
<rect x="0.5" y="76.5" width="454" height="55" rx="15.5" stroke="#EC7938"/>
<rect x="475" y="76" width="389" height="56" rx="16" fill="#F8D6CD"/>
<path d="M499.06 116H496.94L498.08 113.02H495.4V111.1H498.86L500.12 107.78H496.94V105.86H500.88L502.14 102.6H504.26L503 105.86H506.64L507.9 102.6H510.02L508.76 105.86H511.58V107.78H507.98L506.72 111.1H510.02V113.02H505.96L504.8 116H502.68L503.84 113.02H500.2L499.06 116ZM502.18 107.74L500.88 111.14H504.66L505.96 107.74H502.18ZM515.133 116H512.973V102.6H515.133V116ZM523.333 110.62H513.633V108.7H523.333V110.62ZM523.633 104.54H513.633V102.6H523.633V104.54ZM530.838 116.2C529.585 116.2 528.498 116.06 527.578 115.78C526.658 115.5 525.945 115.073 525.438 114.5C524.945 113.927 524.698 113.207 524.698 112.34C524.698 111.727 524.832 111.193 525.098 110.74C525.365 110.287 525.745 109.913 526.238 109.62C526.732 109.327 527.305 109.113 527.958 108.98V108.82C527.038 108.673 526.325 108.34 525.818 107.82C525.325 107.3 525.078 106.66 525.078 105.9C525.078 104.847 525.565 104 526.538 103.36C527.512 102.72 528.945 102.4 530.838 102.4C532.745 102.4 534.178 102.72 535.138 103.36C536.112 104 536.598 104.847 536.598 105.9C536.598 106.66 536.352 107.3 535.858 107.82C535.365 108.34 534.645 108.673 533.698 108.82V108.98C534.392 109.113 534.978 109.327 535.458 109.62C535.952 109.913 536.325 110.287 536.578 110.74C536.845 111.193 536.978 111.727 536.978 112.34C536.978 113.207 536.725 113.927 536.218 114.5C535.712 115.073 534.998 115.5 534.078 115.78C533.172 116.06 532.092 116.2 530.838 116.2ZM530.838 114.16C531.812 114.16 532.585 114.087 533.158 113.94C533.732 113.78 534.145 113.54 534.398 113.22C534.665 112.887 534.798 112.46 534.798 111.94C534.798 111.447 534.665 111.047 534.398 110.74C534.145 110.42 533.725 110.18 533.138 110.02C532.565 109.86 531.798 109.78 530.838 109.78C529.865 109.78 529.085 109.86 528.498 110.02C527.925 110.18 527.512 110.42 527.258 110.74C527.005 111.047 526.878 111.447 526.878 111.94C526.878 112.46 527.005 112.887 527.258 113.22C527.512 113.54 527.925 113.78 528.498 113.94C529.085 114.087 529.865 114.16 530.838 114.16ZM530.838 108.3C531.705 108.3 532.405 108.233 532.938 108.1C533.472 107.953 533.858 107.74 534.098 107.46C534.338 107.18 534.458 106.82 534.458 106.38C534.458 105.967 534.352 105.62 534.138 105.34C533.925 105.047 533.552 104.827 533.018 104.68C532.498 104.52 531.772 104.44 530.838 104.44C529.905 104.44 529.178 104.52 528.658 104.68C528.138 104.827 527.772 105.047 527.558 105.34C527.345 105.62 527.238 105.967 527.238 106.38C527.238 106.82 527.358 107.18 527.598 107.46C527.838 107.74 528.218 107.953 528.738 108.1C529.272 108.233 529.972 108.3 530.838 108.3ZM544.642 116H539.242V114.06H544.642C545.682 114.06 546.529 113.907 547.182 113.6C547.849 113.28 548.342 112.773 548.662 112.08C548.982 111.373 549.142 110.447 549.142 109.3C549.142 108.14 548.982 107.213 548.662 106.52C548.342 105.827 547.849 105.327 547.182 105.02C546.529 104.7 545.682 104.54 544.642 104.54H539.242V102.6H544.642C546.042 102.6 547.242 102.873 548.242 103.42C549.255 103.953 550.035 104.72 550.582 105.72C551.142 106.72 551.422 107.913 551.422 109.3C551.422 110.687 551.142 111.88 550.582 112.88C550.035 113.88 549.255 114.653 548.242 115.2C547.242 115.733 546.042 116 544.642 116ZM540.682 116H538.542V102.6H540.682V116ZM559.231 116.2C557.698 116.2 556.451 115.96 555.491 115.48C554.545 115 553.845 114.247 553.391 113.22C552.938 112.193 552.711 110.867 552.711 109.24C552.711 108.173 552.851 107.22 553.131 106.38C553.411 105.527 553.818 104.807 554.351 104.22C554.898 103.62 555.565 103.167 556.351 102.86C557.138 102.553 558.045 102.4 559.071 102.4C560.191 102.4 561.171 102.58 562.011 102.94C562.865 103.287 563.525 103.787 563.991 104.44C564.471 105.093 564.711 105.873 564.711 106.78V106.94H562.331V106.78C562.331 106.313 562.225 105.907 562.011 105.56C561.811 105.2 561.471 104.927 560.991 104.74C560.511 104.54 559.871 104.44 559.071 104.44C558.085 104.44 557.291 104.6 556.691 104.92C556.105 105.227 555.678 105.713 555.411 106.38C555.145 107.033 555.011 107.893 555.011 108.96V110.02H555.191C555.351 109.58 555.638 109.187 556.051 108.84C556.465 108.493 556.991 108.22 557.631 108.02C558.285 107.807 559.031 107.7 559.871 107.7C560.978 107.7 561.911 107.867 562.671 108.2C563.445 108.52 564.031 108.987 564.431 109.6C564.845 110.213 565.051 110.967 565.051 111.86C565.051 113.18 564.545 114.233 563.531 115.02C562.531 115.807 561.098 116.2 559.231 116.2ZM559.111 114.14C560.005 114.14 560.718 114.053 561.251 113.88C561.798 113.693 562.191 113.42 562.431 113.06C562.685 112.7 562.811 112.247 562.811 111.7C562.811 111.14 562.685 110.68 562.431 110.32C562.191 109.96 561.805 109.693 561.271 109.52C560.738 109.333 560.025 109.24 559.131 109.24C558.265 109.24 557.545 109.333 556.971 109.52C556.398 109.707 555.971 109.973 555.691 110.32C555.411 110.667 555.271 111.1 555.271 111.62C555.271 112.167 555.405 112.633 555.671 113.02C555.951 113.393 556.378 113.673 556.951 113.86C557.525 114.047 558.245 114.14 559.111 114.14ZM573.321 116.2C571.934 116.2 570.721 115.92 569.681 115.36C568.641 114.787 567.834 113.987 567.261 112.96C566.687 111.92 566.401 110.7 566.401 109.3C566.401 107.9 566.687 106.687 567.261 105.66C567.834 104.62 568.641 103.82 569.681 103.26C570.721 102.687 571.934 102.4 573.321 102.4C574.587 102.4 575.701 102.613 576.661 103.04C577.634 103.453 578.387 104.053 578.921 104.84C579.467 105.613 579.741 106.54 579.741 107.62V107.88H577.361V107.62C577.361 106.593 577.027 105.813 576.361 105.28C575.707 104.747 574.701 104.48 573.341 104.48C572.287 104.48 571.414 104.653 570.721 105C570.041 105.333 569.527 105.853 569.181 106.56C568.847 107.267 568.681 108.18 568.681 109.3C568.681 110.407 568.847 111.32 569.181 112.04C569.527 112.747 570.041 113.273 570.721 113.62C571.414 113.953 572.287 114.12 573.341 114.12C574.701 114.12 575.707 113.853 576.361 113.32C577.027 112.787 577.361 112.007 577.361 110.98V110.72H579.741V110.98C579.741 112.047 579.467 112.973 578.921 113.76C578.387 114.547 577.634 115.153 576.661 115.58C575.701 115.993 574.587 116.2 573.321 116.2ZM587.552 116H582.152V114.06H587.552C588.592 114.06 589.439 113.907 590.092 113.6C590.759 113.28 591.252 112.773 591.572 112.08C591.892 111.373 592.052 110.447 592.052 109.3C592.052 108.14 591.892 107.213 591.572 106.52C591.252 105.827 590.759 105.327 590.092 105.02C589.439 104.7 588.592 104.54 587.552 104.54H582.152V102.6H587.552C588.952 102.6 590.152 102.873 591.152 103.42C592.165 103.953 592.945 104.72 593.492 105.72C594.052 106.72 594.332 107.913 594.332 109.3C594.332 110.687 594.052 111.88 593.492 112.88C592.945 113.88 592.165 114.653 591.152 115.2C590.152 115.733 588.952 116 587.552 116ZM583.592 116H581.452V102.6H583.592V116Z" fill="#161616"/>
<rect y="152" width="335" height="56" rx="16" fill="#9B9797"/>
<path d="M24.06 192H21.94L23.08 189.02H20.4V187.1H23.86L25.12 183.78H21.94V181.86H25.88L27.14 178.6H29.26L28 181.86H31.64L32.9 178.6H35.02L33.76 181.86H36.58V183.78H32.98L31.72 187.1H35.02V189.02H30.96L29.8 192H27.68L28.84 189.02H25.2L24.06 192ZM27.18 183.74L25.88 187.14H29.66L30.96 183.74H27.18ZM43.7127 192.2C42.5927 192.2 41.6127 192.027 40.7727 191.68C39.9327 191.32 39.2727 190.813 38.7927 190.16C38.3127 189.507 38.0727 188.727 38.0727 187.82V187.66H40.4327V187.82C40.4327 188.287 40.5393 188.7 40.7527 189.06C40.966 189.407 41.3127 189.68 41.7927 189.88C42.2727 190.067 42.9127 190.16 43.7127 190.16C44.686 190.16 45.466 190 46.0527 189.68C46.6393 189.347 47.0593 188.84 47.3127 188.16C47.5793 187.48 47.7127 186.607 47.7127 185.54V184.48H47.5327C47.3593 184.92 47.066 185.327 46.6527 185.7C46.2393 186.06 45.7127 186.353 45.0727 186.58C44.4327 186.793 43.686 186.9 42.8327 186.9C41.7393 186.9 40.806 186.74 40.0327 186.42C39.2593 186.087 38.666 185.613 38.2527 185C37.8527 184.387 37.6527 183.633 37.6527 182.74C37.6527 181.42 38.1527 180.367 39.1527 179.58C40.166 178.793 41.6127 178.4 43.4927 178.4C45.026 178.4 46.266 178.64 47.2127 179.12C48.1727 179.587 48.8727 180.327 49.3127 181.34C49.766 182.34 49.9927 183.647 49.9927 185.26C49.9927 186.34 49.8527 187.313 49.5727 188.18C49.306 189.033 48.906 189.76 48.3727 190.36C47.8393 190.96 47.1793 191.42 46.3927 191.74C45.6193 192.047 44.726 192.2 43.7127 192.2ZM43.5727 185.36C44.4527 185.36 45.1793 185.267 45.7527 185.08C46.326 184.88 46.7527 184.6 47.0327 184.24C47.3127 183.867 47.4527 183.413 47.4527 182.88C47.4527 182.347 47.3127 181.9 47.0327 181.54C46.766 181.18 46.346 180.913 45.7727 180.74C45.2127 180.553 44.486 180.46 43.5927 180.46C42.7127 180.46 41.9993 180.553 41.4527 180.74C40.906 180.913 40.5127 181.18 40.2727 181.54C40.0327 181.9 39.9127 182.353 39.9127 182.9C39.9127 183.447 40.0327 183.907 40.2727 184.28C40.5127 184.64 40.8993 184.913 41.4327 185.1C41.9793 185.273 42.6927 185.36 43.5727 185.36ZM59.4222 192H51.6422V178.6H59.1422C60.0089 178.6 60.7422 178.727 61.3422 178.98C61.9555 179.233 62.4222 179.607 62.7422 180.1C63.0755 180.593 63.2422 181.193 63.2422 181.9C63.2422 182.687 63.0089 183.353 62.5422 183.9C62.0889 184.447 61.3489 184.78 60.3222 184.9V185.04C61.4689 185.173 62.3222 185.533 62.8822 186.12C63.4422 186.693 63.7222 187.42 63.7222 188.3C63.7222 189.06 63.5555 189.72 63.2222 190.28C62.8889 190.84 62.4022 191.267 61.7622 191.56C61.1222 191.853 60.3422 192 59.4222 192ZM53.7822 186V190.06H59.1822C59.9822 190.06 60.5755 189.9 60.9622 189.58C61.3622 189.247 61.5622 188.72 61.5622 188C61.5622 187.293 61.3622 186.787 60.9622 186.48C60.5755 186.16 59.9822 186 59.1822 186H53.7822ZM53.7822 180.54V184.22H58.8422C59.6022 184.22 60.1689 184.073 60.5422 183.78C60.9155 183.473 61.1022 183.007 61.1022 182.38C61.1022 181.753 60.9222 181.293 60.5622 181C60.2022 180.693 59.6489 180.54 58.9022 180.54H53.7822ZM70.8611 192.2C69.7411 192.2 68.7611 192.027 67.9211 191.68C67.0811 191.32 66.4211 190.813 65.9411 190.16C65.4611 189.507 65.2211 188.727 65.2211 187.82V187.66H67.5811V187.82C67.5811 188.287 67.6878 188.7 67.9011 189.06C68.1144 189.407 68.4611 189.68 68.9411 189.88C69.4211 190.067 70.0611 190.16 70.8611 190.16C71.8344 190.16 72.6144 190 73.2011 189.68C73.7878 189.347 74.2078 188.84 74.4611 188.16C74.7278 187.48 74.8611 186.607 74.8611 185.54V184.48H74.6811C74.5078 184.92 74.2144 185.327 73.8011 185.7C73.3878 186.06 72.8611 186.353 72.2211 186.58C71.5811 186.793 70.8344 186.9 69.9811 186.9C68.8878 186.9 67.9544 186.74 67.1811 186.42C66.4078 186.087 65.8144 185.613 65.4011 185C65.0011 184.387 64.8011 183.633 64.8011 182.74C64.8011 181.42 65.3011 180.367 66.3011 179.58C67.3144 178.793 68.7611 178.4 70.6411 178.4C72.1744 178.4 73.4144 178.64 74.3611 179.12C75.3211 179.587 76.0211 180.327 76.4611 181.34C76.9144 182.34 77.1411 183.647 77.1411 185.26C77.1411 186.34 77.0011 187.313 76.7211 188.18C76.4544 189.033 76.0544 189.76 75.5211 190.36C74.9878 190.96 74.3278 191.42 73.5411 191.74C72.7678 192.047 71.8744 192.2 70.8611 192.2ZM70.7211 185.36C71.6011 185.36 72.3278 185.267 72.9011 185.08C73.4744 184.88 73.9011 184.6 74.1811 184.24C74.4611 183.867 74.6011 183.413 74.6011 182.88C74.6011 182.347 74.4611 181.9 74.1811 181.54C73.9144 181.18 73.4944 180.913 72.9211 180.74C72.3611 180.553 71.6344 180.46 70.7411 180.46C69.8611 180.46 69.1478 180.553 68.6011 180.74C68.0544 180.913 67.6611 181.18 67.4211 181.54C67.1811 181.9 67.0611 182.353 67.0611 182.9C67.0611 183.447 67.1811 183.907 67.4211 184.28C67.6611 184.64 68.0478 184.913 68.5811 185.1C69.1278 185.273 69.8411 185.36 70.7211 185.36ZM83.4306 192.02H80.9906C80.9906 190.767 81.104 189.647 81.3306 188.66C81.5573 187.66 81.864 186.76 82.2506 185.96C82.6506 185.16 83.104 184.447 83.6106 183.82C84.1173 183.18 84.6506 182.607 85.2106 182.1C85.7706 181.593 86.324 181.127 86.8706 180.7V180.54H78.0906V178.6H89.1706V180.34C88.1973 181.207 87.3506 182.06 86.6306 182.9C85.924 183.727 85.3306 184.593 84.8506 185.5C84.3706 186.393 84.0106 187.373 83.7706 188.44C83.544 189.493 83.4306 190.687 83.4306 192.02ZM96.0173 192.2C94.8973 192.2 93.9173 192.027 93.0773 191.68C92.2373 191.32 91.5773 190.813 91.0973 190.16C90.6173 189.507 90.3773 188.727 90.3773 187.82V187.66H92.7373V187.82C92.7373 188.287 92.844 188.7 93.0573 189.06C93.2707 189.407 93.6173 189.68 94.0973 189.88C94.5773 190.067 95.2173 190.16 96.0173 190.16C96.9907 190.16 97.7707 190 98.3573 189.68C98.944 189.347 99.364 188.84 99.6173 188.16C99.884 187.48 100.017 186.607 100.017 185.54V184.48H99.8373C99.664 184.92 99.3707 185.327 98.9573 185.7C98.544 186.06 98.0173 186.353 97.3773 186.58C96.7373 186.793 95.9907 186.9 95.1373 186.9C94.044 186.9 93.1107 186.74 92.3373 186.42C91.564 186.087 90.9707 185.613 90.5573 185C90.1573 184.387 89.9573 183.633 89.9573 182.74C89.9573 181.42 90.4573 180.367 91.4573 179.58C92.4707 178.793 93.9173 178.4 95.7973 178.4C97.3307 178.4 98.5707 178.64 99.5173 179.12C100.477 179.587 101.177 180.327 101.617 181.34C102.071 182.34 102.297 183.647 102.297 185.26C102.297 186.34 102.157 187.313 101.877 188.18C101.611 189.033 101.211 189.76 100.677 190.36C100.144 190.96 99.484 191.42 98.6973 191.74C97.924 192.047 97.0307 192.2 96.0173 192.2ZM95.8773 185.36C96.7573 185.36 97.484 185.267 98.0573 185.08C98.6307 184.88 99.0573 184.6 99.3373 184.24C99.6173 183.867 99.7573 183.413 99.7573 182.88C99.7573 182.347 99.6173 181.9 99.3373 181.54C99.0707 181.18 98.6507 180.913 98.0773 180.74C97.5173 180.553 96.7907 180.46 95.8973 180.46C95.0173 180.46 94.304 180.553 93.7573 180.74C93.2107 180.913 92.8173 181.18 92.5773 181.54C92.3373 181.9 92.2173 182.353 92.2173 182.9C92.2173 183.447 92.3373 183.907 92.5773 184.28C92.8173 184.64 93.204 184.913 93.7373 185.1C94.284 185.273 94.9973 185.36 95.8773 185.36ZM108.587 192.02H106.147C106.147 190.767 106.26 189.647 106.487 188.66C106.714 187.66 107.02 186.76 107.407 185.96C107.807 185.16 108.26 184.447 108.767 183.82C109.274 183.18 109.807 182.607 110.367 182.1C110.927 181.593 111.48 181.127 112.027 180.7V180.54H103.247V178.6H114.327V180.34C113.354 181.207 112.507 182.06 111.787 182.9C111.08 183.727 110.487 184.593 110.007 185.5C109.527 186.393 109.167 187.373 108.927 188.44C108.7 189.493 108.587 190.687 108.587 192.02Z" fill="white"/>
<rect x="355.5" y="152.5" width="263" height="55" rx="15.5" fill="#FEFCFA"/>
<path d="M379.06 192H376.94L378.08 189.02H375.4V187.1H378.86L380.12 183.78H376.94V181.86H380.88L382.14 178.6H384.26L383 181.86H386.64L387.9 178.6H390.02L388.76 181.86H391.58V183.78H387.98L386.72 187.1H390.02V189.02H385.96L384.8 192H382.68L383.84 189.02H380.2L379.06 192ZM382.18 183.74L380.88 187.14H384.66L385.96 183.74H382.18ZM395.133 192H392.973V178.6H395.133V192ZM403.333 186.62H393.633V184.7H403.333V186.62ZM403.633 180.54H393.633V178.6H403.633V180.54ZM407.398 192H405.238V178.6H407.398V192ZM415.958 192H405.898V190.06H415.958V192ZM415.658 186.22H405.898V184.3H415.658V186.22ZM415.958 180.54H405.898V178.6H415.958V180.54ZM419.801 192H417.641V178.6H419.801V192ZM428.001 186.62H418.301V184.7H428.001V186.62ZM428.301 180.54H418.301V178.6H428.301V180.54ZM436.426 192.2C435.04 192.2 433.826 191.92 432.786 191.36C431.746 190.787 430.94 189.987 430.366 188.96C429.793 187.92 429.506 186.7 429.506 185.3C429.506 183.9 429.793 182.687 430.366 181.66C430.94 180.62 431.746 179.82 432.786 179.26C433.826 178.687 435.04 178.4 436.426 178.4C437.693 178.4 438.806 178.613 439.766 179.04C440.74 179.453 441.493 180.053 442.026 180.84C442.573 181.613 442.846 182.54 442.846 183.62V183.88H440.466V183.62C440.466 182.593 440.133 181.813 439.466 181.28C438.813 180.747 437.806 180.48 436.446 180.48C435.393 180.48 434.52 180.653 433.826 181C433.146 181.333 432.633 181.853 432.286 182.56C431.953 183.267 431.786 184.18 431.786 185.3C431.786 186.407 431.953 187.32 432.286 188.04C432.633 188.747 433.146 189.273 433.826 189.62C434.52 189.953 435.393 190.12 436.446 190.12C437.806 190.12 438.813 189.853 439.466 189.32C440.133 188.787 440.466 188.007 440.466 186.98V186.72H442.846V186.98C442.846 188.047 442.573 188.973 442.026 189.76C441.493 190.547 440.74 191.153 439.766 191.58C438.806 191.993 437.693 192.2 436.426 192.2ZM446.598 192H444.438V178.6H446.598V192ZM454.798 186.62H445.098V184.7H454.798V186.62ZM455.098 180.54H445.098V178.6H455.098V180.54ZM458.103 192H455.703L461.683 178.6H464.723L470.703 192H468.263L464.043 182.5L463.263 180.6H463.103L462.323 182.5L458.103 192ZM467.603 188.52H458.663V186.58H467.603V188.52Z" fill="#131313"/>
<rect x="355.5" y="152.5" width="263" height="55" rx="15.5" stroke="#EC7938"/>
<rect x="639.5" y="152.5" width="224" height="55" rx="15.5" fill="white"/>
<path d="M663.06 192H660.94L662.08 189.02H659.4V187.1H662.86L664.12 183.78H660.94V181.86H664.88L666.14 178.6H668.26L667 181.86H670.64L671.9 178.6H674.02L672.76 181.86H675.58V183.78H671.98L670.72 187.1H674.02V189.02H669.96L668.8 192H666.68L667.84 189.02H664.2L663.06 192ZM666.18 183.74L664.88 187.14H668.66L669.96 183.74H666.18ZM679.133 192H676.973V178.6H679.133V192ZM687.333 186.62H677.633V184.7H687.333V186.62ZM687.633 180.54H677.633V178.6H687.633V180.54ZM691.398 192H689.238V178.6H691.398V192ZM699.598 186.62H689.898V184.7H699.598V186.62ZM699.898 180.54H689.898V178.6H699.898V180.54ZM703.664 192H701.504V178.6H703.664V192ZM711.864 186.62H702.164V184.7H711.864V186.62ZM712.164 180.54H702.164V178.6H712.164V180.54ZM715.93 192H713.77V178.6H715.93V192ZM724.13 186.62H714.43V184.7H724.13V186.62ZM724.43 180.54H714.43V178.6H724.43V180.54ZM728.195 192H726.035V178.6H728.195V192ZM736.395 186.62H726.695V184.7H736.395V186.62ZM736.695 180.54H726.695V178.6H736.695V180.54ZM740.461 192H738.301V178.6H740.461V192ZM748.661 186.62H738.961V184.7H748.661V186.62ZM748.961 180.54H738.961V178.6H748.961V180.54Z" fill="#131313"/>
<rect x="639.5" y="152.5" width="224" height="55" rx="15.5" stroke="#EC7938"/>
</svg>
