<svg width="350" height="228" viewBox="0 0 350 228" fill="none" xmlns="http://www.w3.org/2000/svg">
<rect width="350" height="48" rx="16" fill="#EC7938"/>
<path d="M14.896 35H13.744L14.752 32.408H12.32V31.384H15.152L16.416 28.04H13.696V27.016H16.832L17.872 24.28H19.008L17.968 27.016H21.392L22.432 24.28H23.568L22.528 27.016H25.024V28.04H22.112L20.848 31.384H23.648V32.408H20.448L19.456 35H18.304L19.296 32.408H15.888L14.896 35ZM17.536 28.024L16.24 31.4H19.744L21.024 28.024H17.536ZM27.4398 35H26.3038V24.28H27.4398V35ZM34.4478 35H26.6878V33.96H34.4478V35ZM34.2078 30.12H26.6878V29.096H34.2078V30.12ZM34.4478 25.32H26.6878V24.28H34.4478V25.32ZM40.9821 35.16C39.9368 35.16 39.0088 34.936 38.1981 34.488C37.3981 34.0293 36.7688 33.3893 36.3101 32.568C35.8621 31.736 35.6381 30.76 35.6381 29.64C35.6381 28.52 35.8621 27.5493 36.3101 26.728C36.7688 25.896 37.3981 25.256 38.1981 24.808C39.0088 24.3493 39.9368 24.12 40.9821 24.12C41.9101 24.12 42.7421 24.2853 43.4781 24.616C44.2141 24.936 44.7901 25.3947 45.2061 25.992C45.6328 26.5787 45.8461 27.2827 45.8461 28.104V28.296H44.6141V28.104C44.6141 27.1867 44.3048 26.4773 43.6861 25.976C43.0675 25.4747 42.1715 25.224 40.9981 25.224C40.1128 25.224 39.3555 25.3947 38.7261 25.736C38.1075 26.0667 37.6381 26.5573 37.3181 27.208C36.9981 27.8587 36.8381 28.6693 36.8381 29.64C36.8381 30.6 36.9981 31.4107 37.3181 32.072C37.6381 32.7227 38.1075 33.2187 38.7261 33.56C39.3555 33.8907 40.1128 34.056 40.9981 34.056C42.1715 34.056 43.0675 33.8053 43.6861 33.304C44.3048 32.8027 44.6141 32.0933 44.6141 31.176V30.984H45.8461V31.176C45.8461 31.9867 45.6328 32.6907 45.2061 33.288C44.7901 33.8853 44.2141 34.3493 43.4781 34.68C42.7421 35 41.9101 35.16 40.9821 35.16ZM50.4062 35.016H49.1423C49.1423 33.992 49.2276 33.064 49.3983 32.232C49.5689 31.4 49.8036 30.648 50.1023 29.976C50.4116 29.304 50.7583 28.696 51.1423 28.152C51.5369 27.5973 51.9583 27.096 52.4063 26.648C52.8649 26.2 53.3236 25.784 53.7823 25.4V25.32H46.5663V24.28H55.0783V25.208C54.2889 25.9013 53.6009 26.6 53.0143 27.304C52.4276 27.9973 51.9423 28.728 51.5583 29.496C51.1743 30.264 50.8863 31.1013 50.6943 32.008C50.5023 32.904 50.4062 33.9067 50.4062 35.016ZM60.4351 35.16C59.6138 35.16 58.8831 35.0267 58.2431 34.76C57.6138 34.4827 57.1125 34.088 56.7391 33.576C56.3765 33.064 56.1951 32.4507 56.1951 31.736V31.624H57.4271V31.736C57.4271 32.1733 57.5231 32.568 57.7151 32.92C57.9071 33.272 58.2218 33.5547 58.6591 33.768C59.0965 33.9707 59.6885 34.072 60.4351 34.072C61.3311 34.072 62.0458 33.9067 62.5791 33.576C63.1231 33.2453 63.5125 32.7547 63.7471 32.104C63.9925 31.4427 64.1151 30.632 64.1151 29.672V28.696H64.0031C63.8751 29.1227 63.6351 29.5013 63.2831 29.832C62.9311 30.1627 62.4778 30.4293 61.9231 30.632C61.3791 30.824 60.7498 30.92 60.0351 30.92C59.1605 30.92 58.4138 30.7867 57.7951 30.52C57.1765 30.2427 56.7018 29.8533 56.3711 29.352C56.0405 28.8507 55.8751 28.2533 55.8751 27.56C55.8751 26.5147 56.2645 25.6827 57.0431 25.064C57.8325 24.4347 58.9418 24.12 60.3711 24.12C61.5125 24.12 62.4458 24.3067 63.1711 24.68C63.8965 25.0533 64.4298 25.6453 64.7711 26.456C65.1231 27.256 65.2991 28.312 65.2991 29.624C65.2991 30.4347 65.1978 31.1813 64.9951 31.864C64.8031 32.536 64.5098 33.1227 64.1151 33.624C63.7205 34.1147 63.2138 34.4933 62.5951 34.76C61.9871 35.0267 61.2671 35.16 60.4351 35.16ZM60.3871 30.056C61.1125 30.056 61.7365 29.96 62.2591 29.768C62.7818 29.576 63.1818 29.2987 63.4591 28.936C63.7471 28.5627 63.8911 28.12 63.8911 27.608C63.8911 27.0853 63.7525 26.648 63.4751 26.296C63.2085 25.9333 62.8191 25.6613 62.3071 25.48C61.7951 25.2987 61.1605 25.208 60.4031 25.208C59.6351 25.208 59.0005 25.2987 58.4991 25.48C58.0085 25.6507 57.6405 25.9173 57.3951 26.28C57.1605 26.6427 57.0431 27.096 57.0431 27.64C57.0431 28.1627 57.1605 28.6053 57.3951 28.968C57.6405 29.3307 58.0085 29.6027 58.4991 29.784C58.9898 29.9653 59.6191 30.056 60.3871 30.056ZM71.1524 35.16C70.075 35.16 69.195 35.0053 68.5124 34.696C67.8404 34.376 67.3444 33.9493 67.0244 33.416C66.7044 32.872 66.5444 32.264 66.5444 31.592V31.336H67.7284V31.544C67.7284 32.1093 67.8297 32.5787 68.0324 32.952C68.2457 33.3253 68.5977 33.608 69.0884 33.8C69.579 33.9813 70.2564 34.072 71.1204 34.072C71.9204 34.072 72.5657 33.9973 73.0564 33.848C73.547 33.6987 73.9044 33.464 74.1284 33.144C74.363 32.8133 74.4804 32.3973 74.4804 31.896C74.4804 31.2133 74.2564 30.712 73.8084 30.392C73.3604 30.0613 72.7257 29.896 71.9044 29.896H69.0084V28.92H71.6644C72.475 28.92 73.0937 28.7707 73.5204 28.472C73.947 28.1627 74.1604 27.7093 74.1604 27.112C74.1604 26.6853 74.0644 26.3333 73.8724 26.056C73.6804 25.768 73.355 25.5547 72.8964 25.416C72.4484 25.2773 71.8404 25.208 71.0724 25.208C70.2617 25.208 69.611 25.304 69.1204 25.496C68.6297 25.6773 68.2724 25.9547 68.0484 26.328C67.835 26.7013 67.7284 27.1707 67.7284 27.736V27.88H66.5444V27.688C66.5444 27.0267 66.7044 26.4293 67.0244 25.896C67.355 25.352 67.8617 24.92 68.5444 24.6C69.227 24.28 70.0964 24.12 71.1524 24.12C72.4644 24.12 73.483 24.3707 74.2084 24.872C74.9337 25.3627 75.2964 26.0507 75.2964 26.936C75.2964 27.5227 75.1204 28.0293 74.7684 28.456C74.427 28.872 73.9204 29.144 73.2484 29.272V29.384C74.0057 29.5333 74.5924 29.832 75.0084 30.28C75.4244 30.728 75.6324 31.3093 75.6324 32.024C75.6324 33.0267 75.2324 33.8 74.4324 34.344C73.6324 34.888 72.539 35.16 71.1524 35.16ZM81.2926 35.16C80.322 35.16 79.4793 35.048 78.7646 34.824C78.0606 34.6 77.5166 34.2587 77.1326 33.8C76.7486 33.3413 76.5566 32.7707 76.5566 32.088C76.5566 31.64 76.658 31.2347 76.8606 30.872C77.0633 30.5093 77.362 30.2 77.7566 29.944C78.162 29.6773 78.658 29.4907 79.2446 29.384V29.272C78.466 29.1653 77.8686 28.8933 77.4526 28.456C77.0473 28.0187 76.8446 27.5013 76.8446 26.904C76.8446 26.0827 77.218 25.416 77.9646 24.904C78.722 24.3813 79.8313 24.12 81.2926 24.12C82.7646 24.12 83.874 24.3813 84.6206 24.904C85.3673 25.416 85.7406 26.0827 85.7406 26.904C85.7406 27.5013 85.5326 28.0187 85.1166 28.456C84.7113 28.8933 84.1193 29.1653 83.3406 29.272V29.384C83.938 29.4907 84.434 29.6773 84.8286 29.944C85.234 30.2 85.5326 30.5093 85.7246 30.872C85.9273 31.2347 86.0286 31.64 86.0286 32.088C86.0286 32.7707 85.8366 33.3413 85.4526 33.8C85.0686 34.2587 84.5193 34.6 83.8046 34.824C83.1006 35.048 82.2633 35.16 81.2926 35.16ZM81.2926 34.072C82.146 34.072 82.834 33.9973 83.3566 33.848C83.8793 33.6987 84.2633 33.4693 84.5086 33.16C84.754 32.84 84.8766 32.424 84.8766 31.912C84.8766 31.4427 84.754 31.0533 84.5086 30.744C84.2633 30.4347 83.874 30.2053 83.3406 30.056C82.818 29.896 82.1353 29.816 81.2926 29.816C80.4606 29.816 79.778 29.896 79.2446 30.056C78.7113 30.2053 78.322 30.4347 78.0766 30.744C77.8313 31.0533 77.7086 31.4427 77.7086 31.912C77.7086 32.424 77.8313 32.84 78.0766 33.16C78.322 33.4693 78.706 33.6987 79.2286 33.848C79.762 33.9973 80.45 34.072 81.2926 34.072ZM81.2926 29C82.05 29 82.674 28.9307 83.1646 28.792C83.6553 28.6533 84.018 28.4453 84.2526 28.168C84.4873 27.8907 84.6046 27.5387 84.6046 27.112C84.6046 26.7173 84.5033 26.376 84.3006 26.088C84.098 25.8 83.7513 25.5813 83.2606 25.432C82.7806 25.2827 82.1246 25.208 81.2926 25.208C80.4606 25.208 79.8046 25.2827 79.3246 25.432C78.8446 25.5813 78.498 25.8 78.2846 26.088C78.082 26.376 77.9806 26.7173 77.9806 27.112C77.9806 27.5387 78.098 27.8907 78.3326 28.168C78.578 28.4453 78.9406 28.6533 79.4206 28.792C79.9113 28.9307 80.5353 29 81.2926 29Z" fill="white"/>
<rect y="60" width="186" height="48" rx="16" fill="#332D2D"/>
<path d="M14.896 95H13.744L14.752 92.408H12.32V91.384H15.152L16.416 88.04H13.696V87.016H16.832L17.872 84.28H19.008L17.968 87.016H21.392L22.432 84.28H23.568L22.528 87.016H25.024V88.04H22.112L20.848 91.384H23.648V92.408H20.448L19.456 95H18.304L19.296 92.408H15.888L14.896 95ZM17.536 88.024L16.24 91.4H19.744L21.024 88.024H17.536ZM30.5118 95.16C29.4344 95.16 28.5544 95.0053 27.8718 94.696C27.1998 94.376 26.7038 93.9493 26.3838 93.416C26.0638 92.872 25.9038 92.264 25.9038 91.592V91.336H27.0878V91.544C27.0878 92.1093 27.1891 92.5787 27.3918 92.952C27.6051 93.3253 27.9571 93.608 28.4478 93.8C28.9384 93.9813 29.6158 94.072 30.4798 94.072C31.2798 94.072 31.9251 93.9973 32.4158 93.848C32.9064 93.6987 33.2638 93.464 33.4878 93.144C33.7224 92.8133 33.8398 92.3973 33.8398 91.896C33.8398 91.2133 33.6158 90.712 33.1678 90.392C32.7198 90.0613 32.0851 89.896 31.2638 89.896H28.3678V88.92H31.0238C31.8344 88.92 32.4531 88.7707 32.8798 88.472C33.3064 88.1627 33.5198 87.7093 33.5198 87.112C33.5198 86.6853 33.4238 86.3333 33.2318 86.056C33.0398 85.768 32.7144 85.5547 32.2558 85.416C31.8078 85.2773 31.1998 85.208 30.4318 85.208C29.6211 85.208 28.9704 85.304 28.4798 85.496C27.9891 85.6773 27.6318 85.9547 27.4078 86.328C27.1944 86.7013 27.0878 87.1707 27.0878 87.736V87.88H25.9038V87.688C25.9038 87.0267 26.0638 86.4293 26.3838 85.896C26.7144 85.352 27.2211 84.92 27.9038 84.6C28.5864 84.28 29.4558 84.12 30.5118 84.12C31.8238 84.12 32.8424 84.3707 33.5677 84.872C34.2931 85.3627 34.6558 86.0507 34.6558 86.936C34.6558 87.5227 34.4798 88.0293 34.1278 88.456C33.7864 88.872 33.2798 89.144 32.6078 89.272V89.384C33.3651 89.5333 33.9518 89.832 34.3678 90.28C34.7838 90.728 34.9918 91.3093 34.9918 92.024C34.9918 93.0267 34.5918 93.8 33.7917 94.344C32.9918 94.888 31.8984 95.16 30.5118 95.16ZM40.668 95.16C39.5907 95.16 38.7107 95.0053 38.028 94.696C37.356 94.376 36.86 93.9493 36.54 93.416C36.22 92.872 36.06 92.264 36.06 91.592V91.336H37.244V91.544C37.244 92.1093 37.3453 92.5787 37.548 92.952C37.7613 93.3253 38.1133 93.608 38.604 93.8C39.0947 93.9813 39.772 94.072 40.636 94.072C41.436 94.072 42.0813 93.9973 42.572 93.848C43.0627 93.6987 43.42 93.464 43.644 93.144C43.8787 92.8133 43.996 92.3973 43.996 91.896C43.996 91.2133 43.772 90.712 43.324 90.392C42.876 90.0613 42.2413 89.896 41.42 89.896H38.524V88.92H41.18C41.9907 88.92 42.6093 88.7707 43.036 88.472C43.4627 88.1627 43.676 87.7093 43.676 87.112C43.676 86.6853 43.58 86.3333 43.388 86.056C43.196 85.768 42.8707 85.5547 42.412 85.416C41.964 85.2773 41.356 85.208 40.588 85.208C39.7773 85.208 39.1267 85.304 38.636 85.496C38.1453 85.6773 37.788 85.9547 37.564 86.328C37.3507 86.7013 37.244 87.1707 37.244 87.736V87.88H36.06V87.688C36.06 87.0267 36.22 86.4293 36.54 85.896C36.8707 85.352 37.3773 84.92 38.06 84.6C38.7427 84.28 39.612 84.12 40.668 84.12C41.98 84.12 42.9987 84.3707 43.724 84.872C44.4493 85.3627 44.812 86.0507 44.812 86.936C44.812 87.5227 44.636 88.0293 44.284 88.456C43.9427 88.872 43.436 89.144 42.764 89.272V89.384C43.5213 89.5333 44.108 89.832 44.524 90.28C44.94 90.728 45.148 91.3093 45.148 92.024C45.148 93.0267 44.748 93.8 43.948 94.344C43.148 94.888 42.0547 95.16 40.668 95.16ZM54.8563 95H46.3603V94.216C46.3603 93.5227 46.4509 92.9413 46.6323 92.472C46.8136 91.992 47.1176 91.5867 47.5443 91.256C47.9816 90.9147 48.5576 90.616 49.2723 90.36L51.6723 89.512C52.1949 89.32 52.6056 89.128 52.9043 88.936C53.2029 88.7333 53.4163 88.4987 53.5443 88.232C53.6723 87.9653 53.7362 87.6453 53.7362 87.272C53.7362 86.8027 53.6243 86.4133 53.4003 86.104C53.1869 85.7947 52.8563 85.5653 52.4083 85.416C51.9709 85.2667 51.4109 85.192 50.7283 85.192C49.9603 85.192 49.3363 85.288 48.8563 85.48C48.3763 85.672 48.0189 85.9547 47.7843 86.328C47.5603 86.7013 47.4483 87.1547 47.4483 87.688V87.88H46.3123V87.736C46.3123 87.096 46.4616 86.504 46.7603 85.96C47.0696 85.4053 47.5496 84.9627 48.2003 84.632C48.8616 84.2907 49.7149 84.12 50.7603 84.12C51.7203 84.12 52.5043 84.264 53.1123 84.552C53.7203 84.84 54.1683 85.2187 54.4563 85.688C54.7443 86.1573 54.8883 86.6853 54.8883 87.272C54.8883 87.8267 54.7763 88.3067 54.5523 88.712C54.3283 89.1067 54.0029 89.448 53.5763 89.736C53.1496 90.0133 52.6163 90.264 51.9763 90.488L49.7843 91.224C49.1976 91.4267 48.7389 91.6507 48.4083 91.896C48.0883 92.1413 47.8589 92.44 47.7203 92.792C47.5923 93.1333 47.5283 93.5547 47.5283 94.056L49.9283 93.96H54.8563V95ZM61.1011 95H56.9251V93.96H61.1011C62.0185 93.96 62.7758 93.8053 63.3731 93.496C63.9705 93.176 64.4185 92.696 64.7171 92.056C65.0158 91.416 65.1651 90.6107 65.1651 89.64C65.1651 88.6587 65.0158 87.8533 64.7171 87.224C64.4185 86.584 63.9705 86.1093 63.3731 85.8C62.7758 85.48 62.0185 85.32 61.1011 85.32H56.9251V84.28H61.1011C62.1785 84.28 63.1065 84.4987 63.8851 84.936C64.6745 85.3733 65.2825 85.992 65.7091 86.792C66.1465 87.592 66.3651 88.5413 66.3651 89.64C66.3651 90.7387 66.1465 91.688 65.7091 92.488C65.2825 93.288 64.6745 93.9067 63.8851 94.344C63.1065 94.7813 62.1785 95 61.1011 95ZM57.5971 95H56.4451V84.28H57.5971V95ZM76.1219 95H67.6259V94.216C67.6259 93.5227 67.7165 92.9413 67.8979 92.472C68.0792 91.992 68.3832 91.5867 68.8099 91.256C69.2472 90.9147 69.8232 90.616 70.5379 90.36L72.9379 89.512C73.4605 89.32 73.8712 89.128 74.1699 88.936C74.4685 88.7333 74.6819 88.4987 74.8099 88.232C74.9379 87.9653 75.0019 87.6453 75.0019 87.272C75.0019 86.8027 74.8899 86.4133 74.6659 86.104C74.4525 85.7947 74.1219 85.5653 73.6739 85.416C73.2365 85.2667 72.6765 85.192 71.9939 85.192C71.2259 85.192 70.6019 85.288 70.1219 85.48C69.6419 85.672 69.2845 85.9547 69.0499 86.328C68.8259 86.7013 68.7139 87.1547 68.7139 87.688V87.88H67.5779V87.736C67.5779 87.096 67.7272 86.504 68.0259 85.96C68.3352 85.4053 68.8152 84.9627 69.4659 84.632C70.1272 84.2907 70.9805 84.12 72.0259 84.12C72.9859 84.12 73.7699 84.264 74.3779 84.552C74.9859 84.84 75.4339 85.2187 75.7219 85.688C76.0099 86.1573 76.1539 86.6853 76.1539 87.272C76.1539 87.8267 76.0419 88.3067 75.8179 88.712C75.5939 89.1067 75.2685 89.448 74.8419 89.736C74.4152 90.0133 73.8819 90.264 73.2419 90.488L71.0499 91.224C70.4632 91.4267 70.0045 91.6507 69.6739 91.896C69.3539 92.1413 69.1245 92.44 68.9859 92.792C68.8579 93.1333 68.7939 93.5547 68.7939 94.056L71.1939 93.96H76.1219V95ZM82.3668 95H78.1908V93.96H82.3668C83.2841 93.96 84.0414 93.8053 84.6388 93.496C85.2361 93.176 85.6841 92.696 85.9828 92.056C86.2814 91.416 86.4308 90.6107 86.4308 89.64C86.4308 88.6587 86.2814 87.8533 85.9828 87.224C85.6841 86.584 85.2361 86.1093 84.6388 85.8C84.0414 85.48 83.2841 85.32 82.3668 85.32H78.1908V84.28H82.3668C83.4441 84.28 84.3721 84.4987 85.1508 84.936C85.9401 85.3733 86.5481 85.992 86.9748 86.792C87.4121 87.592 87.6308 88.5413 87.6308 89.64C87.6308 90.7387 87.4121 91.688 86.9748 92.488C86.5481 93.288 85.9401 93.9067 85.1508 94.344C84.3721 94.7813 83.4441 95 82.3668 95ZM78.8628 95H77.7108V84.28H78.8628V95Z" fill="#F2F0EE"/>
<rect x="198.5" y="60.5" width="151" height="47" rx="15.5" fill="#FDEEE3"/>
<path d="M213.248 95H211.552L212.464 92.616H210.32V91.08H213.088L214.096 88.424H211.552V86.888H214.704L215.712 84.28H217.408L216.4 86.888H219.312L220.32 84.28H222.016L221.008 86.888H223.264V88.424H220.384L219.376 91.08H222.016V92.616H218.768L217.84 95H216.144L217.072 92.616H214.16L213.248 95ZM215.744 88.392L214.704 91.112H217.728L218.768 88.392H215.744ZM226.106 95H224.378V84.28H226.106V95ZM232.666 90.696H224.906V89.16H232.666V90.696ZM232.906 85.832H224.906V84.28H232.906V85.832ZM239.167 95H234.847V93.448H239.167C239.999 93.448 240.676 93.3253 241.199 93.08C241.732 92.824 242.127 92.4187 242.383 91.864C242.639 91.2987 242.767 90.5573 242.767 89.64C242.767 88.712 242.639 87.9707 242.383 87.416C242.127 86.8613 241.732 86.4613 241.199 86.216C240.676 85.96 239.999 85.832 239.167 85.832H234.847V84.28H239.167C240.287 84.28 241.247 84.4987 242.047 84.936C242.857 85.3627 243.481 85.976 243.919 86.776C244.367 87.576 244.591 88.5307 244.591 89.64C244.591 90.7493 244.367 91.704 243.919 92.504C243.481 93.304 242.857 93.9227 242.047 94.36C241.247 94.7867 240.287 95 239.167 95ZM235.999 95H234.287V84.28H235.999V95ZM247.606 95H245.878V84.28H247.606V95ZM254.454 95H246.406V93.448H254.454V95ZM254.214 90.376H246.406V88.84H254.214V90.376ZM254.454 85.832H246.406V84.28H254.454V85.832ZM257.528 95H255.8V84.28H257.528V95ZM264.376 95H256.328V93.448H264.376V95ZM264.136 90.376H256.328V88.84H264.136V90.376ZM264.376 85.832H256.328V84.28H264.376V85.832ZM267.45 95H265.722V84.28H267.45V95ZM274.298 95H266.25V93.448H274.298V95ZM274.058 90.376H266.25V88.84H274.058V90.376ZM274.298 85.832H266.25V84.28H274.298V85.832ZM280.156 95.16C279.036 95.16 278.118 95.0053 277.404 94.696C276.7 94.3867 276.177 93.96 275.836 93.416C275.494 92.8613 275.324 92.2213 275.324 91.496V91.24H277.148V91.464C277.148 91.9333 277.228 92.3227 277.388 92.632C277.548 92.9307 277.841 93.1547 278.268 93.304C278.694 93.4533 279.302 93.528 280.092 93.528C280.828 93.528 281.414 93.4693 281.852 93.352C282.3 93.224 282.62 93.032 282.812 92.776C283.014 92.5093 283.116 92.168 283.116 91.752C283.116 91.208 282.934 90.808 282.572 90.552C282.22 90.296 281.708 90.168 281.036 90.168H278.044V88.728H280.796C281.446 88.728 281.937 88.6107 282.268 88.376C282.598 88.1307 282.764 87.768 282.764 87.288C282.764 86.9467 282.678 86.664 282.508 86.44C282.348 86.2053 282.07 86.0347 281.676 85.928C281.281 85.8107 280.737 85.752 280.044 85.752C279.318 85.752 278.742 85.8267 278.316 85.976C277.889 86.1253 277.585 86.3547 277.404 86.664C277.233 86.9627 277.148 87.3467 277.148 87.816V87.928H275.324V87.784C275.324 87.08 275.5 86.456 275.852 85.912C276.204 85.3573 276.737 84.92 277.452 84.6C278.166 84.28 279.078 84.12 280.188 84.12C281.564 84.12 282.62 84.3653 283.356 84.856C284.102 85.3467 284.476 86.0453 284.476 86.952C284.476 87.5493 284.3 88.056 283.948 88.472C283.596 88.8773 283.073 89.1387 282.38 89.256V89.384C283.158 89.5227 283.766 89.8107 284.204 90.248C284.641 90.6747 284.86 91.2613 284.86 92.008C284.86 93.0213 284.444 93.8 283.612 94.344C282.78 94.888 281.628 95.16 280.156 95.16Z" fill="#161616"/>
<rect x="198.5" y="60.5" width="151" height="47" rx="15.5" stroke="#EC7938"/>
<rect y="120" width="170" height="48" rx="16" fill="#F8D6CD"/>
<path d="M15.248 155H13.552L14.464 152.616H12.32V151.08H15.088L16.096 148.424H13.552V146.888H16.704L17.712 144.28H19.408L18.4 146.888H21.312L22.32 144.28H24.016L23.008 146.888H25.264V148.424H22.384L21.376 151.08H24.016V152.616H20.768L19.84 155H18.144L19.072 152.616H16.16L15.248 155ZM17.744 148.392L16.704 151.112H19.728L20.768 148.392H17.744ZM28.1061 155H26.3781V144.28H28.1061V155ZM34.6661 150.696H26.9061V149.16H34.6661V150.696ZM34.9061 145.832H26.9061V144.28H34.9061V145.832ZM40.6706 155.16C39.668 155.16 38.7986 155.048 38.0626 154.824C37.3266 154.6 36.756 154.259 36.3506 153.8C35.956 153.341 35.7586 152.765 35.7586 152.072C35.7586 151.581 35.8653 151.155 36.0786 150.792C36.292 150.429 36.596 150.131 36.9906 149.896C37.3853 149.661 37.844 149.491 38.3666 149.384V149.256C37.6306 149.139 37.06 148.872 36.6546 148.456C36.26 148.04 36.0626 147.528 36.0626 146.92C36.0626 146.077 36.452 145.4 37.2306 144.888C38.0093 144.376 39.156 144.12 40.6706 144.12C42.196 144.12 43.3426 144.376 44.1106 144.888C44.8893 145.4 45.2786 146.077 45.2786 146.92C45.2786 147.528 45.0813 148.04 44.6866 148.456C44.292 148.872 43.716 149.139 42.9586 149.256V149.384C43.5133 149.491 43.9826 149.661 44.3666 149.896C44.7613 150.131 45.06 150.429 45.2626 150.792C45.476 151.155 45.5826 151.581 45.5826 152.072C45.5826 152.765 45.38 153.341 44.9746 153.8C44.5693 154.259 43.9986 154.6 43.2626 154.824C42.5373 155.048 41.6733 155.16 40.6706 155.16ZM40.6706 153.528C41.4493 153.528 42.068 153.469 42.5266 153.352C42.9853 153.224 43.316 153.032 43.5186 152.776C43.732 152.509 43.8386 152.168 43.8386 151.752C43.8386 151.357 43.732 151.037 43.5186 150.792C43.316 150.536 42.98 150.344 42.5106 150.216C42.052 150.088 41.4386 150.024 40.6706 150.024C39.892 150.024 39.268 150.088 38.7986 150.216C38.34 150.344 38.0093 150.536 37.8066 150.792C37.604 151.037 37.5026 151.357 37.5026 151.752C37.5026 152.168 37.604 152.509 37.8066 152.776C38.0093 153.032 38.34 153.224 38.7986 153.352C39.268 153.469 39.892 153.528 40.6706 153.528ZM40.6706 148.84C41.364 148.84 41.924 148.787 42.3506 148.68C42.7773 148.563 43.0866 148.392 43.2786 148.168C43.4706 147.944 43.5666 147.656 43.5666 147.304C43.5666 146.973 43.4813 146.696 43.3106 146.472C43.14 146.237 42.8413 146.061 42.4146 145.944C41.9986 145.816 41.4173 145.752 40.6706 145.752C39.924 145.752 39.3426 145.816 38.9266 145.944C38.5106 146.061 38.2173 146.237 38.0466 146.472C37.876 146.696 37.7906 146.973 37.7906 147.304C37.7906 147.656 37.8866 147.944 38.0786 148.168C38.2706 148.392 38.5746 148.563 38.9906 148.68C39.4173 148.787 39.9773 148.84 40.6706 148.84ZM51.7135 155H47.3935V153.448H51.7135C52.5455 153.448 53.2228 153.325 53.7455 153.08C54.2788 152.824 54.6735 152.419 54.9295 151.864C55.1855 151.299 55.3135 150.557 55.3135 149.64C55.3135 148.712 55.1855 147.971 54.9295 147.416C54.6735 146.861 54.2788 146.461 53.7455 146.216C53.2228 145.96 52.5455 145.832 51.7135 145.832H47.3935V144.28H51.7135C52.8335 144.28 53.7935 144.499 54.5935 144.936C55.4042 145.363 56.0282 145.976 56.4655 146.776C56.9135 147.576 57.1375 148.531 57.1375 149.64C57.1375 150.749 56.9135 151.704 56.4655 152.504C56.0282 153.304 55.4042 153.923 54.5935 154.36C53.7935 154.787 52.8335 155 51.7135 155ZM48.5455 155H46.8335V144.28H48.5455V155ZM63.385 155.16C62.1583 155.16 61.161 154.968 60.393 154.584C59.6357 154.2 59.0757 153.597 58.713 152.776C58.3503 151.955 58.169 150.893 58.169 149.592C58.169 148.739 58.281 147.976 58.505 147.304C58.729 146.621 59.0543 146.045 59.481 145.576C59.9183 145.096 60.4517 144.733 61.081 144.488C61.7103 144.243 62.4357 144.12 63.257 144.12C64.153 144.12 64.937 144.264 65.609 144.552C66.2917 144.829 66.8197 145.229 67.193 145.752C67.577 146.275 67.769 146.899 67.769 147.624V147.752H65.865V147.624C65.865 147.251 65.7797 146.925 65.609 146.648C65.449 146.36 65.177 146.141 64.793 145.992C64.409 145.832 63.897 145.752 63.257 145.752C62.4677 145.752 61.833 145.88 61.353 146.136C60.8837 146.381 60.5423 146.771 60.329 147.304C60.1157 147.827 60.009 148.515 60.009 149.368V150.216H60.153C60.281 149.864 60.5103 149.549 60.841 149.272C61.1717 148.995 61.593 148.776 62.105 148.616C62.6277 148.445 63.225 148.36 63.897 148.36C64.7823 148.36 65.529 148.493 66.137 148.76C66.7557 149.016 67.225 149.389 67.545 149.88C67.8757 150.371 68.041 150.973 68.041 151.688C68.041 152.744 67.6357 153.587 66.825 154.216C66.025 154.845 64.8783 155.16 63.385 155.16ZM63.289 153.512C64.0037 153.512 64.5743 153.443 65.001 153.304C65.4383 153.155 65.753 152.936 65.945 152.648C66.1477 152.36 66.249 151.997 66.249 151.56C66.249 151.112 66.1477 150.744 65.945 150.456C65.753 150.168 65.4437 149.955 65.017 149.816C64.5903 149.667 64.0197 149.592 63.305 149.592C62.6117 149.592 62.0357 149.667 61.577 149.816C61.1183 149.965 60.777 150.179 60.553 150.456C60.329 150.733 60.217 151.08 60.217 151.496C60.217 151.933 60.3237 152.307 60.537 152.616C60.761 152.915 61.1023 153.139 61.561 153.288C62.0197 153.437 62.5957 153.512 63.289 153.512ZM74.6566 155.16C73.5473 155.16 72.5766 154.936 71.7446 154.488C70.9126 154.029 70.2673 153.389 69.8086 152.568C69.35 151.736 69.1206 150.76 69.1206 149.64C69.1206 148.52 69.35 147.549 69.8086 146.728C70.2673 145.896 70.9126 145.256 71.7446 144.808C72.5766 144.349 73.5473 144.12 74.6566 144.12C75.67 144.12 76.5606 144.291 77.3286 144.632C78.1073 144.963 78.71 145.443 79.1366 146.072C79.574 146.691 79.7926 147.432 79.7926 148.296V148.504H77.8886V148.296C77.8886 147.475 77.622 146.851 77.0886 146.424C76.566 145.997 75.7606 145.784 74.6726 145.784C73.83 145.784 73.1313 145.923 72.5766 146.2C72.0326 146.467 71.622 146.883 71.3446 147.448C71.078 148.013 70.9446 148.744 70.9446 149.64C70.9446 150.525 71.078 151.256 71.3446 151.832C71.622 152.397 72.0326 152.819 72.5766 153.096C73.1313 153.363 73.83 153.496 74.6726 153.496C75.7606 153.496 76.566 153.283 77.0886 152.856C77.622 152.429 77.8886 151.805 77.8886 150.984V150.776H79.7926V150.984C79.7926 151.837 79.574 152.579 79.1366 153.208C78.71 153.837 78.1073 154.323 77.3286 154.664C76.5606 154.995 75.67 155.16 74.6566 155.16ZM86.0416 155H81.7216V153.448H86.0416C86.8736 153.448 87.551 153.325 88.0736 153.08C88.607 152.824 89.0016 152.419 89.2576 151.864C89.5136 151.299 89.6416 150.557 89.6416 149.64C89.6416 148.712 89.5136 147.971 89.2576 147.416C89.0016 146.861 88.607 146.461 88.0736 146.216C87.551 145.96 86.8736 145.832 86.0416 145.832H81.7216V144.28H86.0416C87.1616 144.28 88.1216 144.499 88.9216 144.936C89.7323 145.363 90.3563 145.976 90.7936 146.776C91.2416 147.576 91.4656 148.531 91.4656 149.64C91.4656 150.749 91.2416 151.704 90.7936 152.504C90.3563 153.304 89.7323 153.923 88.9216 154.36C88.1216 154.787 87.1616 155 86.0416 155ZM82.8736 155H81.1616V144.28H82.8736V155Z" fill="#161616"/>
<rect x="182" y="120" width="168" height="48" rx="16" fill="#9B9797"/>
<path d="M197.248 155H195.552L196.464 152.616H194.32V151.08H197.088L198.096 148.424H195.552V146.888H198.704L199.712 144.28H201.408L200.4 146.888H203.312L204.32 144.28H206.016L205.008 146.888H207.264V148.424H204.384L203.376 151.08H206.016V152.616H202.768L201.84 155H200.144L201.072 152.616H198.16L197.248 155ZM199.744 148.392L198.704 151.112H201.728L202.768 148.392H199.744ZM212.97 155.16C212.074 155.16 211.29 155.021 210.618 154.744C209.946 154.456 209.418 154.051 209.034 153.528C208.65 153.005 208.458 152.381 208.458 151.656V151.528H210.346V151.656C210.346 152.029 210.431 152.36 210.602 152.648C210.773 152.925 211.05 153.144 211.434 153.304C211.818 153.453 212.33 153.528 212.97 153.528C213.749 153.528 214.373 153.4 214.842 153.144C215.311 152.877 215.647 152.472 215.85 151.928C216.063 151.384 216.17 150.685 216.17 149.832V148.984H216.026C215.887 149.336 215.653 149.661 215.322 149.96C214.991 150.248 214.57 150.483 214.058 150.664C213.546 150.835 212.949 150.92 212.266 150.92C211.391 150.92 210.645 150.792 210.026 150.536C209.407 150.269 208.933 149.891 208.602 149.4C208.282 148.909 208.122 148.307 208.122 147.592C208.122 146.536 208.522 145.693 209.322 145.064C210.133 144.435 211.29 144.12 212.794 144.12C214.021 144.12 215.013 144.312 215.77 144.696C216.538 145.069 217.098 145.661 217.45 146.472C217.813 147.272 217.994 148.317 217.994 149.608C217.994 150.472 217.882 151.251 217.658 151.944C217.445 152.627 217.125 153.208 216.698 153.688C216.271 154.168 215.743 154.536 215.114 154.792C214.495 155.037 213.781 155.16 212.97 155.16ZM212.858 149.688C213.562 149.688 214.143 149.613 214.602 149.464C215.061 149.304 215.402 149.08 215.626 148.792C215.85 148.493 215.962 148.131 215.962 147.704C215.962 147.277 215.85 146.92 215.626 146.632C215.413 146.344 215.077 146.131 214.618 145.992C214.17 145.843 213.589 145.768 212.874 145.768C212.17 145.768 211.599 145.843 211.162 145.992C210.725 146.131 210.41 146.344 210.218 146.632C210.026 146.92 209.93 147.283 209.93 147.72C209.93 148.157 210.026 148.525 210.218 148.824C210.41 149.112 210.719 149.331 211.146 149.48C211.583 149.619 212.154 149.688 212.858 149.688ZM225.538 155H219.314V144.28H225.314C226.007 144.28 226.594 144.381 227.074 144.584C227.564 144.787 227.938 145.085 228.194 145.48C228.46 145.875 228.594 146.355 228.594 146.92C228.594 147.549 228.407 148.083 228.034 148.52C227.671 148.957 227.079 149.224 226.258 149.32V149.432C227.175 149.539 227.858 149.827 228.306 150.296C228.754 150.755 228.978 151.336 228.978 152.04C228.978 152.648 228.844 153.176 228.578 153.624C228.311 154.072 227.922 154.413 227.41 154.648C226.898 154.883 226.274 155 225.538 155ZM221.026 150.2V153.448H225.346C225.986 153.448 226.46 153.32 226.77 153.064C227.09 152.797 227.25 152.376 227.25 151.8C227.25 151.235 227.09 150.829 226.77 150.584C226.46 150.328 225.986 150.2 225.346 150.2H221.026ZM221.026 145.832V148.776H225.074C225.682 148.776 226.135 148.659 226.434 148.424C226.732 148.179 226.882 147.805 226.882 147.304C226.882 146.803 226.738 146.435 226.45 146.2C226.162 145.955 225.719 145.832 225.122 145.832H221.026ZM234.689 155.16C233.793 155.16 233.009 155.021 232.337 154.744C231.665 154.456 231.137 154.051 230.753 153.528C230.369 153.005 230.177 152.381 230.177 151.656V151.528H232.065V151.656C232.065 152.029 232.15 152.36 232.321 152.648C232.492 152.925 232.769 153.144 233.153 153.304C233.537 153.453 234.049 153.528 234.689 153.528C235.468 153.528 236.092 153.4 236.561 153.144C237.03 152.877 237.366 152.472 237.569 151.928C237.782 151.384 237.889 150.685 237.889 149.832V148.984H237.745C237.606 149.336 237.372 149.661 237.041 149.96C236.71 150.248 236.289 150.483 235.777 150.664C235.265 150.835 234.668 150.92 233.985 150.92C233.11 150.92 232.364 150.792 231.745 150.536C231.126 150.269 230.652 149.891 230.321 149.4C230.001 148.909 229.841 148.307 229.841 147.592C229.841 146.536 230.241 145.693 231.041 145.064C231.852 144.435 233.009 144.12 234.513 144.12C235.74 144.12 236.732 144.312 237.489 144.696C238.257 145.069 238.817 145.661 239.169 146.472C239.532 147.272 239.713 148.317 239.713 149.608C239.713 150.472 239.601 151.251 239.377 151.944C239.164 152.627 238.844 153.208 238.417 153.688C237.99 154.168 237.462 154.536 236.833 154.792C236.214 155.037 235.5 155.16 234.689 155.16ZM234.577 149.688C235.281 149.688 235.862 149.613 236.321 149.464C236.78 149.304 237.121 149.08 237.345 148.792C237.569 148.493 237.681 148.131 237.681 147.704C237.681 147.277 237.569 146.92 237.345 146.632C237.132 146.344 236.796 146.131 236.337 145.992C235.889 145.843 235.308 145.768 234.593 145.768C233.889 145.768 233.318 145.843 232.881 145.992C232.444 146.131 232.129 146.344 231.937 146.632C231.745 146.92 231.649 147.283 231.649 147.72C231.649 148.157 231.745 148.525 231.937 148.824C232.129 149.112 232.438 149.331 232.865 149.48C233.302 149.619 233.873 149.688 234.577 149.688ZM244.745 155.016H242.793C242.793 154.013 242.883 153.117 243.065 152.328C243.246 151.528 243.491 150.808 243.801 150.168C244.121 149.528 244.483 148.957 244.889 148.456C245.294 147.944 245.721 147.485 246.169 147.08C246.617 146.675 247.059 146.301 247.497 145.96V145.832H240.473V144.28H249.337V145.672C248.558 146.365 247.881 147.048 247.305 147.72C246.739 148.381 246.265 149.075 245.881 149.8C245.497 150.515 245.209 151.299 245.016 152.152C244.835 152.995 244.745 153.949 244.745 155.016ZM254.814 155.16C253.918 155.16 253.134 155.021 252.462 154.744C251.79 154.456 251.262 154.051 250.878 153.528C250.494 153.005 250.302 152.381 250.302 151.656V151.528H252.19V151.656C252.19 152.029 252.275 152.36 252.446 152.648C252.617 152.925 252.894 153.144 253.278 153.304C253.662 153.453 254.174 153.528 254.814 153.528C255.593 153.528 256.217 153.4 256.686 153.144C257.155 152.877 257.491 152.472 257.694 151.928C257.907 151.384 258.014 150.685 258.014 149.832V148.984H257.87C257.731 149.336 257.497 149.661 257.166 149.96C256.835 150.248 256.414 150.483 255.902 150.664C255.39 150.835 254.793 150.92 254.11 150.92C253.235 150.92 252.489 150.792 251.87 150.536C251.251 150.269 250.777 149.891 250.446 149.4C250.126 148.909 249.966 148.307 249.966 147.592C249.966 146.536 250.366 145.693 251.166 145.064C251.977 144.435 253.134 144.12 254.638 144.12C255.865 144.12 256.857 144.312 257.614 144.696C258.382 145.069 258.942 145.661 259.294 146.472C259.657 147.272 259.838 148.317 259.838 149.608C259.838 150.472 259.726 151.251 259.502 151.944C259.289 152.627 258.969 153.208 258.542 153.688C258.115 154.168 257.587 154.536 256.958 154.792C256.339 155.037 255.625 155.16 254.814 155.16ZM254.702 149.688C255.406 149.688 255.987 149.613 256.446 149.464C256.905 149.304 257.246 149.08 257.47 148.792C257.694 148.493 257.806 148.131 257.806 147.704C257.806 147.277 257.694 146.92 257.47 146.632C257.257 146.344 256.921 146.131 256.462 145.992C256.014 145.843 255.433 145.768 254.718 145.768C254.014 145.768 253.443 145.843 253.006 145.992C252.569 146.131 252.254 146.344 252.062 146.632C251.87 146.92 251.774 147.283 251.774 147.72C251.774 148.157 251.87 148.525 252.062 148.824C252.254 149.112 252.563 149.331 252.99 149.48C253.427 149.619 253.998 149.688 254.702 149.688ZM264.87 155.016H262.918C262.918 154.013 263.008 153.117 263.19 152.328C263.371 151.528 263.616 150.808 263.926 150.168C264.246 149.528 264.608 148.957 265.014 148.456C265.419 147.944 265.846 147.485 266.294 147.08C266.742 146.675 267.184 146.301 267.622 145.96V145.832H260.598V144.28H269.462V145.672C268.683 146.365 268.006 147.048 267.43 147.72C266.864 148.381 266.39 149.075 266.006 149.8C265.622 150.515 265.334 151.299 265.141 152.152C264.96 152.995 264.87 153.949 264.87 155.016Z" fill="white"/>
<rect x="0.5" y="180.5" width="169" height="47" rx="15.5" fill="#FEFCFA"/>
<path d="M15.248 215H13.552L14.464 212.616H12.32V211.08H15.088L16.096 208.424H13.552V206.888H16.704L17.712 204.28H19.408L18.4 206.888H21.312L22.32 204.28H24.016L23.008 206.888H25.264V208.424H22.384L21.376 211.08H24.016V212.616H20.768L19.84 215H18.144L19.072 212.616H16.16L15.248 215ZM17.744 208.392L16.704 211.112H19.728L20.768 208.392H17.744ZM28.1061 215H26.3781V204.28H28.1061V215ZM34.6661 210.696H26.9061V209.16H34.6661V210.696ZM34.9061 205.832H26.9061V204.28H34.9061V205.832ZM37.9186 215H36.1906V204.28H37.9186V215ZM44.7666 215H36.7186V213.448H44.7666V215ZM44.5266 210.376H36.7186V208.84H44.5266V210.376ZM44.7666 205.832H36.7186V204.28H44.7666V205.832ZM47.8405 215H46.1125V204.28H47.8405V215ZM54.4005 210.696H46.6405V209.16H54.4005V210.696ZM54.6405 205.832H46.6405V204.28H54.6405V205.832ZM61.141 215.16C60.0317 215.16 59.061 214.936 58.229 214.488C57.397 214.029 56.7517 213.389 56.293 212.568C55.8343 211.736 55.605 210.76 55.605 209.64C55.605 208.52 55.8343 207.549 56.293 206.728C56.7517 205.896 57.397 205.256 58.229 204.808C59.061 204.349 60.0317 204.12 61.141 204.12C62.1543 204.12 63.045 204.291 63.813 204.632C64.5917 204.963 65.1943 205.443 65.621 206.072C66.0583 206.691 66.277 207.432 66.277 208.296V208.504H64.373V208.296C64.373 207.475 64.1063 206.851 63.573 206.424C63.0503 205.997 62.245 205.784 61.157 205.784C60.3143 205.784 59.6157 205.923 59.061 206.2C58.517 206.467 58.1063 206.883 57.829 207.448C57.5623 208.013 57.429 208.744 57.429 209.64C57.429 210.525 57.5623 211.256 57.829 211.832C58.1063 212.397 58.517 212.819 59.061 213.096C59.6157 213.363 60.3143 213.496 61.157 213.496C62.245 213.496 63.0503 213.283 63.573 212.856C64.1063 212.429 64.373 211.805 64.373 210.984V210.776H66.277V210.984C66.277 211.837 66.0583 212.579 65.621 213.208C65.1943 213.837 64.5917 214.323 63.813 214.664C63.045 214.995 62.1543 215.16 61.141 215.16ZM69.278 215H67.55V204.28H69.278V215ZM75.838 210.696H68.078V209.16H75.838V210.696ZM76.078 205.832H68.078V204.28H76.078V205.832ZM78.4825 215H76.5625L81.3465 204.28H83.7785L88.5625 215H86.6105L83.2345 207.4L82.6105 205.88H82.4825L81.8585 207.4L78.4825 215ZM86.0825 212.216H78.9305V210.664H86.0825V212.216Z" fill="#131313"/>
<rect x="0.5" y="180.5" width="169" height="47" rx="15.5" stroke="#EC7938"/>
<rect x="182.5" y="180.5" width="167" height="47" rx="15.5" fill="white"/>
<path d="M197.248 215H195.552L196.464 212.616H194.32V211.08H197.088L198.096 208.424H195.552V206.888H198.704L199.712 204.28H201.408L200.4 206.888H203.312L204.32 204.28H206.016L205.008 206.888H207.264V208.424H204.384L203.376 211.08H206.016V212.616H202.768L201.84 215H200.144L201.072 212.616H198.16L197.248 215ZM199.744 208.392L198.704 211.112H201.728L202.768 208.392H199.744ZM210.106 215H208.378V204.28H210.106V215ZM216.666 210.696H208.906V209.16H216.666V210.696ZM216.906 205.832H208.906V204.28H216.906V205.832ZM219.919 215H218.191V204.28H219.919V215ZM226.479 210.696H218.719V209.16H226.479V210.696ZM226.719 205.832H218.719V204.28H226.719V205.832ZM229.731 215H228.003V204.28H229.731V215ZM236.291 210.696H228.531V209.16H236.291V210.696ZM236.531 205.832H228.531V204.28H236.531V205.832ZM239.544 215H237.816V204.28H239.544V215ZM246.104 210.696H238.344V209.16H246.104V210.696ZM246.344 205.832H238.344V204.28H246.344V205.832ZM249.356 215H247.628V204.28H249.356V215ZM255.916 210.696H248.156V209.16H255.916V210.696ZM256.156 205.832H248.156V204.28H256.156V205.832ZM259.169 215H257.441V204.28H259.169V215ZM265.729 210.696H257.969V209.16H265.729V210.696ZM265.969 205.832H257.969V204.28H265.969V205.832Z" fill="#131313"/>
<rect x="182.5" y="180.5" width="167" height="47" rx="15.5" stroke="#EC7938"/>
</svg>
