<svg width="115" height="33" viewBox="0 0 115 33" fill="none" xmlns="http://www.w3.org/2000/svg">
<g clip-path="url(#clip0_377_1409)">
<path d="M29.9224 0H35.1579V33H29.9224V0ZM53.4823 22.473C53.4823 27.5233 49.2716 27.9259 48.019 27.9259C44.8895 27.9259 44.3201 24.9718 44.3201 23.1898V10.56H39.0846V23.1634C39.0846 26.2918 40.0584 28.8737 41.7652 30.595C43.273 32.1169 45.5321 32.9485 47.9798 32.9485C49.7153 32.9485 52.1734 32.4034 53.4823 31.1982V33H58.7178V10.56H53.4823V22.473ZM69.1889 2.64H63.9534V10.56H60.0267V15.84H63.9534V33H69.1889V15.84H73.1156V10.56H69.1889V2.64ZM89.6036 26.2904C88.4636 27.324 86.9584 27.8969 85.3066 27.8969C81.6652 27.8969 78.9912 25.2001 78.9912 21.4975C78.9912 17.7949 81.5802 15.2117 85.3066 15.2117C86.9296 15.2117 88.4636 15.7568 89.6324 16.7904L90.4269 17.4794L93.957 13.9207L93.0735 13.1168C90.9963 11.2253 88.2385 10.164 85.3052 10.164C78.7608 10.164 74.0083 14.9266 74.0083 21.4698C74.0083 27.9853 78.8747 32.9182 85.3052 32.9182C88.2934 32.9182 91.08 31.8569 93.1311 29.935L93.9845 29.1311L90.3994 25.575L89.6036 26.2904ZM112.644 12.5162C111.136 10.9956 109.369 10.164 106.921 10.164C105.186 10.164 103.22 10.7092 101.911 11.913V0H96.6755V33H101.911V20.6382C101.911 15.5879 105.469 15.1866 106.721 15.1866C109.851 15.1866 109.764 18.1421 109.764 19.9214V33H115V19.9492C115 16.8208 114.352 14.2388 112.644 12.5162Z" fill="#F2F0EE"/>
<path d="M85.1339 17.7383C86.1379 17.7383 87.1007 18.1405 87.8105 18.8564C88.5204 19.5723 88.9192 20.5433 88.9192 21.5557C88.9192 22.5682 88.5204 23.5392 87.8105 24.2551C87.1007 24.971 86.1379 25.3732 85.1339 25.3732C84.13 25.3732 83.1672 24.971 82.4573 24.2551C81.7474 23.5392 81.3486 22.5682 81.3486 21.5557C81.3486 20.5433 81.7474 19.5723 82.4573 18.8564C83.1672 18.1405 84.13 17.7383 85.1339 17.7383Z" fill="#F84923"/>
<path d="M22.5927 24.7118C20.6019 26.7776 17.8977 27.897 15.0522 27.897C9.21979 27.897 4.979 23.277 4.979 16.9357C4.979 10.5654 9.21979 5.94535 15.0522 5.94535C17.8702 5.94535 20.5443 7.06339 22.5652 9.10147L23.361 9.90535L26.861 6.37567L26.0926 5.57179C23.1908 2.55823 19.2642 0.924072 15.0522 0.924072C6.45935 0.924072 0 7.81051 0 16.9634C0 26.0886 6.48815 32.9473 15.0522 32.9473C19.293 32.9473 23.2196 31.2841 26.1214 28.2705L26.8897 27.4666L23.4186 23.8802L22.5927 24.7118Z" fill="#F2F0EE"/>
</g>
<defs>
<clipPath id="clip0_377_1409">
<rect width="115" height="33" fill="white"/>
</clipPath>
</defs>
</svg>
