<svg width="603" height="946" viewBox="0 0 603 946" fill="none" xmlns="http://www.w3.org/2000/svg">
<path d="M404 157.83V156.83H403H373C278.559 156.83 202 233.39 202 327.83V880.319V881.319H203H403H404V880.319V157.83Z" stroke="#082B9B" stroke-width="2"/>
<path d="M203 331.345V330.345H202H172C77.5593 330.345 1 406.904 1 501.345V880.319V881.319H2H202H203V880.319V331.345Z" stroke="#082B9B" stroke-width="2"/>
<path d="M573 1H602V945H404V170C404 76.6639 479.664 1 573 1Z" stroke="#082B9B" stroke-width="2"/>
<path d="M70 788.951V800.831H65.732V788.951C65.732 786.663 65.3947 784.8 64.72 783.363C64.016 781.896 62.9013 780.811 61.376 780.107C59.8213 779.403 57.7827 779.051 55.26 779.051C52.708 779.051 50.6693 779.403 49.144 780.107C47.6187 780.811 46.5187 781.896 45.844 783.363C45.14 784.8 44.788 786.663 44.788 788.951V800.831H40.52V788.951C40.52 785.871 41.1213 783.231 42.324 781.031C43.4973 778.802 45.184 777.086 47.384 775.883C49.584 774.651 52.2093 774.035 55.26 774.035C58.3107 774.035 60.936 774.651 63.136 775.883C65.336 777.086 67.0373 778.802 68.24 781.031C69.4133 783.231 70 785.871 70 788.951ZM70 797.663V802.371H40.52V797.663H70ZM70.44 758.174C70.44 760.55 70 762.633 69.12 764.422C68.24 766.212 66.9493 767.605 65.248 768.602C63.5467 769.57 61.4933 770.054 59.088 770.054C56.8 770.054 54.8053 769.57 53.104 768.602C51.4027 767.605 50.0827 766.226 49.144 764.466C48.176 762.706 47.692 760.638 47.692 758.262C47.692 756.004 48.1027 754.024 48.924 752.322C49.716 750.592 50.8893 749.257 52.444 748.318C53.9693 747.35 55.8467 746.866 58.076 746.866C58.4573 746.866 58.824 746.881 59.176 746.91C59.4987 746.94 59.8213 746.984 60.144 747.042V767.018H57.504V750.166L59.132 751.398C58.8387 751.369 58.56 751.354 58.296 751.354C58.0027 751.354 57.7093 751.354 57.416 751.354C55.392 751.354 53.896 751.941 52.928 753.114C51.9307 754.258 51.432 756.004 51.432 758.35C51.432 760.961 52.0333 762.824 53.236 763.938C54.4387 765.053 56.1693 765.61 58.428 765.61H59.572C61.86 765.61 63.6053 765.053 64.808 763.938C66.0107 762.824 66.612 760.946 66.612 758.306C66.612 756.018 66.26 754.376 65.556 753.378C64.8227 752.352 63.8107 751.838 62.52 751.838H62.168V747.086H62.564C64.1187 747.086 65.4973 747.57 66.7 748.538C67.8733 749.477 68.7973 750.782 69.472 752.454C70.1173 754.097 70.44 756.004 70.44 758.174ZM70 727.951V733.759L48.132 743.967V738.731L65.38 730.943V730.591L48.132 722.803L48.132 717.655L70 727.951ZM70.44 702.898C70.44 705.274 70 707.356 69.12 709.146C68.24 710.935 66.9493 712.328 65.248 713.326C63.5467 714.294 61.4933 714.778 59.088 714.778C56.8 714.778 54.8053 714.294 53.104 713.326C51.4027 712.328 50.0827 710.95 49.144 709.19C48.176 707.43 47.692 705.362 47.692 702.986C47.692 700.727 48.1027 698.747 48.924 697.046C49.716 695.315 50.8893 693.98 52.444 693.042C53.9693 692.074 55.8467 691.59 58.076 691.59C58.4573 691.59 58.824 691.604 59.176 691.634C59.4987 691.663 59.8213 691.707 60.144 691.766V711.742H57.504V694.89L59.132 696.122C58.8387 696.092 58.56 696.078 58.296 696.078C58.0027 696.078 57.7093 696.078 57.416 696.078C55.392 696.078 53.896 696.664 52.928 697.838C51.9307 698.982 51.432 700.727 51.432 703.074C51.432 705.684 52.0333 707.547 53.236 708.662C54.4387 709.776 56.1693 710.334 58.428 710.334H59.572C61.86 710.334 63.6053 709.776 64.808 708.662C66.0107 707.547 66.612 705.67 66.612 703.03C66.612 700.742 66.26 699.099 65.556 698.102C64.8227 697.075 63.8107 696.562 62.52 696.562H62.168V691.81H62.564C64.1187 691.81 65.4973 692.294 66.7 693.262C67.8733 694.2 68.7973 695.506 69.472 697.178C70.1173 698.82 70.44 700.727 70.44 702.898ZM70 681.958V686.71H40.52V681.958H70ZM70.44 665.062C70.44 667.467 69.9707 669.594 69.032 671.442C68.064 673.261 66.7293 674.683 65.028 675.71C63.2973 676.707 61.3173 677.206 59.088 677.206C56.8 677.206 54.8053 676.707 53.104 675.71C51.4027 674.683 50.0827 673.261 49.144 671.442C48.176 669.594 47.692 667.467 47.692 665.062C47.692 662.598 48.176 660.457 49.144 658.638C50.0827 656.819 51.4027 655.411 53.104 654.414C54.8053 653.387 56.8 652.874 59.088 652.874C61.3173 652.874 63.2973 653.387 65.028 654.414C66.7293 655.411 68.064 656.819 69.032 658.638C69.9707 660.457 70.44 662.598 70.44 665.062ZM66.216 665.062C66.216 662.393 65.6147 660.471 64.412 659.298C63.18 658.125 61.4053 657.538 59.088 657.538C56.7707 657.538 54.996 658.125 53.764 659.298C52.5027 660.471 51.872 662.393 51.872 665.062C51.872 667.702 52.5027 669.609 53.764 670.782C54.996 671.955 56.7707 672.542 59.088 672.542C61.4053 672.542 63.18 671.955 64.412 670.782C65.6147 669.609 66.216 667.702 66.216 665.062ZM70.44 634.202C70.44 636.636 69.8387 638.631 68.636 640.186C67.4333 641.74 65.8347 642.738 63.84 643.178V644.19H59.44V643.354C60.9067 643.354 62.1533 643.046 63.18 642.43C64.1773 641.814 64.9253 640.948 65.424 639.834C65.8933 638.69 66.128 637.355 66.128 635.83C66.128 634.246 65.908 632.911 65.468 631.826C64.9987 630.711 64.2507 629.86 63.224 629.274C62.1973 628.687 60.8187 628.394 59.088 628.394C57.328 628.394 55.9347 628.687 54.908 629.274C53.8813 629.86 53.148 630.711 52.708 631.826C52.268 632.911 52.048 634.216 52.048 635.742C52.048 638.176 52.6347 640.054 53.808 641.374C54.952 642.694 56.6973 643.354 59.044 643.354V644.19L54.204 644.498V643.354C52.18 642.914 50.596 641.931 49.452 640.406C48.2787 638.851 47.692 636.798 47.692 634.246C47.692 631.987 48.176 630.066 49.144 628.482C50.0827 626.898 51.4027 625.695 53.104 624.874C54.8053 624.052 56.8 623.642 59.088 623.642C61.3173 623.642 63.2973 624.052 65.028 624.874C66.7293 625.666 68.064 626.854 69.032 628.438C69.9707 629.992 70.44 631.914 70.44 634.202ZM77.48 643.354V648.106H48.132V643.75H54.996L55.568 643.354H77.48ZM70 580.352V585.06H58.12C55.9493 585.06 54.38 585.514 53.412 586.424C52.444 587.333 51.96 588.858 51.96 591C51.96 593.317 52.5613 594.96 53.764 595.928C54.9373 596.866 56.7413 597.336 59.176 597.336L59.22 598.172L54.908 598.436V597.468C53.6467 597.262 52.4733 596.837 51.388 596.192C50.3027 595.546 49.4227 594.622 48.748 593.42C48.044 592.217 47.692 590.706 47.692 588.888C47.692 586.981 48.088 585.397 48.88 584.136C49.672 582.874 50.7573 581.936 52.136 581.32C53.5147 580.674 55.084 580.352 56.844 580.352H70ZM70 614.276V619.028H48.132V614.672H54.996L55.216 614.276H70ZM70 597.336V602.044H58.12C55.9493 602.044 54.38 602.498 53.412 603.408C52.444 604.317 51.96 605.828 51.96 607.94C51.96 610.286 52.5613 611.929 53.764 612.868C54.9373 613.806 56.7413 614.276 59.176 614.276L59.22 615.112L54.732 615.332V614.408C53.5 614.202 52.356 613.792 51.3 613.176C50.244 612.56 49.3787 611.665 48.704 610.492C48.0293 609.318 47.692 607.822 47.692 606.004C47.692 604.097 48.1027 602.528 48.924 601.296C49.716 600.064 50.8013 599.14 52.18 598.524C53.5587 597.908 55.1133 597.6 56.844 597.6V597.336H70ZM70.44 563.782C70.44 566.158 70 568.241 69.12 570.03C68.24 571.819 66.9493 573.213 65.248 574.21C63.5467 575.178 61.4933 575.662 59.088 575.662C56.8 575.662 54.8053 575.178 53.104 574.21C51.4027 573.213 50.0827 571.834 49.144 570.074C48.176 568.314 47.692 566.246 47.692 563.87C47.692 561.611 48.1027 559.631 48.924 557.93C49.716 556.199 50.8893 554.865 52.444 553.926C53.9693 552.958 55.8467 552.474 58.076 552.474C58.4573 552.474 58.824 552.489 59.176 552.518C59.4987 552.547 59.8213 552.591 60.144 552.65V572.626H57.504V555.774L59.132 557.006C58.8387 556.977 58.56 556.962 58.296 556.962C58.0027 556.962 57.7093 556.962 57.416 556.962C55.392 556.962 53.896 557.549 52.928 558.722C51.9307 559.866 51.432 561.611 51.432 563.958C51.432 566.569 52.0333 568.431 53.236 569.546C54.4387 570.661 56.1693 571.218 58.428 571.218H59.572C61.86 571.218 63.6053 570.661 64.808 569.546C66.0107 568.431 66.612 566.554 66.612 563.914C66.612 561.626 66.26 559.983 65.556 558.986C64.8227 557.959 63.8107 557.446 62.52 557.446H62.168V552.694H62.564C64.1187 552.694 65.4973 553.178 66.7 554.146C67.8733 555.085 68.7973 556.39 69.472 558.062C70.1173 559.705 70.44 561.611 70.44 563.782ZM70 524.759V529.511H58.12C56.0667 529.511 54.5267 530.009 53.5 531.007C52.4733 531.975 51.96 533.603 51.96 535.891C51.96 538.267 52.576 540.027 53.808 541.171C55.0107 542.285 56.8 542.843 59.176 542.843L59.22 543.679L54.908 543.899V542.931C53.676 542.696 52.5173 542.227 51.432 541.523C50.3173 540.789 49.4227 539.792 48.748 538.531C48.044 537.24 47.692 535.671 47.692 533.823C47.692 531.799 48.1027 530.112 48.924 528.763C49.7453 527.413 50.8453 526.416 52.224 525.771C53.6027 525.096 55.1427 524.759 56.844 524.759H70ZM70 542.843V547.595H48.132V543.239H54.996L55.216 542.843H70ZM70 504.86V509.876C70 512.223 69.428 514.086 68.284 515.464C67.14 516.814 65.248 517.488 62.608 517.488H43.336V512.78H62.344C63.6933 512.78 64.6027 512.458 65.072 511.812C65.512 511.167 65.732 510.17 65.732 508.82V504.86H70ZM52.092 504.86V521.184H48.132V504.86H52.092Z" fill="url(#paint0_linear_2_1436)"/>
<path d="M271 784.05V795.93H266.732V784.05C266.732 781.762 266.395 779.899 265.72 778.462C265.016 776.995 263.901 775.91 262.376 775.206C260.821 774.502 258.783 774.15 256.26 774.15C253.708 774.15 251.669 774.502 250.144 775.206C248.619 775.91 247.519 776.995 246.844 778.462C246.14 779.899 245.788 781.762 245.788 784.05V795.93H241.52V784.05C241.52 780.97 242.121 778.33 243.324 776.13C244.497 773.9 246.184 772.184 248.384 770.982C250.584 769.75 253.209 769.134 256.26 769.134C259.311 769.134 261.936 769.75 264.136 770.982C266.336 772.184 268.037 773.9 269.24 776.13C270.413 778.33 271 780.97 271 784.05ZM271 792.762V797.47H241.52V792.762H271ZM271.44 753.273C271.44 755.649 271 757.732 270.12 759.521C269.24 761.31 267.949 762.704 266.248 763.701C264.547 764.669 262.493 765.153 260.088 765.153C257.8 765.153 255.805 764.669 254.104 763.701C252.403 762.704 251.083 761.325 250.144 759.565C249.176 757.805 248.692 755.737 248.692 753.361C248.692 751.102 249.103 749.122 249.924 747.421C250.716 745.69 251.889 744.356 253.444 743.417C254.969 742.449 256.847 741.965 259.076 741.965C259.457 741.965 259.824 741.98 260.176 742.009C260.499 742.038 260.821 742.082 261.144 742.141V762.117H258.504V745.265L260.132 746.497C259.839 746.468 259.56 746.453 259.296 746.453C259.003 746.453 258.709 746.453 258.416 746.453C256.392 746.453 254.896 747.04 253.928 748.213C252.931 749.357 252.432 751.102 252.432 753.449C252.432 756.06 253.033 757.922 254.236 759.037C255.439 760.152 257.169 760.709 259.428 760.709H260.572C262.86 760.709 264.605 760.152 265.808 759.037C267.011 757.922 267.612 756.045 267.612 753.405C267.612 751.117 267.26 749.474 266.556 748.477C265.823 747.45 264.811 746.937 263.52 746.937H263.168V742.185H263.564C265.119 742.185 266.497 742.669 267.7 743.637C268.873 744.576 269.797 745.881 270.472 747.553C271.117 749.196 271.44 751.102 271.44 753.273ZM271.44 726.746C271.44 730.266 270.765 732.994 269.416 734.93C268.067 736.836 266.131 737.79 263.608 737.79H263.476V733.038H263.828C265.265 733.038 266.263 732.568 266.82 731.63C267.348 730.662 267.612 729.034 267.612 726.746C267.612 724.604 267.392 723.152 266.952 722.39C266.483 721.598 265.764 721.202 264.796 721.202C263.887 721.202 263.241 721.51 262.86 722.126C262.479 722.712 262.185 723.798 261.98 725.382L261.188 731.366C260.924 733.448 260.337 735.076 259.428 736.25C258.489 737.423 257.096 738.01 255.248 738.01C253.957 738.01 252.828 737.628 251.86 736.866C250.863 736.103 250.085 734.959 249.528 733.434C248.971 731.908 248.692 730.031 248.692 727.802C248.692 725.572 248.985 723.666 249.572 722.082C250.159 720.468 251.039 719.236 252.212 718.386C253.385 717.506 254.837 717.066 256.568 717.066H256.7V721.774H256.436C255.585 721.774 254.867 721.95 254.28 722.302C253.693 722.654 253.253 723.284 252.96 724.194C252.637 725.074 252.476 726.32 252.476 727.934C252.476 729.958 252.711 731.366 253.18 732.158C253.649 732.95 254.397 733.346 255.424 733.346C256.275 733.346 256.891 733.052 257.272 732.466C257.653 731.879 257.961 730.779 258.196 729.166L258.9 724.106C259.223 721.524 259.853 719.618 260.792 718.386C261.731 717.154 263.109 716.538 264.928 716.538C266.277 716.538 267.451 716.963 268.448 717.814C269.416 718.664 270.164 719.852 270.692 721.378C271.191 722.903 271.44 724.692 271.44 726.746ZM271 707.037V711.789H249.132V707.037H271ZM246.58 707.037V711.789H241.52V707.037H246.58ZM278.92 689.833C278.92 692.004 278.583 693.91 277.908 695.553C277.263 697.196 276.324 698.486 275.092 699.425C273.86 700.334 272.364 700.789 270.604 700.789V696.081C271.66 696.081 272.511 695.861 273.156 695.421C273.801 694.981 274.256 694.292 274.52 693.353C274.813 692.385 274.96 691.124 274.96 689.569C274.96 687.897 274.769 686.577 274.388 685.609C274.036 684.612 273.405 683.893 272.496 683.453C271.587 683.013 270.325 682.793 268.712 682.793H255.908L255.6 682.441H249.132V678.085H268.448C270.883 678.085 272.863 678.569 274.388 679.537C275.943 680.505 277.087 681.869 277.82 683.629C278.553 685.389 278.92 687.457 278.92 689.833ZM269.02 691.813C269.02 693.984 268.595 695.846 267.744 697.401C266.893 698.926 265.705 700.114 264.18 700.965C262.655 701.786 260.88 702.197 258.856 702.197C256.832 702.197 255.057 701.772 253.532 700.921C252.007 700.041 250.819 698.809 249.968 697.225C249.117 695.612 248.692 693.705 248.692 691.505C248.692 689.217 249.205 687.281 250.232 685.697C251.229 684.084 252.681 683.086 254.588 682.705V681.693L258.416 681.957V682.793C257.184 682.793 256.157 683.086 255.336 683.673C254.485 684.26 253.855 685.096 253.444 686.181C253.033 687.266 252.828 688.586 252.828 690.141C252.828 691.637 253.019 692.942 253.4 694.057C253.781 695.142 254.412 695.978 255.292 696.565C256.143 697.122 257.331 697.401 258.856 697.401C260.352 697.401 261.54 697.122 262.42 696.565C263.3 696.008 263.945 695.201 264.356 694.145C264.737 693.06 264.928 691.769 264.928 690.273C264.928 687.868 264.429 686.02 263.432 684.729C262.435 683.438 260.968 682.793 259.032 682.793V681.957H263.344V683.101C265.016 683.482 266.38 684.406 267.436 685.873C268.492 687.34 269.02 689.32 269.02 691.813ZM271 649.532V654.284H259.12C257.067 654.284 255.527 654.783 254.5 655.78C253.473 656.748 252.96 658.376 252.96 660.664C252.96 663.04 253.576 664.8 254.808 665.944C256.011 667.059 257.8 667.616 260.176 667.616L260.22 668.452L255.908 668.672V667.704C254.676 667.469 253.517 667 252.432 666.296C251.317 665.563 250.423 664.565 249.748 663.304C249.044 662.013 248.692 660.444 248.692 658.596C248.692 656.572 249.103 654.885 249.924 653.536C250.745 652.187 251.845 651.189 253.224 650.544C254.603 649.869 256.143 649.532 257.844 649.532H271ZM271 667.616V672.368H249.132V668.012H255.996L256.216 667.616H271Z" fill="url(#paint1_linear_2_1436)"/>
<path d="M472 792.982V797.734H442.52V791.266L459.592 782.774L465.708 780.09V779.738L459.592 777.142L442.52 768.738V762.27H472V767.022H453.916L449.648 766.846V767.198L453.916 769.002L470.24 777.142V782.862L453.916 791.002L449.648 792.806V793.158L453.916 792.982H472ZM472 735.859V740.215H466.368L466.236 740.523H458.756C456.937 740.523 455.676 740.963 454.972 741.843C454.239 742.693 453.872 744.175 453.872 746.287C453.872 748.311 454.224 749.821 454.928 750.819C455.632 751.816 456.791 752.315 458.404 752.315H458.58V757.023H458.404C456.732 757.023 455.251 756.583 453.96 755.703C452.64 754.823 451.599 753.561 450.836 751.919C450.073 750.247 449.692 748.252 449.692 745.935C449.692 743.617 450.088 741.725 450.88 740.259C451.643 738.763 452.699 737.663 454.048 736.959C455.397 736.225 456.952 735.859 458.712 735.859H472ZM472.44 750.115C472.44 752.373 471.941 754.177 470.944 755.527C469.917 756.847 468.509 757.507 466.72 757.507C465.576 757.507 464.623 757.228 463.86 756.671C463.068 756.084 462.452 755.263 462.012 754.207C461.572 753.151 461.264 751.904 461.088 750.467L459.988 740.083H462.804L463.816 749.103C463.963 750.335 464.227 751.259 464.608 751.875C464.96 752.461 465.561 752.755 466.412 752.755C467.292 752.755 467.952 752.447 468.392 751.831C468.803 751.185 469.008 750.188 469.008 748.839C469.008 747.167 468.803 745.715 468.392 744.483C467.952 743.251 467.277 742.283 466.368 741.579C465.459 740.875 464.285 740.523 462.848 740.523L462.936 739.907H466.544V740.523C468.392 741.109 469.844 742.239 470.9 743.911C471.927 745.553 472.44 747.621 472.44 750.115ZM472 707.461V712.213H460.12C458.067 712.213 456.527 712.711 455.5 713.709C454.473 714.677 453.96 716.305 453.96 718.593C453.96 720.969 454.576 722.729 455.808 723.873C457.011 724.987 458.8 725.545 461.176 725.545L461.22 726.381L456.908 726.601V725.633C455.676 725.398 454.517 724.929 453.432 724.225C452.317 723.491 451.423 722.494 450.748 721.233C450.044 719.942 449.692 718.373 449.692 716.525C449.692 714.501 450.103 712.814 450.924 711.465C451.745 710.115 452.845 709.118 454.224 708.473C455.603 707.798 457.143 707.461 458.844 707.461H472ZM472 725.545V730.297H450.132V725.941H456.996L457.216 725.545H472ZM472 681.226V685.582H466.368L466.236 685.89H458.756C456.937 685.89 455.676 686.33 454.972 687.21C454.239 688.061 453.872 689.542 453.872 691.654C453.872 693.678 454.224 695.189 454.928 696.186C455.632 697.184 456.791 697.682 458.404 697.682H458.58V702.39H458.404C456.732 702.39 455.251 701.95 453.96 701.07C452.64 700.19 451.599 698.929 450.836 697.286C450.073 695.614 449.692 693.62 449.692 691.302C449.692 688.985 450.088 687.093 450.88 685.626C451.643 684.13 452.699 683.03 454.048 682.326C455.397 681.593 456.952 681.226 458.712 681.226H472ZM472.44 695.482C472.44 697.741 471.941 699.545 470.944 700.894C469.917 702.214 468.509 702.874 466.72 702.874C465.576 702.874 464.623 702.596 463.86 702.038C463.068 701.452 462.452 700.63 462.012 699.574C461.572 698.518 461.264 697.272 461.088 695.834L459.988 685.45H462.804L463.816 694.47C463.963 695.702 464.227 696.626 464.608 697.242C464.96 697.829 465.561 698.122 466.412 698.122C467.292 698.122 467.952 697.814 468.392 697.198C468.803 696.553 469.008 695.556 469.008 694.206C469.008 692.534 468.803 691.082 468.392 689.85C467.952 688.618 467.277 687.65 466.368 686.946C465.459 686.242 464.285 685.89 462.848 685.89L462.936 685.274H466.544V685.89C468.392 686.477 469.844 687.606 470.9 689.278C471.927 690.921 472.44 692.989 472.44 695.482ZM479.92 664.181C479.92 666.351 479.583 668.258 478.908 669.901C478.263 671.543 477.324 672.834 476.092 673.773C474.86 674.682 473.364 675.137 471.604 675.137V670.429C472.66 670.429 473.511 670.209 474.156 669.769C474.801 669.329 475.256 668.639 475.52 667.701C475.813 666.733 475.96 665.471 475.96 663.917C475.96 662.245 475.769 660.925 475.388 659.957C475.036 658.959 474.405 658.241 473.496 657.801C472.587 657.361 471.325 657.141 469.712 657.141H456.908L456.6 656.789H450.132V652.433H469.448C471.883 652.433 473.863 652.917 475.388 653.885C476.943 654.853 478.087 656.217 478.82 657.977C479.553 659.737 479.92 661.805 479.92 664.181ZM470.02 666.161C470.02 668.331 469.595 670.194 468.744 671.749C467.893 673.274 466.705 674.462 465.18 675.313C463.655 676.134 461.88 676.545 459.856 676.545C457.832 676.545 456.057 676.119 454.532 675.269C453.007 674.389 451.819 673.157 450.968 671.573C450.117 669.959 449.692 668.053 449.692 665.853C449.692 663.565 450.205 661.629 451.232 660.045C452.229 658.431 453.681 657.434 455.588 657.053V656.041L459.416 656.305V657.141C458.184 657.141 457.157 657.434 456.336 658.021C455.485 658.607 454.855 659.443 454.444 660.529C454.033 661.614 453.828 662.934 453.828 664.489C453.828 665.985 454.019 667.29 454.4 668.405C454.781 669.49 455.412 670.326 456.292 670.913C457.143 671.47 458.331 671.749 459.856 671.749C461.352 671.749 462.54 671.47 463.42 670.913C464.3 670.355 464.945 669.549 465.356 668.493C465.737 667.407 465.928 666.117 465.928 664.621C465.928 662.215 465.429 660.367 464.432 659.077C463.435 657.786 461.968 657.141 460.032 657.141V656.305H464.344V657.449C466.016 657.83 467.38 658.754 468.436 660.221C469.492 661.687 470.02 663.667 470.02 666.161ZM472.44 635.716C472.44 638.092 472 640.174 471.12 641.964C470.24 643.753 468.949 645.146 467.248 646.144C465.547 647.112 463.493 647.596 461.088 647.596C458.8 647.596 456.805 647.112 455.104 646.144C453.403 645.146 452.083 643.768 451.144 642.008C450.176 640.248 449.692 638.18 449.692 635.804C449.692 633.545 450.103 631.565 450.924 629.864C451.716 628.133 452.889 626.798 454.444 625.86C455.969 624.892 457.847 624.408 460.076 624.408C460.457 624.408 460.824 624.422 461.176 624.452C461.499 624.481 461.821 624.525 462.144 624.584V644.56H459.504V627.708L461.132 628.94C460.839 628.91 460.56 628.896 460.296 628.896C460.003 628.896 459.709 628.896 459.416 628.896C457.392 628.896 455.896 629.482 454.928 630.656C453.931 631.8 453.432 633.545 453.432 635.892C453.432 638.502 454.033 640.365 455.236 641.48C456.439 642.594 458.169 643.152 460.428 643.152H461.572C463.86 643.152 465.605 642.594 466.808 641.48C468.011 640.365 468.612 638.488 468.612 635.848C468.612 633.56 468.26 631.917 467.556 630.92C466.823 629.893 465.811 629.38 464.52 629.38H464.168V624.628H464.564C466.119 624.628 467.497 625.112 468.7 626.08C469.873 627.018 470.797 628.324 471.472 629.996C472.117 631.638 472.44 633.545 472.44 635.716ZM472 580.852V585.56H460.12C457.949 585.56 456.38 586.015 455.412 586.924C454.444 587.834 453.96 589.359 453.96 591.5C453.96 593.818 454.561 595.46 455.764 596.428C456.937 597.367 458.741 597.836 461.176 597.836L461.22 598.672L456.908 598.936V597.968C455.647 597.763 454.473 597.338 453.388 596.692C452.303 596.047 451.423 595.123 450.748 593.92C450.044 592.718 449.692 591.207 449.692 589.388C449.692 587.482 450.088 585.898 450.88 584.636C451.672 583.375 452.757 582.436 454.136 581.82C455.515 581.175 457.084 580.852 458.844 580.852H472ZM472 614.776V619.528H450.132V615.172H456.996L457.216 614.776H472ZM472 597.836V602.544H460.12C457.949 602.544 456.38 602.999 455.412 603.908C454.444 604.818 453.96 606.328 453.96 608.44C453.96 610.787 454.561 612.43 455.764 613.368C456.937 614.307 458.741 614.776 461.176 614.776L461.22 615.612L456.732 615.832V614.908C455.5 614.703 454.356 614.292 453.3 613.676C452.244 613.06 451.379 612.166 450.704 610.992C450.029 609.819 449.692 608.323 449.692 606.504C449.692 604.598 450.103 603.028 450.924 601.796C451.716 600.564 452.801 599.64 454.18 599.024C455.559 598.408 457.113 598.1 458.844 598.1V597.836H472ZM472.44 564.283C472.44 566.659 472 568.741 471.12 570.531C470.24 572.32 468.949 573.713 467.248 574.711C465.547 575.679 463.493 576.163 461.088 576.163C458.8 576.163 456.805 575.679 455.104 574.711C453.403 573.713 452.083 572.335 451.144 570.575C450.176 568.815 449.692 566.747 449.692 564.371C449.692 562.112 450.103 560.132 450.924 558.431C451.716 556.7 452.889 555.365 454.444 554.427C455.969 553.459 457.847 552.975 460.076 552.975C460.457 552.975 460.824 552.989 461.176 553.019C461.499 553.048 461.821 553.092 462.144 553.151V573.127H459.504V556.275L461.132 557.507C460.839 557.477 460.56 557.463 460.296 557.463C460.003 557.463 459.709 557.463 459.416 557.463C457.392 557.463 455.896 558.049 454.928 559.223C453.931 560.367 453.432 562.112 453.432 564.459C453.432 567.069 454.033 568.932 455.236 570.047C456.439 571.161 458.169 571.719 460.428 571.719H461.572C463.86 571.719 465.605 571.161 466.808 570.047C468.011 568.932 468.612 567.055 468.612 564.415C468.612 562.127 468.26 560.484 467.556 559.487C466.823 558.46 465.811 557.947 464.52 557.947H464.168V553.195H464.564C466.119 553.195 467.497 553.679 468.7 554.647C469.873 555.585 470.797 556.891 471.472 558.563C472.117 560.205 472.44 562.112 472.44 564.283ZM472 525.259V530.011H460.12C458.067 530.011 456.527 530.51 455.5 531.507C454.473 532.475 453.96 534.103 453.96 536.391C453.96 538.767 454.576 540.527 455.808 541.671C457.011 542.786 458.8 543.343 461.176 543.343L461.22 544.179L456.908 544.399V543.431C455.676 543.197 454.517 542.727 453.432 542.023C452.317 541.29 451.423 540.293 450.748 539.031C450.044 537.741 449.692 536.171 449.692 534.323C449.692 532.299 450.103 530.613 450.924 529.263C451.745 527.914 452.845 526.917 454.224 526.271C455.603 525.597 457.143 525.259 458.844 525.259H472ZM472 543.343V548.095H450.132V543.739H456.996L457.216 543.343H472ZM472 505.361V510.377C472 512.724 471.428 514.586 470.284 515.965C469.14 517.314 467.248 517.989 464.608 517.989H445.336V513.281H464.344C465.693 513.281 466.603 512.958 467.072 512.313C467.512 511.668 467.732 510.67 467.732 509.321V505.361H472ZM454.092 505.361V521.685H450.132V505.361H454.092Z" fill="url(#paint2_linear_2_1436)"/>
<defs>
<linearGradient id="paint0_linear_2_1436" x1="34.4167" y1="822.355" x2="133.738" y2="803.511" gradientUnits="userSpaceOnUse">
<stop stop-color="#030D42"/>
<stop offset="1" stop-color="#437FED"/>
</linearGradient>
<linearGradient id="paint1_linear_2_1436" x1="235.417" y1="808.839" x2="325.73" y2="775.128" gradientUnits="userSpaceOnUse">
<stop stop-color="#030D42"/>
<stop offset="1" stop-color="#437FED"/>
</linearGradient>
<linearGradient id="paint2_linear_2_1436" x1="436.417" y1="817.163" x2="535.62" y2="798.023" gradientUnits="userSpaceOnUse">
<stop stop-color="#030D42"/>
<stop offset="1" stop-color="#437FED"/>
</linearGradient>
</defs>
</svg>
