<svg width="37" height="43" viewBox="0 0 37 43" fill="none" xmlns="http://www.w3.org/2000/svg">
<path d="M21.7996 42.3098C18.2444 42.3098 15.4453 41.5539 13.4021 40.0419C11.3998 38.4891 10.1126 36.2007 9.54048 33.1768H7.82421L8.49846 26.5569H9.66308C9.66308 28.314 9.98999 29.7443 10.6438 30.8476C11.3385 31.91 12.3396 32.6865 13.6473 33.1768C14.9958 33.6672 16.6508 33.9124 18.6122 33.9124C20.6145 33.9124 22.2491 33.6672 23.5159 33.1768C24.7826 32.6865 25.7225 31.8896 26.3355 30.7863C26.9484 29.683 27.2549 28.2119 27.2549 26.373C27.2549 24.4524 26.9484 22.9609 26.3355 21.8984C25.7225 20.7951 24.7826 19.9983 23.5159 19.5079C22.2491 19.0176 20.635 18.7724 18.6735 18.7724C15.6905 18.7724 13.443 19.324 11.931 20.4274C10.4191 21.5307 9.66308 23.4104 9.66308 26.0665H8.49846V19.1401H10.1534C10.6847 16.5657 11.9106 14.4613 13.8312 12.8267C15.7926 11.1922 18.5918 10.3749 22.2287 10.3749C25.2934 10.3749 27.8883 11.0287 30.0132 12.3363C32.1381 13.644 33.7522 15.5033 34.8555 17.9142C35.9997 20.2843 36.5718 23.1039 36.5718 26.373C36.5718 29.6012 35.9997 32.4208 34.8555 34.8318C33.7522 37.2019 32.0972 39.0408 29.8906 40.3484C27.684 41.656 24.987 42.3098 21.7996 42.3098ZM8.98883 41.6969H0.46875V0.628906H9.66308V31.8283L8.98883 32.6252V41.6969Z" fill="#070707"/>
</svg>
