<svg width="35" height="42" viewBox="0 0 35 42" fill="none" xmlns="http://www.w3.org/2000/svg">
<path d="M34.6864 41.6969H25.492V25.6375C25.492 23.0631 24.8791 21.2651 23.6532 20.2435C22.4681 19.181 20.4249 18.6498 17.5236 18.6498C15.4804 18.6498 13.8663 18.9358 12.6813 19.5079C11.4962 20.08 10.6585 20.9381 10.1682 22.0823C9.67779 23.1857 9.43261 24.5954 9.43261 26.3117H8.08411L8.2067 20.3661H9.92297C10.2499 18.6089 10.8833 16.9744 11.8231 15.4624C12.763 13.9505 14.0911 12.7246 15.8073 11.7847C17.5645 10.8448 19.7507 10.3749 22.366 10.3749C25.1038 10.3749 27.3922 10.9265 29.2311 12.0299C31.0699 13.1332 32.4389 14.6247 33.3379 16.5044C34.2369 18.3842 34.6864 20.5091 34.6864 22.8792V41.6969ZM9.43261 41.6969H0.238281V0.628906H9.43261V41.6969Z" fill="#070707"/>
</svg>
