<svg width="110" height="43" viewBox="0 0 110 43" fill="none" xmlns="http://www.w3.org/2000/svg">
<path d="M34.687 41.6979H25.4926V25.6384C25.4926 23.064 24.8797 21.266 23.6538 20.2444C22.4687 19.182 20.4255 18.6508 17.5242 18.6508C15.481 18.6508 13.8669 18.9368 12.6819 19.5089C11.4968 20.081 10.6591 20.9391 10.1688 22.0833C9.6784 23.1866 9.43322 24.5964 9.43322 26.3127H8.08472L8.20731 20.367H9.92358C10.2505 18.6099 10.8839 16.9753 11.8237 15.4634C12.7636 13.9514 14.0917 12.7255 15.8079 11.7857C17.5651 10.8458 19.7513 10.3759 22.3666 10.3759C25.1044 10.3759 27.3928 10.9275 29.2317 12.0308C31.0705 13.1342 32.4395 14.6257 33.3385 16.5054C34.2375 18.3851 34.687 20.5101 34.687 22.8802V41.6979ZM9.43322 41.6979H0.238892V0.629883H9.43322V41.6979Z" fill="#070707"/>
<path d="M49.3822 42.3127C46.5217 42.3127 44.1312 41.7815 42.2106 40.719C40.3309 39.6157 38.9211 38.1446 37.9812 36.3058C37.0822 34.4669 36.6327 32.4033 36.6327 30.1149V10.9907H45.827V27.0501C45.827 29.502 46.4195 31.3 47.6046 32.4441C48.7896 33.5475 50.8328 34.0991 53.7341 34.0991C56.758 34.0991 58.8625 33.5066 60.0476 32.3216C61.2735 31.0956 61.8864 29.1751 61.8864 26.5598L63.051 26.4985L63.7253 32.3216H62.009C61.7638 34.0378 61.1509 35.6519 60.1702 37.1639C59.2303 38.6759 57.8614 39.9222 56.0634 40.9029C54.3062 41.8428 52.0792 42.3127 49.3822 42.3127ZM71.0808 41.6998H62.4994V32.199L61.8864 31.8925V10.9907H71.0808V41.6998Z" fill="#070707"/>
<path d="M94.8018 42.3108C91.2466 42.3108 88.4475 41.5548 86.4043 40.0429C84.402 38.4901 83.1148 36.2017 82.5427 33.1778H80.8264L81.5007 26.5579H82.6653C82.6653 28.315 82.9922 29.7452 83.646 30.8486C84.3407 31.911 85.3418 32.6874 86.6495 33.1778C87.998 33.6682 89.653 33.9133 91.6144 33.9133C93.6167 33.9133 95.2513 33.6682 96.5181 33.1778C97.7848 32.6874 98.7247 31.8906 99.3376 30.7873C99.9506 29.6839 100.257 28.2129 100.257 26.374C100.257 24.4534 99.9506 22.9619 99.3376 21.8994C98.7247 20.7961 97.7848 19.9993 96.5181 19.5089C95.2513 19.0185 93.6372 18.7734 91.6757 18.7734C88.6927 18.7734 86.4452 19.325 84.9332 20.4283C83.4213 21.5316 82.6653 23.4114 82.6653 26.0675H81.5007V19.1411H83.1556C83.6869 16.5667 84.9128 14.4622 86.8334 12.8277C88.7948 11.1931 91.594 10.3759 95.2309 10.3759C98.2956 10.3759 100.89 11.0297 103.015 12.3373C105.14 13.645 106.754 15.5043 107.858 17.9152C109.002 20.2853 109.574 23.1049 109.574 26.374C109.574 29.6022 109.002 32.4218 107.858 34.8328C106.754 37.2029 105.099 39.0417 102.893 40.3494C100.686 41.657 97.9891 42.3108 94.8018 42.3108ZM81.991 41.6979H73.4709V0.629883H82.6653V31.8293L81.991 32.6261V41.6979Z" fill="#070707"/>
</svg>
