<svg width="56" height="22" viewBox="0 0 56 22" fill="none" xmlns="http://www.w3.org/2000/svg">
<path d="M17.546 20.9183H12.8629V12.7385C12.8629 11.4272 12.5507 10.5114 11.9263 9.99108C11.3227 9.44992 10.282 9.17935 8.80424 9.17935C7.76355 9.17935 6.94141 9.32504 6.33781 9.61643C5.73421 9.90783 5.30753 10.3449 5.05777 10.9277C4.808 11.4897 4.68312 12.2077 4.68312 13.0819H3.99627L4.05871 10.0535H4.93289C5.0994 9.15853 5.42201 8.32598 5.90072 7.55587C6.37944 6.78577 7.05589 6.16135 7.93006 5.68264C8.82505 5.20392 9.93859 4.96456 11.2707 4.96456C12.6652 4.96456 13.8308 5.24555 14.7674 5.80752C15.704 6.36949 16.4013 7.12919 16.8592 8.08662C17.3171 9.04406 17.546 10.1264 17.546 11.3336V20.9183ZM4.68312 20.9183H3.05176e-05V0.000488281H4.68312V20.9183Z" fill="#161616"/>
<path d="M25.0309 21.2311C23.574 21.2311 22.3564 20.9605 21.3781 20.4193C20.4207 19.8574 19.7026 19.1081 19.2239 18.1715C18.766 17.2348 18.537 16.1837 18.537 15.0182V5.27734H23.2201V13.4571C23.2201 14.706 23.5219 15.6218 24.1255 16.2046C24.7291 16.7665 25.7698 17.0475 27.2476 17.0475C28.7878 17.0475 29.8597 16.7457 30.4633 16.1421C31.0877 15.5177 31.3999 14.5395 31.3999 13.2074L31.9931 13.1762L32.3366 16.1421H31.4624C31.3375 17.0163 31.0253 17.8384 30.5258 18.6085C30.047 19.3787 29.3498 20.0135 28.434 20.513C27.539 20.9917 26.4046 21.2311 25.0309 21.2311ZM36.083 20.9189H31.7121V16.0797L31.3999 15.9236V5.27734H36.083V20.9189Z" fill="#161616"/>
<path d="M48.1652 21.2305C46.3544 21.2305 44.9287 20.8454 43.888 20.0753C42.8681 19.2844 42.2125 18.1188 41.9211 16.5786H41.0469L41.3903 13.2068H41.9835C41.9835 14.1018 42.15 14.8303 42.4831 15.3922C42.8369 15.9334 43.3468 16.3289 44.0129 16.5786C44.6997 16.8284 45.5427 16.9533 46.5417 16.9533C47.5616 16.9533 48.3942 16.8284 49.0394 16.5786C49.6846 16.3289 50.1633 15.923 50.4755 15.361C50.7877 14.7991 50.9439 14.0498 50.9439 13.1131C50.9439 12.1349 50.7877 11.3752 50.4755 10.834C50.1633 10.2721 49.6846 9.8662 49.0394 9.61643C48.3942 9.36667 47.572 9.24179 46.573 9.24179C45.0536 9.24179 43.9088 9.52277 43.1387 10.0847C42.3686 10.6467 41.9835 11.6041 41.9835 12.957H41.3903V9.42911H42.2333C42.5039 8.11784 43.1283 7.04594 44.1065 6.21339C45.1056 5.38084 46.5313 4.96456 48.3838 4.96456C49.9448 4.96456 51.2665 5.29758 52.3488 5.96362C53.4311 6.62966 54.2532 7.57669 54.8152 8.8047C55.398 10.0119 55.6894 11.448 55.6894 13.1131C55.6894 14.7574 55.398 16.1936 54.8152 17.4216C54.2532 18.6288 53.4103 19.5654 52.2863 20.2314C51.1624 20.8975 49.7887 21.2305 48.1652 21.2305ZM41.6401 20.9183H37.3004V0.000488281H41.9835V15.8918L41.6401 16.2976V20.9183Z" fill="#161616"/>
</svg>
