<svg width="16" height="16" viewBox="0 0 16 15" fill="none" xmlns="http://www.w3.org/2000/svg">
<path d="M4.06579 13.5853C5.24925 14.1679 6.61477 14.4592 8.16237 14.4592C9.72817 14.4592 11.0937 14.1679 12.2589 13.5853C13.4242 13.0027 14.3345 12.1834 14.99 11.1274C15.6454 10.0531 15.9732 8.79686 15.9732 7.35851C15.9732 5.90195 15.6454 4.64567 14.99 3.58966C14.3345 2.51545 13.4242 1.68703 12.2589 1.1044C11.0937 0.52178 9.72817 0.230469 8.16237 0.230469C6.61477 0.230469 5.24925 0.52178 4.06579 1.1044C2.90054 1.68703 1.99019 2.51545 1.33474 3.58966C0.679289 4.64567 0.351562 5.90195 0.351562 7.35851C0.351562 8.79686 0.679289 10.0531 1.33474 11.1274C1.99019 12.1834 2.90054 13.0027 4.06579 13.5853Z" fill="url(#paint0_linear_477_715)"/>
<defs>
<linearGradient id="paint0_linear_477_715" x1="0.351563" y1="1.35379" x2="12.162" y2="13.5558" gradientUnits="userSpaceOnUse">
<stop stop-color="#082B9B"/>
<stop offset="1" stop-color="#86B7E0"/>
</linearGradient>
</defs>
</svg>

<svg width="16" height="15" viewBox="0 0 16 15" fill="none" xmlns="http://www.w3.org/2000/svg">
<path d="M12.1958 14.0787C10.9837 14.6929 9.58508 15 8 15C6.39627 15 4.99767 14.6929 3.8042 14.0787C2.61072 13.4645 1.67832 12.6008 1.00699 11.4875C0.335665 10.3551 0 9.03071 0 7.5144C0 5.97889 0.335665 4.65451 1.00699 3.54127C1.67832 2.40883 2.61072 1.53551 3.8042 0.921304C4.99767 0.307101 6.39627 0 8 0C9.58508 0 10.9837 0.307101 12.1958 0.921304C13.3893 1.53551 14.3217 2.40883 14.993 3.54127C15.6643 4.65451 16 5.97889 16 7.5144C16 9.03071 15.6643 10.3551 14.993 11.4875C14.3217 12.6008 13.3893 13.4645 12.1958 14.0787Z" fill="url(#paint0_linear_582_7729)"/>
<defs>
<linearGradient id="paint0_linear_582_7729" x1="16.95" y1="1.025" x2="1.53372" y2="15.7111" gradientUnits="userSpaceOnUse">
<stop stop-color="#030D42"/>
<stop offset="1" stop-color="#437FED"/>
</linearGradient>
</defs>
</svg>

