<svg width="16" height="15" viewBox="0 0 16 15" fill="none" xmlns="http://www.w3.org/2000/svg">
<path d="M4.06579 13.5853C5.24925 14.1679 6.61477 14.4592 8.16237 14.4592C9.72817 14.4592 11.0937 14.1679 12.2589 13.5853C13.4242 13.0027 14.3345 12.1834 14.99 11.1274C15.6454 10.0531 15.9732 8.79686 15.9732 7.35851C15.9732 5.90195 15.6454 4.64567 14.99 3.58966C14.3345 2.51545 13.4242 1.68703 12.2589 1.1044C11.0937 0.52178 9.72817 0.230469 8.16237 0.230469C6.61477 0.230469 5.24925 0.52178 4.06579 1.1044C2.90054 1.68703 1.99019 2.51545 1.33474 3.58966C0.679289 4.64567 0.351562 5.90195 0.351562 7.35851C0.351562 8.79686 0.679289 10.0531 1.33474 11.1274C1.99019 12.1834 2.90054 13.0027 4.06579 13.5853Z" fill="url(#paint0_linear_477_715)"/>
<defs>
<linearGradient id="paint0_linear_477_715" x1="0.351563" y1="1.35379" x2="12.162" y2="13.5558" gradientUnits="userSpaceOnUse">
<stop stop-color="#082B9B"/>
<stop offset="1" stop-color="#86B7E0"/>
</linearGradient>
</defs>
</svg>
