<svg width="36" height="33" viewBox="0 0 36 33" fill="none" xmlns="http://www.w3.org/2000/svg">
<path d="M8.969 30.3524C11.6251 31.66 14.6899 32.3139 18.1633 32.3139C21.6776 32.3139 24.7424 31.66 27.3577 30.3524C29.9729 29.0448 32.0161 27.2059 33.4872 24.8358C34.9583 22.4249 35.6938 19.6053 35.6938 16.377C35.6938 13.1079 34.9583 10.2883 33.4872 7.91825C32.0161 5.5073 29.9729 3.648 27.3577 2.34036C24.7424 1.03272 21.6776 0.378906 18.1633 0.378906C14.6899 0.378906 11.6251 1.03272 8.969 2.34036C6.35373 3.648 4.31054 5.5073 2.83945 7.91825C1.36836 10.2883 0.632812 13.1079 0.632812 16.377C0.632812 19.6053 1.36836 22.4249 2.83945 24.8358C4.31054 27.2059 6.35373 29.0448 8.969 30.3524Z" fill="#F2F0EE"/>
</svg>
