<svg width="84" height="38" viewBox="0 0 84 38" fill="none" xmlns="http://www.w3.org/2000/svg">
<path d="M55.1556 7.98682H60.6399V13.5984H55.1556V7.98682Z" fill="#070707"/>
<path d="M8.96809 35.3514C11.6242 36.6591 14.689 37.3129 18.1624 37.3129C21.6767 37.3129 24.7415 36.6591 27.3567 35.3514C29.972 34.0438 32.0152 32.2049 33.4863 29.8348C34.9574 27.4239 35.6929 24.6043 35.6929 21.3761C35.6929 18.107 34.9574 15.2874 33.4863 12.9173C32.0152 10.5063 29.972 8.64702 27.3567 7.33938C24.7415 6.03175 21.6767 5.37793 18.1624 5.37793C14.689 5.37793 11.6242 6.03175 8.96809 7.33938C6.35281 8.64702 4.30963 10.5063 2.83854 12.9173C1.36744 15.2874 0.631897 18.107 0.631897 21.3761C0.631897 24.6043 1.36744 27.4239 2.83854 29.8348C4.30963 32.2049 6.35281 34.0438 8.96809 35.3514Z" fill="#F2F0EE"/>
<path d="M34.0663 36.6998H22.9718L35.2309 21.6824V21.192L22.9718 5.99072H34.1889L42.3412 16.3497H42.8315L50.7387 5.99072H61.8332L49.5741 21.0081V21.5598L61.8332 36.6998H50.6161L42.4638 26.4021H41.9734L34.0663 36.6998Z" fill="#070707"/>
<path d="M83.7618 36.7001H76.1612C72.5652 36.7001 69.7456 35.8216 67.7024 34.0644C65.6592 32.3073 64.6376 29.4877 64.6376 25.6056V0.0454102H73.832V24.5636C73.832 26.1164 74.1589 27.1585 74.8127 27.6897C75.5074 28.1801 76.6516 28.4252 78.2452 28.4252H83.7618V36.7001ZM83.7618 13.5917H59.7953V5.99107H83.7618V13.5917Z" fill="#070707"/>
</svg>

