<svg width="43" height="20" viewBox="0 0 43 20" fill="none" xmlns="http://www.w3.org/2000/svg">
<path d="M27.9249 4.29443H30.7183V7.15268H27.9249V4.29443Z" fill="#161616"/>
<path d="M4.39947 18.2322C5.75237 18.8982 7.3134 19.2313 9.08256 19.2313C10.8725 19.2313 12.4336 18.8982 13.7657 18.2322C15.0977 17.5662 16.1384 16.6296 16.8877 15.4224C17.637 14.1943 18.0117 12.7582 18.0117 11.1139C18.0117 9.44881 17.637 8.01266 16.8877 6.80547C16.1384 5.57746 15.0977 4.63043 13.7657 3.96439C12.4336 3.29835 10.8725 2.96533 9.08256 2.96533C7.3134 2.96533 5.75237 3.29835 4.39947 3.96439C3.0674 4.63043 2.02671 5.57746 1.27741 6.80547C0.52812 8.01266 0.153473 9.44881 0.153473 11.1139C0.153473 12.7582 0.52812 14.1943 1.27741 15.4224C2.02671 16.6296 3.0674 17.5662 4.39947 18.2322Z" fill="#F2F0EE"/>
<path d="M17.1832 18.9189H11.5322L17.7763 11.2698V11.0201L11.5322 3.27734H17.2456L21.3979 8.55363H21.6477L25.6752 3.27734H31.3261L25.082 10.9264V11.2074L31.3261 18.9189H25.6127L21.4604 13.6738H21.2106L17.1832 18.9189Z" fill="#161616"/>
<path d="M42.4953 18.9194H38.624C36.7924 18.9194 35.3562 18.4719 34.3155 17.577C33.2749 16.682 32.7545 15.2458 32.7545 13.2685V0.249512H37.4376V12.7378C37.4376 13.5287 37.6041 14.0594 37.9371 14.33C38.291 14.5798 38.8738 14.7047 39.6855 14.7047H42.4953V18.9194ZM42.4953 7.14927H30.2881V3.27791H42.4953V7.14927Z" fill="#161616"/>
</svg>
