<svg width="36" height="33" viewBox="0 0 36 33" fill="none" xmlns="http://www.w3.org/2000/svg">
<path d="M13.3823 32.3103C10.5218 32.3103 8.13129 31.7791 6.2107 30.7166C4.33097 29.6133 2.92118 28.1422 1.98131 26.3033C1.08231 24.4645 0.632812 22.4008 0.632812 20.1125V0.988281H9.82714V17.0477C9.82714 19.4995 10.4197 21.2975 11.6047 22.4417C12.7898 23.545 14.8329 24.0967 17.7343 24.0967C20.7582 24.0967 22.8626 23.5042 24.0477 22.3191C25.2736 21.0932 25.8866 19.1726 25.8866 16.5573L27.0512 16.496L27.7254 22.3191H26.0091C25.764 24.0354 25.151 25.6495 24.1703 27.1615C23.2304 28.6734 21.8615 29.9198 20.0635 30.9005C18.3063 31.8404 16.0793 32.3103 13.3823 32.3103ZM35.0809 31.6973H26.4995V22.1965L25.8866 21.89V0.988281H35.0809V31.6973Z" fill="#070707"/>
</svg>
