<svg width="171" height="61" viewBox="0 0 171 61" fill="none" xmlns="http://www.w3.org/2000/svg">
<path d="M59.0472 30.5039C59.0472 46.2658 46.2697 59.0433 30.5078 59.0433C14.7459 59.0433 1.96841 46.2658 1.96841 30.5039C1.96841 14.742 14.7459 1.9645 30.5078 1.9645C46.2697 1.9645 59.0472 14.742 59.0472 30.5039Z" stroke="url(#paint0_radial_477_823)" stroke-width="2.429"/>
<path d="M76.9643 46.75H88.457C99.177 46.75 104.682 38.9273 104.682 29.7042C104.682 21.1088 100.143 12.948 88.0224 12.948H76.9643V46.75ZM81.7932 42.404V17.294H87.7809C97.4386 17.294 99.8531 23.3301 99.8531 29.6559C99.8531 35.9817 97.004 42.404 88.2155 42.404H81.7932ZM131.981 36.2714V34.3881C131.981 27.0966 127.539 22.2194 120.73 22.2194C113.921 22.2194 108.803 27.7243 108.803 34.7745C108.803 41.9211 113.728 47.426 120.778 47.426C126.573 47.426 130.05 44.2873 131.353 40.6174L127.297 39.3136C126.621 41.3417 124.352 43.4664 120.778 43.4664C116.529 43.4664 113.632 40.1345 113.39 36.2714H131.981ZM127.732 32.5532H113.438C113.97 29.173 116.529 26.1791 120.778 26.1791C125.028 26.1791 127.49 29.3661 127.732 32.5532ZM152.541 22.8472L145.781 41.39L139.021 22.8472H134.144L143.27 46.75H148.292L157.37 22.8472H152.541ZM163.923 19.3221C165.613 19.3221 166.965 17.97 166.965 16.2317C166.965 14.5416 165.613 13.1412 163.923 13.1412C162.184 13.1412 160.784 14.5416 160.784 16.2317C160.784 17.97 162.184 19.3221 163.923 19.3221ZM161.508 46.75H166.241V22.8472H161.508V46.75Z" fill="#89181F"/>
<defs>
<radialGradient id="paint0_radial_477_823" cx="0" cy="0" r="1" gradientUnits="userSpaceOnUse" gradientTransform="translate(44.9212 27.0481) rotate(113.461) scale(36.2026)">
<stop stop-color="#F3B3BF" stop-opacity="0.96"/>
<stop offset="1" stop-color="#89181F"/>
</radialGradient>
</defs>
</svg>
