<svg width="193" height="61" viewBox="0 0 193 61" fill="none" xmlns="http://www.w3.org/2000/svg">
<path d="M74.2461 16.9744H84.3654V20.1639H74.2461V16.9744ZM74.565 27.9346H70.7957V7.63794H85.6122V10.7984H74.565V27.9346Z" fill="white"/>
<path d="M89.2575 27.9346V7.63794H93.0269V24.7452H103.639V27.9346H89.2575Z" fill="white"/>
<path d="M110.094 16.0756H120.185V19.1781H110.094V16.0756ZM110.384 24.7741H121.838V27.9346H106.615V7.63794H121.432V10.7984H110.384V24.7741Z" fill="white"/>
<path d="M129.519 16.0756H139.609V19.1781H129.519V16.0756ZM129.809 24.7741H141.262V27.9346H126.04V7.63794H140.856V10.7984H129.809V24.7741Z" fill="white"/>
<path d="M149.581 27.9346V10.8274H142.855V7.63794H160.078V10.8274H153.351V27.9346H149.581Z" fill="white"/>
<path d="M70.7957 57.0786V36.7819H74.565V57.0786H70.7957Z" fill="white"/>
<path d="M80.0549 57.0786V36.7819H83.1574L95.8863 52.4104H94.3496V36.7819H98.0899V57.0786H94.9875L82.2585 41.4501H83.7953V57.0786H80.0549Z" fill="white"/>
<path d="M109.821 57.3685C108.235 57.3685 106.718 57.1462 105.268 56.7017C103.819 56.2377 102.668 55.6482 101.818 54.9329L103.123 52.0044C103.935 52.6423 104.94 53.1739 106.138 53.5992C107.337 54.0244 108.564 54.2371 109.821 54.2371C110.884 54.2371 111.744 54.1211 112.401 53.8891C113.058 53.6572 113.542 53.3479 113.851 52.9613C114.16 52.5553 114.315 52.1011 114.315 51.5985C114.315 50.9799 114.093 50.487 113.648 50.1197C113.203 49.7331 112.623 49.4335 111.908 49.2209C111.212 48.9889 110.429 48.7763 109.56 48.583C108.709 48.3897 107.849 48.1674 106.979 47.9161C106.129 47.6455 105.346 47.3072 104.63 46.9013C103.935 46.476 103.364 45.9154 102.92 45.2195C102.475 44.5236 102.253 43.6345 102.253 42.552C102.253 41.4501 102.543 40.445 103.123 39.5365C103.722 38.6086 104.621 37.8741 105.819 37.3328C107.037 36.7722 108.574 36.492 110.429 36.492C111.647 36.492 112.855 36.6466 114.054 36.9559C115.252 37.2652 116.296 37.7098 117.185 38.2897L115.997 41.2182C115.088 40.6769 114.151 40.2807 113.184 40.0294C112.218 39.7588 111.29 39.6234 110.4 39.6234C109.357 39.6234 108.506 39.7491 107.849 40.0004C107.211 40.2517 106.737 40.5803 106.428 40.9862C106.138 41.3922 105.993 41.8561 105.993 42.378C105.993 42.9966 106.206 43.4991 106.631 43.8857C107.076 44.253 107.646 44.543 108.342 44.7556C109.057 44.9682 109.85 45.1809 110.719 45.3935C111.589 45.5868 112.449 45.8091 113.3 46.0604C114.17 46.3117 114.953 46.6403 115.649 47.0462C116.364 47.4522 116.934 48.0031 117.359 48.699C117.804 49.3948 118.026 50.2744 118.026 51.3375C118.026 52.42 117.727 53.4252 117.127 54.353C116.547 55.2616 115.649 55.9961 114.431 56.5567C113.213 57.0979 111.676 57.3685 109.821 57.3685Z" fill="white"/>
<path d="M121.764 57.0786V36.7819H125.533V57.0786H121.764Z" fill="white"/>
<path d="M131.023 57.0786V36.7819H139.896C142.099 36.7819 144.032 37.2072 145.695 38.0577C147.357 38.9082 148.652 40.0874 149.58 41.5951C150.508 43.1029 150.972 44.8812 150.972 46.9302C150.972 48.9599 150.508 50.7383 149.58 52.2654C148.652 53.7731 147.357 54.9523 145.695 55.8028C144.032 56.6533 142.099 57.0786 139.896 57.0786H131.023ZM134.793 53.8891H139.722C141.249 53.8891 142.563 53.5992 143.665 53.0193C144.786 52.4394 145.646 51.6275 146.246 50.5837C146.864 49.5398 147.174 48.322 147.174 46.9302C147.174 45.5191 146.864 44.3013 146.246 43.2768C145.646 42.233 144.786 41.4212 143.665 40.8412C142.563 40.2613 141.249 39.9714 139.722 39.9714H134.793V53.8891Z" fill="white"/>
<path d="M158.458 45.2195H168.548V48.322H158.458V45.2195ZM158.748 53.9181H170.201V57.0786H154.978V36.7819H169.795V39.9424H158.748V53.9181Z" fill="white"/>
<path d="M174.403 57.0786V36.7819H182.753C184.551 36.7819 186.088 37.0719 187.364 37.6518C188.659 38.2317 189.654 39.0629 190.35 40.1454C191.046 41.2278 191.394 42.5133 191.394 44.0017C191.394 45.4902 191.046 46.7756 190.35 47.8581C189.654 48.9213 188.659 49.7428 187.364 50.3227C186.088 50.8833 184.551 51.1636 182.753 51.1636H176.49L178.172 49.4528V57.0786H174.403ZM187.683 57.0786L182.55 49.7138H186.581L191.742 57.0786H187.683ZM178.172 49.8588L176.49 48.0611H182.579C184.242 48.0611 185.489 47.7035 186.32 46.9882C187.17 46.273 187.596 45.2775 187.596 44.0017C187.596 42.7066 187.17 41.7111 186.32 41.0152C185.489 40.3193 184.242 39.9714 182.579 39.9714H176.49L178.172 38.1157V49.8588Z" fill="white"/>
<path d="M0.974882 14.0723L11.9215 27.6019L11.9215 58.9674L0.974881 47.6927L0.974882 14.0723Z" stroke="white" stroke-width="1.44976"/>
<path d="M31.8828 27.7475C31.8828 27.0647 32.7406 26.7605 33.1707 27.2909L43.2624 39.7341C43.3671 39.8632 43.4243 40.0244 43.4243 40.1907V59.078C43.4243 59.7395 42.6108 60.0554 42.1644 59.5671L32.0727 48.5281C31.9505 48.3945 31.8828 48.22 31.8828 48.039V27.7475Z" fill="#2764FF"/>
<path d="M16.0667 2.19166C16.0667 1.49893 16.9453 1.20086 17.3668 1.75059L28.3134 16.0274C28.4105 16.154 28.4631 16.309 28.4631 16.4685V58.9677C28.4631 59.6186 27.6717 59.9397 27.2182 59.4728L16.2715 48.2016C16.1401 48.0663 16.0667 47.8851 16.0667 47.6965V2.19166Z" fill="white"/>
<rect x="55.0226" y="0.0549316" width="1.44976" height="60.8901" fill="white"/>
</svg>
