<svg width="217" height="150" viewBox="0 0 30 36" fill="none" xmlns="http://www.w3.org/2000/svg">
<path fill-rule="evenodd" clip-rule="evenodd" d="M14.8629 1.84634C13.5144 2.80014 11.6146 4.09241 9.19343 4.95393C6.86458 5.78483 4.56622 6.30786 3.83101 6.46138C3.7387 6.49241 3.6163 6.46138 3.6163 6.49241C3.7387 9.07697 2.88067 9.04593 1.68555 9.81517C1.65505 9.84621 1.53265 9.84621 1.56315 9.90786C1.83926 10.6771 2.26786 11.4463 2.35976 13.1694C2.54357 16.2459 2.29836 21.2921 3.55489 24.0617C4.99523 27.2309 9.22434 30.6459 12.4417 32.4306C13.2997 32.923 14.4644 33.5077 14.8938 33.7229C15.2919 33.5077 16.4561 32.923 17.345 32.4306C20.5628 30.6459 24.7915 27.2309 26.2319 24.0617C27.4884 21.2921 27.2432 16.2153 27.427 13.1694C27.5189 11.4459 27.9479 10.6461 28.2236 9.90786C28.2545 9.87683 28.1317 9.84579 28.1012 9.81559C26.9061 9.04593 26.0171 9.07697 26.1705 6.49241C26.1705 6.46138 26.0481 6.46138 25.9562 6.46138C25.2205 6.30786 22.8917 5.78441 20.5933 4.95393C18.0803 4.06138 16.2113 2.80014 14.8629 1.84634ZM14.8629 0C13.3302 1.04607 11.2466 2.49228 8.54971 3.4771C5.97565 4.39986 3.37068 4.98455 2.57406 5.16952C2.45125 5.20014 2.32885 5.16952 2.32885 5.23076C2.48216 8.12317 1.50133 8.09214 0.152895 8.95407C0.0919023 8.98469 0 8.98469 0 9.04634C0.3062 9.90786 0.796616 10.7694 0.919013 12.7076C1.10323 16.123 0.858021 21.7539 2.23695 24.8615C3.8306 28.3999 8.58021 32.1844 12.1351 34.1843C13.085 34.7388 14.4026 35.3843 14.8625 35.5999C15.322 35.3847 16.609 34.7077 17.5898 34.1847C21.1752 32.1844 25.8943 28.3999 27.488 24.8619C28.8974 21.7539 28.6217 16.123 28.8055 12.7076C28.9279 10.7694 29.3878 9.90786 29.7249 9.04593C29.7554 8.98469 29.633 8.98469 29.5716 8.95366C28.2232 8.09214 27.2428 8.12317 27.3961 5.23076C27.3961 5.20014 27.2733 5.20014 27.1509 5.1691C26.3234 4.98455 23.7493 4.39986 21.1752 3.47669C18.4483 2.49269 16.3642 1.04648 14.8629 0Z" fill="#4D4D4D"/>
<path fill-rule="evenodd" clip-rule="evenodd" d="M14.8624 3.66211C13.6673 4.49259 12.0127 5.63135 9.83713 6.43121C7.78357 7.16983 5.73042 7.63121 5.08711 7.78514C4.99521 7.81576 4.90331 7.78514 4.90331 7.81576C5.0257 10.1235 4.22909 10.0929 3.18726 10.7698C3.15635 10.8005 3.06445 10.8005 3.06445 10.8311C3.30966 11.508 3.70817 12.185 3.76917 13.7235C3.92247 16.4314 3.70817 20.9235 4.8114 23.3851C5.88372 25.7545 8.7339 28.2774 11.308 29.9698V26.9541C9.53052 25.6312 7.75307 23.9082 7.04836 22.3697C6.15943 20.4005 6.34364 15.8467 6.22083 13.6006C6.19754 13.0194 6.11538 12.4421 5.97562 11.8776C6.61935 11.2929 6.98695 10.5853 7.17075 9.84666C8.36588 9.5388 9.53052 9.20032 10.6642 8.76956C12.1965 8.2159 13.5449 7.50832 14.8624 6.6468C16.1804 7.47728 17.5288 8.2159 19.0611 8.76956C20.1944 9.1697 21.359 9.53921 22.5541 9.84666C22.7384 10.6159 23.106 11.2929 23.7493 11.8776C23.6119 12.4425 23.5299 13.0196 23.5045 13.6006C23.3817 15.8467 23.5655 20.4005 22.6769 22.3697C21.6351 24.708 18.0497 27.4159 15.8433 28.6469C15.5367 28.8311 15.1996 28.985 14.8624 29.1696C14.5253 28.985 14.2191 28.8311 13.8816 28.6465C13.478 28.4091 13.0795 28.163 12.6865 27.9083V30.7697C13.453 31.2005 14.4948 31.7235 14.8624 31.908C15.2305 31.7235 16.2719 31.2005 17.0384 30.7697C19.8882 29.1696 23.6269 26.1849 24.9139 23.3545C26.0171 20.8925 25.8028 16.4314 25.9557 13.6925C26.0476 12.1544 26.4156 11.4774 26.6608 10.8005C26.6608 10.7698 26.5994 10.7388 26.538 10.7388C25.4657 10.0618 24.6996 10.0929 24.822 7.78514C24.822 7.75411 24.7301 7.75411 24.6382 7.75411C23.9945 7.63121 21.9413 7.16983 19.8882 6.40059C17.7122 5.63094 16.0576 4.49301 14.8624 3.66211Z" fill="#0094C2"/>
<path fill-rule="evenodd" clip-rule="evenodd" d="M18.2029 11.9692H8.58008V14.154H17.6206C18.172 14.154 18.6014 14.2459 18.6014 14.9534V16.1228C18.6014 17.1383 18.3867 17.1076 17.4978 17.1076H8.58049V27.4459H11.3384V19.0769C13.9738 19.0769 16.5788 19.0459 19.2138 19.0459C20.3785 19.0459 21.1755 18.2766 21.1755 17.1076V14.1536C21.1446 12.2154 19.6429 11.9688 18.2029 11.9688V11.9692Z" fill="#0094C2"/>
</svg>
