<svg width="145" height="144" viewBox="0 0 145 144" fill="none" xmlns="http://www.w3.org/2000/svg">
<g clip-path="url(#clip0_477_842)">
<path d="M72.6345 135.868C87.4249 135.868 99.4149 107.272 99.4149 71.9967C99.4149 60.3387 98.1053 49.4101 95.8179 40.0022M72.6345 8.12544C57.8441 8.12544 45.8541 36.7216 45.8541 71.9967C45.8541 83.8766 47.214 94.999 49.5828 104.527M134.765 59.5438C119.917 51.1974 97.5476 45.8858 72.5302 45.8858C60.4234 45.8858 48.9373 47.1294 38.6234 49.3591M9.96837 84.1818C24.8739 92.681 47.6099 98.1076 73.0824 98.1076C84.4271 98.1076 95.2294 97.0309 105.039 95.086M136.388 71.9967C136.388 107.281 107.785 135.884 72.5006 135.884C37.2166 135.884 8.61328 107.281 8.61328 71.9967C8.61328 36.7127 37.2166 8.10938 72.5006 8.10938C107.785 8.10938 136.388 36.7127 136.388 71.9967Z" stroke="url(#paint0_radial_477_842)" stroke-width="6" stroke-miterlimit="10" stroke-linecap="round"/>
</g>
<defs>
<radialGradient id="paint0_radial_477_842" cx="0" cy="0" r="1" gradientUnits="userSpaceOnUse" gradientTransform="translate(86.5529 64.1738) rotate(101.087) scale(73.0741)">
<stop stop-color="#C7B7E9"/>
<stop offset="1" stop-color="#651467"/>
</radialGradient>
<clipPath id="clip0_477_842">
<rect width="144" height="144" fill="white" transform="translate(0.5)"/>
</clipPath>
</defs>
</svg>
