<svg width="217" height="45" viewBox="0 0 217 45" fill="none" xmlns="http://www.w3.org/2000/svg">
<path d="M9.72946 33.8068C8.25946 33.8068 6.94696 33.4498 5.79196 32.7358C4.63696 32.0218 3.72346 31.0453 3.05146 29.8063C2.37946 28.5673 2.04346 27.1603 2.04346 25.5853C2.04346 24.0103 2.37946 22.6138 3.05146 21.3958C3.72346 20.1568 4.63696 19.1908 5.79196 18.4978C6.94696 17.7838 8.25946 17.4268 9.72946 17.4268C10.9055 17.4268 11.9345 17.6473 12.8165 18.0883C13.6985 18.5293 14.4125 19.1488 14.9585 19.9468V10.7488H18.9905V33.4288H15.3995L14.9585 31.1923C14.4545 31.8853 13.7825 32.4943 12.9425 33.0193C12.1235 33.5443 11.0525 33.8068 9.72946 33.8068ZM10.58 30.2788C11.882 30.2788 12.9425 29.8483 13.7615 28.9873C14.6015 28.1053 15.0215 26.9818 15.0215 25.6168C15.0215 24.2518 14.6015 23.1388 13.7615 22.2778C12.9425 21.3958 11.882 20.9548 10.58 20.9548C9.29896 20.9548 8.23846 21.3853 7.39846 22.2463C6.55846 23.1073 6.13846 24.2203 6.13846 25.5853C6.13846 26.9503 6.55846 28.0738 7.39846 28.9558C8.23846 29.8378 9.29896 30.2788 10.58 30.2788Z" fill="#DF4036"/>
<path d="M28.4828 33.8068C27.1388 33.8068 26.0363 33.5968 25.1753 33.1768C24.3143 32.7358 23.6738 32.1583 23.2538 31.4443C22.8338 30.7303 22.6238 29.9428 22.6238 29.0818C22.6238 27.6328 23.1908 26.4568 24.3248 25.5538C25.4588 24.6508 27.1598 24.1993 29.4278 24.1993H33.3968V23.8213C33.3968 22.7503 33.0923 21.9628 32.4833 21.4588C31.8743 20.9548 31.1183 20.7028 30.2153 20.7028C29.3963 20.7028 28.6823 20.9023 28.0733 21.3013C27.4643 21.6793 27.0863 22.2463 26.9393 23.0023H23.0018C23.1068 21.8683 23.4848 20.8813 24.1358 20.0413C24.8078 19.2013 25.6688 18.5608 26.7188 18.1198C27.7688 17.6578 28.9448 17.4268 30.2468 17.4268C32.4728 17.4268 34.2263 17.9833 35.5073 19.0963C36.7883 20.2093 37.4288 21.7843 37.4288 23.8213V33.4288H33.9953L33.6173 30.9088C33.1553 31.7488 32.5043 32.4418 31.6643 32.9878C30.8453 33.5338 29.7848 33.8068 28.4828 33.8068ZM29.3963 30.6568C30.5513 30.6568 31.4438 30.2788 32.0738 29.5228C32.7248 28.7668 33.1343 27.8323 33.3023 26.7193H29.8688C28.7978 26.7193 28.0313 26.9188 27.5693 27.3178C27.1073 27.6958 26.8763 28.1683 26.8763 28.7353C26.8763 29.3443 27.1073 29.8168 27.5693 30.1528C28.0313 30.4888 28.6403 30.6568 29.3963 30.6568Z" fill="#DF4036"/>
<path d="M48.0226 33.4288C46.3846 33.4288 45.0721 33.0298 44.0851 32.2318C43.0981 31.4338 42.6046 30.0163 42.6046 27.9793V21.1753H39.9271V17.8048H42.6046L43.0771 13.6153H46.6366V17.8048H50.8576V21.1753H46.6366V28.0108C46.6366 28.7668 46.7941 29.2918 47.1091 29.5858C47.4451 29.8588 48.0121 29.9953 48.8101 29.9953H50.7631V33.4288H48.0226Z" fill="#DF4036"/>
<path d="M59.7059 33.8068C58.3619 33.8068 57.2594 33.5968 56.3984 33.1768C55.5374 32.7358 54.8969 32.1583 54.4769 31.4443C54.0569 30.7303 53.8469 29.9428 53.8469 29.0818C53.8469 27.6328 54.4139 26.4568 55.5479 25.5538C56.6819 24.6508 58.3829 24.1993 60.6509 24.1993H64.6199V23.8213C64.6199 22.7503 64.3154 21.9628 63.7064 21.4588C63.0974 20.9548 62.3414 20.7028 61.4384 20.7028C60.6194 20.7028 59.9054 20.9023 59.2964 21.3013C58.6874 21.6793 58.3094 22.2463 58.1624 23.0023H54.2249C54.3299 21.8683 54.7079 20.8813 55.3589 20.0413C56.0309 19.2013 56.8919 18.5608 57.9419 18.1198C58.9919 17.6578 60.1679 17.4268 61.4699 17.4268C63.6959 17.4268 65.4494 17.9833 66.7304 19.0963C68.0114 20.2093 68.6519 21.7843 68.6519 23.8213V33.4288H65.2184L64.8404 30.9088C64.3784 31.7488 63.7274 32.4418 62.8874 32.9878C62.0684 33.5338 61.0079 33.8068 59.7059 33.8068ZM60.6194 30.6568C61.7744 30.6568 62.6669 30.2788 63.2969 29.5228C63.9479 28.7668 64.3574 27.8323 64.5254 26.7193H61.0919C60.0209 26.7193 59.2544 26.9188 58.7924 27.3178C58.3304 27.6958 58.0994 28.1683 58.0994 28.7353C58.0994 29.3443 58.3304 29.8168 58.7924 30.1528C59.2544 30.4888 59.8634 30.6568 60.6194 30.6568Z" fill="#DF4036"/>
<path d="M80.9162 33.8067C79.3202 33.8067 77.9132 33.4602 76.6952 32.7672C75.4772 32.0742 74.5112 31.1082 73.7972 29.8692C73.1042 28.6302 72.7577 27.2127 72.7577 25.6167C72.7577 24.0207 73.1042 22.6032 73.7972 21.3642C74.5112 20.1252 75.4772 19.1592 76.6952 18.4662C77.9132 17.7732 79.3202 17.4267 80.9162 17.4267C82.9112 17.4267 84.5912 17.9517 85.9562 19.0017C87.3212 20.0307 88.1927 21.4587 88.5707 23.2857H84.3182C84.1082 22.5297 83.6882 21.9417 83.0582 21.5217C82.4492 21.0807 81.7247 20.8602 80.8847 20.8602C79.7717 20.8602 78.8267 21.2802 78.0497 22.1202C77.2727 22.9602 76.8842 24.1257 76.8842 25.6167C76.8842 27.1077 77.2727 28.2732 78.0497 29.1132C78.8267 29.9532 79.7717 30.3732 80.8847 30.3732C81.7247 30.3732 82.4492 30.1632 83.0582 29.7432C83.6882 29.3232 84.1082 28.7247 84.3182 27.9477H88.5707C88.1927 29.7117 87.3212 31.1292 85.9562 32.2002C84.5912 33.2712 82.9112 33.8067 80.9162 33.8067Z" fill="white"/>
<path d="M99.6464 33.8067C98.1344 33.8067 96.7694 33.4602 95.5514 32.7672C94.3544 32.0742 93.3989 31.1187 92.6849 29.9007C91.9919 28.6617 91.6454 27.2337 91.6454 25.6167C91.6454 23.9997 92.0024 22.5822 92.7164 21.3642C93.4304 20.1252 94.3859 19.1592 95.5829 18.4662C96.8009 17.7732 98.1659 17.4267 99.6779 17.4267C101.169 17.4267 102.513 17.7732 103.71 18.4662C104.928 19.1592 105.883 20.1252 106.576 21.3642C107.29 22.5822 107.647 23.9997 107.647 25.6167C107.647 27.2337 107.29 28.6617 106.576 29.9007C105.883 31.1187 104.928 32.0742 103.71 32.7672C102.492 33.4602 101.137 33.8067 99.6464 33.8067ZM99.6464 30.3102C100.696 30.3102 101.61 29.9217 102.387 29.1447C103.164 28.3467 103.552 27.1707 103.552 25.6167C103.552 24.0627 103.164 22.8972 102.387 22.1202C101.61 21.3222 100.707 20.9232 99.6779 20.9232C98.6069 20.9232 97.6829 21.3222 96.9059 22.1202C96.1499 22.8972 95.7719 24.0627 95.7719 25.6167C95.7719 27.1707 96.1499 28.3467 96.9059 29.1447C97.6829 29.9217 98.5964 30.3102 99.6464 30.3102Z" fill="white"/>
<path d="M111.252 33.4287V17.8047H114.812L115.127 20.4507C115.61 19.5267 116.303 18.7917 117.206 18.2457C118.13 17.6997 119.211 17.4267 120.45 17.4267C122.382 17.4267 123.884 18.0357 124.955 19.2537C126.026 20.4717 126.561 22.2567 126.561 24.6087V33.4287H122.529V24.9867C122.529 23.6427 122.256 22.6137 121.71 21.8997C121.164 21.1857 120.314 20.8287 119.159 20.8287C118.025 20.8287 117.09 21.2277 116.355 22.0257C115.641 22.8237 115.284 23.9367 115.284 25.3647V33.4287H111.252Z" fill="white"/>
<path d="M138.071 33.8067C136.475 33.8067 135.068 33.4602 133.85 32.7672C132.632 32.0742 131.666 31.1082 130.952 29.8692C130.259 28.6302 129.913 27.2127 129.913 25.6167C129.913 24.0207 130.259 22.6032 130.952 21.3642C131.666 20.1252 132.632 19.1592 133.85 18.4662C135.068 17.7732 136.475 17.4267 138.071 17.4267C140.066 17.4267 141.746 17.9517 143.111 19.0017C144.476 20.0307 145.348 21.4587 145.726 23.2857H141.473C141.263 22.5297 140.843 21.9417 140.213 21.5217C139.604 21.0807 138.88 20.8602 138.04 20.8602C136.927 20.8602 135.982 21.2802 135.205 22.1202C134.428 22.9602 134.039 24.1257 134.039 25.6167C134.039 27.1077 134.428 28.2732 135.205 29.1132C135.982 29.9532 136.927 30.3732 138.04 30.3732C138.88 30.3732 139.604 30.1632 140.213 29.7432C140.843 29.3232 141.263 28.7247 141.473 27.9477H145.726C145.348 29.7117 144.476 31.1292 143.111 32.2002C141.746 33.2712 140.066 33.8067 138.071 33.8067Z" fill="white"/>
<path d="M156.896 33.8067C155.321 33.8067 153.925 33.4707 152.707 32.7987C151.489 32.1267 150.533 31.1817 149.84 29.9637C149.147 28.7457 148.801 27.3387 148.801 25.7427C148.801 24.1257 149.137 22.6872 149.809 21.4272C150.502 20.1672 151.447 19.1907 152.644 18.4977C153.862 17.7837 155.29 17.4267 156.928 17.4267C158.461 17.4267 159.815 17.7627 160.991 18.4347C162.167 19.1067 163.081 20.0307 163.732 21.2067C164.404 22.3617 164.74 23.6532 164.74 25.0812C164.74 25.3122 164.729 25.5537 164.708 25.8057C164.708 26.0577 164.698 26.3202 164.677 26.5932H152.801C152.885 27.8112 153.305 28.7667 154.061 29.4597C154.838 30.1527 155.773 30.4992 156.865 30.4992C157.684 30.4992 158.366 30.3207 158.912 29.9637C159.479 29.5857 159.899 29.1027 160.172 28.5147H164.267C163.973 29.5017 163.48 30.4047 162.787 31.2237C162.115 32.0217 161.275 32.6517 160.267 33.1137C159.28 33.5757 158.156 33.8067 156.896 33.8067ZM156.928 20.7027C155.941 20.7027 155.069 20.9862 154.313 21.5532C153.557 22.0992 153.074 22.9392 152.864 24.0732H160.645C160.582 23.0442 160.204 22.2252 159.511 21.6162C158.818 21.0072 157.957 20.7027 156.928 20.7027Z" fill="white"/>
<path d="M168.131 40.3587V17.8047H171.722L172.163 20.0412C172.667 19.3482 173.328 18.7392 174.147 18.2142C174.987 17.6892 176.069 17.4267 177.392 17.4267C178.862 17.4267 180.174 17.7837 181.329 18.4977C182.484 19.2117 183.398 20.1882 184.07 21.4272C184.742 22.6662 185.078 24.0732 185.078 25.6482C185.078 27.2232 184.742 28.6302 184.07 29.8692C183.398 31.0872 182.484 32.0532 181.329 32.7672C180.174 33.4602 178.862 33.8067 177.392 33.8067C176.216 33.8067 175.187 33.5862 174.305 33.1452C173.423 32.7042 172.709 32.0847 172.163 31.2867V40.3587H168.131ZM176.541 30.2787C177.822 30.2787 178.883 29.8482 179.723 28.9872C180.563 28.1262 180.983 27.0132 180.983 25.6482C180.983 24.2832 180.563 23.1597 179.723 22.2777C178.883 21.3957 177.822 20.9547 176.541 20.9547C175.239 20.9547 174.168 21.3957 173.328 22.2777C172.509 23.1387 172.1 24.2517 172.1 25.6167C172.1 26.9817 172.509 28.1052 173.328 28.9872C174.168 29.8482 175.239 30.2787 176.541 30.2787Z" fill="white"/>
<path d="M195.026 33.4287C193.388 33.4287 192.075 33.0297 191.088 32.2317C190.101 31.4337 189.608 30.0162 189.608 27.9792V21.1752H186.93V17.8047H189.608L190.08 13.6152H193.64V17.8047H197.861V21.1752H193.64V28.0107C193.64 28.7667 193.797 29.2917 194.112 29.5857C194.448 29.8587 195.015 29.9952 195.813 29.9952H197.766V33.4287H195.026Z" fill="white"/>
<path d="M207.78 33.8067C206.394 33.8067 205.176 33.5862 204.126 33.1452C203.076 32.6832 202.236 32.0532 201.606 31.2552C200.976 30.4572 200.598 29.5332 200.472 28.4832H204.536C204.662 29.0922 204.998 29.6172 205.544 30.0582C206.111 30.4782 206.835 30.6882 207.717 30.6882C208.599 30.6882 209.24 30.5097 209.639 30.1527C210.059 29.7957 210.269 29.3862 210.269 28.9242C210.269 28.2522 209.975 27.8007 209.387 27.5697C208.799 27.3177 207.98 27.0762 206.93 26.8452C206.258 26.6982 205.575 26.5197 204.882 26.3097C204.189 26.0997 203.549 25.8372 202.961 25.5222C202.394 25.1862 201.932 24.7662 201.575 24.2622C201.218 23.7372 201.039 23.0967 201.039 22.3407C201.039 20.9547 201.585 19.7892 202.677 18.8442C203.79 17.8992 205.344 17.4267 207.339 17.4267C209.187 17.4267 210.657 17.8572 211.749 18.7182C212.862 19.5792 213.524 20.7657 213.734 22.2777H209.922C209.691 21.1227 208.82 20.5452 207.308 20.5452C206.552 20.5452 205.964 20.6922 205.544 20.9862C205.145 21.2802 204.945 21.6477 204.945 22.0887C204.945 22.5507 205.25 22.9182 205.859 23.1912C206.468 23.4642 207.276 23.7162 208.284 23.9472C209.376 24.1992 210.374 24.4827 211.277 24.7977C212.201 25.0917 212.936 25.5432 213.482 26.1522C214.028 26.7402 214.301 27.5907 214.301 28.7037C214.322 29.6697 214.07 30.5412 213.545 31.3182C213.02 32.0952 212.264 32.7042 211.277 33.1452C210.29 33.5862 209.124 33.8067 207.78 33.8067Z" fill="white"/>
</svg>
