<svg width="220" height="326" viewBox="0 0 1140 326" fill="none" xmlns="http://www.w3.org/2000/svg">
<path d="M162.696 0L303.595 81.3479V244.044L162.696 325.392L21.7974 244.044V81.3479L162.696 0Z" fill="#EC7938"/>
<mask id="mask0_415_8481" style="mask-type:alpha" maskUnits="userSpaceOnUse" x="21" y="0" width="283" height="326">
<path d="M162.696 0L303.595 81.3479V244.044L162.696 325.392L21.7974 244.044V81.3479L162.696 0Z" fill="#FFF8F2"/>
</mask>
<g mask="url(#mask0_415_8481)">
<path d="M183.342 110.335L163.878 86.3294C163.69 86.0976 163.317 86.1958 163.287 86.4926C162.519 93.9494 156.527 152.401 153.325 190.817C149.972 231.046 141.943 366.903 141.943 366.903L245.72 293.924L237.703 198.388C237.693 198.261 237.612 198.152 237.494 198.105L228.499 194.507C228.209 194.391 228.217 193.97 228.512 193.865C232.335 192.509 247.736 186.638 253.755 178.096C259.553 169.868 259.922 154.514 259.845 148.824C259.826 147.45 259.055 146.221 257.858 145.549L232.481 131.314C232.386 131.26 232.323 131.164 232.312 131.056L227.728 86.5256C227.697 86.226 227.317 86.1164 227.132 86.3534L208.339 110.33C208.269 110.419 208.159 110.467 208.046 110.458C206.892 110.358 200.453 109.816 196.175 109.804C191.641 109.791 184.803 110.358 183.629 110.458C183.518 110.468 183.412 110.421 183.342 110.335Z" fill="white"/>
<path d="M249.488 149.724H239.999C238.702 149.724 237.591 150.654 237.363 151.932L236.725 155.508C236.532 156.59 237.02 157.68 237.956 158.257L243.566 161.719C244.642 162.383 246.036 162.204 246.909 161.29L251.425 156.562C251.9 156.064 252.166 155.401 252.166 154.712V152.402C252.166 150.923 250.967 149.724 249.488 149.724Z" fill="#EC7938"/>
<mask id="path-5-outside-1_415_8481" maskUnits="userSpaceOnUse" x="54.3589" y="136.353" width="129" height="226" fill="black">
<rect fill="white" x="54.3589" y="136.353" width="129" height="226"/>
<path d="M152.678 234.514L168.054 352.843H69.6331L83.6733 234.505C83.6858 234.399 83.6471 234.293 83.5689 234.22L64.4655 216.434C64.3544 216.331 64.3268 216.165 64.3985 216.031L79.6419 187.533C79.6644 187.491 79.6777 187.444 79.6808 187.397L82.3074 146.684C82.3258 146.398 82.6702 146.266 82.875 146.465L107.683 170.62C107.755 170.69 107.854 170.724 107.953 170.713C108.933 170.607 114.28 170.044 117.839 170.061C121.159 170.077 126.142 170.612 127.063 170.714C127.159 170.725 127.254 170.694 127.325 170.63L154.129 146.44C154.341 146.249 154.678 146.393 154.688 146.677L156 184.711C156.002 184.763 156.016 184.815 156.041 184.861L173.279 216.022C173.356 216.16 173.325 216.333 173.206 216.436L152.79 234.218C152.706 234.292 152.664 234.403 152.678 234.514Z"/>
</mask>
<path d="M152.678 234.514L168.054 352.843H69.6331L83.6733 234.505C83.6858 234.399 83.6471 234.293 83.5689 234.22L64.4655 216.434C64.3544 216.331 64.3268 216.165 64.3985 216.031L79.6419 187.533C79.6644 187.491 79.6777 187.444 79.6808 187.397L82.3074 146.684C82.3258 146.398 82.6702 146.266 82.875 146.465L107.683 170.62C107.755 170.69 107.854 170.724 107.953 170.713C108.933 170.607 114.28 170.044 117.839 170.061C121.159 170.077 126.142 170.612 127.063 170.714C127.159 170.725 127.254 170.694 127.325 170.63L154.129 146.44C154.341 146.249 154.678 146.393 154.688 146.677L156 184.711C156.002 184.763 156.016 184.815 156.041 184.861L173.279 216.022C173.356 216.16 173.325 216.333 173.206 216.436L152.79 234.218C152.706 234.292 152.664 234.403 152.678 234.514Z" fill="white"/>
<path d="M168.054 352.843V362.149H178.648L177.283 351.644L168.054 352.843ZM152.678 234.514L161.907 233.315L161.906 233.314L152.678 234.514ZM152.79 234.218L158.902 241.236L158.902 241.236L152.79 234.218ZM173.206 216.436L179.318 223.454L179.318 223.454L173.206 216.436ZM173.279 216.022L165.136 220.527L165.136 220.527L173.279 216.022ZM156.041 184.861L164.185 180.356L164.184 180.356L156.041 184.861ZM156 184.711L165.3 184.391L165.3 184.39L156 184.711ZM154.688 146.677L145.388 146.998L145.388 146.998L154.688 146.677ZM154.129 146.44L160.364 153.349L160.364 153.349L154.129 146.44ZM127.325 170.63L133.56 177.538L133.56 177.538L127.325 170.63ZM107.683 170.62L101.191 177.288L101.191 177.288L107.683 170.62ZM82.875 146.465L89.3671 139.798L89.3671 139.798L82.875 146.465ZM82.3074 146.684L91.5942 147.283V147.283L82.3074 146.684ZM79.6808 187.397L70.3939 186.797L70.3939 186.797L79.6808 187.397ZM79.6419 187.533L87.8479 191.922L87.848 191.922L79.6419 187.533ZM64.3985 216.031L56.1925 211.642L56.1925 211.642L64.3985 216.031ZM64.4655 216.434L58.1242 223.245L58.1242 223.245L64.4655 216.434ZM83.5689 234.22L89.9103 227.409L89.9103 227.409L83.5689 234.22ZM83.6733 234.505L74.432 233.408L74.432 233.408L83.6733 234.505ZM69.6331 352.843L60.3918 351.746L59.1576 362.149H69.6331V352.843ZM127.063 170.714L126.039 179.964L126.039 179.964L127.063 170.714ZM117.839 170.061L117.883 160.755H117.883L117.839 170.061ZM107.953 170.713L106.947 161.462L106.947 161.462L107.953 170.713ZM177.283 351.644L161.907 233.315L143.449 235.713L158.826 354.042L177.283 351.644ZM158.902 241.236L179.318 223.454L167.094 209.419L146.678 227.201L158.902 241.236ZM181.422 211.517L164.185 180.356L147.898 189.366L165.136 220.527L181.422 211.517ZM165.3 184.39L163.989 146.356L145.388 146.998L146.699 185.031L165.3 184.39ZM147.895 139.531L121.09 163.721L133.56 177.538L160.364 153.349L147.895 139.531ZM114.175 163.953L89.3671 139.798L76.3829 153.133L101.191 177.288L114.175 163.953ZM73.0206 146.084L70.3939 186.797L88.9676 187.996L91.5942 147.283L73.0206 146.084ZM71.4359 183.144L56.1925 211.642L72.6045 220.421L87.8479 191.922L71.4359 183.144ZM58.1242 223.245L77.2276 241.031L89.9103 227.409L70.8069 209.623L58.1242 223.245ZM74.432 233.408L60.3918 351.746L78.8745 353.939L92.9146 235.601L74.432 233.408ZM69.6331 362.149H168.054V343.537H69.6331V362.149ZM128.088 161.464C127.239 161.37 121.773 160.774 117.883 160.755L117.795 179.367C120.544 179.38 125.045 179.853 126.039 179.964L128.088 161.464ZM117.883 160.755C113.713 160.735 107.849 161.364 106.947 161.462L108.96 179.965C110.018 179.85 114.848 179.353 117.795 179.367L117.883 160.755ZM77.2275 241.031C75.1334 239.082 74.0948 236.25 74.432 233.408L92.9146 235.601C93.2769 232.548 92.1608 229.505 89.9103 227.409L77.2275 241.031ZM56.1925 211.642C54.1289 215.5 54.922 220.264 58.1242 223.245L70.8069 209.623C73.7867 212.398 74.5247 216.831 72.6045 220.421L56.1925 211.642ZM70.3939 186.797C70.4764 185.519 70.8317 184.273 71.4358 183.144L87.848 191.922C88.4972 190.708 88.879 189.37 88.9676 187.996L70.3939 186.797ZM89.3671 139.798C83.4689 134.055 73.5506 137.869 73.0206 146.084L91.5942 147.283C91.101 154.927 81.8715 158.477 76.3829 153.133L89.3671 139.798ZM101.191 177.288C103.252 179.295 106.101 180.276 108.96 179.965L106.947 161.462C109.606 161.173 112.257 162.085 114.175 163.953L101.191 177.288ZM121.09 163.721C122.985 162.011 125.529 161.181 128.088 161.464L126.039 179.964C128.788 180.268 131.522 179.377 133.56 177.538L121.09 163.721ZM163.989 146.357C163.707 138.165 153.979 134.04 147.895 139.531L160.364 153.349C154.702 158.459 145.65 154.621 145.388 146.998L163.989 146.357ZM164.184 180.356C164.869 181.594 165.252 182.976 165.3 184.391L146.699 185.03C146.751 186.55 147.163 188.036 147.898 189.366L164.184 180.356ZM179.318 223.454C182.746 220.469 183.623 215.495 181.422 211.517L165.136 220.527C163.088 216.825 163.905 212.197 167.094 209.419L179.318 223.454ZM161.906 233.314C162.293 236.291 161.166 239.264 158.902 241.236L146.678 227.201C144.245 229.319 143.034 232.514 143.449 235.713L161.906 233.314Z" fill="#EC7938" mask="url(#path-5-outside-1_415_8481)"/>
<path d="M127.733 211.065L128.165 207.806C128.351 206.4 127.062 205.25 125.686 205.594L121.054 206.752C120.703 206.839 120.335 206.831 119.989 206.727L116.409 205.653C115.12 205.266 113.823 206.231 113.823 207.577V210.741C113.823 211.42 114.166 212.053 114.735 212.424L120.391 216.109C121.136 216.595 122.113 216.533 122.79 215.955L127.045 212.33C127.423 212.008 127.668 211.557 127.733 211.065Z" fill="#EC7938"/>
</g>
<path d="M446.248 144.431C446.248 149.419 445.045 154.094 442.641 158.458C440.325 162.822 436.629 166.34 431.553 169.012C426.565 171.684 420.242 173.02 412.583 173.02H396.953V208.822H378.25V115.576H412.583C419.797 115.576 425.942 116.823 431.018 119.316C436.095 121.81 439.88 125.239 442.374 129.603C444.956 133.967 446.248 138.91 446.248 144.431ZM411.781 157.924C416.947 157.924 420.776 156.766 423.27 154.451C425.764 152.046 427.011 148.706 427.011 144.431C427.011 135.347 421.934 130.805 411.781 130.805H396.953V157.924H411.781Z" fill="#383232"/>
<path d="M534.01 170.214C534.01 172.886 533.832 175.291 533.476 177.428H479.372C479.817 182.772 481.687 186.958 484.983 189.986C488.278 193.014 492.33 194.528 497.139 194.528C504.086 194.528 509.029 191.544 511.968 185.577H532.14C530.003 192.702 525.906 198.58 519.85 203.211C513.794 207.753 506.357 210.024 497.54 210.024C490.415 210.024 484.003 208.466 478.303 205.349C472.692 202.142 468.284 197.645 465.077 191.856C461.96 186.067 460.402 179.388 460.402 171.817C460.402 164.158 461.96 157.434 465.077 151.645C468.195 145.856 472.559 141.403 478.169 138.286C483.78 135.169 490.237 133.61 497.54 133.61C504.576 133.61 510.855 135.124 516.376 138.153C521.987 141.181 526.307 145.5 529.335 151.111C532.452 156.633 534.01 163 534.01 170.214ZM514.64 164.871C514.551 160.061 512.814 156.232 509.43 153.382C506.045 150.443 501.904 148.973 497.006 148.973C492.375 148.973 488.456 150.398 485.25 153.248C482.133 156.009 480.218 159.883 479.505 164.871H514.64Z" fill="#383232"/>
<path d="M575.122 150.176V185.978C575.122 188.472 575.7 190.297 576.858 191.455C578.105 192.524 580.153 193.058 583.003 193.058H591.687V208.822H579.931C564.167 208.822 556.285 201.163 556.285 185.844V150.176H547.468V134.813H556.285V116.511H575.122V134.813H591.687V150.176H575.122Z" fill="#383232"/>
<path d="M702.734 133.744C711.818 133.744 719.121 136.549 724.643 142.16C730.254 147.682 733.059 155.43 733.059 165.405V208.822H714.356V167.943C714.356 162.154 712.887 157.746 709.948 154.718C707.009 151.601 703.001 150.042 697.925 150.042C692.848 150.042 688.796 151.601 685.768 154.718C682.829 157.746 681.359 162.154 681.359 167.943V208.822H662.657V167.943C662.657 162.154 661.187 157.746 658.248 154.718C655.309 151.601 651.301 150.042 646.225 150.042C641.06 150.042 636.963 151.601 633.935 154.718C630.996 157.746 629.526 162.154 629.526 167.943V208.822H610.824V134.813H629.526V143.763C631.931 140.646 635.003 138.197 638.744 136.416C642.574 134.635 646.759 133.744 651.301 133.744C657.09 133.744 662.256 134.991 666.798 137.485C671.34 139.889 674.858 143.363 677.352 147.905C679.756 143.63 683.23 140.201 687.772 137.618C692.403 135.035 697.39 133.744 702.734 133.744Z" fill="#383232"/>
<path d="M751.682 171.55C751.682 164.069 753.152 157.434 756.091 151.645C759.119 145.856 763.171 141.403 768.247 138.286C773.413 135.169 779.157 133.61 785.481 133.61C791.002 133.61 795.812 134.724 799.908 136.95C804.094 139.177 807.434 141.982 809.928 145.366V134.813H828.764V208.822H809.928V198.001C807.523 201.475 804.183 204.369 799.908 206.685C795.723 208.911 790.869 210.024 785.347 210.024C779.113 210.024 773.413 208.421 768.247 205.215C763.171 202.009 759.119 197.511 756.091 191.722C753.152 185.844 751.682 179.12 751.682 171.55ZM809.928 171.817C809.928 167.275 809.037 163.401 807.256 160.195C805.475 156.9 803.07 154.406 800.042 152.714C797.014 150.933 793.763 150.042 790.29 150.042C786.817 150.042 783.61 150.888 780.671 152.58C777.732 154.272 775.328 156.766 773.457 160.061C771.676 163.268 770.786 167.097 770.786 171.55C770.786 176.003 771.676 179.922 773.457 183.306C775.328 186.601 777.732 189.14 780.671 190.921C783.699 192.702 786.906 193.593 790.29 193.593C793.763 193.593 797.014 192.747 800.042 191.054C803.07 189.273 805.475 186.78 807.256 183.573C809.037 180.278 809.928 176.359 809.928 171.817Z" fill="#383232"/>
<path d="M874.49 150.176V185.978C874.49 188.472 875.069 190.297 876.227 191.455C877.474 192.524 879.522 193.058 882.372 193.058H891.056V208.822H879.3C863.536 208.822 855.654 201.163 855.654 185.844V150.176H846.837V134.813H855.654V116.511H874.49V134.813H891.056V150.176H874.49Z" fill="#383232"/>
<path d="M978.992 170.214C978.992 172.886 978.813 175.291 978.457 177.428H924.353C924.798 182.772 926.669 186.958 929.964 189.986C933.259 193.014 937.311 194.528 942.121 194.528C949.067 194.528 954.01 191.544 956.949 185.577H977.121C974.984 192.702 970.887 198.58 964.831 203.211C958.775 207.753 951.338 210.024 942.521 210.024C935.396 210.024 928.984 208.466 923.284 205.349C917.673 202.142 913.265 197.645 910.059 191.856C906.942 186.067 905.383 179.388 905.383 171.817C905.383 164.158 906.942 157.434 910.059 151.645C913.176 145.856 917.54 141.403 923.151 138.286C928.761 135.169 935.218 133.61 942.521 133.61C949.557 133.61 955.836 135.124 961.358 138.153C966.968 141.181 971.288 145.5 974.316 151.111C977.433 156.633 978.992 163 978.992 170.214ZM959.621 164.871C959.532 160.061 957.795 156.232 954.411 153.382C951.027 150.443 946.885 148.973 941.987 148.973C937.356 148.973 933.437 150.398 930.231 153.248C927.114 156.009 925.199 159.883 924.487 164.871H959.621Z" fill="#383232"/>
<path d="M1057.1 191.188H1019.96L1013.81 208.956H994.176L1027.71 115.576H1049.48L1083.01 208.956H1063.24L1057.1 191.188ZM1052.02 176.226L1038.53 137.217L1025.04 176.226H1052.02Z" fill="#EC7938"/>
<path d="M1119.94 115.709V208.956H1101.23V115.709H1119.94Z" fill="#EC7938"/>
</svg>
