<svg width="145" height="145" viewBox="0 0 145 145" fill="none" xmlns="http://www.w3.org/2000/svg">
<path d="M144.75 72.4883C144.75 97.109 132.439 118.854 113.638 131.901C101.963 140.002 87.7858 144.75 72.5 144.75C32.5974 144.75 0.25 112.397 0.25 72.4883C0.25 50.876 9.92943 31.3315 25.4856 17.8473C37.6635 6.55795 57.9809 59.3499 79.7596 69.7223C101.538 80.0946 137.299 84.7677 143.176 56.7621C144.035 59.4804 144.75 65.9357 144.75 72.4883Z" fill="#A4C09B"/>
<circle cx="72.5" cy="72.5" r="72.25" fill="#F5FFF2" fill-opacity="0.05"/>
<path d="M144.75 72.5937C144.75 112.443 112.403 144.747 72.5 144.747C32.5974 144.747 0.25 112.443 0.25 72.5937C0.671288 32.7371 16.4723 83.6396 56.2524 83.6412C84.0886 83.6412 126.224 18.1311 140.887 49.4632C144.035 56.3305 144.75 64.5035 144.75 72.5937Z" fill="#2D6F18" fill-opacity="0.4"/>
<path d="M144.748 72.5408C144.748 97.741 131.831 119.926 112.253 132.844C100.85 140.368 87.1862 144.748 72.4991 144.748C32.597 144.748 0.25 112.42 0.25 72.5408C12.3439 47.5796 42.6881 135.213 103.265 132.844C103.265 132.844 137.143 130.352 128.155 96.7249C123.77 67.0789 144.977 74.1853 144.748 72.5408Z" fill="#2D6F18" fill-opacity="0.4"/>
</svg>
