<svg width="163" height="49" viewBox="0 0 163 49" fill="none" xmlns="http://www.w3.org/2000/svg">
<path d="M119 14.75V11.75C119 10.6454 118.105 9.75 117 9.75H91C85.4772 9.75 81 14.2272 81 19.75V36.75C81 42.2728 85.4772 46.75 91 46.75H117C118.105 46.75 119 45.8546 119 44.75V41.75C119 40.6454 118.105 39.75 117 39.75H92C89.7909 39.75 88 37.9591 88 35.75V32.75C88 31.6454 88.8954 30.75 90 30.75H117C118.105 30.75 119 29.8546 119 28.75V25.75C119 24.6454 118.105 23.75 117 23.75H90C88.8954 23.75 88 22.8546 88 21.75V20.75C88 18.5409 89.7909 16.75 92 16.75H117C118.105 16.75 119 15.8546 119 14.75Z" fill="#228642"/>
<path d="M38.5 14.75V11.75C38.5 10.6454 37.6046 9.75 36.5 9.75H10C4.47715 9.75 0 14.2272 0 19.75V36.75C0 42.2728 4.47715 46.75 10 46.75H32C37.5228 46.75 42 42.2728 42 36.75V33.75C42 28.2272 37.5228 23.75 32 23.75H17C15.8954 23.75 15 24.6454 15 25.75V28.25C15 29.3546 15.8954 30.25 17 30.25H29.25C31.8734 30.25 34 32.3766 34 35C34 37.6234 31.8734 39.75 29.25 39.75H13.5C10.1863 39.75 7.5 37.0637 7.5 33.75V22.75C7.5 19.4363 10.1863 16.75 13.5 16.75H36.5C37.6046 16.75 38.5 15.8546 38.5 14.75Z" fill="#228642"/>
<path d="M161 15.25V11.75C161 10.6454 160.105 9.75 159 9.75H132C126.477 9.75 122 14.2272 122 19.75V21.75C122 27.2728 126.477 31.75 132 31.75H152C154.209 31.75 156 33.5409 156 35.75C156 37.9591 154.209 39.75 152 39.75H126C124.895 39.75 124 40.6454 124 41.75V44.75C124 45.8546 124.895 46.75 126 46.75H153C158.523 46.75 163 42.2728 163 36.75V35.25C163 29.7272 158.523 25.25 153 25.25H133C130.791 25.25 129 23.4591 129 21.25C129 19.0409 130.791 17.25 133 17.25H159C160.105 17.25 161 16.3546 161 15.25Z" fill="#228642"/>
<g filter="url(#filter0_i_694_12363)">
<path d="M79 30.75C79 40.415 71.165 48.25 61.5 48.25C51.835 48.25 44 40.415 44 30.75C44 18.3784 57.6657 4.44507 60.8448 1.37109C61.2169 1.01126 61.7831 1.01126 62.1552 1.37109C65.3343 4.44506 79 18.3784 79 30.75Z" fill="url(#paint0_radial_694_12363)"/>
</g>
<g filter="url(#filter1_f_694_12363)">
<path d="M50 20.75C51.8714 16.0713 58.4996 10.25 58.4996 10.25C58.4996 10.25 56.6507 14.7225 56.4996 17.75C56.362 20.508 58.8081 22.3183 57.4996 24.75C56.1749 27.2119 53.3278 29.2978 50.9996 27.75C48.7232 26.2365 49 23.25 50 20.75Z" fill="#FFFEAE"/>
</g>
<g filter="url(#filter2_f_694_12363)">
<path d="M75.0278 36.3038C71.9581 40.3 64.0001 44.1066 64.0001 44.1066C64.0001 44.1066 66.1989 40.2232 68.5 38.25C71.0418 36.0704 70.9993 33.75 70.9993 30.253C70.9993 27.4573 74.1786 25.129 76 27.25C77.781 29.3239 76.668 34.1684 75.0278 36.3038Z" fill="#FFFEAE"/>
</g>
<g filter="url(#filter3_f_694_12363)">
<ellipse cx="58" cy="26.25" rx="5" ry="4.5" fill="#FFFFE2"/>
</g>
<defs>
<filter id="filter0_i_694_12363" x="44" y="-0.898682" width="37" height="49.1487" filterUnits="userSpaceOnUse" color-interpolation-filters="sRGB">
<feFlood flood-opacity="0" result="BackgroundImageFix"/>
<feBlend mode="normal" in="SourceGraphic" in2="BackgroundImageFix" result="shape"/>
<feColorMatrix in="SourceAlpha" type="matrix" values="0 0 0 0 0 0 0 0 0 0 0 0 0 0 0 0 0 0 127 0" result="hardAlpha"/>
<feOffset dx="2" dy="-2"/>
<feGaussianBlur stdDeviation="1.5"/>
<feComposite in2="hardAlpha" operator="arithmetic" k2="-1" k3="1"/>
<feColorMatrix type="matrix" values="0 0 0 0 0.929412 0 0 0 0 0.921569 0 0 0 0 0.301961 0 0 0 1 0"/>
<feBlend mode="normal" in2="shape" result="effect1_innerShadow_694_12363"/>
</filter>
<filter id="filter1_f_694_12363" x="45.2559" y="6.25" width="17.2438" height="26.0315" filterUnits="userSpaceOnUse" color-interpolation-filters="sRGB">
<feFlood flood-opacity="0" result="BackgroundImageFix"/>
<feBlend mode="normal" in="SourceGraphic" in2="BackgroundImageFix" result="shape"/>
<feGaussianBlur stdDeviation="2" result="effect1_foregroundBlur_694_12363"/>
</filter>
<filter id="filter2_f_694_12363" x="60.0001" y="22.4268" width="20.9086" height="25.6799" filterUnits="userSpaceOnUse" color-interpolation-filters="sRGB">
<feFlood flood-opacity="0" result="BackgroundImageFix"/>
<feBlend mode="normal" in="SourceGraphic" in2="BackgroundImageFix" result="shape"/>
<feGaussianBlur stdDeviation="2" result="effect1_foregroundBlur_694_12363"/>
</filter>
<filter id="filter3_f_694_12363" x="48" y="16.75" width="20" height="19" filterUnits="userSpaceOnUse" color-interpolation-filters="sRGB">
<feFlood flood-opacity="0" result="BackgroundImageFix"/>
<feBlend mode="normal" in="SourceGraphic" in2="BackgroundImageFix" result="shape"/>
<feGaussianBlur stdDeviation="2.5" result="effect1_foregroundBlur_694_12363"/>
</filter>
<radialGradient id="paint0_radial_694_12363" cx="0" cy="0" r="1" gradientUnits="userSpaceOnUse" gradientTransform="translate(69.5 16.25) rotate(131.009) scale(30.4795 22.4586)">
<stop stop-color="#FAF634"/>
<stop offset="1" stop-color="#858308"/>
</radialGradient>
</defs>
</svg>
