<svg width="151" height="147" viewBox="0 0 151 147" fill="none" xmlns="http://www.w3.org/2000/svg">
<path d="M49.3886 98.6147C56.0298 105.129 60.8595 112.097 63.342 118.031C64.5849 121.002 65.2 123.619 65.2243 125.737C65.2486 127.844 64.6943 129.3 63.7741 130.238C62.854 131.176 61.4096 131.758 59.3026 131.775C57.1848 131.791 54.5557 131.227 51.5612 130.042C45.5805 127.674 38.52 122.98 31.8788 116.467C25.2377 109.953 20.408 102.984 17.9255 97.0504C16.6826 94.0795 16.0675 91.4617 16.0432 89.344C16.0189 87.2371 16.5732 85.7817 17.4933 84.8436C18.4135 83.9055 19.8579 83.3232 21.9649 83.3066C24.0826 83.29 26.7118 83.8543 29.7063 85.0395C35.687 87.4067 42.7475 92.1008 49.3886 98.6147Z" stroke="#CACC69" stroke-width="4"/>
<path d="M117.232 29.7866C123.874 36.3004 128.703 43.2688 131.186 49.2026C132.429 52.1736 133.044 54.7914 133.068 56.9091C133.092 59.016 132.538 60.4714 131.618 61.4095C130.698 62.3476 129.253 62.9299 127.146 62.9465C125.029 62.9631 122.399 62.3988 119.405 61.2135C113.424 58.8463 106.364 54.1523 99.7226 47.6384C93.0815 41.1245 88.2517 34.1562 85.7693 28.2223C84.5263 25.2513 83.9112 22.6336 83.8869 20.5159C83.8627 18.409 84.417 16.9535 85.3371 16.0155C86.2572 15.0774 87.7016 14.495 89.8086 14.4785C91.9264 14.4619 94.5556 15.0262 97.55 16.2114C103.531 18.5786 110.591 23.2727 117.232 29.7866Z" stroke="#CACC69" stroke-width="4"/>
<path d="M72.6702 75.1297C83.4466 85.6995 91.2813 97.0917 95.2812 106.898C97.2825 111.804 98.2862 116.221 98.283 119.887C98.2799 123.541 97.2844 126.308 95.4399 128.189C93.5954 130.069 90.8475 131.118 87.1947 131.192C83.5294 131.266 79.0937 130.348 74.1495 128.442C64.2681 124.633 52.7265 117.02 41.9502 106.45C31.1739 95.88 23.3391 84.4879 19.3392 74.6819C17.3379 69.7756 16.3342 65.3585 16.3374 61.6924C16.3405 58.0389 17.336 55.2712 19.1805 53.3907C21.025 51.5101 23.773 50.4613 27.4257 50.3875C31.091 50.3134 35.5267 51.2314 40.4709 53.1375C50.3523 56.947 61.8939 64.5598 72.6702 75.1297Z" stroke="#CACC69" stroke-width="4"/>
<path d="M109.049 40.5515C119.825 51.1214 127.66 62.5135 131.66 72.3195C133.661 77.2258 134.665 81.6429 134.662 85.309C134.659 88.9625 133.663 91.7302 131.819 93.6107C129.974 95.4913 127.226 96.5401 123.574 96.6139C119.908 96.688 115.473 95.77 110.528 93.8639C100.647 90.0544 89.1054 82.4416 78.3291 71.8717C67.5528 61.3019 59.718 49.9097 55.7181 40.1038C53.7168 35.1975 52.7131 30.7804 52.7163 27.1143C52.7195 23.4608 53.7149 20.6931 55.5594 18.8125C57.4039 16.932 60.1519 15.8832 63.8046 15.8093C67.4699 15.7352 71.9057 16.6533 76.8498 18.5593C86.7312 22.3688 98.2728 29.9817 109.049 40.5515Z" stroke="#CACC69" stroke-width="4"/>
<path d="M92.445 54.679C105.017 67.0105 114.229 80.253 119.001 91.628C121.389 97.3196 122.626 102.45 122.681 106.71C122.736 110.959 121.621 114.186 119.483 116.365C117.346 118.544 114.142 119.721 109.892 119.748C105.632 119.776 100.479 118.639 94.7419 116.361C83.2767 111.81 69.8585 102.856 57.2861 90.5247C44.7136 78.1932 35.5019 64.9507 30.7297 53.5757C28.3419 47.8841 27.1052 42.7542 27.0503 38.4939C26.9955 34.2443 28.1105 31.0177 30.2476 28.8388C32.3847 26.66 35.5891 25.4827 39.839 25.4553C44.0996 25.4278 49.2525 26.565 54.9892 28.8423C66.4544 33.3935 79.8726 42.3474 92.445 54.679Z" stroke="#CACC69" stroke-width="4"/>
</svg>
