<svg width="199" height="55" viewBox="0 0 199 55" fill="none" xmlns="http://www.w3.org/2000/svg">
<path d="M30.7355 27.8147C30.7355 34.9835 24.2773 39.3253 15.9989 39.3253C10.5974 39.3253 4.27947 37.8511 0 34.8339L3.93038 27.3939C6.38648 29.0802 11.2207 30.7539 14.8052 30.7539C18.9444 30.7539 20.1381 29.7004 20.1381 28.0173C20.1381 26.4589 18.1745 25.7732 13.2623 24.7882C4.13921 22.9618 0.981816 19.1841 0.981816 13.3618C0.981816 5.85323 8.35011 2.20337 15.7184 2.20337C21.1199 2.20337 26.1038 3.25687 30.2337 5.9218L26.6649 13.2215C23.7899 11.6994 20.586 10.9043 17.3329 10.9057C14.1755 10.9057 11.9283 11.7472 11.9283 13.6423C11.9283 15.1852 13.2623 15.9581 18.1028 16.8683C27.2945 18.5545 30.7355 21.9207 30.7355 27.8147Z" fill="#F2F0EE"/>
<path d="M63.0107 27.8148L66.4393 35.3234C61.8762 38.06 57.2445 39.0449 51.3505 39.0449C41.8097 39.0449 33.1074 34.7623 33.1074 26.1317V14.5463C33.1074 6.89746 41.5978 2.19409 50.4404 2.19409C59.5603 2.19409 66.8601 6.82577 66.8601 14.5463V23.9561H44.4871V25.6423C44.4871 28.7997 47.7162 30.006 52.2045 30.006C56.6274 29.9904 60.4861 29.0803 63.0107 27.8148ZM44.5713 14.9047V16.7998H56.3593V14.8361C56.3593 12.2398 53.2019 10.9743 50.4653 10.9743C47.7848 10.9743 44.6991 12.3084 44.5713 14.9047Z" fill="#F2F0EE"/>
<path d="M81.3941 28.728C81.0728 29.1888 80.8792 29.7265 80.8331 30.2864C80.8331 31.4802 81.7463 32.3934 83.4294 32.6739L104.2 35.3389V43.9695C104.2 50.917 97.2528 54.4952 89.0429 54.4952H83.2206C74.805 54.4796 68.5713 51.1819 68.5713 45.0916C68.5713 41.3015 70.4632 38.9856 73.6237 37.5113C71.4419 36.3176 70.4632 34.8464 70.4632 32.5243C70.4632 30.4173 72.0778 27.7524 75.1666 26.2906C71.9999 24.168 70.3791 20.9389 70.3791 16.6594V14.7644C70.3791 6.06518 77.3266 2.20338 86.939 2.20338C89.859 2.16899 92.7607 2.66863 95.5011 3.67766L104.06 0.520264L106.797 7.047L101.676 8.65842C102.809 10.4655 103.394 12.5628 103.359 14.6958V17.3514C103.359 25.9134 96.1899 29.1394 86.939 29.1394C85.0825 29.1554 83.2279 29.0178 81.3941 28.728ZM92.9047 43.3243V41.7659L81.0388 40.516C79.7048 41.0085 79.4242 42.2022 79.4242 43.5331C79.4242 45.2194 81.3193 46.1295 83.5635 46.1295H88.4071C91.4305 46.1295 92.9047 45.0916 92.9047 43.3243ZM81.8866 17.9935C81.8866 20.6584 84.3427 21.5716 86.939 21.5716C89.3951 21.5716 91.8512 20.7301 91.8512 17.9935V15.1166C91.8512 12.5888 89.2549 11.5384 86.939 11.5384C84.3427 11.5384 81.8866 12.5888 81.8866 15.1166V17.9935Z" fill="#F2F0EE"/>
<path d="M162.791 13.2994V38.6302H151.424V16.1888C151.424 12.8911 150.371 11.4885 146.864 11.4885C143.495 11.4885 140.97 13.8729 140.97 16.8901V38.6427H129.603V16.2386C129.603 12.8693 128.549 11.3981 125.18 11.3981C122.023 11.3981 119.358 13.7825 119.358 16.5877V38.6209H107.99V2.83606H116.481L117.394 7.95709C119.217 4.59086 124.052 2.20334 128.2 2.20334C133.461 2.20334 137.601 4.0984 138.654 8.51813C140.337 5.36073 145.53 2.13477 150.498 2.13477C158.792 2.13477 162.791 5.43242 162.791 13.2994Z" fill="#F2F0EE"/>
<path d="M199 14.6241V38.6241H189.818L188.755 35.7409C186.367 38.2687 183.07 38.97 179.142 38.97C170.649 38.97 166.363 34.9711 166.363 28.4443V19.6049L187.773 16.728V14.7644C187.773 12.8007 185.806 11.7472 182.44 11.7472C179.492 11.7472 174.09 13.1498 171.494 14.2033L168.545 6.69479C172.825 4.09843 179.142 2.20337 183.983 2.20337C193.246 2.20337 199 6.3457 199 14.6241ZM187.493 23.4667L177.662 24.8693V27.4656C177.662 29.501 179.22 30.623 182.026 30.623C184.338 30.623 187.499 29.501 187.499 27.3939L187.493 23.4667Z" fill="#F2F0EE"/>
</svg>
