<svg width="74" height="56" viewBox="0 0 74 56" fill="none" xmlns="http://www.w3.org/2000/svg">
<g clip-path="url(#clip0_1594_17457)">
<g clip-path="url(#clip1_1594_17457)">
<path d="M24.2912 22.0364C24.2727 22.7559 24.3615 23.4742 24.5546 24.1676C24.765 24.7602 25.0188 25.3365 25.3137 25.8918C25.4202 26.056 25.4783 26.2469 25.4814 26.4425C25.466 26.5892 25.4169 26.7304 25.338 26.855C25.259 26.9796 25.1524 27.0843 25.0264 27.1609L23.5177 28.1667C23.3358 28.2979 23.1193 28.3728 22.8951 28.3822C22.6224 28.3635 22.3663 28.244 22.1767 28.047C21.8541 27.7002 21.5654 27.3233 21.3147 26.9215C21.0752 26.5144 20.8357 26.0594 20.5723 25.5086C18.7045 27.7117 16.3577 28.8133 13.532 28.8133C11.5205 28.8133 9.91613 28.2385 8.74275 27.0891C7.56937 25.9397 6.9707 24.4071 6.9707 22.4914C6.9707 20.4559 7.6891 18.8036 9.14984 17.5584C10.6106 16.3132 12.5502 15.6906 15.0167 15.6906C15.8662 15.6975 16.7142 15.7615 17.5551 15.8821C18.4411 16.0019 19.3511 16.1934 20.3089 16.409V14.6609C20.3089 12.8409 19.9258 11.5718 19.1834 10.8294C18.4411 10.0871 17.124 9.72788 15.2801 9.72788C14.4087 9.72785 13.5404 9.83237 12.6939 10.0392C11.8136 10.2489 10.9494 10.521 10.1077 10.8534C9.83538 10.9752 9.55541 11.0792 9.26957 11.1647C9.14562 11.2055 9.01677 11.2297 8.88642 11.2365C8.55117 11.2365 8.38355 10.997 8.38355 10.4942V9.32079C8.35787 9.03112 8.41606 8.74017 8.55117 8.48266C8.73182 8.26443 8.9616 8.0921 9.22168 7.97978C10.1821 7.50454 11.1947 7.1429 12.2389 6.90219C13.4591 6.58911 14.7149 6.43616 15.9746 6.4472C18.8242 6.4472 20.9076 7.09376 22.2486 8.38687C23.5896 9.67998 24.2361 11.6436 24.2361 14.2777V22.0364H24.2912ZM14.5689 25.6763C15.409 25.667 16.242 25.5215 17.0354 25.2452C17.9143 24.9414 18.6986 24.413 19.3103 23.7126C19.6963 23.2714 19.975 22.7469 20.1245 22.1801C20.2891 21.498 20.3695 20.7983 20.364 20.0967V19.091C19.6378 18.9142 18.9023 18.7783 18.1609 18.6839C17.4143 18.5891 16.6625 18.5411 15.9099 18.5402C14.3055 18.5402 13.1321 18.8515 12.3419 19.4981C11.5517 20.1446 11.1685 21.0546 11.1685 22.2519C11.1685 23.3774 11.4559 24.2155 12.0545 24.7902C12.6532 25.365 13.4674 25.6763 14.5689 25.6763ZM33.798 28.2625C33.4757 28.2956 33.1523 28.2105 32.888 28.023C32.6374 27.7641 32.4633 27.4409 32.3851 27.0891L26.7505 8.57844C26.6414 8.26869 26.5691 7.94721 26.535 7.62058C26.5232 7.54133 26.5297 7.46042 26.5541 7.38407C26.5784 7.30773 26.6199 7.23797 26.6754 7.18017C26.7309 7.12236 26.7989 7.07804 26.8742 7.05061C26.9495 7.02318 27.0301 7.01336 27.1097 7.02192H29.4565C29.9115 7.02192 30.2228 7.09376 30.3904 7.26139C30.558 7.42901 30.7257 7.74032 30.8693 8.1953L34.8923 24.0479L38.628 8.1953C38.7477 7.71637 38.8914 7.40507 39.083 7.26139C39.3703 7.08552 39.7046 7.00194 40.0408 7.02192H41.9566C42.4116 7.02192 42.7229 7.09376 42.9144 7.26139C43.1649 7.51404 43.3248 7.84236 43.3694 8.1953L47.153 24.2395L51.2957 8.1953C51.3718 7.84778 51.5368 7.52598 51.7746 7.26139C52.0529 7.08504 52.3798 7.00122 52.7086 7.02192H54.9356C55.0168 7.01083 55.0995 7.01867 55.1772 7.04483C55.2549 7.07099 55.3255 7.11477 55.3834 7.17274C55.4414 7.2307 55.4852 7.30129 55.5113 7.37898C55.5375 7.45667 55.5453 7.53936 55.5342 7.62058C55.5286 7.74938 55.5126 7.87751 55.4864 8.00373C55.4488 8.20797 55.3927 8.40836 55.3187 8.60239L49.5476 27.1131C49.4039 27.592 49.2363 27.9033 49.0447 28.047C48.774 28.2202 48.4557 28.304 48.1348 28.2864H46.0754C45.6204 28.2864 45.3091 28.2146 45.1175 28.047C44.8675 27.7844 44.708 27.4488 44.6625 27.0891L40.9508 11.6436L37.2631 27.0652C37.207 27.4217 37.049 27.7543 36.8081 28.023C36.5254 28.2098 36.1875 28.2943 35.8502 28.2625H33.798ZM64.5693 28.909C63.3274 28.9104 62.0896 28.7657 60.8815 28.478C59.6842 28.1906 58.7503 27.8793 58.1277 27.5201C57.8195 27.3748 57.5612 27.1415 57.3853 26.8496C57.2921 26.6383 57.2432 26.4101 57.2416 26.1791V24.9579C57.2416 24.455 57.4332 24.2155 57.7924 24.2155C57.939 24.216 58.0846 24.2403 58.2234 24.2874C58.3671 24.3353 58.5826 24.431 58.8221 24.5268C59.6679 24.8988 60.5509 25.1798 61.4562 25.365C62.3942 25.5553 63.3488 25.6516 64.3059 25.6523C65.8145 25.6523 66.9879 25.3889 67.802 24.8621C68.192 24.6266 68.5127 24.2921 68.7314 23.8925C68.9501 23.4929 69.0591 23.0425 69.0473 22.5872C69.0557 22.2789 69.0028 21.972 68.8919 21.6843C68.7809 21.3966 68.6139 21.1337 68.4007 20.9109C67.9697 20.4559 67.1555 20.0488 65.9821 19.6657L62.5099 18.5881C60.7618 18.0373 59.4687 17.2231 58.6784 16.1455C57.9076 15.1517 57.4866 13.931 57.4811 12.6733C57.4595 11.7468 57.6799 10.8306 58.1205 10.0152C58.5481 9.24487 59.136 8.57525 59.8446 8.05162C60.591 7.48674 61.4353 7.06458 62.3351 6.8064C63.3178 6.52324 64.3369 6.38608 65.3595 6.39931C65.8959 6.39541 66.4319 6.42741 66.9639 6.4951C67.5147 6.56694 68.0176 6.66272 68.5204 6.75851C69.0233 6.8543 69.4544 6.99797 69.8854 7.14165C70.2348 7.24974 70.5719 7.39421 70.8911 7.57269C71.1731 7.71488 71.4188 7.91965 71.6095 8.17135C71.7653 8.40438 71.8409 8.68176 71.8251 8.96159V10.0871C71.8251 10.59 71.6335 10.8534 71.2743 10.8534C70.9553 10.8171 70.6463 10.7196 70.3643 10.566C68.9172 9.92635 67.3486 9.60774 65.7666 9.63209C64.4016 9.63209 63.3241 9.84761 62.5817 10.3026C61.8394 10.7576 61.4562 11.452 61.4562 12.4338C61.4496 12.7518 61.5102 13.0676 61.634 13.3606C61.7578 13.6536 61.942 13.9171 62.1746 14.134C62.6535 14.589 63.5396 15.044 64.8087 15.4511L68.2091 16.5287C69.9333 17.0795 71.1785 17.8457 71.9209 18.8276C72.6518 19.7909 73.0395 20.971 73.0224 22.1801C73.0347 23.1419 72.8215 24.0933 72.3998 24.9579C71.9749 25.7775 71.3787 26.4962 70.6517 27.0652C69.8611 27.6804 68.9583 28.1359 67.9936 28.4062C66.8845 28.7473 65.7297 28.9169 64.5693 28.909Z" fill="#151517"/>
<path fill-rule="evenodd" clip-rule="evenodd" d="M69.0943 40.5485C61.2159 46.3675 49.7695 49.4566 39.9274 49.4566C26.1343 49.4566 13.706 44.356 4.31897 35.879C3.57663 35.2085 4.24713 34.2985 5.13315 34.8253C15.2865 40.7162 27.8105 44.2842 40.7656 44.2842C50.0998 44.2337 59.3328 42.346 67.9377 38.7286C69.2619 38.1299 70.3874 39.5907 69.0943 40.5485Z" fill="#565759"/>
<path fill-rule="evenodd" clip-rule="evenodd" d="M72.375 36.8121C71.3693 35.519 65.7179 36.1895 63.1556 36.5008C62.3893 36.5966 62.2696 35.9261 62.964 35.4232C67.466 32.2622 74.8655 33.1722 75.7275 34.2259C76.5896 35.2795 75.4881 42.7029 71.2735 46.247C70.6269 46.7978 70.0043 46.5104 70.2917 45.792C71.2495 43.4213 73.3808 38.0812 72.375 36.8121Z" fill="#565759"/>
</g>
</g>
<defs>
<clipPath id="clip0_1594_17457">
<rect width="74" height="56" fill="white"/>
</clipPath>
<clipPath id="clip1_1594_17457">
<rect width="72" height="43.0558" fill="white" transform="translate(4 6.40039)"/>
</clipPath>
</defs>
</svg>
