<svg width="112" height="56" viewBox="0 0 112 56" fill="none" xmlns="http://www.w3.org/2000/svg">
<path d="M8.45173 20.0092C8.2981 20.0092 8.14446 19.8555 8.2981 19.7019L9.37354 18.1656C9.52718 18.0119 9.68081 17.8583 9.98808 17.8583H29.3461C29.4997 17.8583 29.6534 18.0119 29.4997 18.1656L28.5779 19.5483C28.4243 19.7019 28.2707 19.8555 27.9634 19.8555L8.45173 20.0092ZM0.30907 24.9255C0.155435 24.9255 0.00179938 24.7719 0.155435 24.6182L1.23088 23.0819C1.38452 22.9283 1.53815 22.7746 1.84542 22.7746H26.5807C26.7343 22.7746 26.8879 22.9283 26.8879 23.0819L26.427 24.6182C26.427 24.7719 26.1198 24.9255 25.9661 24.9255H0.30907ZM13.3681 29.9955C13.2144 29.9955 13.0608 29.8418 13.2144 29.6882L13.9826 28.3055C14.1362 28.1518 14.2899 27.9982 14.5971 27.9982H25.3516C25.5052 27.9982 25.6589 28.1518 25.6589 28.3055L25.5052 29.5346C25.5052 29.6882 25.3516 29.8418 25.198 29.8418L13.3681 29.9955ZM69.5985 18.9337L60.534 21.2383C59.7659 21.3919 59.6122 21.5455 58.9977 20.6237C58.2295 19.7019 57.615 19.0874 56.3859 18.6265C53.0059 16.9365 49.6259 17.3974 46.5532 19.3946C42.866 21.6992 41.0224 25.2328 41.0224 29.6882C41.0224 33.99 44.0951 37.5236 48.3969 38.1381C52.0841 38.599 55.1568 37.3699 57.615 34.6045C58.0759 33.99 58.5368 33.3754 59.1513 32.6073H48.7041C47.6287 32.6073 47.3214 31.8391 47.6287 30.9173C48.3969 29.2273 49.6259 26.4619 50.3941 25.0791C50.5478 24.7719 51.0087 24.1573 51.7768 24.1573H71.4421C71.2885 25.6937 71.2885 27.0764 71.1349 28.6127C70.5203 32.4536 69.1376 36.1409 66.6794 39.2136C62.8386 44.2835 57.7686 47.5099 51.3159 48.4317C45.9387 49.1999 41.0224 48.1244 36.7206 44.8981C32.7261 41.8254 30.4216 37.8309 29.807 32.9145C29.0388 27.0764 30.8825 21.6992 34.4161 17.0901C38.2569 12.0202 43.3269 8.79382 49.6259 7.71837C54.6959 6.79656 59.6122 7.4111 63.914 10.3302C66.8331 12.1738 68.8303 14.7856 70.2131 18.0119C70.3667 18.6265 70.2131 18.7801 69.5985 18.9337Z" fill="#161616"/>
<path d="M87.4193 48.8912C82.503 48.7375 78.0476 47.3548 74.2067 44.1285C70.9804 41.3631 68.9831 37.8294 68.3686 33.6813C67.4468 27.5359 69.1368 22.1587 72.824 17.396C76.8185 12.1724 81.5812 9.56059 88.0339 8.33151C93.5647 7.4097 98.7883 7.8706 103.397 11.0969C107.699 14.016 110.311 18.0105 111.079 23.2341C112.001 30.6086 109.85 36.4467 104.934 41.5167C101.4 45.2039 96.9447 47.3548 92.0284 48.4303C90.3384 48.7375 88.8021 48.7375 87.4193 48.8912ZM100.325 27.075C100.325 26.3068 100.325 25.8459 100.171 25.2314C99.2492 19.8541 94.3329 16.7814 89.1093 18.0105C84.0394 19.086 80.813 22.3123 79.584 27.3823C78.6621 31.5304 80.6594 35.8322 84.5003 37.6758C87.4194 38.9049 90.492 38.7513 93.2575 37.3685C97.7129 35.2177 100.017 31.684 100.325 27.075Z" fill="#161616"/>
</svg>
