<svg width="53" height="36" viewBox="0 0 53 36" fill="none" xmlns="http://www.w3.org/2000/svg">
<g clip-path="url(#clip0_1732_20120)">
<path d="M21.6124 23.7855C20.7799 28.3035 19.6822 31.5905 18.3194 33.6326C17.2574 35.2111 16.0941 36.0003 14.8275 36.0003C14.4895 36.0003 14.0736 35.8986 13.579 35.6966V34.6065C13.8201 34.6428 14.1034 34.661 14.429 34.661C15.0198 34.661 15.4961 34.4982 15.8589 34.1719C16.293 33.7744 16.5101 33.3281 16.5101 32.8332C16.5101 32.4953 16.3403 31.8013 16.0031 30.7519L13.7596 23.7825H15.7678L17.3776 28.9954C17.7396 30.1785 17.8904 31.0048 17.8299 31.4757C18.7113 29.1226 19.326 26.5587 19.6756 23.7869H21.6117M12.7472 32.7984H10.7033C10.6312 29.3464 10.4323 26.1015 10.106 23.0602H10.0893L6.97684 32.7984H5.41954L2.32606 23.0602H2.30785C2.0784 25.9802 1.93418 29.225 1.87372 32.7984H0.00976562C0.12995 28.454 0.432234 24.3828 0.913701 20.582H3.44705L6.39632 29.5571H6.41453L9.382 20.582H11.8061C12.3364 25.034 12.6503 29.1066 12.7457 32.7984" fill="#161616"/>
<path d="M48.8253 32.7959H43.0178V20.5796H44.9721V31.2916H48.8253V32.7945M34.221 30.3505C33.7257 29.554 33.4788 28.2764 33.4788 26.5141C33.4788 23.4378 34.4141 21.8986 36.2831 21.8986C37.2606 21.8986 37.9781 22.2671 38.4363 23.0025C38.9301 23.799 39.1778 25.0664 39.1778 26.8041C39.1778 29.905 38.2425 31.4566 36.3734 31.4566C35.3967 31.4566 34.6785 31.0889 34.221 30.352M41.494 33.0903L39.2491 31.9827C39.4487 31.8185 39.6388 31.6412 39.81 31.4377C40.7642 30.3163 41.2406 28.6572 41.2406 26.4603C41.2406 22.4182 39.6541 20.3965 36.482 20.3965C34.9261 20.3965 33.7134 20.9088 32.8451 21.9357C31.8909 23.0578 31.4153 24.7118 31.4153 26.8949C31.4153 29.0424 31.8377 30.6179 32.6812 31.6186C33.4504 32.5234 34.6136 32.9762 36.1717 32.9762C36.7529 32.9762 37.2861 32.905 37.7705 32.7618L40.6935 34.4638L41.4904 33.0903M30.5645 29.4094C30.5645 30.4457 30.1843 31.296 29.4253 31.9617C28.6663 32.6237 27.6458 32.9565 26.369 32.9565C25.1744 32.9565 24.0163 32.5736 22.8945 31.8156L23.4197 30.7662C24.3848 31.2487 25.2582 31.4893 26.0419 31.4893C26.7776 31.4893 27.353 31.3258 27.7697 31.0024C28.1848 30.6761 28.4347 30.2219 28.4347 29.6456C28.4347 28.9203 27.9285 28.3004 27.0012 27.7801C26.1419 27.3017 25.2858 26.8177 24.4329 26.3281C23.5057 25.6507 23.0402 24.9247 23.0402 23.7285C23.0402 22.7387 23.3869 21.9386 24.0796 21.3303C24.7738 20.7199 25.6697 20.4147 26.7667 20.4147C27.9008 20.4147 28.9315 20.7177 29.8602 21.3216L29.3882 22.3703C28.5942 22.0331 27.8105 21.8638 27.0376 21.8638C26.4112 21.8638 25.9276 22.0149 25.591 22.3172C25.2523 22.6174 25.0433 23.004 25.0433 23.4749C25.0433 24.1987 25.5604 24.8266 26.5139 25.3571C27.3807 25.8273 29.1354 26.828 29.1354 26.828C30.0896 27.5039 30.5652 28.2241 30.5652 29.4108M50.2166 32.7959H50.5407V31.5532H50.9639V31.2989H49.7766V31.5532H50.2166V32.7959ZM52.6807 32.7959H52.9859V31.2989H52.527L52.1533 32.3192L51.7462 31.2989H51.304V32.7959H51.5932V31.6564H51.6092L52.0353 32.7959H52.2553L52.6807 31.6564V32.7959Z" fill="#7E7B78"/>
<path d="M32.5811 0.00731308C32.0647 4.57796e-05 31.6145 0.194082 31.3822 0.764565C30.9837 1.72457 31.9722 2.6686 32.3123 3.15623C32.5629 3.49561 32.8878 3.88005 33.064 4.26304C33.1675 4.51376 33.1973 4.78047 33.3008 5.04573C33.5368 5.69543 33.7575 6.41852 34.0678 7.02461C34.2295 7.33493 34.4065 7.65978 34.6133 7.93884C34.732 8.10235 34.9382 8.17503 34.9826 8.44174C34.7765 8.73606 34.7605 9.17937 34.6432 9.54927C34.1115 11.2171 34.3183 13.2839 35.0708 14.5092C35.3067 14.8777 35.8676 15.6901 36.6208 15.3798C37.2851 15.1146 37.1379 14.273 37.3288 13.5354C37.3732 13.3566 37.3433 13.2396 37.4322 13.1211V13.1517C37.6383 13.5645 37.8459 13.962 38.0375 14.3769C38.4957 15.0993 39.2918 15.8522 39.9561 16.3536C40.3094 16.6204 40.5898 17.0775 41.0326 17.2403V17.1952H41.0035C40.9146 17.0629 40.7821 17.0033 40.6641 16.9009C40.3982 16.6349 40.1039 16.31 39.8971 16.0143C39.2779 15.1887 38.7309 14.273 38.2451 13.3283C38.0084 12.8697 37.8022 12.3683 37.6099 11.9111C37.5218 11.7345 37.5218 11.4678 37.3739 11.3799C37.1518 11.704 36.8276 11.9853 36.6659 12.3821C36.3855 13.018 36.3564 13.7999 36.2522 14.6117C36.1939 14.6269 36.2231 14.6117 36.1939 14.6407C35.7219 14.523 35.5595 14.0361 35.3818 13.6233C34.9389 12.5746 34.8646 10.8908 35.2492 9.68154C35.3512 9.37195 35.7955 8.39813 35.6178 8.10235C35.5289 7.82038 35.2339 7.65905 35.0715 7.4374C34.8658 7.1395 34.6883 6.82324 34.5412 6.49265C34.1872 5.66636 34.0095 4.75068 33.6263 3.92439C33.4493 3.53922 33.1383 3.1417 32.8885 2.78778C32.6073 2.38881 32.2985 2.10829 32.0763 1.63664C32.0035 1.47385 31.9001 1.20787 32.0181 1.03128C32.0465 0.912818 32.1062 0.868488 32.2249 0.838692C32.415 0.676631 32.9621 0.882295 33.1536 0.970956C33.6999 1.19188 34.1573 1.39973 34.614 1.70859C34.8202 1.85684 35.0416 2.13736 35.3075 2.21148H35.6178C36.0898 2.31468 36.6215 2.24055 37.0644 2.37354C37.8459 2.62427 38.5539 2.99344 39.1891 3.39169C41.1439 4.63875 42.7321 6.38086 43.7918 8.44028C43.9695 8.77966 44.0438 9.08998 44.2055 9.44317C44.5158 10.1684 44.8997 10.9061 45.2093 11.6139C45.5188 12.3079 45.8145 13.0165 46.2581 13.5921C46.4781 13.9017 47.3638 14.0644 47.7623 14.2265C48.0573 14.3588 48.5147 14.4772 48.7806 14.6393C49.2832 14.9489 49.7828 15.3035 50.2556 15.6436C50.4916 15.8209 51.2287 16.1894 51.2731 16.4852C50.0931 16.4561 49.1783 16.5738 48.4105 16.8994C48.1898 16.9873 47.8358 16.9873 47.806 17.2679C47.9247 17.3856 47.9385 17.5775 48.0427 17.7402C48.2197 18.036 48.5285 18.4335 48.8097 18.6414C49.12 18.8776 49.4296 19.113 49.7544 19.3194C50.3299 19.6755 50.9788 19.8812 51.539 20.2351C51.8646 20.4415 52.1887 20.7075 52.5136 20.9291C52.6753 21.0469 52.778 21.2394 52.9856 21.3121V21.2671C52.8814 21.1348 52.8523 20.9429 52.7496 20.7947C52.6024 20.6479 52.4546 20.5149 52.3067 20.3674C51.8744 19.7957 51.3571 19.2933 50.7727 18.8776C50.3 18.5513 49.2664 18.108 49.0756 17.5636L49.0457 17.5338C49.3698 17.5041 49.7544 17.3856 50.0647 17.2962C50.5651 17.1632 51.0233 17.193 51.5397 17.0607C51.7757 17.0012 52.0117 16.927 52.2492 16.8551V16.7206C51.9818 16.4561 51.791 16.1007 51.5113 15.85C50.7596 15.201 49.9321 14.5666 49.0763 14.0339C48.6174 13.7389 48.0274 13.5477 47.5408 13.2963C47.3646 13.2076 47.0696 13.164 46.9654 13.0158C46.7003 12.6909 46.5517 12.2636 46.3608 11.8792C45.9246 11.0387 45.521 10.1817 45.151 9.31018C44.8851 8.73461 44.7227 8.15977 44.3985 7.6278C42.8777 5.11768 41.2257 3.59808 38.6879 2.10683C38.1417 1.79652 37.4927 1.66353 36.8 1.50147C36.4299 1.48621 36.0621 1.45787 35.6928 1.44333C35.4561 1.33868 35.2193 1.05816 35.0132 0.925173C34.4873 0.593057 33.4428 0.0189405 32.5826 0.00585938L32.5811 0.00731308ZM36.2216 3.65622C35.971 3.65622 35.7948 3.68674 35.617 3.73035V3.75942H35.6455C35.7642 3.9956 35.971 4.15912 36.1174 4.36551C36.2362 4.6017 36.3396 4.83716 36.4576 5.07334L36.4867 5.04428C36.6943 4.89675 36.7978 4.66056 36.7978 4.30592C36.7082 4.202 36.6943 4.09953 36.62 3.9956C36.5319 3.84881 36.3396 3.77468 36.2216 3.65622Z" fill="#161616"/>
</g>
<defs>
<clipPath id="clip0_1732_20120">
<rect width="53" height="36" fill="white"/>
</clipPath>
</defs>
</svg>
