<svg width="60" height="36" viewBox="0 0 60 36" fill="none" xmlns="http://www.w3.org/2000/svg">
<g clip-path="url(#clip0_1696_29586)">
<path d="M14.1574 9.3942H25.474V10.2884H15.1948V17.0176H24.8611V17.9116H15.1948V25.2997H25.5919V26.1937H14.1574V9.3942ZM26.4879 9.3942H27.6902L33.0184 16.7823L38.4645 9.39409L45.872 0.00976562L33.7021 17.5588L39.9734 26.1937H38.7238L33.0184 18.3352L27.2893 26.1937H26.0634L32.3818 17.5587L26.4879 9.3942ZM40.4212 10.2884V9.39409H53.3175V10.2883H47.3762V26.1936H46.3389V10.2884H40.4212ZM0 9.39409H1.29668L19.1771 35.9911L11.7881 26.1936L1.08445 10.6647L1.03734 26.1938H0L0 9.39409ZM53.213 25.0296C53.001 25.0296 52.8421 24.8666 52.8421 24.6555C52.8421 24.4446 53.001 24.2813 53.213 24.2813C53.4274 24.2813 53.5839 24.4445 53.5839 24.6555C53.5839 24.8664 53.4274 25.0296 53.213 25.0296ZM54.2323 24.0453H54.7874C54.7949 24.3441 55.0144 24.5451 55.3373 24.5451C55.6982 24.5451 55.9025 24.3291 55.9025 23.9248V21.3632H56.4677V23.9272C56.4677 24.6555 56.0439 25.075 55.3424 25.075C54.6838 25.075 54.2323 24.6681 54.2323 24.0452V24.0453ZM57.207 24.0127H57.7671C57.815 24.3567 58.1531 24.5751 58.6402 24.5751C59.0943 24.5751 59.4273 24.3416 59.4273 24.0202C59.4273 23.744 59.2153 23.5782 58.7334 23.4652L58.2641 23.3522C57.6055 23.1989 57.3054 22.8825 57.3054 22.3502C57.3054 21.7048 57.8352 21.2753 58.63 21.2753C59.3692 21.2753 59.9092 21.7047 59.942 22.315H59.3919C59.3389 21.981 59.0462 21.7725 58.6223 21.7725C58.1759 21.7725 57.8782 21.986 57.8782 22.3124C57.8782 22.571 58.0698 22.7193 58.5442 22.8298L58.9453 22.9277C59.6922 23.1011 60 23.4024 60 23.9474C60 24.6405 59.4601 25.075 58.5973 25.075C57.7898 25.075 57.2473 24.6605 57.207 24.0126V24.0127Z" fill="black"/>
</g>
<defs>
<clipPath id="clip0_1696_29586">
<rect width="60" height="36" fill="white"/>
</clipPath>
</defs>
</svg>
