<svg width="35" height="36" viewBox="0 0 35 36" fill="none" xmlns="http://www.w3.org/2000/svg">
<g clip-path="url(#clip0_1696_29583)">
<path d="M34.1652 17.1189C34.5484 17.9891 34.7916 18.9193 34.8911 19.8682C34.9869 20.8171 34.939 21.7774 34.74 22.7113C34.5447 23.6452 34.2057 24.5417 33.7341 25.3668C33.4245 25.9182 33.0597 26.4358 32.6396 26.9122C32.2232 27.3848 31.7589 27.8124 31.2541 28.1874C30.7456 28.5625 30.2039 28.8776 29.6291 29.1364C29.0579 29.3914 28.4609 29.5865 27.8492 29.714C27.5618 30.6217 27.1344 31.4806 26.5816 32.2533C26.0326 33.0259 25.3656 33.7048 24.6065 34.2637C23.8474 34.8263 23.0073 35.2614 22.1155 35.554C21.2238 35.8503 20.2915 35.9966 19.3518 35.9966C18.7291 36.0003 18.1026 35.9328 17.4909 35.8053C16.8829 35.674 16.286 35.4752 15.7148 35.2164C15.1437 34.9576 14.602 34.635 14.0971 34.26C13.596 33.8849 13.1317 33.4535 12.719 32.9772C11.7978 33.1797 10.8544 33.2285 9.92213 33.131C8.98985 33.0297 8.07599 32.7821 7.2174 32.3921C6.3625 32.0057 5.57024 31.4806 4.87379 30.8392C4.17735 30.1979 3.58407 29.4477 3.11609 28.6225C2.80287 28.0712 2.54493 27.4898 2.34963 26.8859C2.15433 26.282 2.02535 25.6594 1.95903 25.0255C1.8927 24.3954 1.89638 23.7578 1.96271 23.1239C2.02904 22.4937 2.16538 21.8711 2.36068 21.2672C1.73425 20.5583 1.21836 19.7519 0.835126 18.8817C0.45558 18.0078 0.20869 17.0814 0.112883 16.1324C0.0133898 15.1835 0.0649787 14.2233 0.260279 13.2893C0.45558 12.3554 0.794592 11.459 1.26626 10.6338C1.57579 10.0824 1.9406 9.56105 2.357 9.08846C2.77339 8.61586 3.24138 8.18827 3.74621 7.81319C4.25104 7.43811 4.79641 7.1193 5.36757 6.86424C5.94242 6.60544 6.53938 6.41415 7.15107 6.28662C7.4385 5.37518 7.86595 4.52 8.415 3.74734C8.96774 2.97468 9.63471 2.29579 10.3938 1.73317C11.1529 1.17431 11.9931 0.739216 12.8848 0.442904C13.7766 0.150343 14.7088 0.000311751 15.6485 0.00406253C16.2712 0.000311751 16.8977 0.064075 17.5094 0.195352C18.1211 0.32663 18.718 0.52167 19.2892 0.780474C19.8603 1.04303 20.402 1.36185 20.9069 1.73692C21.4117 2.11575 21.876 2.54334 22.2887 3.01969C23.2063 2.8209 24.1496 2.77214 25.0819 2.86966C26.0142 2.96718 26.9243 3.21848 27.7829 3.60481C28.6378 3.99489 29.4301 4.51625 30.1265 5.15764C30.823 5.79527 31.4162 6.54167 31.8842 7.3706C32.1974 7.91821 32.4554 8.49958 32.6507 9.10721C32.846 9.71109 32.9786 10.3337 33.0413 10.9676C33.1076 11.6015 33.1076 12.2391 33.0376 12.873C32.9713 13.5069 32.8349 14.1295 32.6396 14.7334C33.2698 15.4423 33.782 16.2449 34.1652 17.1189ZM21.8871 33.131C22.6904 32.7934 23.42 32.2945 24.0354 31.6682C24.6507 31.0418 25.1408 30.2991 25.4725 29.4777C25.8041 28.66 25.9773 27.7824 25.9773 26.8972V18.5329C25.9749 18.5254 25.9724 18.5167 25.9699 18.5067C25.9675 18.4992 25.9638 18.4917 25.9589 18.4842C25.954 18.4767 25.9478 18.4704 25.9405 18.4654C25.9331 18.4579 25.9257 18.4529 25.9184 18.4504L22.9446 16.7025V26.8071C22.9446 26.9084 22.9299 27.0134 22.9041 27.111C22.8783 27.2122 22.8414 27.306 22.7899 27.396C22.7383 27.486 22.6793 27.5686 22.6056 27.6398C22.534 27.7125 22.4535 27.7755 22.3661 27.8274L15.3242 31.9645C15.2653 32.002 15.1658 32.0545 15.1142 32.0845C15.4053 32.3358 15.7222 32.5571 16.0538 32.7521C16.3892 32.9472 16.7355 33.1122 17.0967 33.2472C17.4578 33.3785 17.83 33.4798 18.2058 33.5473C18.5854 33.6148 18.9686 33.6486 19.3518 33.6486C20.2215 33.6486 21.0837 33.4723 21.8871 33.131ZM5.117 27.4523C5.5555 28.2212 6.13404 28.8888 6.82312 29.4289C7.51588 29.9691 8.30077 30.3629 9.14093 30.5917C9.98109 30.8205 10.8581 30.8805 11.7204 30.7642C12.5826 30.6479 13.4117 30.3629 14.1672 29.9203L21.2864 25.7382L21.3048 25.7194C21.3097 25.7144 21.3134 25.7069 21.3159 25.6969C21.3208 25.6894 21.3245 25.6819 21.3269 25.6744V22.1487L12.7337 27.2085C12.6453 27.261 12.5532 27.2985 12.4574 27.3285C12.3579 27.3548 12.2584 27.366 12.1552 27.366C12.0557 27.366 11.9562 27.3548 11.8567 27.3285C11.7609 27.2985 11.6651 27.261 11.5767 27.2085L4.53478 23.0676C4.47214 23.0301 4.38002 22.9738 4.32843 22.9401C4.2621 23.3264 4.22893 23.7165 4.22893 24.1066C4.22893 24.4967 4.26578 24.8867 4.33211 25.2731C4.39844 25.6557 4.50162 26.0345 4.63059 26.4021C4.76325 26.7696 4.92538 27.1222 5.117 27.4598V27.4523ZM3.26717 11.8115C2.83235 12.5804 2.5523 13.4281 2.43806 14.3058C2.32383 15.1835 2.38279 16.0724 2.60757 16.9313C2.83235 17.7865 3.21927 18.5854 3.7499 19.2906C4.28052 19.992 4.94012 20.5809 5.69185 21.0234L12.8074 25.2093C12.8148 25.2118 12.8234 25.2143 12.8332 25.2168H12.859C12.8688 25.2168 12.8774 25.2143 12.8848 25.2093C12.8922 25.2068 12.8995 25.2031 12.9069 25.1981L15.8917 23.4427L7.29847 18.3941C7.21372 18.3416 7.13265 18.2779 7.05895 18.2066C6.98755 18.1337 6.92563 18.0518 6.8747 17.9628C6.8268 17.8728 6.78627 17.779 6.76047 17.6777C6.73468 17.5802 6.71994 17.479 6.72362 17.3739V8.85591C6.3625 8.99094 6.01243 9.15597 5.68079 9.35101C5.34915 9.5498 5.03593 9.77485 4.74114 10.0262C4.45003 10.2775 4.17735 10.555 3.93046 10.8551C3.68357 11.1514 3.46616 11.474 3.27454 11.8115H3.26717ZM27.7092 17.6027C27.7977 17.6552 27.8787 17.7153 27.9524 17.7903C28.0224 17.8615 28.0851 17.9441 28.1367 18.0341C28.1846 18.1241 28.2251 18.2216 28.2509 18.3191C28.273 18.4204 28.2878 18.5217 28.2841 18.6267V27.1447C29.4669 26.7021 30.4987 25.9257 31.2615 24.9055C32.0279 23.8853 32.4886 22.6663 32.5954 21.391C32.7023 20.1158 32.4517 18.833 31.8695 17.6965C31.2873 16.56 30.3992 15.6148 29.3085 14.9772L22.1929 10.7913C22.1855 10.7888 22.1769 10.7863 22.1671 10.7838H22.1413C22.1339 10.7863 22.1253 10.7888 22.1155 10.7913C22.1081 10.7938 22.1008 10.7976 22.0934 10.8026L19.1234 12.5504L27.7166 17.6027H27.7092ZM30.6756 13.0643H30.6719V13.068L30.6756 13.0643ZM30.6719 13.0605C30.8856 11.8003 30.7419 10.5025 30.2555 9.321C29.7728 8.13951 28.9658 7.12305 27.934 6.38789C26.9022 5.65649 25.6862 5.2364 24.4296 5.18014C23.1694 5.12763 21.9239 5.43894 20.8332 6.07658L13.7176 10.2587C13.7102 10.2637 13.7041 10.27 13.6992 10.2775L13.6844 10.3C13.682 10.3075 13.6795 10.3162 13.6771 10.3262C13.6746 10.3337 13.6734 10.3425 13.6734 10.3525V13.8482L22.2666 8.79589C22.355 8.74338 22.4508 8.70588 22.5467 8.67587C22.6461 8.64961 22.7456 8.63836 22.8451 8.63836C22.9483 8.63836 23.0478 8.64961 23.1473 8.67587C23.2431 8.70588 23.3352 8.74338 23.4237 8.79589L30.4655 12.9368C30.5282 12.9743 30.6203 13.0268 30.6719 13.0605ZM12.052 9.18973C12.052 9.08846 12.0668 8.98718 12.0925 8.88591C12.1183 8.78839 12.1552 8.69087 12.2068 8.60085C12.2584 8.51459 12.3173 8.43207 12.391 8.35705C12.461 8.28579 12.5421 8.22202 12.6305 8.17327L19.6724 4.03615C19.7387 3.99489 19.8309 3.94238 19.8825 3.91613C18.917 3.09471 17.7378 2.5696 16.4887 2.40831C15.2395 2.24328 13.9719 2.44582 12.8332 2.98968C11.6909 3.53355 10.7254 4.39998 10.0511 5.4802C9.37676 6.56418 9.01933 7.81694 9.01933 9.09971V17.464C9.02178 17.474 9.02424 17.4827 9.0267 17.4902C9.02915 17.4977 9.03284 17.5052 9.03775 17.5127C9.04266 17.5202 9.0488 17.5277 9.05617 17.5352C9.06109 17.5402 9.06846 17.5452 9.07828 17.5502L12.052 19.2981V9.18973ZM13.666 20.2433L17.4946 22.4937L21.3233 20.2433V15.7461L17.4983 13.4956L13.6697 15.7461L13.666 20.2433Z" fill="#161616"/>
</g>
<defs>
<clipPath id="clip0_1696_29583">
<rect width="35" height="36" fill="white"/>
</clipPath>
</defs>
</svg>
