<svg xmlns="http://www.w3.org/2000/svg" viewBox="0 0 24 24" id="redux"><path d="M17 17c-1.103 0-2-.897-2-2s.897-2 2-2 2 .897 2 2-.897 2-2 2zm0-3a1.001 1.001 0 0 0 0 2 1.001 1.001 0 0 0 0-2z"></path><path d="M5.316 23.983c-1.534 0-2.887-.465-3.861-1.438-2.44-2.439-1.757-7.231 1.624-11.395a.5.5 0 1 1 .777.631c-3.002 3.696-3.73 8.02-1.693 10.057 2.338 2.338 7.415 1.069 11.314-2.828a15.715 15.715 0 0 0 2.346-2.975.5.5 0 1 1 .856.518 16.715 16.715 0 0 1-2.495 3.164c-2.759 2.758-6.105 4.266-8.868 4.266z"></path><path d="M6.453 18.327a1.985 1.985 0 0 1-1.414-.586 1.986 1.986 0 0 1-.586-1.414c0-.535.208-1.037.586-1.414.753-.755 2.071-.757 2.828 0 .378.377.586.879.586 1.414 0 .534-.208 1.036-.586 1.414s-.88.586-1.414.586zm0-3c-.267 0-.518.104-.707.293s-.293.439-.293.707c0 .267.104.518.293.707a1.025 1.025 0 0 0 1.414 0 .993.993 0 0 0 .293-.707 1.001 1.001 0 0 0-1-1z"></path><path d="M6.067 15.382a.499.499 0 0 1-.485-.381A16.782 16.782 0 0 1 5.109 11c0-6.065 3.14-11 7-11 3.452 0 6.356 3.871 6.908 9.205a.5.5 0 0 1-.995.104C17.533 4.571 14.991 1 12.109 1c-3.309 0-6 4.486-6 10 0 1.301.149 2.566.444 3.763a.499.499 0 0 1-.486.619z"></path><path d="M10.487 11.163a2.003 2.003 0 0 1-1.87-2.718 1.977 1.977 0 0 1 1.055-1.109 1.994 1.994 0 0 1 2.639 1.016 1.99 1.99 0 0 1 .039 1.53 1.984 1.984 0 0 1-1.055 1.109 1.977 1.977 0 0 1-.808.172zm-.003-3a.995.995 0 0 0-.406.087.99.99 0 0 0-.527.555c-.096.249-.089.521.02.765s.305.432.554.527c.25.097.522.09.766-.02a.99.99 0 0 0 .527-.555.995.995 0 0 0-.574-1.292 1.024 1.024 0 0 0-.36-.067zm-.609-.37h.01-.01z"></path><path d="M16.615 24.004c-1.258 0-2.608-.181-3.998-.557a.5.5 0 1 1 .261-.965c4.595 1.245 8.842.154 9.877-2.535 1.188-3.087-2.032-7.21-7.178-9.19a15.682 15.682 0 0 0-3.671-.938.5.5 0 1 1 .126-.993c1.303.165 2.617.5 3.904.996 5.661 2.179 9.138 6.882 7.752 10.483-.905 2.359-3.642 3.698-7.073 3.699z"></path></svg>